<?xml version="1.0" encoding="UTF-8" standalone="no"?>
<svg xmlns="http://www.w3.org/2000/svg" height="33px" width="135px" version="1.1" xmlns:xlink="http://www.w3.org/1999/xlink" viewBox="0 0 135 33"><!-- Generator: Sketch 42 (36781) - http://www.bohemiancoding.com/sketch -->
 <title>Group 16</title>
 <desc>Created with Sketch.</desc>
 <g id="Page-1" fill-rule="evenodd" fill="none">
  <g id="who_we_are" fill="#303030" transform="translate(-753 -1861)">
   <g id="Group-16" transform="translate(753 1861)">
    <path id="Fill-1" d="m52.29 23.848l-1.832 8.548h-4.213l6.961-30.973 4.992 0.0002 6.549 30.973h-4.259l-1.786-8.548h-6.412zm5.908-3.446l-1.42-7.399c-0.412-2.114-0.824-4.8702-1.145-7.0769h-0.183c-0.32 2.2519-0.778 5.1009-1.191 7.0769l-1.465 7.399h5.404z"/>
    <path id="Fill-2" d="m80.83 0.59594v26.055c0 1.701 0.091 4.183 0.184 5.745h-3.711l-0.274-2.711h-0.138c-0.732 1.562-2.427 3.079-4.671 3.079-4.121 0-6.641-4.505-6.641-11.443 0-7.905 3.344-11.626 6.87-11.626 1.786-0.0004 3.206 0.827 3.985 2.528h0.091v-11.627l4.305-0.00006zm-4.305 17.968c0-0.414 0-0.92-0.045-1.379-0.23-2.022-1.374-3.769-2.932-3.769-2.702 0-3.618 3.769-3.618 7.905 0 4.595 1.191 7.812 3.481 7.812 0.961 0 2.244-0.505 2.977-3.171 0.092-0.367 0.137-0.919 0.137-1.424v-5.974z"/>
    <path id="Fill-3" d="m91.084 32.764c-4.442 0-7.648-3.815-7.648-11.489 0-8.134 3.802-11.58 7.877-11.58 4.397-0.0004 7.557 3.952 7.557 11.489 0 8.868-4.351 11.58-7.739 11.58h-0.047zm0.138-3.4c2.656 0 3.25-4.734 3.25-8.136 0-3.353-0.594-8.133-3.341-8.133-2.84 0-3.39 4.78-3.39 8.133 0 3.724 0.641 8.136 3.435 8.136h0.046z"/>
    <path id="Fill-4" d="m101.46 0.59594h4.31v11.994h0.09c1.14-2.022 2.7-2.8954 4.67-2.8954 3.8 0 6.18 4.3194 6.18 11.167 0 7.996-3.25 11.902-6.91 11.902-2.2 0-3.44-1.196-4.4-3.172h-0.18l-0.23 2.804h-3.71c0.09-1.517 0.18-4.044 0.18-5.745v-26.055-0.00006zm4.31 23.895c0 0.507 0.04 1.011 0.18 1.38 0.69 2.712 2.02 3.262 2.89 3.262 2.56 0 3.52-3.4 3.52-7.996 0-4.274-1-7.721-3.57-7.721-1.42 0-2.56 1.701-2.88 3.31-0.1 0.459-0.14 1.057-0.14 1.516v6.249z"/>
    <path id="Fill-5" d="m123.07 22.102c0.04 5.745 2.52 7.169 5.13 7.169 1.55 0 2.88-0.368 3.84-0.828l0.64 3.125c-1.32 0.69-3.34 1.058-5.31 1.058-5.59 0-8.52-4.227-8.52-11.121 0-7.306 3.35-11.81 7.97-11.81 4.63-0.0004 6.78 4.457 6.78 10.064 0 1.103-0.05 1.792-0.09 2.389l-10.44-0.046zm6.45-3.079c0.05-3.952-1.32-6.066-3.02-6.066-2.24 0-3.25 3.263-3.39 6.066h6.41z"/>
    <polyline id="Fill-6" points="21.984 1.5044 34.843 1.5044 34.843 32.396 21.984 1.5044"/>
    <polyline id="Fill-7" points="12.925 1.5044 0.056301 1.5044 0.056301 32.396 12.925 1.5044"/>
    <polyline id="Fill-8" points="17.455 12.889 25.648 32.396 20.28 32.396 17.829 26.183 11.832 26.183 17.455 12.889"/>
    <path id="Fill-9" d="m133.24 9.6364c0.54 0 0.97 0.4426 0.97 0.9946 0 0.561-0.43 0.998-0.98 0.998-0.54 0-0.98-0.437-0.98-0.998 0-0.552 0.44-0.9946 0.98-0.9946h0.01zm-0.01 0.1555c-0.44 0-0.79 0.3751-0.79 0.8391 0 0.472 0.35 0.843 0.8 0.843 0.43 0.004 0.79-0.371 0.79-0.839s-0.36-0.8431-0.79-0.8431h-0.01zm-0.18 1.4171h-0.18v-1.109c0.09-0.012 0.18-0.026 0.31-0.026 0.17 0 0.28 0.036 0.35 0.084 0.06 0.048 0.1 0.123 0.1 0.229 0 0.146-0.1 0.235-0.22 0.27v0.009c0.1 0.017 0.16 0.105 0.19 0.269 0.02 0.172 0.05 0.239 0.07 0.274h-0.19c-0.03-0.035-0.05-0.136-0.07-0.283-0.03-0.141-0.1-0.194-0.24-0.194h-0.12v0.477zm0-0.614h0.12c0.15 0 0.27-0.053 0.27-0.19 0-0.097-0.07-0.194-0.27-0.194-0.05 0-0.09 0.004-0.12 0.008v0.376z"/>
    <path id="Fill-10" d="m36.538 1.5044c0.541 0 0.973 0.4427 0.973 0.9941 0 0.5615-0.432 0.9981-0.977 0.9981-0.541 0-0.982-0.4366-0.982-0.9981 0-0.5514 0.441-0.9941 0.982-0.9941h0.004zm-0.004 0.1554c-0.435 0-0.792 0.3753-0.792 0.8387 0 0.4726 0.357 0.8433 0.796 0.8433 0.441 0.0046 0.793-0.3707 0.793-0.8387s-0.352-0.8433-0.793-0.8433h-0.004zm-0.184 1.417h-0.177v-1.1083c0.093-0.013 0.181-0.026 0.313-0.026 0.167 0 0.277 0.0344 0.343 0.0835 0.066 0.0482 0.102 0.124 0.102 0.2297 0 0.1456-0.097 0.2344-0.216 0.2689v0.0092c0.097 0.0176 0.162 0.1057 0.184 0.2696 0.027 0.1723 0.053 0.2382 0.071 0.2734h-0.185c-0.026-0.0352-0.053-0.1371-0.074-0.2818-0.028-0.1425-0.097-0.1946-0.238-0.1946h-0.123v0.4764zm0-0.6143h0.127c0.145 0 0.268-0.052 0.268-0.1899 0-0.0973-0.07-0.1946-0.268-0.1946-0.057 0-0.097 0.0054-0.127 0.0092v0.3753z"/>
   </g>
  </g>
 </g>
</svg>
