<?xml version="1.0" encoding="UTF-8"?>
<svg width="140px" height="56px" viewBox="0 0 140 56" version="1.1" xmlns="http://www.w3.org/2000/svg" xmlns:xlink="http://www.w3.org/1999/xlink">
    <!-- Generator: Sketch 51.3 (57544) - http://www.bohemiancoding.com/sketch -->
    <title>bake</title>
    <desc>Created with Sketch.</desc>
    <defs></defs>
    <g id="Page-1" stroke="none" stroke-width="1" fill="none" fill-rule="evenodd">
        <g id="bake" fill="#303030" fill-rule="nonzero">
            <path d="M31.119,43.1621 C29.119,43.4621 27.319,43.1621 25.42,42.4621 C24.119,41.9621 23.72,41.0621 24.119,39.7621 C24.42,38.5621 24.72,37.4621 24.92,36.5621 L26.019,31.6621 C26.319,30.2621 27.22,29.5621 28.72,29.8621 C34.619,31.0621 35.72,35.2621 35.92,36.3621 C36.42,39.1621 35.019,42.4621 31.119,43.1621 M12.319,45.3621 C11.619,46.0621 10.72,46.6621 9.7204,46.8621 C8.6194,47.0621 7.2204,46.7621 6.9204,45.3621 C6.6194,44.1621 7.5194,43.0621 9.3194,42.7621 C10.119,42.6621 10.819,42.6621 11.619,42.9621 C12.92,43.2621 13.22,44.4621 12.319,45.3621 M40.019,26.9621 C38.92,26.0621 38.92,25.5621 40.119,24.6621 C42.019,23.1621 44.92,19.9621 43.92,14.5621 C42.619,7.1622 35.42,2.4621 25.119,4.3621 C12.819,6.4622 6.319,16.4621 7.92,25.1621 C8.4204,27.8621 9.5194,30.0621 10.42,31.5621 C11.319,32.9621 12.619,33.0621 13.72,31.8621 L15.519,30.0621 C16.819,28.6621 16.92,27.8621 16.119,26.1621 C15.72,25.4621 15.42,24.6621 15.319,23.8621 C14.519,19.4621 18.119,12.6621 26.319,11.1621 C32.119,10.1622 35.319,12.6622 35.92,16.0621 C36.72,20.6621 32.22,23.3621 28.72,23.4621 C28.319,23.4621 27.619,23.1621 27.92,22.2621 C28.319,21.0621 28.72,19.9621 29.22,19.1621 C30.519,17.0621 30.619,16.7621 29.519,14.7621 C28.72,13.3621 27.42,12.9622 26.019,13.5621 C22.019,15.3621 19.819,19.2621 19.119,22.4621 L16.22,36.0621 C15.92,37.4621 15.22,37.7621 13.92,37.3621 C11.92,36.7621 10.119,36.6621 8.1194,37.0621 C1.0194,38.3621 -0.4806,43.5621 0.1194,47.0621 C0.8194,50.8621 4.5194,54.9621 11.1194,53.7621 C14.7204,53.1621 17.3194,51.3621 19.2204,48.9621 C20.2204,47.7621 21.0194,47.5621 22.4204,48.2621 C26.7204,50.1621 30.7204,51.2621 34.6194,50.5621 C42.9204,49.0621 45.5194,41.1621 44.4204,34.9621 C43.7204,30.8621 41.6194,28.3621 40.0194,26.9621" id="Fill-1"></path>
            <path d="M63.119,25.6621 L61.819,31.6621 C61.619,32.5621 61.019,33.9621 60.519,34.5621 C59.72,35.6621 58.619,36.6621 57.22,36.9621 C56.22,37.1621 55.5194,36.7621 55.3194,35.4621 C54.7204,32.4621 56.819,23.3621 60.619,22.6621 C61.42,22.4621 62.119,22.8621 62.519,23.3621 C62.92,23.8621 63.22,24.9621 63.119,25.6621 M118.519,16.3621 C119.319,14.3621 120.72,11.7621 122.92,11.3621 C124.619,11.0621 124.42,12.5621 124.319,13.5621 C123.819,15.6621 123.019,17.4621 120.019,18.0621 C118.72,18.3621 118.119,17.4621 118.519,16.3621 M136.319,14.8621 C133.819,21.9621 128.819,25.9621 123.619,26.9621 C120.22,27.5621 118.619,26.5621 117.92,25.4621 C117.319,24.5621 117.819,23.4621 118.92,23.3621 C128.22,22.5621 131.42,18.5621 132.519,14.0621 C134.519,5.6622 128.119,3.0621 122.119,4.1622 C113.073,5.7712 109.32,13.5511 108.6,20.0682 C106.201,26.3912 102.678,30.4702 100.119,30.9622 C98.22,31.4622 97.319,30.2622 96.92,28.9622 C96.519,27.7622 96.819,26.9622 98.019,26.3622 C100.319,25.1622 102.319,22.5622 103.22,19.4622 C103.42,18.8622 104.72,14.4622 104.22,11.8622 C103.72,9.4622 101.72,7.7623 98.119,8.3623 C95.319,8.8623 92.92,10.5622 91.42,11.8622 C90.619,12.5622 90.119,12.2622 90.319,11.2622 L92.22,2.1623 C92.519,0.5623 91.819,-0.2377 90.119,0.0623 L86.319,0.7623 C84.42,1.0623 83.519,1.8623 83.119,3.7623 L78.384,25.9493 C75.889,32.4573 73.338,35.7753 71.519,36.0623 C70.72,36.2623 69.72,35.8623 71.019,29.4623 L73.819,15.9623 C74.119,14.4623 73.42,13.9623 72.019,14.6623 L66.72,17.4623 C65.019,18.3623 64.519,18.3623 63.119,17.0623 C62.019,16.0623 60.22,15.1623 57.319,15.6623 C47.22,17.4623 45.72,33.5623 46.72,39.0623 C47.3194,42.8623 50.0194,45.6623 54.0194,44.9623 C56.819,44.4623 59.019,42.3623 60.319,40.8623 C61.319,39.7623 61.72,39.7623 62.72,40.7623 C63.72,41.8623 65.72,42.9623 68.819,42.3623 C71.55,41.9073 73.829,40.4673 75.768,38.4003 C75.674,39.7013 76.386,40.3333 77.92,40.0623 L81.72,39.3623 C83.619,39.0623 84.519,38.2623 84.92,36.3623 L87.819,22.8623 C88.019,21.7623 88.619,20.5623 89.319,19.6623 C90.72,17.8623 92.019,16.9623 93.119,16.7623 C94.019,16.6623 94.319,16.9623 94.519,17.8623 C94.619,18.6623 94.619,19.0623 94.519,19.7623 C93.72,24.6623 90.819,25.1623 89.519,25.3623 C88.319,25.5623 87.72,26.3623 87.92,28.8623 C88.619,35.1623 93.42,37.9623 98.119,37.1623 C102.75,36.3453 106.635,32.0973 109.307,27.6063 C110.961,31.9323 115.149,34.1753 121.819,32.9623 C132.22,31.1623 137.42,23.3623 139.819,16.5623 C140.519,14.5623 137.019,12.8623 136.319,14.8623" id="Fill-4"></path>
            <path d="M110.32,36.5625 C110.82,35.7615 110.82,35.6625 110.421,34.8625 C110.12,34.2615 109.62,34.1625 109.02,34.3625 C108.52,34.5625 108.12,34.8625 107.72,35.2615 C107.12,35.7615 106.62,36.0625 105.921,36.4615 C101.7196,38.6625 98.2196,40.1625 98.8196,43.7615 C99.2196,45.662 100.7196,46.862 102.8196,46.862 C103.5196,46.862 103.8196,46.562 103.7196,45.862 L103.6196,45.062 C103.5196,44.2615 103.4206,44.1625 102.6196,43.9615 C102.3196,43.8625 102.0196,43.6625 101.9206,43.1625 C101.7196,42.0625 103.0196,41.2615 105.22,40.1625 C105.72,39.9615 105.921,40.0625 105.82,40.5625 L104.4206,46.962 C103.7196,49.962 102.6196,51.962 100.8196,52.362 C99.9206,52.562 98.8196,51.962 98.6196,50.962 C98.6196,50.562 98.6196,49.762 99.5196,49.362 C100.3196,48.962 100.5196,48.762 100.3196,47.862 L100.2196,47.062 C100.1196,46.362 99.7196,46.062 99.0196,46.262 C96.4206,46.862 95.2196,49.162 95.6196,51.462 C96.0196,53.662 98.0196,55.762 101.5196,55.162 C103.8196,54.762 106.52,53.262 107.62,48.062 L109.72,37.962 C109.82,37.3625 110.12,36.8625 110.32,36.5625" id="Fill-7"></path>
            <path d="M133.22,41.662 C132.32,44.362 130.32,45.962 128.22,46.462 C127.62,46.562 126.02,46.762 125.82,45.362 C125.62,44.062 126.42,40.662 128.02,40.362 C128.52,40.262 128.52,40.662 128.12,42.362 C127.92,42.962 128.22,43.262 128.82,43.162 L130.42,42.862 C131.12,42.762 131.52,42.362 131.62,41.662 C132.22,38.462 130.42,36.962 127.62,37.462 C124.2,38.07 122.69,41.105 122.38,43.67 C121.39,46.393 120.31,47.764 119.62,47.862 C119.22,47.962 118.92,47.662 119.42,45.262 L119.92,42.962 C120.12,41.862 120.22,41.162 120.12,40.662 C119.92,39.662 119.12,39.062 117.72,39.262 C116.72,39.462 115.82,39.962 115.22,40.462 C114.22,41.262 114.62,41.162 113.32,40.962 L112.22,40.762 C111.52,40.662 111.12,40.962 111.02,41.662 L109.02,50.862 C108.92,51.462 109.12,51.762 109.82,51.662 L111.32,51.362 C112.02,51.262 112.32,50.862 112.52,50.162 L113.72,44.862 C113.82,44.462 114.02,43.962 114.32,43.662 C114.92,42.962 115.42,42.662 115.82,42.562 C116.12,42.462 116.42,42.562 116.42,42.862 C116.52,43.162 116.32,44.062 116.12,45.062 L116.02,45.362 C115.22,49.162 116.42,50.762 118.62,50.362 C120.39,50.079 121.7,48.683 122.71,46.8 C123.39,48.383 125,49.184 127.62,48.762 C131.62,48.062 133.72,45.062 134.62,42.362 C134.82,41.562 133.52,40.862 133.22,41.662" id="Fill-10"></path>
            <path d="M136.72,42.362 C135.42,42.662 134.62,43.862 134.82,45.062 C135.12,46.362 136.22,47.162 137.52,46.962 C138.82,46.761 139.62,45.562 139.42,44.261 C139.22,42.962 138.02,42.162 136.72,42.362" id="Fill-12"></path>
        </g>
    </g>
</svg>