<?xml version="1.0" encoding="UTF-8" standalone="no"?>
<svg xmlns="http://www.w3.org/2000/svg" height="70px" width="126px" version="1.1" xmlns:xlink="http://www.w3.org/1999/xlink" viewBox="0 0 126 70"><!-- Generator: Sketch 42 (36781) - http://www.bohemiancoding.com/sketch -->
 <title>Group 22</title>
 <desc>Created with Sketch.</desc>
 <g id="Page-1" fill-rule="evenodd" fill="none">
  <g id="who_we_are" fill="#303030" transform="translate(-757 -1980)">
   <g id="Group-22" transform="translate(757 1980)">
    <path id="Fill-1" d="m3.9933 65.562c-1.0353 0-1.9858-0.589-2.4065-1.22-0.405 0.294-0.75963 0.631-1.143 0.967h-0.31447c0.08328-1.029 0.12348-3.175 0.12348-4.732v-3.009c0-1.516-0.01723-3.684-0.12348-4.797 0.25415 0.061 0.48533 0.084 0.75959 0.084 0.25418 0 0.48388-0.023 0.82138-0.084-0.1235 0.906-0.1451 4.145-0.2083 6.227h0.0201c0.7611-1.156 1.6456-1.747 2.8489-1.747 2.3017 0 3.4002 1.852 3.4002 3.894 0 2.586-1.647 4.417-3.7779 4.417m0.0417-7.597c-1.4374 0-2.5976 0.969-2.5976 3.727 0 2.186 0.8659 3.344 2.4497 3.344 1.3713 0 2.4065-1.557 2.4065-3.891 0.0187-2.065-1.0783-3.18-2.2586-3.18"/>
    <path id="Fill-2" d="m12.541 57.274c2.365 0 3.462 1.554 3.462 3.406 0 0.212-0.02 0.422-0.02 0.632-1.205-0.021-2.385-0.063-3.59-0.063-0.739 0-1.477 0.02-2.194 0.063-0.021 0.146-0.021 0.295-0.021 0.463 0 1.747 1.032 3.073 2.912 3.073 0.887 0 1.922-0.526 2.513-1.199l0.084 0.062-0.084 0.821c-0.674 0.547-1.752 1.01-2.789 1.01-2.404 0-4.0721-1.705-4.0721-3.893-0.023-2.693 1.3501-4.375 3.7991-4.375m-2.277 3.406c0.673 0.023 1.476 0.064 2.172 0.064 0.74 0 1.521-0.018 2.239-0.064 0-1.198-0.294-2.902-2.05-2.902-1.668 0.021-2.299 1.683-2.361 2.902"/>
    <path id="Fill-3" d="m17.441 58.219c1.012-0.756 1.794-0.968 2.7-0.968 1.626 0 2.726 0.968 2.726 2.462 0 1.243-0.066 2.462-0.066 3.872 0 0.546 0 1.22 0.633 1.22 0.088 0 0.254 0 0.34-0.064v0.356c-0.252 0.087-0.634 0.255-1.077 0.255-0.697 0-1.098-0.464-1.163-1.03-0.801 0.797-1.497 1.22-2.637 1.22-1.142 0-2.239-0.801-2.239-2.04 0-1.348 0.889-2.044 2.366-2.296 2.405-0.399 2.51-0.526 2.51-1.157 0-1.135-0.484-2.102-1.833-2.102-0.888 0-1.711 0.419-2.113 1.133h-0.191v-0.861h0.044zm4.136 2.987c-1.161 0.401-3.482 0.275-3.482 2.084 0 1.032 0.697 1.577 1.478 1.577 0.866 0 1.584-0.545 1.961-1.156l0.043-2.505z"/>
    <path id="Fill-4" d="m24.659 60.072c0-0.799-0.02-1.706-0.02-2.652 0.254 0.065 0.486 0.086 0.698 0.086 0.211 0 0.462-0.021 0.676-0.086-0.085 1.305-0.149 2.988-0.149 4.628 0 1.157 0.252 1.704 0.527 2.022 0.297 0.335 0.804 0.606 1.437 0.606 0.948 0 1.561-0.46 1.856-1.07 0.338-0.694 0.338-0.864 0.338-3.47 0-0.887 0-1.917-0.023-2.739 0.256 0.066 0.467 0.088 0.699 0.088 0.253 0 0.464-0.022 0.675-0.088-0.085 1.749-0.128 3.283-0.128 5.072 0 0.967 0.022 1.957 0.065 2.903-0.211-0.063-0.422-0.083-0.633-0.083s-0.422 0.02-0.634 0.083c0.021-0.484 0.021-0.967 0.021-1.431h-0.021c-0.591 1.032-1.562 1.58-2.597 1.58-1.752 0-2.787-1.011-2.787-2.736-0.02-1.114 0-1.893 0-2.713"/>
    <path id="Fill-5" d="m35.195 55.211h0.084c-0.062 0.82-0.084 1.644-0.127 2.462 0.253 0 1.016-0.021 1.774-0.064-0.022 0.127-0.022 0.253-0.022 0.338 0 0.124 0 0.252 0.022 0.337-0.592-0.021-1.373-0.021-1.774-0.021-0.021 0.146-0.126 2.775-0.126 4.227 0 1.241 0.02 2.504 1.35 2.504 0.191 0 0.55-0.064 0.761-0.127v0.4c-0.401 0.125-0.866 0.254-1.288 0.254-1.37 0-2.049-0.8-2.049-2.085 0-1.218 0.086-2.71 0.129-5.217-0.339 0-0.699 0-1.142 0.022 0.023-0.127 0.023-0.254 0.023-0.399 0-0.129-0.023-0.212-0.023-0.336 0.486 0.02 0.866 0.062 1.099 0.062-0.022-0.421-0.022-1.158-0.065-1.852l1.374-0.505"/>
    <path id="Fill-6" d="m37.855 57.42c0.252 0.065 0.528 0.086 0.759 0.086 0.254 0 0.527-0.021 0.761-0.086 0.675 2.105 1.561 4.187 2.47 6.396 0.908-1.914 1.838-4.291 2.513-6.396 0.189 0.065 0.357 0.086 0.547 0.086 0.191 0 0.358-0.021 0.549-0.086-0.612 1.219-4.686 10.1-5.382 12.351-0.191-0.065-0.401-0.086-0.592-0.086s-0.4 0.021-0.591 0.086c0.887-1.476 1.625-2.927 2.238-4.356-0.719-2.019-2.827-6.923-3.272-7.995"/>
    <path id="Fill-7" d="m54.89 57.274c2.367 0 3.464 1.554 3.464 3.406 0 0.212-0.02 0.422-0.02 0.632-1.205-0.021-2.387-0.063-3.59-0.063-0.738 0-1.476 0.02-2.197 0.063v0.463c0 1.747 1.035 3.073 2.915 3.073 0.884 0 1.92-0.526 2.511-1.199l0.085 0.062-0.085 0.821c-0.675 0.547-1.752 1.01-2.786 1.01-2.408 0-4.073-1.705-4.073-3.893-0.045-2.693 1.329-4.375 3.776-4.375m-2.301 3.406c0.679 0.023 1.48 0.064 2.176 0.064 0.738 0 1.52-0.018 2.237-0.064 0-1.198-0.295-2.902-2.049-2.902-1.667 0.021-2.3 1.683-2.364 2.902"/>
    <path id="Fill-8" d="m65.046 57.42c0.211 0.065 0.401 0.086 0.592 0.086 0.19 0 0.358-0.021 0.592-0.086-1.077 1.219-2.093 2.398-3.083 3.598 1.012 1.472 2.089 2.923 3.251 4.354-0.276-0.063-0.593-0.083-0.869-0.083-0.272 0-0.587 0.02-0.863 0.083-0.738-1.135-1.519-2.251-2.322-3.406-0.824 1.135-1.628 2.25-2.386 3.406-0.19-0.063-0.359-0.083-0.549-0.083-0.191 0-0.402 0.02-0.592 0.083 1.077-1.302 2.091-2.587 3.083-3.891-0.972-1.345-2.026-2.693-3.083-4.061 0.296 0.065 0.592 0.086 0.888 0.086s0.591-0.021 0.887-0.086c0.632 1.072 1.35 2.084 2.111 3.114 0.843-1.03 1.604-2.042 2.343-3.114"/>
    <path id="Fill-9" d="m67.622 62.283c0-1.519-0.02-3.685-0.126-4.84 0.253 0.063 0.484 0.083 0.758 0.083 0.253 0 0.486-0.02 0.761-0.083-0.086 0.59-0.126 1.093-0.126 1.637h0.02c0.337-0.694 1.142-1.787 2.807-1.787 1.71 0 3.422 1.222 3.422 4.084 0 2.839-1.86 4.205-3.61 4.205-1.226 0-2.114-0.588-2.639-1.641h-0.023v1.032c0 1.514 0.023 3.684 0.128 4.798-0.254-0.065-0.487-0.086-0.76-0.086-0.254 0-0.485 0.021-0.761 0.086 0.085-1.138 0.129-3.261 0.129-4.798l0.02-2.69zm3.714-4.318c-1.792 0-2.47 1.623-2.47 3.516 0 2.294 0.867 3.472 2.45 3.472s2.364-1.579 2.364-3.598c-0.041-2.671-1.266-3.39-2.344-3.39z"/>
    <path id="Fill-10" d="m80.054 57.274c2.325 0 3.465 1.554 3.465 3.406 0 0.212-0.023 0.422-0.023 0.632-1.203-0.021-2.386-0.063-3.587-0.063-0.739 0-1.479 0.02-2.197 0.063-0.023 0.146-0.023 0.295-0.023 0.463 0 1.747 1.037 3.073 2.915 3.073 0.888 0 1.922-0.526 2.513-1.199l0.083 0.062-0.083 0.821c-0.675 0.547-1.753 1.01-2.787 1.01-2.405 0-4.074-1.705-4.074-3.893-0.023-2.693 1.372-4.375 3.798-4.375m-2.278 3.406c0.675 0.023 1.477 0.064 2.175 0.064 0.738 0 1.519-0.018 2.237-0.064 0-1.198-0.296-2.902-2.047-2.902-1.669 0.021-2.301 1.683-2.365 2.902"/>
    <path id="Fill-11" d="m88.879 58.808c-0.124-0.124-0.485-0.272-0.824-0.272-1.072 0-1.708 1.008-1.708 2.314 0 2.902 0 3.786 0.063 4.542-0.21-0.062-0.464-0.083-0.675-0.083-0.253 0-0.465 0.021-0.697 0.083 0.064-0.819 0.064-2.102 0.064-3.995v-0.547c0-0.861 0-2.022-0.064-3.453 0.253 0.063 0.466 0.088 0.697 0.088 0.211 0 0.465-0.022 0.675-0.088-0.085 0.802-0.085 1.201-0.085 1.623l0.022 0.02c0.636-1.198 1.435-1.789 2.196-1.789 0.212 0 0.295 0.023 0.549 0.085-0.126 0.273-0.126 0.904-0.126 1.348l-0.087 0.124"/>
    <path id="Fill-12" d="m91.331 53.677c0.462 0 0.864 0.398 0.864 0.86 0 0.463-0.402 0.864-0.864 0.864-0.466 0-0.868-0.401-0.868-0.864 0-0.462 0.402-0.86 0.868-0.86m-0.614 6.857c0-1.009-0.023-2.168-0.126-3.114 0.253 0.065 0.485 0.086 0.76 0.086 0.254 0 0.486-0.021 0.759-0.086-0.084 0.946-0.126 2.105-0.126 3.114v1.749c0 1.007 0.023 2.163 0.126 3.109-0.252-0.062-0.485-0.083-0.759-0.083-0.254 0-0.486 0.021-0.76 0.083 0.083-0.946 0.126-2.102 0.126-3.109v-1.749"/>
    <path id="Fill-13" d="m97.39 57.274c2.364 0 3.46 1.554 3.46 3.406 0 0.212-0.02 0.422-0.02 0.632-1.204-0.021-2.387-0.063-3.591-0.063-0.738 0-1.476 0.02-2.192 0.063-0.023 0.146-0.023 0.295-0.023 0.463 0 1.747 1.034 3.073 2.913 3.073 0.888 0 1.921-0.526 2.513-1.199l0.08 0.062-0.08 0.821c-0.675 0.547-1.755 1.01-2.787 1.01-2.407 0-4.075-1.705-4.075-3.893-0.04-2.693 1.351-4.375 3.802-4.375m-2.302 3.406c0.675 0.023 1.478 0.064 2.173 0.064 0.738 0 1.52-0.018 2.24-0.064 0-1.198-0.297-2.902-2.051-2.902-1.667 0.021-2.278 1.683-2.362 2.902"/>
    <path id="Fill-14" d="m105.98 58.136c-1.56 0-2.26 1.01-2.26 2.734v1.428c0 1.013 0.02 2.17 0.13 3.117-0.25-0.063-0.49-0.085-0.76-0.085-0.26 0-0.49 0.022-0.76 0.085 0.08-0.947 0.13-2.104 0.13-3.117v-1.743c0-1.011-0.02-2.169-0.13-3.112 0.25 0.063 0.48 0.083 0.76 0.083 0.15 0 0.42-0.02 0.67-0.083-0.02 0.459-0.06 0.881-0.06 1.345h0.02c0.62-0.946 1.48-1.495 2.7-1.495 1.23 0 2.66 0.609 2.66 2.903 0 0.949-0.06 1.958-0.06 3.072 0 0.737 0 1.43 0.02 2.17-0.25-0.066-0.46-0.086-0.7-0.086-0.25 0-0.46 0.02-0.67 0.086 0.02-1.222 0.13-2.443 0.13-3.726v-1.072c0.02-1.6-0.72-2.504-1.82-2.504"/>
    <path id="Fill-15" d="m114.76 57.274c1.23 0 2.26 0.335 2.71 0.736-0.15 0.336-0.28 0.694-0.36 1.093h-0.13c-0.29-0.588-1.1-1.304-2.13-1.304-2.03 0-2.85 1.557-2.85 3.598 0 2.294 1.03 3.47 2.91 3.47 0.89 0 1.92-0.525 2.51-1.199l0.09 0.063c-0.06 0.274-0.09 0.549-0.09 0.821-0.67 0.545-1.75 1.01-2.78 1.01-1.93 0-4.08-1.157-4.08-4.144-0.06-2.903 2.05-4.144 4.2-4.144"/>
    <path id="Fill-16" d="m122.32 57.274c2.37 0 3.46 1.554 3.46 3.406 0 0.212-0.02 0.422-0.02 0.632-1.2-0.021-2.38-0.063-3.59-0.063-0.74 0-1.48 0.02-2.19 0.063-0.02 0.146-0.02 0.295-0.02 0.463 0 1.747 1.03 3.073 2.91 3.073 0.89 0 1.92-0.526 2.51-1.199l0.09 0.062-0.09 0.821c-0.67 0.547-1.75 1.01-2.78 1.01-2.41 0-4.08-1.705-4.08-3.893-0.04-2.693 1.35-4.375 3.8-4.375m-2.3 3.406c0.67 0.023 1.48 0.064 2.17 0.064 0.74 0 1.52-0.018 2.24-0.064 0-1.198-0.29-2.902-2.05-2.902-1.67 0.021-2.28 1.683-2.36 2.902"/>
    <path id="Fill-17" d="m85.418 10.146c-5.596-0.6299-14.97-1.7446-22.418-1.7446-7.455 0-16.827 1.0918-22.421 1.7446 5.594 0.631 14.966 1.747 22.421 1.747 7.448 0 16.822-1.116 22.418-1.747"/>
    <path id="Fill-18" d="m63 16.355c-9.732 0-21.451 1.514-28.268 2.438 6.817 0.904 18.536 2.441 28.268 2.441 9.751 0 21.445-1.472 28.266-2.441-6.821-0.987-18.515-2.438-28.266-2.438"/>
    <path id="Fill-19" d="m75.663 0.91323c-3.904 0.58527-8.78 0.96587-12.663 0.96587-3.907 0-8.786-0.4021-12.667-0.96587 2.935 1.4696 7.808 2.922 12.667 2.922 4.855 0 9.751-1.4724 12.663-2.922"/>
    <path id="Fill-20" d="m40.579 36.571c5.594 0.631 14.966 1.744 22.421 1.744 7.448 0 16.822-1.091 22.418-1.744-5.596-0.632-14.97-1.746-22.418-1.746-7.475-0.021-16.827 1.074-22.421 1.746"/>
    <path id="Fill-21" d="m63 30.365c9.731 0 21.445-1.515 28.266-2.44-6.821-0.884-18.535-2.441-28.266-2.441-9.755 0-21.451 1.474-28.268 2.441 6.817 0.968 18.513 2.44 28.268 2.44"/>
    <path id="Fill-22" d="m50.333 45.785c3.881-0.587 8.78-0.966 12.667-0.966 3.904 0 8.782 0.398 12.663 0.966-2.932-1.471-7.808-2.923-12.663-2.923-4.878 0.021-9.755 1.452-12.667 2.923"/>
   </g>
  </g>
 </g>
</svg>
