<?xml version="1.0" encoding="UTF-8" standalone="no"?>
<svg xmlns="http://www.w3.org/2000/svg" height="67px" width="306px" version="1.1" xmlns:xlink="http://www.w3.org/1999/xlink" viewBox="0 0 306 67"><!-- Generator: Sketch 43 (38999) - http://www.bohemiancoding.com/sketch -->
 <title>Group</title>
 <desc>Created with Sketch.</desc>
 <g id="Page-1" fill-rule="evenodd" fill="none">
  <g id="Group" fill="#303030">
   <path id="Fill-1" d="m20.525 31.395c-0.95 7.011 4.558 15.901 15.79 16.079 11.192 0.172 18.981-6.806 21.87-14.048 2.882-7.255 2.163-16.812-2.922-22.985-5.124-6.2129-13.58-9.847-22.352-9.847-18.177 0-32.911 14.728-32.911 32.905s14.734 32.911 32.911 32.911c18.171 0 32.898-14.734 32.898-32.911 0-1.953-0.164-3.872-0.488-5.732 0 0-0.844 3.575-1.616 5.89-0.771 2.302-4.874 10.197-11.093 14.635-7.822 5.58-17.412 6.959-26.059 3.898-10.493-3.72-13.27-11.865-13.527-18.606-0.257-6.733 3.641-13.421 8.726-16.64 5.078-3.225 10.816-3.924 16.033-2.48 5.211 1.438 8.192 5.521 8.884 9.069 0.7 3.621-0.237 7.314-2.229 9.946-1.517 2.025-4.445 3.225-7.486 2.638-3.172-0.613-3.818-4.017-3.396-6.028 0.705-3.337-0.884-6.239-4.861-6.668-3.733-0.409-7.413 2.302-8.172 7.974"/>
   <path id="Fill-4" d="m96.102 35.266c-0.159-3.113-2.361-5.679-5.415-5.679-3.219 0-5.362 2.302-5.896 5.679h11.311zm-11.311 5.085c0.164 3.812 2.361 6.325 6.219 6.325 2.196 0 4.34-1.016 5.197-3.047h8.523c-1.66 6.424-7.619 9.214-13.832 9.214-9.056 0-15.216-5.468-15.216-14.794 0-8.521 6.807-14.629 15.005-14.629 9.963 0 14.953 7.506 14.523 16.931h-20.419z"/>
   <path id="Fill-6" d="m162.61 30.39c-4.02 0-5.31 3.535-5.31 6.965 0 3.271 1.5 6.536 5.25 6.536 3.87 0 5.53-3.001 5.53-6.49 0-3.535-1.39-7.011-5.47-7.011zm14.09 18.613c0 4.557-0.86 13.705-13.88 13.705-6.79 0-12.59-2.361-13.66-9.807h9.12c0.2 1.233 0.7 4.029 4.75 4.029 4.35 0 4.89-3.746 4.89-7.169v-1.827h-0.11c-1.92 1.919-4.45 2.929-7.4 2.929-8.41 0-12.22-6.009-12.22-13.831 0-7.394 4.35-13.613 12.22-13.613 3.33 0 5.06 0.745 7.45 3.139h0.11v-2.341h8.73v24.786z"/>
   <path id="Fill-8" d="m225.71 35.266c-0.16-3.113-2.35-5.679-5.41-5.679-3.22 0-5.36 2.302-5.9 5.679h11.31zm-11.31 5.085c0.17 3.812 2.36 6.325 6.22 6.325 2.2 0 4.34-1.016 5.2-3.047h8.52c-1.66 6.424-7.61 9.214-13.83 9.214-9.05 0-15.22-5.468-15.22-14.794 0-8.521 6.81-14.629 15.01-14.629 9.96 0 14.95 7.506 14.52 16.931h-20.42z"/>
   <path id="Fill-10" d="m290.6 47.22c4.34 0 5.78-2.467 5.57-8.205-1.29 0.805-3.65 0.963-5.63 1.497-2.03 0.488-3.75 1.346-3.75 3.542 0 2.249 1.76 3.166 3.81 3.166zm-11.8-14.424c0.16-3.641 1.88-6.002 4.34-7.447 2.47-1.391 5.68-1.925 8.85-1.925 6.59 0 12.97 1.437 12.97 9.319v12.169c0 2.361 0 4.926 1.07 7.123h-9.17c-0.27-0.594-0.41-1.069-0.53-1.471-2.22 1.985-5.85 2.282-9.17 2.282-5.3 0-9.48-2.685-9.48-8.416 0-9.062 9.86-8.363 16.18-9.649 1.56-0.323 2.42-0.858 2.42-2.572 0-2.091-2.52-2.896-4.4-2.896-2.52 0-4.13 1.128-4.55 3.483h-8.53z"/>
   <path id="Fill-13" d="m261.28 48.598v-13.547c0-2.704-2.19-4.913-4.9-4.913-2.7 0-4.9 2.209-4.9 4.913v16.984h-8.71v-16.067c0-7.38 6.23-12.472 13.61-12.472s13.61 5.092 13.61 12.472l-0.01 8.944c0 2.361 0 4.926 1.07 7.123h-9.15c-0.37-0.963-0.62-2.025-0.62-3.437"/>
   <path id="Fill-15" d="m132.02 24.239h9.17c-1.07 2.203-1.07 4.775-1.07 7.13v8.95c0 7.38-6.24 12.465-13.61 12.465-7.38 0-13.61-5.085-13.61-12.465v-16.08h8.7v16.997c0 2.697 2.2 4.907 4.91 4.907 2.7 0 4.9-2.21 4.9-4.907v-13.554c0-1.405 0.24-2.48 0.61-3.443"/>
   <path id="Fill-17" d="m196.48 44.914c0 2.355 0 4.927 1.08 7.123h-9.58c-0.37-0.963-0.61-2.031-0.61-3.436v-32.529h9.11v28.842z"/>
  </g>
 </g>
</svg>
