<svg width="50" height="67" viewBox="0 -4 50 100" xmlns="http://www.w3.org/2000/svg"><title>pin</title><path d="M49.969 24.984c0-13.8-11.187-24.984-24.984-24.984-13.798 0-24.984 11.185-24.984 24.984l.017.296c-.033.531-.046 1.83.366 3.929.366 2.132.993 4.17 1.859 6.082 2.79 7.023 8.986 17.535 22.744 31.297v.037l.021-.019.017.019v-.037c13.983-13.993 20.148-24.612 22.865-31.632.733-1.676 1.276-3.444 1.626-5.286.662-3.079.454-4.685.454-4.685zm-24.947 12.492c-6.9 0-12.492-5.592-12.492-12.492 0-6.9 5.592-12.492 12.492-12.492 6.896 0 12.492 5.592 12.492 12.492 0 6.9-5.597 12.492-12.492 12.492z" fill="#000" fill-rule="nonzero">
  <animatetransform attributename="transform" attributetype="xml" calcMode="spline" begin="0s" dur="2s" repeatcount="indefinite" type="translate" values="0,20;0,-4;0,20" keyTimes="0;0.4;1" keySplines="0 0.5 0.5 1;0.5 0 1 0.5"/></path></svg>