<?xml version="1.0" encoding="UTF-8" standalone="no"?>
<!-- Generator: Adobe Illustrator 21.0.0, SVG Export Plug-In . SVG Version: 6.00 Build 0)  -->
<svg id="レイヤー_1" style="enable-background:new 0 0 76 52" xmlns="http://www.w3.org/2000/svg" xml:space="preserve" viewBox="0 0 76 52" version="1.1" y="0px" x="0px" xmlns:xlink="http://www.w3.org/1999/xlink">
<style type="text/css">
	.st0{fill:#303030;}
</style>
	<path class="st0" d="m39.3 41.1c0.1-0.6 0.3-1.1 0.4-1.7 0.2-1 0.4-2.1 0.6-3.1 0.1-0.4 0.3-0.7 0.7-0.7 0.4-0.1 0.7 0.1 0.8 0.4 0.5 0.8 0.9 1.7 1.3 2.5 0.1 0.1 0.1 0.2 0.2 0.2 0.2 0 0.1-0.2 0.1-0.3 0.1-0.7 0.3-1.4 0.4-2.1 0.1-0.6 0.6-0.9 1.1-0.7 0.4 0.1 0.6 0.4 0.5 0.8-0.3 1.6-0.7 3.2-1 4.8-0.1 0.4-0.4 0.7-0.7 0.7-0.4 0.1-0.7-0.2-0.9-0.5-0.4-0.8-0.9-1.6-1.3-2.4l-0.2-0.2 0.2 0.2c-0.2 0.8-0.3 1.5-0.5 2.3-0.1 0.3-0.3 0.6-0.7 0.6-0.3 0.1-0.6 0-0.8-0.3-0.1-0.1-0.1-0.3-0.2-0.5"/>
	<path class="st0" d="m53.8 41.2c0.1-0.6 0.2-1.2 0.4-1.8l0.6-3c0.1-0.4 0.3-0.7 0.7-0.7 0.4-0.1 0.7 0.1 0.8 0.4 0.5 0.8 0.9 1.7 1.3 2.5l0.1 0.2 0.1 0.1 0.1-0.1c0.1-0.7 0.3-1.5 0.4-2.2 0.1-0.6 0.6-0.9 1.1-0.8s0.6 0.5 0.5 0.9c-0.3 1.4-0.6 2.7-0.9 4.1-0.1 0.3-0.1 0.7-0.3 1-0.4 0.5-1.1 0.4-1.5-0.2-0.4-0.8-0.8-1.6-1.3-2.4l0.1-0.4-0.1 0.2c-0.2 0.8-0.3 1.5-0.5 2.3-0.1 0.3-0.3 0.6-0.7 0.6-0.3 0.1-0.6 0-0.8-0.3-0.1-0.1-0.1-0.2-0.1-0.4"/>
	<path class="st0" d="m66.4 45.7c-0.5 0-0.5 0-0.6 0.5-0.2 0.7-0.3 1.5-0.5 2.2s0 0.8 0.7 0.6l0.2-0.1c0.9-0.3 1.2-1.1 1.4-2 0.1-0.8-0.3-1.2-1.2-1.2zm-1.3 4.8h-1.1c-0.4-0.1-0.7-0.4-0.6-0.8 0.3-1.6 0.7-3.2 1-4.7 0.1-0.4 0.4-0.6 0.7-0.7 0.7 0 1.5-0.1 2.2 0.1 1.3 0.3 1.9 1.4 1.8 2.7-0.1 0.9-0.4 1.7-1 2.4-0.6 0.6-1.2 1-2.1 1.1-0.3-0.1-0.6-0.1-0.9-0.1z"/>
	<path class="st0" d="m53.8 49.1c0.2 0 0.4 0 0.6-0.1 0.9-0.4 1.5-1.8 1.2-2.8-0.1-0.2-0.2-0.4-0.5-0.5-0.4-0.1-0.8-0.1-1.1 0.2-0.7 0.4-1.2 1.6-1.1 2.4 0.1 0.6 0.3 0.8 0.9 0.8zm1-4.9c1.8-0.1 2.8 1.6 2.5 3.1-0.2 1.1-0.7 2-1.6 2.6-1 0.7-2.5 0.9-3.5 0.1-0.6-0.4-0.9-1-0.9-1.7-0.1-1.7 0.7-3 2.2-3.8 0.4-0.2 0.8-0.3 1.3-0.3z"/>
	<path class="st0" d="m60.4 46.8c0.6 0 1-0.3 1-0.7 0-0.3-0.2-0.4-0.5-0.4-0.5 0-0.8 0.3-0.8 0.9 0 0.2 0.1 0.2 0.3 0.2zm0.1-2.6c0.4 0 0.7 0 1.1 0.1 1.2 0.3 1.6 1.4 1.1 2.5-0.3 0.5-0.7 0.9-1.2 1.1-0.3 0.1-0.3 0.2-0.1 0.4 0.2 0.3 0.5 0.6 0.7 0.9 0.3 0.4 0.2 0.8-0.2 1.1-0.3 0.3-0.8 0.3-1.1-0.1s-0.6-0.8-0.9-1.2l-0.2-0.2-0.1 0.2c-0.1 0.3-0.1 0.7-0.3 1s-0.6 0.4-0.9 0.3c-0.5-0.2-0.6-0.4-0.5-0.9 0.3-1.3 0.5-2.6 0.8-3.9 0-0.2 0.1-0.5 0.2-0.7 0.1-0.5 0.5-0.7 1-0.8 0.1 0.2 0.3 0.2 0.6 0.2z"/>
	<path class="st0" d="m37 46.8c0.6 0 1-0.3 1-0.7 0-0.3-0.2-0.4-0.6-0.4-0.5 0-0.6 0.2-0.6 0.8-0.1 0.3 0.1 0.3 0.2 0.3zm2.6-0.9c0 0.8-0.7 1.8-1.5 2.1-0.3 0.1-0.3 0.2-0.1 0.4 0.2 0.3 0.4 0.6 0.7 0.9 0.3 0.4 0.2 0.9-0.2 1.2s-0.9 0.2-1.1-0.2c-0.3-0.4-0.6-0.7-0.8-1.1-0.1-0.1-0.1-0.2-0.2-0.2s-0.1 0.2-0.1 0.3c-0.1 0.3-0.1 0.5-0.2 0.8-0.1 0.4-0.6 0.7-1 0.6-0.5-0.1-0.7-0.4-0.6-1 0.3-1.5 0.7-3.1 1-4.6 0.1-0.4 0.4-0.7 0.8-0.7 0.7 0 1.5-0.1 2.2 0.1 0.6 0.1 1.1 0.7 1.1 1.4z"/>
	<path class="st0" d="m69.5 49.5c0-0.7 0.7-1.1 1.2-0.8s0.9 0.4 1.4 0.1l0.2-0.3c0.2-0.2 0.1-0.4-0.2-0.5s-0.7-0.3-1-0.4c-1.2-0.5-1.1-1.7-0.5-2.5 0.8-1 2.4-1.3 3.3-0.6 0.4 0.3 0.6 0.7 0.3 1.1-0.3 0.5-0.8 0.6-1.2 0.3-0.2-0.2-0.5-0.2-0.8-0.1-0.2 0-0.3 0.1-0.3 0.3s0.1 0.2 0.3 0.3c0.4 0.2 0.8 0.3 1.2 0.5 0.9 0.5 0.9 1.4 0.5 2.2-0.5 1.1-1.4 1.5-2.5 1.5-0.6 0-1.3-0.1-1.7-0.6-0.1-0.2-0.2-0.3-0.2-0.5"/>
	<path class="st0" d="m41.9 50.5h-1c-0.7 0-1-0.3-0.9-1l0.3-1.5c0.2-0.8 0.4-1.7 0.5-2.5 0-0.2 0.1-0.4 0.2-0.7s0.5-0.6 0.9-0.6h1.9c0.5 0 0.8 0.3 0.8 0.7s-0.4 0.8-0.8 0.9h-1.1c-0.1 0-0.2 0-0.3 0.1-0.1 0.2-0.1 0.4-0.1 0.6l0.3 0.1c0.3 0 0.6 0 0.8 0.1 0.4 0.1 0.6 0.4 0.5 0.8 0 0.3-0.4 0.7-0.7 0.7h-1c-0.3 0-0.6 0.5-0.4 0.7l0.3 0.1h0.9c0.4 0.1 0.6 0.3 0.6 0.7s-0.2 0.7-0.6 0.8c-0.3 0.1-0.7 0-1.1 0"/>
	<path class="st0" d="m46.8 47.9v0.4c0.1 0.7 0.7 0.9 1.4 0.6 0.3-0.1 0.6-0.3 0.9-0.4 0.4-0.1 0.6 0 0.8 0.3s0.1 0.6-0.1 0.9c-0.3 0.4-0.8 0.5-1.2 0.6-0.8 0.2-1.5 0.2-2.2-0.1s-1-0.9-1.2-1.6c-0.3-1.7 0.6-3.5 2.2-4.2 0.9-0.4 1.9-0.5 2.8 0.1 0.6 0.4 0.7 1 0.2 1.4-0.2 0.2-0.7 0.3-0.9 0.1-0.4-0.4-0.9-0.5-1.4-0.3-0.6 0.2-0.9 0.7-1.1 1.3-0.1 0.4-0.2 0.6-0.2 0.9"/>
	<path class="st0" d="m49.3 37.2h-0.2c-0.5 0-0.6 0.1-0.6 0.6 0 0.1 0.1 0.2 0.2 0.2h0.6c0.5 0 0.8 0.3 0.9 0.7 0 0.4-0.4 0.9-0.8 0.9h-0.8c-0.3 0-0.4 0.1-0.4 0.3-0.1 0.4-0.1 0.8-0.2 1.2-0.1 0.5-0.5 0.8-0.9 0.8-0.5 0-0.8-0.4-0.7-0.9 0.3-1.3 0.6-2.7 0.8-4 0-0.2 0.1-0.5 0.2-0.7 0.1-0.4 0.4-0.7 0.9-0.7h2c0.5 0 0.7 0.2 0.8 0.6 0.1 0.3-0.2 0.7-0.6 0.9-0.6 0.2-0.9 0.1-1.2 0.1"/>
	<path class="st0" d="m70.5 41.9c-0.5 0-0.8-0.4-0.8-0.9l0.3-1.5c0.1-0.4 0-0.8-0.2-1.2-0.2-0.5-0.5-1-0.7-1.5-0.2-0.4-0.1-0.9 0.3-1.1s0.9-0.1 1.1 0.4c0.2 0.3 0.3 0.7 0.5 1.1 0.1 0.2 0.2 0.2 0.3 0.1 0.3-0.4 0.7-0.8 1-1.1 0.3-0.4 0.7-0.6 1.2-0.4 0.4 0.2 0.5 0.6 0.3 0.9-0.3 0.5-0.6 0.8-1 1.2-0.3 0.4-0.6 0.7-1 1.1-0.3 0.4-0.3 0.9-0.4 1.3-0.1 0.3-0.2 0.7-0.2 1.1 0.1 0.2-0.3 0.5-0.7 0.5"/>
	<path class="st0" d="m67.5 37.2c-0.4-0.1-0.5 0.1-0.5 0.4-0.2 1.1-0.4 2.2-0.7 3.3-0.1 0.3-0.1 0.6-0.4 0.8s-0.7 0.3-1 0.1-0.4-0.6-0.3-0.9c0.2-1.1 0.5-2.2 0.7-3.4 0-0.2 0-0.3-0.2-0.3l-0.4-0.1c-0.5-0.1-0.6-0.4-0.6-0.8 0-0.3 0.4-0.7 0.8-0.7h3c0.3 0 0.6 0.3 0.7 0.6s-0.1 0.7-0.5 0.8c-0.2 0.2-0.4 0.3-0.6 0.2"/>
	<path class="st0" d="m37 41.9c-0.5 0-0.8-0.4-0.7-0.9 0.3-1.5 0.6-3 1-4.5 0.1-0.6 0.7-1 1.2-0.8 0.4 0.1 0.5 0.5 0.4 0.9-0.2 0.8-0.3 1.7-0.5 2.5-0.2 0.7-0.3 1.5-0.5 2.2-0.2 0.4-0.5 0.6-0.9 0.6"/>
	<path class="st0" d="m63.1 36.4c-0.1 0.4-0.1 0.8-0.2 1.2-0.2 0.8-0.4 1.7-0.5 2.5-0.1 0.3-0.1 0.7-0.2 1s-0.3 0.6-0.6 0.7c-0.4 0.2-0.6 0.2-0.9-0.1-0.2-0.2-0.3-0.4-0.2-0.6 0.1-0.6 0.2-1.2 0.4-1.8 0.2-0.8 0.4-1.7 0.5-2.5 0-0.2 0.1-0.4 0.2-0.7s0.6-0.6 1-0.5c0.3 0.1 0.5 0.4 0.5 0.8"/>
	<path class="st0" d="m50.8 41.2c0-0.5 0.2-1.1 0.3-1.6 0.2-1.1 0.5-2.1 0.7-3.2 0.1-0.4 0.3-0.6 0.7-0.7 0.3-0.1 0.6 0.1 0.8 0.3s0.1 0.4 0.1 0.6l-0.6 2.7c-0.1 0.6-0.3 1.3-0.4 1.9-0.1 0.3-0.3 0.6-0.6 0.7s-0.6 0-0.8-0.2-0.2-0.3-0.2-0.5"/>
	<path class="st0" d="m60 0.4c-0.8 0-1.5 0-2.2 0.1-5.4 0.6-10.7 3.3-13.6 5.2-3 1.9-16.8 12.4-16.8 12.4s-7.9-3.8-15.2-3.8h-0.8c-7.6 0.3-11.3 5.1-11.2 9.7 0.1 4.8 4.3 7.5 10 7.5h0.7c6.4-0.2 13.1-4.8 15.5-6.8 0 0 16.8-12.8 18-13.7 1.1-0.8 9.2-6 16.2-6 1.2 0 2.4 0.2 3.5 0.5 7.6 2.6 7 7.1 7 9.2 0 2.5-3.1 10.8-15.4 12.3-2.4 0.3-4.4 0.4-6.2 0.4-7.2 0-10.3-2-13.5-3.2-0.5-0.3-1.2-0.5-1.9-0.5-1.1 0-2.3 0.5-2.8 1.9l-5.3 23.6s-0.5 2.1 1.6 2.4c0.2 0 0.4 0.1 0.6 0.1 1.6 0 2.2-1.2 2.3-1.4 0.1-0.3 4.8-21.3 4.8-21.3s7.3 2.6 15.8 2.6c3.6 0 7.5-0.5 11.1-1.8 12-4.5 15.3-12.4 12.6-20.3-2.2-7-9.4-9.1-14.8-9.1zm-49.9 26.6c-2.8 0-4.9-0.6-5.3-3.3-0.4-3 3.9-4.5 5.1-4.7 0.4-0.1 1-0.1 2-0.1 2.1 0 5.6 0.4 11.3 2.6 0 0-7.4 5.3-11.4 5.5h-1.7z"/>
</svg>
