<?xml version="1.0" encoding="UTF-8" standalone="no"?>
<svg xmlns="http://www.w3.org/2000/svg" height="46px" width="71px" version="1.1" xmlns:xlink="http://www.w3.org/1999/xlink" viewBox="0 0 71 46"><!-- Generator: Sketch 42 (36781) - http://www.bohemiancoding.com/sketch -->
 <title>Group 17</title>
 <desc>Created with Sketch.</desc>
 <g id="Page-1" fill-rule="evenodd" fill="none">
  <g id="who_we_are" fill="#303030" transform="translate(-980 -1854)">
   <g id="Group-17" transform="translate(980 1854)">
    <path id="Shape" d="m70.782 23.091v0.011c-1.085-5.617-8.517-7.49-8.517-7.49s-3.455-1.012-7.1-2.209c-0.08-0.04-0.538-0.198-0.538-0.198-1.172-0.493-4.127-2.068-3.047-5.1434 0.003-0.0086 0.951-3.2539 6.593-3.624h12.609v-3.9833l-33.669 0.00003v8.2475-0.011c1.085 5.6182 8.664 7.4902 8.664 7.4902s4.03 1.012 7.675 2.209c0.081 0.041 0.538 0.199 0.538 0.199 1.174 0.491 3.783 2.066 2.702 5.143-0.003 0.009-0.951 3.253-6.594 3.623h-12.985v3.856h28.677c0.035-0.016 0.065 0.014 0.098 0h4.894v-8.12zm-48.2-22.637v23.621c0 0.028-0.136 4.429-5.008 4.368 0 0-4.926 0.18-4.926-6.825v-4.41h-12.187l-0.00048 2.061c0.00157-0.039-0.26137 9.625 9.0167 11.942h25.042v-30.757l-11.936 0.00033h-0.001zm-10.779 45.157c0.633-0.192 1.223-0.504 1.739-0.917 0.483-0.378 0.905-0.829 1.25-1.336 0.338-0.512 0.644-1.167 0.911-1.942 0 0 2.033-5.952 2.198-6.437h-2.763l-2.028 5.938c-0.396 1.159-0.817 1.928-1.25 2.289-0.459 0.372-1.157 0.559-2.0737 0.559h-2.8955l-0.7144 2.091h3.1959s1.7987-0.048 2.4307-0.245zm14.32-2.23c0.286-0.159 0.485-0.409 0.608-0.767 0.154-0.449 0.071-0.685-0.047-0.826-0.287-0.259-1.081-0.21-1.081-0.21h-1.858c-1.27 0-2.16-0.263-2.637-0.774-0.235-0.28-0.353-0.647-0.353-1.096 0-0.383 0.086-0.826 0.256-1.328 0.396-1.155 1.026-2.023 1.874-2.578 0.836-0.546 1.957-0.823 3.334-0.823h5.366l-0.759 2.22-5.054 0.005c-0.597 0-1.039 0.096-1.341 0.288-0.291 0.169-0.514 0.473-0.66 0.904 0 0-0.18 0.476 0.049 0.73 0.18 0.171 0.474 0.255 0.896 0.255h2.193c1.343 0 2.191 0.24 2.593 0.734 0.201 0.248 0.301 0.579 0.301 0.993 0 0.401-0.093 0.878-0.28 1.428-0.387 1.127-1.008 1.971-1.847 2.509-0.842 0.54-1.959 0.811-3.319 0.811h-5.455l0.758-2.218h5.115s0.768-0.003 1.348-0.257zm8.384-0.776l1.005-2.942h2.26c0.071-0.209 0.511-1.497 0.642-1.88h-2.258l0.958-2.804h-2.474l-0.958 2.804h-1.503l-0.641 1.881h1.502l-1.232 3.603c-0.142 0.416-0.214 0.788-0.214 1.105 0 0.327 0.077 0.603 0.228 0.821 0.295 0.443 0.868 0.664 1.703 0.664h2.13l0.641-1.88h-1.051c-0.447 0-0.736-0.094-0.86-0.279 0 0-0.156-0.316 0.122-1.093zm6.334-0.811c0.209-0.64 0.511-1.127 0.898-1.448 0.391-0.348 0.853-0.528 1.365-0.528 0.527 0 0.879 0.187 1.051 0.557 0.193 0.35 0.192 0.847-0.01 1.464-0.201 0.625-0.517 1.119-0.935 1.465-0.37 0.337-0.854 0.522-1.354 0.516-0.517 0-0.874-0.182-1.06-0.542 0 0-0.28-0.497 0.045-1.484zm-0.549-3h-0.001c-1.051 0.746-1.838 1.807-2.246 3.03-0.434 1.27-0.375 2.289 0.173 3.026 0.54 0.753 1.498 1.135 2.85 1.135 1.346 0 2.565-0.385 3.621-1.139 1.065-0.757 1.821-1.778 2.251-3.036 0.434-1.267 0.376-2.288-0.171-3.034-0.542-0.744-1.497-1.12-2.84-1.12-1.365 0-2.588 0.383-3.637 1.138zm12.725 0.822h-1.213s-2.048 5.984-2.135 6.241h-2.475l2.76-8.075h3.771c0.89 0 1.46 0.159 1.698 0.477 0.117 0.149 0.184 0.362 0.195 0.636l0.001 0.058c0 0.266-0.063 0.581-0.188 0.942l-0.489 1.479h-2.384l0.402-1.179s0.219-0.566 0.057-0.579zm13.079 1.415s-1.299 3.801-1.65 4.825h2.496l1.738-5.086c0.167-0.486 0.251-0.913 0.251-1.277 0-0.418-0.111-0.754-0.329-1.005-0.417-0.475-1.213-0.705-2.434-0.705h-8.361c-0.086 0.251-2.595 7.589-2.76 8.073h2.496l2.064-6.044h2.161l-2.066 6.044h2.518c0.089-0.256 2.068-6.045 2.068-6.045l1.005-0.021c0.447 0 0.733 0.06 0.878 0.184 0 0 0.229 0.13-0.075 1.057z"/>
   </g>
  </g>
 </g>
</svg>
