<?xml version="1.0" encoding="UTF-8" standalone="no"?>
<svg xmlns="http://www.w3.org/2000/svg" height="53px" width="56px" version="1.1" xmlns:xlink="http://www.w3.org/1999/xlink" viewBox="0 0 56 53"><!-- Generator: Sketch 42 (36781) - http://www.bohemiancoding.com/sketch -->
 <title>Group 19</title>
 <desc>Created with Sketch.</desc>
 <g id="Page-1" fill-rule="evenodd" fill="none">
  <g id="who_we_are" fill="#303030" transform="translate(-1171 -2121)">
   <g id="Group-19" transform="translate(1171 2121)">
    <polygon id="Fill-1" points="0.18821 48.538 55.706 48.538 55.706 52.293 0.18821 52.293"/>
    <path id="Fill-2" d="m4.6266 0.015414h11.286l12.232 30.243 12.39-30.243 10.181 0.000414v0.75664s-2.211 0.15862-3.236 0.79465c-1.026 0.6345-1.856 1.4292-1.697 4.1338 0.159 2.6997 2.212 27.1 2.212 27.1s0.037 4.928 4.892 5.087v0.955h-14.955v-0.855s4.378-0.138 4.221-4.351c-0.159-4.213-2.052-26.746-2.052-26.746l-13.218 31.952h-1.342l-13.101-31.99-1.419 26.068s-0.435 4.768 5.447 5.067v0.855h-13.416l-0.0004-0.874s5.1676-0.04 5.5629-5.286c0.3954-5.245 1.7755-29.209 1.7755-29.209 0 0.0004-1.9739-2.4234-5.7225-2.463l-0.0409-0.99459"/>
   </g>
  </g>
 </g>
</svg>
