<?xml version="1.0" encoding="UTF-8" standalone="no"?>
<svg
   xmlns:dc="http://purl.org/dc/elements/1.1/"
   xmlns:cc="http://creativecommons.org/ns#"
   xmlns:rdf="http://www.w3.org/1999/02/22-rdf-syntax-ns#"
   xmlns:svg="http://www.w3.org/2000/svg"
   xmlns="http://www.w3.org/2000/svg"
   xmlns:sodipodi="http://sodipodi.sourceforge.net/DTD/sodipodi-0.dtd"
   xmlns:inkscape="http://www.inkscape.org/namespaces/inkscape"
   width="131.42973mm"
   height="59.375294mm"
   viewBox="0 0 131.42973 59.375294"
   version="1.1"
   id="svg8"
   inkscape:version="1.0.2 (e86c8708, 2021-01-15)"
   sodipodi:docname="message_loading.svg">
  <defs
     id="defs2" />
  <sodipodi:namedview
     id="base"
     pagecolor="#ffffff"
     bordercolor="#666666"
     borderopacity="1.0"
     inkscape:pageopacity="0.0"
     inkscape:pageshadow="2"
     inkscape:zoom="0.54"
     inkscape:cx="259.03817"
     inkscape:cy="322.31104"
     inkscape:document-units="mm"
     inkscape:current-layer="layer1"
     inkscape:document-rotation="0"
     showgrid="false"
     inkscape:window-width="808"
     inkscape:window-height="847"
     inkscape:window-x="0"
     inkscape:window-y="25"
     inkscape:window-maximized="0"
     fit-margin-top="0"
     fit-margin-left="0"
     fit-margin-right="0"
     fit-margin-bottom="0" />
  <metadata
     id="metadata5">
    <rdf:RDF>
      <cc:Work
         rdf:about="">
        <dc:format>image/svg+xml</dc:format>
        <dc:type
           rdf:resource="http://purl.org/dc/dcmitype/StillImage" />
        <dc:title></dc:title>
      </cc:Work>
    </rdf:RDF>
  </metadata>
  <g
     inkscape:label="レイヤー 1"
     inkscape:groupmode="layer"
     id="layer1"
     transform="translate(-41.705874,-13.401655)">
    <path
       style="color:#000000;font-style:normal;font-variant:normal;font-weight:normal;font-stretch:normal;font-size:medium;line-height:normal;font-family:sans-serif;font-variant-ligatures:normal;font-variant-position:normal;font-variant-caps:normal;font-variant-numeric:normal;font-variant-alternates:normal;font-variant-east-asian:normal;font-feature-settings:normal;font-variation-settings:normal;text-indent:0;text-align:start;text-decoration:none;text-decoration-line:none;text-decoration-style:solid;text-decoration-color:#000000;letter-spacing:normal;word-spacing:normal;text-transform:none;writing-mode:lr-tb;direction:ltr;text-orientation:mixed;dominant-baseline:auto;baseline-shift:baseline;text-anchor:start;white-space:normal;shape-padding:0;shape-margin:0;inline-size:0;clip-rule:nonzero;display:inline;overflow:visible;visibility:visible;opacity:1;isolation:auto;mix-blend-mode:normal;color-interpolation:sRGB;color-interpolation-filters:linearRGB;solid-color:#000000;solid-opacity:1;vector-effect:none;fill:#000000;fill-opacity:1;fill-rule:nonzero;stroke:none;stroke-width:0.655329;stroke-linecap:butt;stroke-linejoin:miter;stroke-miterlimit:4;stroke-dasharray:none;stroke-dashoffset:0;stroke-opacity:1;color-rendering:auto;image-rendering:auto;shape-rendering:auto;text-rendering:auto;enable-background:accumulate;stop-color:#000000;stop-opacity:1"
       d="m 43.95489,25.41083 c 0.05486,0.156533 0.109714,0.234947 0.219415,0.234947 h 0.164551 c 0.109714,0 0.164551,-0.07841 0.219417,-0.156533 l 2.084445,-7.672509 h 0.05486 l 2.139301,7.672509 c 0.05486,0.156533 0.109715,0.234948 0.219415,0.156533 h 0.219414 c 0.109715,0 0.164552,-0.07841 0.219417,-0.234947 l 2.249006,-11.430512 c 0.05486,-0.156533 0,-0.313155 -0.109715,-0.391451 h -0.109715 -1.097055 c -0.109715,0 -0.164551,0.07841 -0.219415,0.234947 l -1.206784,6.733046 h -0.05486 l -1.919884,-6.967904 c -0.05486,-0.156533 -0.109714,-0.234947 -0.219417,-0.156533 h -0.219414 c -0.109715,0 -0.164552,0.07841 -0.219415,0.156533 l -1.865033,6.967904 h -0.05486 L 43.24178,13.823814 c -0.05486,-0.156532 -0.109715,-0.234947 -0.219417,-0.234947 h -1.097072 c -0.109715,0 -0.219417,0.07841 -0.219417,0.234947 v 0.156533 z"
       id="Path-220" />
    <path
       style="color:#000000;font-style:normal;font-variant:normal;font-weight:normal;font-stretch:normal;font-size:medium;line-height:normal;font-family:sans-serif;font-variant-ligatures:normal;font-variant-position:normal;font-variant-caps:normal;font-variant-numeric:normal;font-variant-alternates:normal;font-variant-east-asian:normal;font-feature-settings:normal;font-variation-settings:normal;text-indent:0;text-align:start;text-decoration:none;text-decoration-line:none;text-decoration-style:solid;text-decoration-color:#000000;letter-spacing:normal;word-spacing:normal;text-transform:none;writing-mode:lr-tb;direction:ltr;text-orientation:mixed;dominant-baseline:auto;baseline-shift:baseline;text-anchor:start;white-space:normal;shape-padding:0;shape-margin:0;inline-size:0;clip-rule:nonzero;display:inline;overflow:visible;visibility:visible;opacity:1;isolation:auto;mix-blend-mode:normal;color-interpolation:sRGB;color-interpolation-filters:linearRGB;solid-color:#000000;solid-opacity:1;vector-effect:none;fill:#000000;fill-opacity:1;fill-rule:nonzero;stroke:none;stroke-width:0.655329;stroke-linecap:butt;stroke-linejoin:miter;stroke-miterlimit:4;stroke-dasharray:none;stroke-dashoffset:0;stroke-opacity:1;color-rendering:auto;image-rendering:auto;shape-rendering:auto;text-rendering:auto;enable-background:accumulate;stop-color:#000000;stop-opacity:1"
       d="m 66.225562,25.175942 c 0,0.156533 0.109673,0.313154 0.219408,0.313154 h 4.827155 c 0.109673,0 0.219408,-0.156533 0.219408,-0.313154 v -1.40924 c 0,-0.156533 -0.109673,-0.313155 -0.219408,-0.313155 h -3.510662 v -2.975072 h 2.962109 c 0.109674,0 0.21943,-0.156533 0.21943,-0.313155 v -1.40924 c 0,-0.156532 -0.109674,-0.313184 -0.21943,-0.313184 H 67.81632 v -2.81848 h 3.510662 c 0.109673,0 0.219409,-0.156533 0.219409,-0.313154 v -1.40924 c 0,-0.156533 -0.109673,-0.313155 -0.219409,-0.313155 h -4.827154 c -0.109674,0 -0.219409,0.156533 -0.219409,0.313155 v 11.27392 z"
       id="Path-221" />
    <path
       style="color:#000000;font-style:normal;font-variant:normal;font-weight:normal;font-stretch:normal;font-size:medium;line-height:normal;font-family:sans-serif;font-variant-ligatures:normal;font-variant-position:normal;font-variant-caps:normal;font-variant-numeric:normal;font-variant-alternates:normal;font-variant-east-asian:normal;font-feature-settings:normal;font-variation-settings:normal;text-indent:0;text-align:start;text-decoration:none;text-decoration-line:none;text-decoration-style:solid;text-decoration-color:#000000;letter-spacing:normal;word-spacing:normal;text-transform:none;writing-mode:lr-tb;direction:ltr;text-orientation:mixed;dominant-baseline:auto;baseline-shift:baseline;text-anchor:start;white-space:normal;shape-padding:0;shape-margin:0;inline-size:0;clip-rule:nonzero;display:inline;overflow:visible;visibility:visible;opacity:1;isolation:auto;mix-blend-mode:normal;color-interpolation:sRGB;color-interpolation-filters:linearRGB;solid-color:#000000;solid-opacity:1;vector-effect:none;fill:#000000;fill-opacity:1;fill-rule:nonzero;stroke:none;stroke-width:0.655329;stroke-linecap:butt;stroke-linejoin:miter;stroke-miterlimit:4;stroke-dasharray:none;stroke-dashoffset:0;stroke-opacity:1;color-rendering:auto;image-rendering:auto;shape-rendering:auto;text-rendering:auto;enable-background:accumulate;stop-color:#000000;stop-opacity:1"
       d="m 101.66102,25.097646 c -0.0549,0.156533 0.0549,0.313184 0.16461,0.39145 h 0.0549 1.09706 c 0.10968,0 0.16462,-0.07812 0.21943,-0.234947 l 0.71309,-6.419861 h 0.0549 l 2.08445,6.654719 c 0.0549,0.07841 0.10967,0.156533 0.21941,0.156533 h 0.16461 c 0.10968,0 0.16462,-0.07841 0.21941,-0.156533 l 2.08445,-6.654719 h 0.0549 l 0.71309,6.419861 c 0.0549,0.156533 0.10967,0.234947 0.21943,0.234947 h 1.09706 c 0.10967,0 0.21943,-0.07812 0.21943,-0.234947 v -0.156533 l -1.42621,-11.430482 c 0,-0.156533 -0.10967,-0.234948 -0.21941,-0.234948 h -0.27426 c -0.10967,0 -0.16462,0.07841 -0.21943,0.156533 l -2.63299,7.985694 h -0.0549 l -2.63298,-7.985694 c -0.0547,-0.07841 -0.10968,-0.156533 -0.21941,-0.156533 h -0.16462 c -0.10967,0 -0.21942,0.07841 -0.21942,0.234948 z"
       id="Path-222" />
    <path
       style="color:#000000;font-style:normal;font-variant:normal;font-weight:normal;font-stretch:normal;font-size:medium;line-height:normal;font-family:sans-serif;font-variant-ligatures:normal;font-variant-position:normal;font-variant-caps:normal;font-variant-numeric:normal;font-variant-alternates:normal;font-variant-east-asian:normal;font-feature-settings:normal;font-variation-settings:normal;text-indent:0;text-align:start;text-decoration:none;text-decoration-line:none;text-decoration-style:solid;text-decoration-color:#000000;letter-spacing:normal;word-spacing:normal;text-transform:none;writing-mode:lr-tb;direction:ltr;text-orientation:mixed;dominant-baseline:auto;baseline-shift:baseline;text-anchor:start;white-space:normal;shape-padding:0;shape-margin:0;inline-size:0;clip-rule:nonzero;display:inline;overflow:visible;visibility:visible;opacity:1;isolation:auto;mix-blend-mode:normal;color-interpolation:sRGB;color-interpolation-filters:linearRGB;solid-color:#000000;solid-opacity:1;vector-effect:none;fill:#000000;fill-opacity:1;fill-rule:nonzero;stroke:none;stroke-width:0.655329;stroke-linecap:butt;stroke-linejoin:miter;stroke-miterlimit:4;stroke-dasharray:none;stroke-dashoffset:0;stroke-opacity:1;color-rendering:auto;image-rendering:auto;shape-rendering:auto;text-rendering:auto;enable-background:accumulate;stop-color:#000000;stop-opacity:1"
       d="m 124.86421,25.489096 c -0.10967,0 -0.21943,-0.07812 -0.21943,-0.234947 V 25.097616 L 128.32,13.667134 c 0.0549,-0.07842 0.10967,-0.156533 0.21943,-0.156533 h 0.10967 c 0.10967,0 0.16461,0.07841 0.21943,0.156533 l 3.67519,11.430482 c 0.0549,0.156533 0,0.313184 -0.10967,0.391451 -0.0549,0 -0.0549,0.07841 -0.10968,0 h -1.04222 c -0.16462,0 -0.27427,-0.156533 -0.32913,-0.313155 l -0.60339,-1.800691 h -3.56549 l -0.60339,1.800691 c -0.0549,0.234947 -0.16462,0.313155 -0.32913,0.313155 z m 2.52327,-4.071128 h 2.41358 l -1.2068,-3.757973 h -0.0547 z"
       id="Combined-Shape-38" />
    <path
       style="color:#000000;font-style:normal;font-variant:normal;font-weight:normal;font-stretch:normal;font-size:medium;line-height:normal;font-family:sans-serif;font-variant-ligatures:normal;font-variant-position:normal;font-variant-caps:normal;font-variant-numeric:normal;font-variant-alternates:normal;font-variant-east-asian:normal;font-feature-settings:normal;font-variation-settings:normal;text-indent:0;text-align:start;text-decoration:none;text-decoration-line:none;text-decoration-style:solid;text-decoration-color:#000000;letter-spacing:normal;word-spacing:normal;text-transform:none;writing-mode:lr-tb;direction:ltr;text-orientation:mixed;dominant-baseline:auto;baseline-shift:baseline;text-anchor:start;white-space:normal;shape-padding:0;shape-margin:0;inline-size:0;clip-rule:nonzero;display:inline;overflow:visible;visibility:visible;opacity:1;isolation:auto;mix-blend-mode:normal;color-interpolation:sRGB;color-interpolation-filters:linearRGB;solid-color:#000000;solid-opacity:1;vector-effect:none;fill:#000000;fill-opacity:1;fill-rule:nonzero;stroke:none;stroke-width:0.655329;stroke-linecap:butt;stroke-linejoin:miter;stroke-miterlimit:4;stroke-dasharray:none;stroke-dashoffset:0;stroke-opacity:1;color-rendering:auto;image-rendering:auto;shape-rendering:auto;text-rendering:auto;enable-background:accumulate;stop-color:#000000;stop-opacity:1"
       d="m 146.80576,25.097646 c 0,0.234947 0.10967,0.39145 0.27426,0.39145 v 0 h 1.04223 c 0.16461,0 0.27426,-0.156533 0.27426,-0.39145 v -5.167214 l 3.12669,5.480398 c 0.0549,0.07812 0.10967,0.156533 0.2194,0.07812 h 1.26164 c 0.16461,0 0.27427,-0.156533 0.27427,-0.39145 0,-0.07842 0,-0.156533 -0.0547,-0.234948 l -3.34609,-5.715256 3.12666,-5.010621 c 0.10968,-0.156533 0.10968,-0.39148 0,-0.548043 -0.0549,-0.07841 -0.10967,-0.07841 -0.16461,-0.07841 h -1.2068 c -0.10967,0 -0.16461,0.07841 -0.21941,0.156533 l -3.01696,4.775733 v -4.619171 c 0,-0.234947 -0.10968,-0.39145 -0.27427,-0.39145 h -1.04223 c -0.16461,0 -0.27426,0.156533 -0.27426,0.39145 v 0 z"
       id="Path-223" />
    <path
       style="color:#000000;font-style:normal;font-variant:normal;font-weight:normal;font-stretch:normal;font-size:medium;line-height:normal;font-family:sans-serif;font-variant-ligatures:normal;font-variant-position:normal;font-variant-caps:normal;font-variant-numeric:normal;font-variant-alternates:normal;font-variant-east-asian:normal;font-feature-settings:normal;font-variation-settings:normal;text-indent:0;text-align:start;text-decoration:none;text-decoration-line:none;text-decoration-style:solid;text-decoration-color:#000000;letter-spacing:normal;word-spacing:normal;text-transform:none;writing-mode:lr-tb;direction:ltr;text-orientation:mixed;dominant-baseline:auto;baseline-shift:baseline;text-anchor:start;white-space:normal;shape-padding:0;shape-margin:0;inline-size:0;clip-rule:nonzero;display:inline;overflow:visible;visibility:visible;opacity:1;isolation:auto;mix-blend-mode:normal;color-interpolation:sRGB;color-interpolation-filters:linearRGB;solid-color:#000000;solid-opacity:1;vector-effect:none;fill:#000000;fill-opacity:1;fill-rule:nonzero;stroke:none;stroke-width:0.655329;stroke-linecap:butt;stroke-linejoin:miter;stroke-miterlimit:4;stroke-dasharray:none;stroke-dashoffset:0;stroke-opacity:1;color-rendering:auto;image-rendering:auto;shape-rendering:auto;text-rendering:auto;enable-background:accumulate;stop-color:#000000;stop-opacity:1"
       d="m 167.75993,25.175942 c 0,0.156533 0.10967,0.313154 0.21943,0.313154 h 4.82713 c 0.10967,0 0.21941,-0.156533 0.21941,-0.313154 v -1.40924 c 0,-0.156533 -0.10967,-0.313155 -0.21941,-0.313155 h -3.51064 v -2.975072 h 2.90725 c 0.10968,0 0.21941,-0.156533 0.21941,-0.313155 v -1.40924 c 0,-0.156532 -0.10967,-0.313184 -0.21941,-0.313184 h -2.96211 v -2.81848 h 3.51064 c 0.10968,0 0.21943,-0.156533 0.21943,-0.313154 v -1.40924 c 0,-0.156533 -0.10967,-0.313155 -0.21943,-0.313155 h -4.82713 c -0.10967,0 -0.21941,0.156533 -0.21941,0.313155 z"
       id="Path-224" />
    <path
       style="color:#000000;font-style:normal;font-variant:normal;font-weight:normal;font-stretch:normal;font-size:medium;line-height:normal;font-family:sans-serif;font-variant-ligatures:normal;font-variant-position:normal;font-variant-caps:normal;font-variant-numeric:normal;font-variant-alternates:normal;font-variant-east-asian:normal;font-feature-settings:normal;font-variation-settings:normal;text-indent:0;text-align:start;text-decoration:none;text-decoration-line:none;text-decoration-style:solid;text-decoration-color:#000000;letter-spacing:normal;word-spacing:normal;text-transform:none;writing-mode:lr-tb;direction:ltr;text-orientation:mixed;dominant-baseline:auto;baseline-shift:baseline;text-anchor:start;white-space:normal;shape-padding:0;shape-margin:0;inline-size:0;clip-rule:nonzero;display:inline;overflow:visible;visibility:visible;opacity:1;isolation:auto;mix-blend-mode:normal;color-interpolation:sRGB;color-interpolation-filters:linearRGB;solid-color:#000000;solid-opacity:1;vector-effect:none;fill:#000000;fill-opacity:1;fill-rule:nonzero;stroke:none;stroke-width:0.655329;stroke-linecap:butt;stroke-linejoin:miter;stroke-miterlimit:4;stroke-dasharray:none;stroke-dashoffset:0;stroke-opacity:1;color-rendering:auto;image-rendering:auto;shape-rendering:auto;text-rendering:auto;enable-background:accumulate;stop-color:#000000;stop-opacity:1"
       d="m 42.418982,72.228904 c 0,0.156533 0.109715,0.313155 0.219415,0.313155 h 1.097078 c 0.109715,0 0.219415,-0.156533 0.219415,-0.313155 v -11.27392 c 0,-0.156533 -0.109715,-0.313154 -0.219415,-0.313154 h -1.097078 c -0.109715,0 -0.219415,0.156532 -0.219415,0.313154 z"
       id="Path-225" />
    <path
       style="color:#000000;font-style:normal;font-variant:normal;font-weight:normal;font-stretch:normal;font-size:medium;line-height:normal;font-family:sans-serif;font-variant-ligatures:normal;font-variant-position:normal;font-variant-caps:normal;font-variant-numeric:normal;font-variant-alternates:normal;font-variant-east-asian:normal;font-feature-settings:normal;font-variation-settings:normal;text-indent:0;text-align:start;text-decoration:none;text-decoration-line:none;text-decoration-style:solid;text-decoration-color:#000000;letter-spacing:normal;word-spacing:normal;text-transform:none;writing-mode:lr-tb;direction:ltr;text-orientation:mixed;dominant-baseline:auto;baseline-shift:baseline;text-anchor:start;white-space:normal;shape-padding:0;shape-margin:0;inline-size:0;clip-rule:nonzero;display:inline;overflow:visible;visibility:visible;opacity:1;isolation:auto;mix-blend-mode:normal;color-interpolation:sRGB;color-interpolation-filters:linearRGB;solid-color:#000000;solid-opacity:1;vector-effect:none;fill:#000000;fill-opacity:1;fill-rule:nonzero;stroke:none;stroke-width:0.655329;stroke-linecap:butt;stroke-linejoin:miter;stroke-miterlimit:4;stroke-dasharray:none;stroke-dashoffset:0;stroke-opacity:1;color-rendering:auto;image-rendering:auto;shape-rendering:auto;text-rendering:auto;enable-background:accumulate;stop-color:#000000;stop-opacity:1"
       d="m 59.149412,72.228904 c 0,0.156533 0.109715,0.313155 0.219417,0.313155 h 1.097076 c 0.109715,0 0.219417,-0.156533 0.219417,-0.313155 V 62.677379 H 62.4955 c 0.109714,0 0.219414,-0.156533 0.219414,-0.313155 v -1.40924 c 0,-0.156533 -0.109714,-0.313154 -0.219414,-0.313154 h -5.211119 c -0.109715,0 -0.219415,0.156532 -0.219415,0.313154 v 1.40924 c 0,0.156533 0.109715,0.313155 0.219415,0.313155 h 1.810178 v 9.551525 z"
       id="Path-226" />
    <path
       style="color:#000000;font-style:normal;font-variant:normal;font-weight:normal;font-stretch:normal;font-size:medium;line-height:normal;font-family:sans-serif;font-variant-ligatures:normal;font-variant-position:normal;font-variant-caps:normal;font-variant-numeric:normal;font-variant-alternates:normal;font-variant-east-asian:normal;font-feature-settings:normal;font-variation-settings:normal;text-indent:0;text-align:start;text-decoration:none;text-decoration-line:none;text-decoration-style:solid;text-decoration-color:#000000;letter-spacing:normal;word-spacing:normal;text-transform:none;writing-mode:lr-tb;direction:ltr;text-orientation:mixed;dominant-baseline:auto;baseline-shift:baseline;text-anchor:start;white-space:normal;shape-padding:0;shape-margin:0;inline-size:0;clip-rule:nonzero;display:inline;overflow:visible;visibility:visible;opacity:1;isolation:auto;mix-blend-mode:normal;color-interpolation:sRGB;color-interpolation-filters:linearRGB;solid-color:#000000;solid-opacity:1;vector-effect:none;fill:#000000;fill-opacity:1;fill-rule:nonzero;stroke:none;stroke-width:0.655329;stroke-linecap:butt;stroke-linejoin:miter;stroke-miterlimit:4;stroke-dasharray:none;stroke-dashoffset:0;stroke-opacity:1;color-rendering:auto;image-rendering:auto;shape-rendering:auto;text-rendering:auto;enable-background:accumulate;stop-color:#000000;stop-opacity:1"
       d="m 89.977207,71.446003 c 0.713107,0.861197 1.645611,1.330944 2.632975,1.330944 1.700461,0 2.742685,-1.644128 2.742685,-3.366523 0,-2.192141 -1.316491,-3.20993 -2.468425,-3.836269 -0.987364,-0.548043 -1.426191,-1.096086 -1.426191,-1.878987 0.0549,-0.704605 0.548547,-1.252648 1.042214,-1.174352 0.603387,0.156533 1.151931,0.469747 1.645611,0.939494 0.164607,0.07841 0.329117,0 0.438837,-0.234948 l 0.438827,-0.939493 c 0.10968,-0.156533 0.0549,-0.469747 -0.0549,-0.548043 -0.713097,-0.704605 -1.535911,-1.096056 -2.358708,-1.096056 -1.865008,0 -2.687822,1.722395 -2.687822,3.288227 0,2.035549 1.097081,3.053339 2.248995,3.679677 0.987364,0.548043 1.535911,1.174352 1.535911,2.035549 -0.0549,0.782931 -0.493697,1.330974 -1.042224,1.330974 h -0.0549 c -0.658244,-0.156533 -1.261621,-0.469747 -1.810178,-1.017789 -0.10967,-0.156533 -0.27426,-0.07842 -0.383957,0.07841 v 0.07841 l -0.43883,1.01779 c -0.164617,0.07841 -0.109677,0.156533 0,0.313184 z"
       id="Path-227" />
    <path
       style="color:#000000;font-style:normal;font-variant:normal;font-weight:normal;font-stretch:normal;font-size:medium;line-height:normal;font-family:sans-serif;font-variant-ligatures:normal;font-variant-position:normal;font-variant-caps:normal;font-variant-numeric:normal;font-variant-alternates:normal;font-variant-east-asian:normal;font-feature-settings:normal;font-variation-settings:normal;text-indent:0;text-align:start;text-decoration:none;text-decoration-line:none;text-decoration-style:solid;text-decoration-color:#000000;letter-spacing:normal;word-spacing:normal;text-transform:none;writing-mode:lr-tb;direction:ltr;text-orientation:mixed;dominant-baseline:auto;baseline-shift:baseline;text-anchor:start;white-space:normal;shape-padding:0;shape-margin:0;inline-size:0;clip-rule:nonzero;display:inline;overflow:visible;visibility:visible;opacity:1;isolation:auto;mix-blend-mode:normal;color-interpolation:sRGB;color-interpolation-filters:linearRGB;solid-color:#000000;solid-opacity:1;vector-effect:none;fill:#000000;fill-opacity:1;fill-rule:nonzero;stroke:none;stroke-width:0.655329;stroke-linecap:butt;stroke-linejoin:miter;stroke-miterlimit:4;stroke-dasharray:none;stroke-dashoffset:0;stroke-opacity:1;color-rendering:auto;image-rendering:auto;shape-rendering:auto;text-rendering:auto;enable-background:accumulate;stop-color:#000000;stop-opacity:1"
       d="m 108.62746,68.07948 c 0,2.583592 1.48107,4.697467 3.29123,4.697467 1.81019,0 3.29123,-2.113875 3.29123,-4.697467 v -7.0462 c 0,-0.156533 -0.10967,-0.313184 -0.2194,-0.313184 h -1.15195 c -0.10967,0 -0.2194,0.156533 -0.2194,0.313184 v 6.967904 c 0.0549,1.330944 -0.65825,2.505326 -1.64562,2.583592 -0.98737,0.07841 -1.75533,-0.939493 -1.81019,-2.348733 v -0.313155 -6.967904 c 0,-0.156533 -0.10967,-0.313154 -0.21941,-0.313154 h -1.15192 c -0.10967,0 -0.21943,0.156532 -0.21943,0.313154 z"
       id="Path-228" />
    <path
       style="color:#000000;font-style:normal;font-variant:normal;font-weight:normal;font-stretch:normal;font-size:medium;line-height:normal;font-family:sans-serif;font-variant-ligatures:normal;font-variant-position:normal;font-variant-caps:normal;font-variant-numeric:normal;font-variant-alternates:normal;font-variant-east-asian:normal;font-feature-settings:normal;font-variation-settings:normal;text-indent:0;text-align:start;text-decoration:none;text-decoration-line:none;text-decoration-style:solid;text-decoration-color:#000000;letter-spacing:normal;word-spacing:normal;text-transform:none;writing-mode:lr-tb;direction:ltr;text-orientation:mixed;dominant-baseline:auto;baseline-shift:baseline;text-anchor:start;white-space:normal;shape-padding:0;shape-margin:0;inline-size:0;clip-rule:nonzero;display:inline;overflow:visible;visibility:visible;opacity:1;isolation:auto;mix-blend-mode:normal;color-interpolation:sRGB;color-interpolation-filters:linearRGB;solid-color:#000000;solid-opacity:1;vector-effect:none;fill:#000000;fill-opacity:1;fill-rule:nonzero;stroke:none;stroke-width:0.655329;stroke-linecap:butt;stroke-linejoin:miter;stroke-miterlimit:4;stroke-dasharray:none;stroke-dashoffset:0;stroke-opacity:1;color-rendering:auto;image-rendering:auto;shape-rendering:auto;text-rendering:auto;enable-background:accumulate;stop-color:#000000;stop-opacity:1"
       d="m 129.14281,72.228904 v -11.27392 c 0,-0.156533 0.10968,-0.313154 0.21941,-0.313154 h 2.79756 c 1.48105,0 2.63299,1.644098 2.68782,3.757973 0.0549,2.113845 -1.15192,3.757973 -2.63298,3.83624 v 0 h -1.48105 v 3.992861 c 0,0.156533 -0.10967,0.313155 -0.2194,0.313155 h -1.09709 c -0.16461,0 -0.27427,-0.156533 -0.27427,-0.313155 z m 1.59076,-6.02841 h 1.37135 c 0.65825,0 1.20678,-0.782931 1.20678,-1.722425 v 0 c 0,-0.939493 -0.54853,-1.644098 -1.20678,-1.644098 v 0 h -1.37135 z"
       id="Combined-Shape-39" />
    <path
       style="color:#000000;font-style:normal;font-variant:normal;font-weight:normal;font-stretch:normal;font-size:medium;line-height:normal;font-family:sans-serif;font-variant-ligatures:normal;font-variant-position:normal;font-variant-caps:normal;font-variant-numeric:normal;font-variant-alternates:normal;font-variant-east-asian:normal;font-feature-settings:normal;font-variation-settings:normal;text-indent:0;text-align:start;text-decoration:none;text-decoration-line:none;text-decoration-style:solid;text-decoration-color:#000000;letter-spacing:normal;word-spacing:normal;text-transform:none;writing-mode:lr-tb;direction:ltr;text-orientation:mixed;dominant-baseline:auto;baseline-shift:baseline;text-anchor:start;white-space:normal;shape-padding:0;shape-margin:0;inline-size:0;clip-rule:nonzero;display:inline;overflow:visible;visibility:visible;opacity:1;isolation:auto;mix-blend-mode:normal;color-interpolation:sRGB;color-interpolation-filters:linearRGB;solid-color:#000000;solid-opacity:1;vector-effect:none;fill:#000000;fill-opacity:1;fill-rule:nonzero;stroke:none;stroke-width:0.655329;stroke-linecap:butt;stroke-linejoin:miter;stroke-miterlimit:4;stroke-dasharray:none;stroke-dashoffset:0;stroke-opacity:1;color-rendering:auto;image-rendering:auto;shape-rendering:auto;text-rendering:auto;enable-background:accumulate;stop-color:#000000;stop-opacity:1"
       d="m 148.06739,72.228904 c 0,0.156533 0.10967,0.313155 0.21943,0.313155 h 4.82713 c 0.10968,0 0.21941,-0.156533 0.21941,-0.313155 v -1.40924 c 0,-0.156533 -0.10967,-0.313154 -0.21941,-0.313154 h -3.51064 v -2.975073 h 2.96211 c 0.10968,0 0.21941,-0.156532 0.21941,-0.313154 v -1.40924 c 0,-0.156533 -0.10967,-0.313184 -0.21941,-0.313184 h -2.96211 v -2.81848 h 3.51064 c 0.10968,0 0.21941,-0.156533 0.21941,-0.313155 v -1.40924 c 0,-0.156533 -0.10967,-0.313154 -0.21941,-0.313154 h -4.82713 c -0.10967,0 -0.21943,0.156532 -0.21943,0.313154 z"
       id="Path-229" />
    <path
       style="color:#000000;font-style:normal;font-variant:normal;font-weight:normal;font-stretch:normal;font-size:medium;line-height:normal;font-family:sans-serif;font-variant-ligatures:normal;font-variant-position:normal;font-variant-caps:normal;font-variant-numeric:normal;font-variant-alternates:normal;font-variant-east-asian:normal;font-feature-settings:normal;font-variation-settings:normal;text-indent:0;text-align:start;text-decoration:none;text-decoration-line:none;text-decoration-style:solid;text-decoration-color:#000000;letter-spacing:normal;word-spacing:normal;text-transform:none;writing-mode:lr-tb;direction:ltr;text-orientation:mixed;dominant-baseline:auto;baseline-shift:baseline;text-anchor:start;white-space:normal;shape-padding:0;shape-margin:0;inline-size:0;clip-rule:nonzero;display:inline;overflow:visible;visibility:visible;opacity:1;isolation:auto;mix-blend-mode:normal;color-interpolation:sRGB;color-interpolation-filters:linearRGB;solid-color:#000000;solid-opacity:1;vector-effect:none;fill:#000000;fill-opacity:1;fill-rule:nonzero;stroke:none;stroke-width:0.655329;stroke-linecap:butt;stroke-linejoin:miter;stroke-miterlimit:4;stroke-dasharray:none;stroke-dashoffset:0;stroke-opacity:1;color-rendering:auto;image-rendering:auto;shape-rendering:auto;text-rendering:auto;enable-background:accumulate;stop-color:#000000;stop-opacity:1"
       d="m 166.93713,72.228904 v -11.27392 c 0,-0.156533 0.10967,-0.313154 0.21941,-0.313154 h 3.40095 c 1.4262,0 2.57812,1.644098 2.57812,3.679677 v 0 c -0.0549,1.565802 -0.7131,2.896776 -1.75533,3.444789 l 1.64562,4.306016 c 0.0549,0.156533 0.0549,0.313184 -0.0547,0.469747 -0.0549,0 -0.10968,0.07841 -0.10968,0.07841 h -1.26163 c -0.0549,0 -0.16462,-0.07841 -0.21943,-0.156533 l -1.59076,-4.462578 h -1.31649 v 4.306016 c 0,0.156533 -0.10968,0.313154 -0.21941,0.313154 h -1.09709 c -0.10967,-0.07841 -0.2194,-0.234947 -0.2194,-0.39145 v 0 z m 1.59076,-6.106707 h 1.91988 c 0.65825,0 1.2068,-0.782901 1.2068,-1.722394 0,-0.939493 -0.54855,-1.644128 -1.15194,-1.644128 h -1.91988 z"
       id="Combined-Shape-40" />
  </g>
</svg>
