<?xml version="1.0" encoding="UTF-8" standalone="no"?>
<svg xmlns="http://www.w3.org/2000/svg" height="30px" width="170px" version="1.1" xmlns:xlink="http://www.w3.org/1999/xlink" viewBox="0 0 170 30"><!-- Generator: Sketch 42 (36781) - http://www.bohemiancoding.com/sketch -->
 <title>Group 23</title>
 <desc>Created with Sketch.</desc>
 <g id="Page-1" fill-rule="evenodd" fill="none">
  <g id="who_we_are" fill="#303030" transform="translate(-735 -2141)">
   <g id="Group-23" transform="translate(735 2141)">
    <path id="Fill-1" d="m10.608 18.871c0.276 0.337 0.538 0.655 0.798 0.975 0.291 0.357 0.578 0.719 0.875 1.076 0.453 0.549 1.019 0.88 1.753 0.882 0.965 0 1.792-0.577 2.107-1.487 0.613-1.766 1.218-3.536 1.827-5.304 0.023-0.069 0.05-0.137 0.087-0.238 0.256 0.349 0.496 0.669 0.726 0.994 0.6 0.85 1.178 1.717 1.795 2.556 0.75 1.02 2.211 1.195 3.188 0.398 0.189-0.154 0.349-0.355 0.479-0.565 1.449-2.338 2.889-4.678 4.332-7.021 0.074-0.12 0.159-0.233 0.238-0.348 0.022 0.003 0.047 0.005 0.069 0.006 0.111 0.335 0.23 0.667 0.329 1.006 0.442 1.501 0.617 3.04 0.493 4.589-0.419 5.208-2.885 9.156-7.474 11.754-1.537 0.871-3.188 1.453-4.94 1.671-5.346 0.666-9.8312-0.995-13.356-5.06-1.6883-1.95-2.7192-4.235-3.1687-6.766-0.21494-1.209-0.26135-2.43-0.14898-3.655 0.28337-3.045 1.3973-5.7491 3.3883-8.0734 2.096-2.4433 4.7489-4.0058 7.8964-4.7458 1.022-0.2414 2.059-0.3579 3.105-0.3603 2.015-0.0024 3.962 0.37 5.824 1.1488 2.113 0.8795 3.932 2.163 5.41 3.9087 0.087 0.1044 0.134 0.1856 0.045 0.3251-1.322 2.1157-2.64 4.2349-3.958 6.3549-0.017 0.03-0.038 0.055-0.071 0.103-0.047-0.054-0.086-0.095-0.119-0.144-0.982-1.374-1.979-2.74-2.94-4.129-0.841-1.2095-2.424-1.1549-3.271-0.4331-0.308 0.2633-0.516 0.5908-0.646 0.9705-0.513 1.5016-1.021 3.0066-1.539 4.5066-0.147 0.421-0.316 0.832-0.488 1.282-0.073-0.078-0.122-0.132-0.167-0.188-0.508-0.644-1.01-1.295-1.529-1.931-0.334-0.409-0.734-0.744-1.264-0.86-1.1254-0.246-2.2504 0.244-2.6657 1.504-0.502 1.52-0.9734 3.049-1.4498 4.579-0.3469 1.116-0.6425 2.249-1.0297 3.348-0.5288 1.487 0.8502 2.96 2.3696 2.754 0.993-0.134 1.5598-0.722 1.8774-1.591 0.243-0.665 0.4201-1.352 0.6302-2.027 0.169-0.539 0.344-1.074 0.518-1.611 0.013-0.042 0.035-0.082 0.065-0.154"/>
    <path id="Fill-2" d="m30.875 6.155c-1.604-0.0048-2.88-1.3017-2.894-2.9066-0.012-1.4085 1.106-2.8715 2.891-2.8752 1.638-0.00481 2.907 1.2435 2.907 2.8861 0 1.668-1.31 2.863-2.904 2.8957"/>
    <path id="Fill-3" d="m50.84 12.756c-0.211 0.58-0.426 1.159-0.636 1.74-0.782 2.176-1.574 4.347-2.334 6.527-0.133 0.381-0.353 0.397-0.68 0.414-0.35 0.017-0.477-0.128-0.579-0.428-0.882-2.575-1.78-5.143-2.673-7.712-0.063-0.183-0.137-0.363-0.277-0.537-0.407 2.805-0.812 5.612-1.223 8.449h-2.744c0.783-4.734 1.558-9.437 2.346-14.196 0.602-0.0003 1.197-0.0197 1.786 0.0167 0.11 0.006 0.239 0.2353 0.298 0.3882 0.895 2.3583 1.782 4.7201 2.672 7.0821 0.191 0.504 0.385 1.008 0.613 1.608 0.094-0.246 0.154-0.397 0.209-0.552 0.981-2.715 1.968-5.429 2.934-8.1503 0.109-0.3166 0.26-0.4209 0.585-0.4039 0.502 0.0267 1.004 0.0085 1.538 0.0085 0.697 4.7417 1.388 9.4437 2.092 14.233h-1.949c-0.796 0-0.792 0-0.892-0.774-0.332-2.561-0.668-5.122-1.003-7.687-0.026-0.009-0.054-0.018-0.083-0.026"/>
    <path id="Fill-4" d="m137.48 16.945c0.24-0.508 0.44-0.918 0.63-1.329 0.43-0.923 0.83-1.858 1.28-2.773 1.08-2.196 2.57-4.0106 4.94-4.9132 0.64-0.2426 1.36-0.3069 2.05-0.4124 0.11-0.017 0.33 0.1528 0.36 0.2717 0.17 0.552 0.28 1.1136 0.42 1.7008-0.4 0.0704-0.77 0.1116-1.13 0.2074-1.96 0.5067-3.29 1.7857-4.18 3.5177-0.81 1.584-1.55 3.204-2.31 4.812-0.47 0.971-0.96 1.937-1.38 2.929-0.27 0.623-0.77 0.323-1.18 0.389-0.35 0.058-0.37-0.238-0.45-0.46-0.54-1.501-1.07-3.004-1.61-4.505-0.04-0.127-0.09-0.252-0.19-0.484-0.11 0.214-0.19 0.341-0.24 0.482-0.6 1.51-1.21 3.022-1.79 4.541-0.12 0.315-0.28 0.417-0.62 0.446-0.62 0.055-0.94-0.156-1.19-0.746-1.16-2.646-2.37-5.267-3.57-7.899-0.06-0.134-0.11-0.271-0.19-0.461 0.88 0 1.69-0.017 2.49 0.014 0.13 0.006 0.29 0.194 0.35 0.333 0.57 1.298 1.11 2.603 1.66 3.905 0.06 0.148 0.14 0.289 0.26 0.526 0.23-0.546 0.42-0.99 0.61-1.434 0.44-1.068 0.89-2.132 1.31-3.205 0.13-0.312 0.29-0.438 0.64-0.431 0.94 0.02 0.94 0 1.3 0.876 0.5 1.195 0.99 2.389 1.48 3.58 0.07 0.147 0.14 0.287 0.25 0.522"/>
    <path id="Fill-5" d="m167.43 20.408c-0.07 0.035-0.12 0.043-0.15 0.073-1.17 1.412-3.83 1.311-5.21-0.295-1.55-1.797-1.65-4.797-0.22-6.692 1.26-1.677 3.87-2.164 5.58-0.427 0.02-0.216 0.04-0.365 0.04-0.515 0-1.551 0.01-3.1033-0.01-4.6537 0-0.3809 0.12-0.5035 0.5-0.4877 0.64 0.0279 1.29 0.0073 1.98 0.0073 0.02 0.188 0.03 0.3481 0.03 0.5071 0.01 4.243 0 8.487 0.01 12.731 0.01 0.393-0.09 0.549-0.51 0.518-0.47-0.033-0.95-0.031-1.42 0-0.41 0.027-0.65-0.066-0.58-0.538 0.01-0.065-0.03-0.136-0.04-0.228zm0.31-3.691c0.04-0.016 0.08-0.033 0.12-0.049-0.21-0.529-0.33-1.109-0.63-1.575-0.85-1.299-2.54-1.258-3.4 0.034-0.71 1.073-0.61 2.541 0.23 3.472 0.86 0.957 2.23 0.927 3.04-0.07 0.43-0.528 0.64-1.134 0.64-1.812z"/>
    <path id="Fill-6" d="m149.3 13.031c0.03-0.271 0.05-0.489 0.07-0.769 0.74 0 1.47-0.011 2.2 0.019 0.08 0.003 0.19 0.268 0.2 0.413 0.01 1.339 0.01 2.68 0.01 4.019 0 1.337-0.02 2.677 0 4.017 0.01 0.339-0.1 0.454-0.44 0.444-0.64-0.022-1.29-0.009-1.97-0.009-0.02-0.262-0.03-0.482-0.06-0.745-0.09 0.04-0.17 0.049-0.21 0.092-1.23 1.402-3.94 1.3-5.34-0.482-1.42-1.797-1.47-4.631-0.12-6.483 1.31-1.812 3.95-2.114 5.43-0.657 0.05 0.049 0.12 0.074 0.23 0.141zm-1.83 6.265c0.08-0.013 0.25-0.032 0.41-0.079 0.97-0.274 1.68-1.272 1.72-2.442 0.04-1.074-0.65-2.185-1.57-2.513-0.8-0.284-1.66-0.031-2.22 0.652-0.8 0.985-0.83 2.499-0.07 3.515 0.41 0.539 0.95 0.856 1.73 0.867z"/>
    <path id="Fill-7" d="m60.565 11.914c2.871 0.051 4.757 2.054 4.708 5-0.045 2.746-2.097 4.674-4.91 4.62-2.797-0.054-4.709-2.105-4.644-4.978 0.061-2.751 2.091-4.694 4.846-4.642zm2.067 4.821c0.042-0.017 0.084-0.031 0.127-0.048-0.216-0.541-0.344-1.136-0.658-1.614-0.777-1.171-2.337-1.171-3.188-0.052-0.76 0.998-0.731 2.514 0.068 3.482 0.817 0.989 2.212 0.994 3.028 0.005 0.425-0.513 0.626-1.11 0.623-1.773z"/>
    <path id="Fill-8" d="m86.764 26.047c0.533-1.104 1.025-2.128 1.521-3.153 0.421-0.875 0.83-1.762 1.282-2.622 0.163-0.312 0.137-0.545-0.017-0.839-1.144-2.235-2.273-4.477-3.403-6.717-0.073-0.142-0.137-0.293-0.234-0.504 0.971 0 1.868-0.012 2.767 0.014 0.107 0.003 0.246 0.197 0.302 0.332 0.665 1.548 1.318 3.104 2.011 4.743 0.096-0.194 0.163-0.32 0.223-0.45 0.647-1.425 1.303-2.848 1.936-4.277 0.123-0.278 0.275-0.382 0.584-0.372 0.795 0.022 1.59 0.007 2.442 0.007-0.05 0.149-0.076 0.26-0.123 0.36-2.089 4.378-4.181 8.754-6.263 13.134-0.122 0.254-0.264 0.357-0.556 0.35-0.793-0.02-1.588-0.006-2.472-0.006"/>
    <path id="Fill-9" d="m104.32 12.81h3.95c0 0.706 0.02 1.357-0.02 2.004 0 0.095-0.27 0.244-0.42 0.248-0.98 0.023-1.96 0.028-2.94 0.003-0.42-0.009-0.59 0.095-0.58 0.557 0.03 1.689 0 3.376 0.02 5.067 0 0.385-0.12 0.503-0.5 0.485-0.56-0.027-1.13-0.019-1.7-0.003-0.3 0.009-0.43-0.073-0.43-0.408 0.01-4.321 0.01-8.641 0-12.964 0-0.3035 0.11-0.386 0.4-0.386 2.01 0.0097 4.02 0.0109 6.02 0 0.34-0.0024 0.43 0.1177 0.42 0.4246-0.02 0.4731-0.02 0.945 0 1.4157 0.01 0.3288-0.13 0.4161-0.44 0.4137-1.1-0.0145-2.2 0.0037-3.31-0.0121-0.34-0.0049-0.49 0.091-0.48 0.4661 0.03 0.866 0.01 1.733 0.01 2.689"/>
    <path id="Fill-10" d="m113.85 21.467c-2.81 0.013-4.72-1.907-4.72-4.746 0-2.819 1.9-4.739 4.68-4.745 2.8-0.005 4.75 1.92 4.76 4.682 0.01 2.864-1.89 4.801-4.72 4.809zm-2.18-4.775c-0.01 0.717 0.19 1.321 0.6 1.821 0.75 0.935 2.04 1.047 2.91 0.251 1.15-1.052 1.14-3.086-0.03-4.115-0.46-0.401-0.99-0.592-1.61-0.474-1.13 0.221-1.86 1.206-1.87 2.517z"/>
    <path id="Fill-11" d="m85.412 18.71c-0.647 1.924-2.565 3.059-4.643 2.8-2.355-0.295-3.879-1.889-3.974-4.268-0.032-0.779 0.057-1.592 0.262-2.343 0.543-1.966 2.151-3.056 4.245-2.985 2.125 0.073 3.557 1.226 4.001 3.278 0.135 0.616 0.163 1.254 0.248 1.948h-6.023c-0.019 0.697 0.111 1.294 0.502 1.81 0.673 0.89 2.075 0.804 2.737-0.198 0.234-0.354 0.451-0.431 0.848-0.34 0.579 0.135 1.174 0.199 1.797 0.298zm-2.405-3.207c-0.158-1.1-0.87-1.819-1.733-1.788-0.882 0.031-1.587 0.791-1.638 1.788h3.371z"/>
    <path id="Fill-12" d="m69.559 21.22h-2.575v-8.974h2.546c0.017 0.206 0.035 0.425 0.061 0.733 0.596-0.713 1.313-1.009 2.157-1.063 1.805-0.111 2.995 0.83 3.266 2.61 0.024 0.165 0.063 0.331 0.063 0.496 0.004 2.052 0.003 4.103 0.003 6.188h-2.564v-0.497c0-1.491 0.011-2.981-0.005-4.471-0.008-0.454-0.057-0.912-0.149-1.354-0.11-0.533-0.486-0.838-1.028-0.901-0.571-0.068-1.107 0.059-1.378 0.598-0.192 0.385-0.34 0.831-0.352 1.254-0.049 1.596-0.035 3.195-0.045 4.791v0.59"/>
    <path id="Fill-13" d="m159.79 14.3c-0.51-0.058-0.92-0.182-1.31-0.136-1.12 0.13-1.72 0.926-1.74 2.299-0.03 1.4-0.03 2.801 0 4.2 0 0.406-0.11 0.535-0.52 0.511-0.55-0.031-1.1-0.013-1.65-0.004-0.25 0.004-0.36-0.075-0.36-0.34 0.01-2.8 0.01-5.6 0.01-8.401 0-0.028 0.02-0.058 0.04-0.128h2.44c0.02 0.257 0.03 0.523 0.06 0.896 0.16-0.176 0.26-0.292 0.37-0.404 0.72-0.757 1.6-0.976 2.6-0.722 0.12 0.033 0.3 0.208 0.29 0.303-0.05 0.661-0.15 1.317-0.23 1.926"/>
    <path id="Fill-14" d="m122.89 13.231c0.22-0.246 0.34-0.411 0.5-0.554 0.71-0.686 1.56-0.834 2.5-0.61 0.24 0.055 0.33 0.152 0.29 0.411-0.1 0.627-0.18 1.258-0.26 1.85-0.43-0.063-0.86-0.205-1.26-0.171-1.08 0.091-1.71 0.831-1.76 2.034-0.05 1.49-0.06 2.98-0.06 4.468 0 0.402-0.12 0.541-0.53 0.515-0.52-0.031-1.04-0.016-1.56-0.004-0.26 0.004-0.39-0.067-0.39-0.358 0.01-2.739 0.01-5.477 0-8.215 0-0.259 0.1-0.35 0.35-0.344 0.56 0.015 1.11 0.026 1.66-0.002 0.38-0.023 0.49 0.126 0.46 0.471-0.01 0.123 0.03 0.252 0.06 0.509"/>
   </g>
  </g>
 </g>
</svg>
