<?xml version="1.0" encoding="UTF-8" standalone="no"?>
<svg
   xmlns:dc="http://purl.org/dc/elements/1.1/"
   xmlns:cc="http://creativecommons.org/ns#"
   xmlns:rdf="http://www.w3.org/1999/02/22-rdf-syntax-ns#"
   xmlns:svg="http://www.w3.org/2000/svg"
   xmlns="http://www.w3.org/2000/svg"
   xmlns:sodipodi="http://sodipodi.sourceforge.net/DTD/sodipodi-0.dtd"
   xmlns:inkscape="http://www.inkscape.org/namespaces/inkscape"
   id="レイヤー_1"
   data-name="レイヤー 1"
   viewBox="0 0 300 6400"
   version="1.1"
   sodipodi:docname="motion_letter.svg"
   inkscape:version="1.0.2 (e86c8708, 2021-01-15)">
  <metadata
     id="metadata137">
    <rdf:RDF>
      <cc:Work
         rdf:about="">
        <dc:format>image/svg+xml</dc:format>
        <dc:type
           rdf:resource="http://purl.org/dc/dcmitype/StillImage" />
      </cc:Work>
    </rdf:RDF>
  </metadata>
  <defs
     id="defs135" />
  <sodipodi:namedview
     pagecolor="#ffffff"
     bordercolor="#666666"
     borderopacity="1"
     objecttolerance="10"
     gridtolerance="10"
     guidetolerance="10"
     inkscape:pageopacity="0"
     inkscape:pageshadow="2"
     inkscape:window-width="784"
     inkscape:window-height="480"
     id="namedview133"
     showgrid="false"
     inkscape:zoom="0.10663865"
     inkscape:cx="50.808152"
     inkscape:cy="6203.3841"
     inkscape:window-x="0"
     inkscape:window-y="25"
     inkscape:window-maximized="0"
     inkscape:current-layer="レイヤー_1" />
  <title
     id="title10">アートボード 1</title>
  <path
     id="Fill-4-14"
     data-name="Fill-4"
     d="M187.33,6307.1c-.22-1.92-.88-2.47-2.57-1.76a15.07,15.07,0,0,0-3.58,2c-3.69,3-7.46,5.86-10.88,9.12-5.29,5-9.63,10.89-13.88,16.84-2.2,3.08-1.9,5.66-.41,8.62s3.42,3.75,6.61,2.31c3.94-1.78,6.77-5,9.41-8.13a84.37,84.37,0,0,0,13.17-22.29c.89-2.18,1.43-4.5,2.13-6.75m-36.16,35.5c-2.76,6.14-5.49,11.86-7.91,17.71-3.17,7.64-6.11,15.38-9.14,23.08-.5,1.26-1,2.54-1.46,3.79-.71,1.77-2.24,2.11-3.46.66-1.73-2-2.76-4.54-1.93-7.07q2.7-8.25,6.07-16.27c2.93-7,6.14-13.88,9.22-20.81a.4.4,0,0,0,0-.28c-2.58,2.2-5,4.74-7.89,6.64-3.81,2.53-8,3.84-12.36,1-3.27-2.13-4.56-5.42-4.85-9.17-.4-5.16.7-10.11,2.13-15a.92.92,0,0,0,0-.74c-.27.39-.54.78-.81,1.17-5.28,7.85-10.76,15.55-17.57,22.18a37.84,37.84,0,0,1-5.73,4.42c-3.44,2.25-6.84,1.71-9.57-1.48a15.26,15.26,0,0,1-3.7-12.32c.94-7,3.72-13.5,6.9-19.76,2-3.93,4.22-7.76,6.46-11.56,1.36-2.31,2.94-4.49,4.43-6.72a2.13,2.13,0,0,1,2.88-.83,5.23,5.23,0,0,1,2.39,7.69c-2,3.09-3.95,6.26-5.85,9.42-3.84,6.37-7.4,12.89-9.69,20a36.61,36.61,0,0,0-1.43,7.1,3.1,3.1,0,0,0,1.14,2.58,3.07,3.07,0,0,0,2.76-.55c3.13-2.84,6.49-5.56,9.06-8.87,7.6-9.76,14.88-19.77,22.26-29.71,1.64-2.21,3-2.67,5.29-1.22a13.63,13.63,0,0,1,3,2.78c1.17,1.37,1,2.77.19,4.42-4.4,8.67-7.17,17.8-7.24,27.61,0,1.44.09,3.06,1.52,3.81s2.74-.4,3.87-1.23c5.25-3.88,9.27-8.95,13.31-14,1.56-1.94,3-4,4.59-5.89,8.13-9.36,11.87-20.94,16.08-32.24,1-2.7,2.25-2.22,3.64-.89a6,6,0,0,1,1.61,6.83c-1.68,4.43-3.58,8.77-5.4,13.14a4.54,4.54,0,0,0-.51,1.85c.56-.59,1.12-1.17,1.67-1.78a60.27,60.27,0,0,1,13.72-11.35c7.46-4.5,12.66.65,14,6.87a16.1,16.1,0,0,1-1,8.77c-3.82,10.87-9.17,20.86-17.75,28.73a30.05,30.05,0,0,1-8.45,5.3c-5.13,2.18-10.28,0-12.91-4.9-.44-.82-.81-1.68-1.41-2.94" />
  <path
     id="Fill-1-29"
     data-name="Fill-1"
     d="M3,6358.09c.6-1.42,1.1-2.88,1.82-4.23a6,6,0,0,1,1.85-2.08,6.89,6.89,0,0,1,2.24-.58,6.8,6.8,0,0,1-.35,2.07c-1.92,3.65-.88,6.08,3.13,7,4.18,1,8.38.53,12.51-.21,10.47-1.87,20.63-4.8,30-9.91a36.58,36.58,0,0,0,7.77-5.51,12.63,12.63,0,0,0,2.47-15.53,46.25,46.25,0,0,0-5.9-8.08c-6.9-8.05-14-15.91-20.87-24a24.58,24.58,0,0,1-5.14-10.65c-1.41-6.41,1-11.62,5.29-16.12,7.16-7.47,16-12.12,25.71-15.44a70.45,70.45,0,0,1,16.07-3.72,11.75,11.75,0,0,1,7.21,1.35,7.82,7.82,0,0,1,3.44,9.78c-1.94,5-4.38,9.75-6.66,14.59-.52,1.11-1.34.81-2,.07-1.73-2-2.7-4.28-1.54-7,1.06-2.48,2.16-5,3.07-7.5,1-2.87.43-3.81-2.58-3.55a50.29,50.29,0,0,0-10.07,1.71c-7.61,2.28-15,5.12-21.54,9.86a22.26,22.26,0,0,0-7.49,8.47c-2.45,5.26-1.66,10.38,1.56,14.9,2.94,4.12,6.4,7.88,9.74,11.7,4.64,5.32,9.53,10.43,14,15.85,3.52,4.24,6.11,9.05,6.68,14.72.48,4.71-.61,8.87-4,12.34a42.26,42.26,0,0,1-11.24,8.05,109.23,109.23,0,0,1-30,10.43c-5.65,1.07-11.35,1.78-17.11.89-4-.61-7-2.58-8.17-6.67Z" />
  <path
     id="Fill-7"
     d="M205.54,6326.5l.27.22a5.65,5.65,0,0,0,.66-.37c3.87-2.91,7.87-5.67,11.55-8.81a89.88,89.88,0,0,0,8.25-8.33c.64-.71,1.13-2.38.74-3-.74-1.22-2.26-.6-3.27,0a23.21,23.21,0,0,0-5.27,3.65c-3.43,3.63-6.65,7.45-9.79,11.34a40.79,40.79,0,0,0-3.14,5.31M195,6339.19a41.53,41.53,0,0,1,6-20.46,57,57,0,0,1,7.1-9.95c3.31-3.58,7-6.87,11.91-8.34,3.1-.93,6.21-1.11,9.14.57,3.94,2.25,5.14,6.9,3,11.43-1.93,4.17-5.13,7.3-8.54,10.23a96.35,96.35,0,0,1-19.92,13,2.63,2.63,0,0,0-1.76,2.49,37.22,37.22,0,0,0,0,6.57c1,5.79,4.67,7.73,10.18,5.57,5.14-2,9.28-5.5,13.22-9.24a136.83,136.83,0,0,0,18.36-22.2c5-7.32,9.88-14.73,14.74-22.14a45.3,45.3,0,0,0,3-5.52,1.65,1.65,0,0,1,2.37-1,4.71,4.71,0,0,1,3.11,6.66c-.34.81-.8,1.58-1.14,2.39-.61,1.48-.25,2.15,1.33,2.45,1,.19,2,.23,2.95.41,5,.93,7,4.51,4.92,9.27-1.41,3.24-3.12,6.35-4.46,9.61-2.87,7-5.62,14-8.32,21.07a12.1,12.1,0,0,0-.53,3.58c-.06,1,.58,1.62,1.58,1.34a11,11,0,0,0,3.16-1.31c4.71-3.13,8.3-7.43,11.89-11.71a191.67,191.67,0,0,0,15.55-20.38c.37-.58,1.51-1.28,1.93-1.09a3.76,3.76,0,0,1,1.89,2,5.75,5.75,0,0,1-.94,5.06c-4,6-7.81,12.22-12.35,17.81-3.87,4.75-8.57,8.85-13.12,13a9,9,0,0,1-8.27,2.4c-4.19-.94-7.28-5-7.67-9.9-.44-5.45,1.58-10.34,3.58-15.16,2.18-5.24,4.76-10.32,7.16-15.47.26-.55.51-1.11.71-1.67.71-2,.47-2.94-.91-3.71-1.84-1-3.87-.85-5,.58-1.6,2.11-3.14,4.27-4.68,6.44-2.9,4.11-5.61,8.36-8.7,12.32-6.37,8.17-12.36,16.7-20.46,23.35-3.43,2.82-7.06,5.3-11.4,6.54-9.84,2.8-19-3.14-20.39-13.3-.19-1.37-.27-2.75-.36-3.61" />
</svg>
