<svg id="レイヤー_1" data-name="レイヤー 1" xmlns="http://www.w3.org/2000/svg" viewBox="0 0 300 6400"><title>アートボード 1</title><path d="M86.82,172.43a11.75,11.75,0,0,0-7.21-1.35,70.46,70.46,0,0,0-16.07,3.72A86,86,0,0,0,55,178.22c0,.1,0,.19,0,.28a10.45,10.45,0,0,0,2.57,6.87,91,91,0,0,1,13-4.83,50.27,50.27,0,0,1,10.07-1.71c3-.26,3.6.68,2.58,3.55-.91,2.54-2,5-3.07,7.5-1.17,2.72-.19,5,1.54,7,.62.74,1.45,1,2-.07,2.27-4.84,4.72-9.62,6.66-14.59A7.82,7.82,0,0,0,86.82,172.43Z"/><path d="M86.82,332.43a11.75,11.75,0,0,0-7.21-1.35,70.46,70.46,0,0,0-16.07,3.72c-9.27,3.18-17.81,7.6-24.81,14.54A10.52,10.52,0,0,0,44,355a27.07,27.07,0,0,1,5-4.58c6.51-4.74,13.93-7.58,21.54-9.86a50.27,50.27,0,0,1,10.07-1.71c3-.26,3.6.68,2.58,3.55-.91,2.54-2,5-3.07,7.5-1.17,2.72-.19,5,1.54,7,.62.74,1.45,1,2-.07,2.27-4.84,4.72-9.62,6.66-14.59A7.82,7.82,0,0,0,86.82,332.43Z"/><path d="M86.82,492.43a11.75,11.75,0,0,0-7.21-1.35,70.46,70.46,0,0,0-16.07,3.72c-9.67,3.32-18.54,8-25.71,15.44-4.31,4.5-6.69,9.71-5.29,16.12.18.81.4,1.6.65,2.39a10.4,10.4,0,0,0,7.15-.93,14,14,0,0,1,1.14-8.94A22.26,22.26,0,0,1,49,510.39c6.51-4.74,13.93-7.58,21.54-9.86a50.27,50.27,0,0,1,10.07-1.71c3-.26,3.6.68,2.58,3.55-.91,2.54-2,5-3.07,7.5-1.17,2.72-.19,5,1.54,7,.62.74,1.45,1,2-.07,2.27-4.84,4.72-9.62,6.66-14.59A7.82,7.82,0,0,0,86.82,492.43Z"/><path d="M86.82,652.43a11.75,11.75,0,0,0-7.21-1.35,70.46,70.46,0,0,0-16.07,3.72c-9.67,3.32-18.54,8-25.71,15.44-4.31,4.5-6.69,9.71-5.29,16.12A24.59,24.59,0,0,0,37.69,697c2.4,2.84,4.83,5.65,7.28,8.45a10.53,10.53,0,0,0,4-4.38c-2.06-2.37-4.08-4.77-5.89-7.31-3.22-4.52-4-9.64-1.56-14.9A22.26,22.26,0,0,1,49,670.39c6.51-4.74,13.93-7.58,21.54-9.86a50.27,50.27,0,0,1,10.07-1.71c3-.26,3.6.68,2.58,3.55-.91,2.54-2,5-3.07,7.5-1.17,2.72-.19,5,1.54,7,.62.74,1.45,1,2-.07,2.27-4.84,4.72-9.62,6.66-14.59A7.82,7.82,0,0,0,86.82,652.43Z"/><path d="M86.82,812.43a11.75,11.75,0,0,0-7.21-1.35,70.46,70.46,0,0,0-16.07,3.72c-9.67,3.32-18.54,8-25.71,15.44-4.31,4.5-6.69,9.71-5.29,16.12A24.59,24.59,0,0,0,37.69,857c6.36,7.54,13,14.88,19.42,22.34A10.51,10.51,0,0,0,62,875.7c-3-3.42-6.16-6.78-9.17-10.23-3.34-3.82-6.8-7.58-9.74-11.7-3.22-4.52-4-9.64-1.56-14.9A22.26,22.26,0,0,1,49,830.39c6.51-4.74,13.93-7.58,21.54-9.86a50.27,50.27,0,0,1,10.07-1.71c3-.26,3.6.68,2.58,3.55-.91,2.54-2,5-3.07,7.5-1.17,2.72-.19,5,1.54,7,.62.74,1.45,1,2-.07,2.27-4.84,4.72-9.62,6.66-14.59A7.82,7.82,0,0,0,86.82,812.43Z"/><path d="M86.82,972.43a11.75,11.75,0,0,0-7.21-1.35,70.46,70.46,0,0,0-16.07,3.72c-9.67,3.32-18.54,8-25.71,15.44-4.31,4.5-6.69,9.71-5.29,16.12A24.59,24.59,0,0,0,37.69,1017c6.84,8.11,14,16,20.87,24a46.25,46.25,0,0,1,5.9,8.07,13.2,13.2,0,0,1,1.61,6.77,10.48,10.48,0,0,0,6.67-3.87,29.45,29.45,0,0,0-5.9-10.68c-4.51-5.43-9.4-10.53-14-15.85-3.34-3.82-6.8-7.58-9.74-11.7-3.22-4.52-4-9.64-1.56-14.9A22.26,22.26,0,0,1,49,990.39c6.51-4.74,13.93-7.58,21.54-9.86a50.27,50.27,0,0,1,10.07-1.71c3-.26,3.6.68,2.58,3.55-.91,2.54-2,5-3.07,7.5-1.17,2.72-.19,5,1.54,7,.62.74,1.45,1,2-.07,2.27-4.84,4.72-9.62,6.66-14.59A7.82,7.82,0,0,0,86.82,972.43Z"/><path d="M86.82,1132.43a11.75,11.75,0,0,0-7.21-1.35,70.46,70.46,0,0,0-16.07,3.72c-9.67,3.32-18.54,8-25.71,15.44-4.31,4.5-6.69,9.71-5.29,16.12A24.59,24.59,0,0,0,37.69,1177c6.84,8.11,14,16,20.87,24a46.25,46.25,0,0,1,5.9,8.07A12.63,12.63,0,0,1,62,1224.63c-.36.35-.75.67-1.14,1a10.53,10.53,0,0,0,5.62,5.56,34.5,34.5,0,0,0,3.09-2.82c3.35-3.47,4.44-7.63,4-12.34-.58-5.67-3.16-10.48-6.68-14.72-4.51-5.43-9.4-10.53-14-15.85-3.34-3.82-6.8-7.58-9.74-11.7-3.22-4.52-4-9.64-1.56-14.9a22.26,22.26,0,0,1,7.49-8.47c6.51-4.74,13.93-7.58,21.54-9.86a50.27,50.27,0,0,1,10.07-1.71c3-.26,3.6.68,2.58,3.55-.91,2.54-2,5-3.07,7.5-1.17,2.72-.19,5,1.54,7,.62.74,1.45,1,2-.07,2.27-4.84,4.72-9.62,6.66-14.59A7.82,7.82,0,0,0,86.82,1132.43Z"/><path d="M86.82,1292.43a11.75,11.75,0,0,0-7.21-1.35,70.46,70.46,0,0,0-16.07,3.72c-9.67,3.32-18.54,8-25.71,15.44-4.31,4.5-6.69,9.71-5.29,16.12A24.59,24.59,0,0,0,37.69,1337c6.84,8.11,14,16,20.87,24a46.25,46.25,0,0,1,5.9,8.07A12.63,12.63,0,0,1,62,1384.63a36.57,36.57,0,0,1-7.77,5.51,78.61,78.61,0,0,1-7.17,3.44c0,.3,0,.61,0,.92a10.44,10.44,0,0,0,2,6.2c3.14-1.28,6.24-2.69,9.28-4.27a42.27,42.27,0,0,0,11.24-8.05c3.35-3.47,4.44-7.63,4-12.34-.58-5.67-3.16-10.48-6.68-14.72-4.51-5.43-9.4-10.53-14-15.85-3.34-3.82-6.8-7.58-9.74-11.7-3.22-4.52-4-9.64-1.56-14.9a22.26,22.26,0,0,1,7.49-8.47c6.51-4.74,13.93-7.58,21.54-9.86a50.27,50.27,0,0,1,10.07-1.71c3-.26,3.6.68,2.58,3.55-.91,2.54-2,5-3.07,7.5-1.17,2.72-.19,5,1.54,7,.62.74,1.45,1,2-.07,2.27-4.84,4.72-9.62,6.66-14.59A7.82,7.82,0,0,0,86.82,1292.43Z"/><path d="M86.82,1452.43a11.75,11.75,0,0,0-7.21-1.35,70.46,70.46,0,0,0-16.07,3.72c-9.67,3.32-18.54,8-25.71,15.44-4.31,4.5-6.69,9.71-5.29,16.12A24.59,24.59,0,0,0,37.69,1497c6.84,8.11,14,16,20.87,24a46.26,46.26,0,0,1,5.9,8.07A12.63,12.63,0,0,1,62,1544.63a36.58,36.58,0,0,1-7.77,5.51,92.89,92.89,0,0,1-25.11,8.93,10.29,10.29,0,0,0,1.67,7.26,109.43,109.43,0,0,0,27.55-9.91,42.27,42.27,0,0,0,11.24-8.05c3.35-3.47,4.44-7.63,4-12.34-.58-5.67-3.16-10.48-6.68-14.72-4.51-5.43-9.4-10.53-14-15.85-3.34-3.82-6.8-7.58-9.74-11.7-3.22-4.52-4-9.64-1.56-14.9a22.26,22.26,0,0,1,7.49-8.47c6.51-4.74,13.93-7.58,21.54-9.86a50.27,50.27,0,0,1,10.07-1.71c3-.26,3.6.68,2.58,3.55-.91,2.54-2,5-3.07,7.5-1.17,2.72-.19,5,1.54,7,.62.74,1.45,1,2-.07,2.27-4.84,4.72-9.62,6.66-14.59A7.82,7.82,0,0,0,86.82,1452.43Z"/><path d="M86.82,1612.43a11.75,11.75,0,0,0-7.21-1.35,70.46,70.46,0,0,0-16.07,3.72c-9.67,3.32-18.54,8-25.71,15.44-4.31,4.5-6.69,9.71-5.29,16.12A24.59,24.59,0,0,0,37.69,1657c6.84,8.11,14,16,20.87,24a46.26,46.26,0,0,1,5.9,8.07A12.63,12.63,0,0,1,62,1704.63a36.58,36.58,0,0,1-7.77,5.51c-9.39,5.11-19.55,8-30,9.91a32,32,0,0,1-11.86.33,10.43,10.43,0,0,0-1.08,7.38c5.74.86,11.4.16,17-.9a109.24,109.24,0,0,0,30-10.43,42.27,42.27,0,0,0,11.24-8.05c3.35-3.47,4.44-7.63,4-12.34-.58-5.67-3.16-10.48-6.68-14.72-4.51-5.43-9.4-10.53-14-15.85-3.34-3.82-6.8-7.58-9.74-11.7-3.22-4.52-4-9.64-1.56-14.9a22.26,22.26,0,0,1,7.49-8.47c6.51-4.74,13.93-7.58,21.54-9.86a50.29,50.29,0,0,1,10.07-1.71c3-.26,3.6.68,2.58,3.55-.91,2.54-2,5-3.07,7.5-1.17,2.72-.19,5,1.54,7,.62.74,1.45,1,2-.07,2.27-4.84,4.72-9.62,6.66-14.59A7.82,7.82,0,0,0,86.82,1612.43Z"/><path id="Fill-1" d="M3,1878.09c.6-1.42,1.1-2.88,1.82-4.23a6,6,0,0,1,1.85-2.08,6.89,6.89,0,0,1,2.24-.58,6.8,6.8,0,0,1-.35,2.07c-1.92,3.65-.88,6.08,3.13,7,4.18,1,8.38.53,12.51-.21,10.47-1.87,20.63-4.8,30-9.91a36.58,36.58,0,0,0,7.77-5.51,12.63,12.63,0,0,0,2.47-15.53,46.25,46.25,0,0,0-5.9-8.08c-6.9-8.05-14-15.91-20.87-24a24.58,24.58,0,0,1-5.14-10.65c-1.41-6.41,1-11.62,5.29-16.12,7.16-7.47,16-12.12,25.71-15.44a70.45,70.45,0,0,1,16.07-3.72,11.75,11.75,0,0,1,7.21,1.35,7.82,7.82,0,0,1,3.44,9.78c-1.94,5-4.38,9.75-6.66,14.59-.52,1.11-1.34.81-2,.07-1.73-2-2.7-4.28-1.54-7,1.06-2.48,2.16-5,3.07-7.5,1-2.87.43-3.81-2.58-3.55a50.29,50.29,0,0,0-10.07,1.71c-7.61,2.28-15,5.12-21.54,9.86a22.26,22.26,0,0,0-7.49,8.47c-2.45,5.26-1.66,10.38,1.56,14.9,2.94,4.12,6.4,7.88,9.74,11.7,4.64,5.32,9.53,10.43,14,15.85,3.52,4.24,6.11,9.05,6.68,14.72.48,4.71-.61,8.87-4,12.34a42.26,42.26,0,0,1-11.24,8.05,109.23,109.23,0,0,1-30,10.43c-5.65,1.07-11.35,1.78-17.11.89-4-.61-7-2.58-8.17-6.67Z"/><path d="M90.94,1836.77a10.46,10.46,0,0,0,7.43,3.22l1-1.66c1.91-3.17,3.83-6.33,5.85-9.42a5.23,5.23,0,0,0-2.39-7.69,2.13,2.13,0,0,0-2.88.83c-1.5,2.22-3.07,4.41-4.43,6.72C94,1831.42,92.41,1834.08,90.94,1836.77Z"/><path id="Fill-1-2" data-name="Fill-1" d="M3,2038.09c.6-1.42,1.1-2.88,1.82-4.23a6,6,0,0,1,1.85-2.08,6.89,6.89,0,0,1,2.24-.58,6.8,6.8,0,0,1-.35,2.07c-1.92,3.65-.88,6.08,3.13,7,4.18,1,8.38.53,12.51-.21,10.47-1.87,20.63-4.8,30-9.91a36.58,36.58,0,0,0,7.77-5.51,12.63,12.63,0,0,0,2.47-15.53,46.25,46.25,0,0,0-5.9-8.08c-6.9-8.05-14-15.91-20.87-24a24.58,24.58,0,0,1-5.14-10.65c-1.41-6.41,1-11.62,5.29-16.12,7.16-7.47,16-12.12,25.71-15.44a70.45,70.45,0,0,1,16.07-3.72,11.75,11.75,0,0,1,7.21,1.35,7.82,7.82,0,0,1,3.44,9.78c-1.94,5-4.38,9.75-6.66,14.59-.52,1.11-1.34.81-2,.07-1.73-2-2.7-4.28-1.54-7,1.06-2.48,2.16-5,3.07-7.5,1-2.87.43-3.81-2.58-3.55a50.29,50.29,0,0,0-10.07,1.71c-7.61,2.28-15,5.12-21.54,9.86a22.26,22.26,0,0,0-7.49,8.47c-2.45,5.26-1.66,10.38,1.56,14.9,2.94,4.12,6.4,7.88,9.74,11.7,4.64,5.32,9.53,10.43,14,15.85,3.52,4.24,6.11,9.05,6.68,14.72.48,4.71-.61,8.87-4,12.34a42.26,42.26,0,0,1-11.24,8.05,109.23,109.23,0,0,1-30,10.43c-5.65,1.07-11.35,1.78-17.11.89-4-.61-7-2.58-8.17-6.67Z"/><path d="M93.19,2026.54l-1,.94a3.07,3.07,0,0,1-2.76.55,3.11,3.11,0,0,1-1.14-2.58,36.61,36.61,0,0,1,1.43-7.1c2.29-7.11,5.85-13.64,9.69-20,1.91-3.17,3.83-6.33,5.85-9.42a5.23,5.23,0,0,0-2.39-7.69,2.13,2.13,0,0,0-2.88.83c-1.5,2.22-3.07,4.41-4.43,6.72-2.24,3.8-4.46,7.63-6.46,11.56-3.18,6.26-6,12.71-6.9,19.76a15.26,15.26,0,0,0,3.7,12.32l.23.25A10.51,10.51,0,0,0,93.19,2026.54Z"/><path id="Fill-1-3" data-name="Fill-1" d="M3,2198.09c.6-1.42,1.1-2.88,1.82-4.23a6,6,0,0,1,1.85-2.08,6.89,6.89,0,0,1,2.24-.58,6.8,6.8,0,0,1-.35,2.07c-1.92,3.65-.88,6.08,3.13,7,4.18,1,8.38.53,12.51-.21,10.47-1.87,20.63-4.8,30-9.91a36.58,36.58,0,0,0,7.77-5.51,12.63,12.63,0,0,0,2.47-15.53,46.25,46.25,0,0,0-5.9-8.08c-6.9-8.05-14-15.91-20.87-24a24.58,24.58,0,0,1-5.14-10.65c-1.41-6.41,1-11.62,5.29-16.12,7.16-7.47,16-12.12,25.71-15.44a70.45,70.45,0,0,1,16.07-3.72,11.75,11.75,0,0,1,7.21,1.35,7.82,7.82,0,0,1,3.44,9.78c-1.94,5-4.38,9.75-6.66,14.59-.52,1.11-1.34.81-2,.07-1.73-2-2.7-4.28-1.54-7,1.06-2.48,2.16-5,3.07-7.5,1-2.87.43-3.81-2.58-3.55a50.29,50.29,0,0,0-10.07,1.71c-7.61,2.28-15,5.12-21.54,9.86a22.26,22.26,0,0,0-7.49,8.47c-2.45,5.26-1.66,10.38,1.56,14.9,2.94,4.12,6.4,7.88,9.74,11.7,4.64,5.32,9.53,10.43,14,15.85,3.52,4.24,6.11,9.05,6.68,14.72.48,4.71-.61,8.87-4,12.34a42.26,42.26,0,0,1-11.24,8.05,109.23,109.23,0,0,1-30,10.43c-5.65,1.07-11.35,1.78-17.11.89-4-.61-7-2.58-8.17-6.67Z"/><path d="M92.15,2187.48a3.07,3.07,0,0,1-2.76.55,3.11,3.11,0,0,1-1.14-2.58,36.61,36.61,0,0,1,1.43-7.1c2.29-7.11,5.85-13.64,9.69-20,1.91-3.17,3.83-6.33,5.85-9.42a5.23,5.23,0,0,0-2.39-7.69,2.13,2.13,0,0,0-2.88.83c-1.5,2.22-3.07,4.41-4.43,6.72-2.24,3.8-4.46,7.63-6.46,11.56-3.18,6.26-6,12.71-6.9,19.76a15.26,15.26,0,0,0,3.7,12.32c2.72,3.19,6.12,3.73,9.57,1.48a37.82,37.82,0,0,0,5.73-4.42c1.48-1.44,2.89-2.94,4.26-4.47v0h.05a134.17,134.17,0,0,0,9.43-12.05,10.48,10.48,0,0,0-4.13-6.84c-3.14,4.21-6.3,8.4-9.53,12.54C98.63,2181.92,95.28,2184.64,92.15,2187.48Z"/><path id="Fill-1-4" data-name="Fill-1" d="M3,2358.09c.6-1.42,1.1-2.88,1.82-4.23a6,6,0,0,1,1.85-2.08,6.89,6.89,0,0,1,2.24-.58,6.8,6.8,0,0,1-.35,2.07c-1.92,3.65-.88,6.08,3.13,7,4.18,1,8.38.53,12.51-.21,10.47-1.87,20.63-4.8,30-9.91a36.58,36.58,0,0,0,7.77-5.51,12.63,12.63,0,0,0,2.47-15.53,46.25,46.25,0,0,0-5.9-8.08c-6.9-8.05-14-15.91-20.87-24a24.58,24.58,0,0,1-5.14-10.65c-1.41-6.41,1-11.62,5.29-16.12,7.16-7.47,16-12.12,25.71-15.44a70.45,70.45,0,0,1,16.07-3.72,11.75,11.75,0,0,1,7.21,1.35,7.82,7.82,0,0,1,3.44,9.78c-1.94,5-4.38,9.75-6.66,14.59-.52,1.11-1.34.81-2,.07-1.73-2-2.7-4.28-1.54-7,1.06-2.48,2.16-5,3.07-7.5,1-2.87.43-3.81-2.58-3.55a50.29,50.29,0,0,0-10.07,1.71c-7.61,2.28-15,5.12-21.54,9.86a22.26,22.26,0,0,0-7.49,8.47c-2.45,5.26-1.66,10.38,1.56,14.9,2.94,4.12,6.4,7.88,9.74,11.7,4.64,5.32,9.53,10.43,14,15.85,3.52,4.24,6.11,9.05,6.68,14.72.48,4.71-.61,8.87-4,12.34a42.26,42.26,0,0,1-11.24,8.05,109.23,109.23,0,0,1-30,10.43c-5.65,1.07-11.35,1.78-17.11.89-4-.61-7-2.58-8.17-6.67Z"/><path d="M125.4,2315.17a9,9,0,0,0-3.35-4.35c-6.89,9.31-13.72,18.66-20.84,27.79-2.58,3.31-5.93,6-9.06,8.87a3.07,3.07,0,0,1-2.76.55,3.11,3.11,0,0,1-1.14-2.58,36.61,36.61,0,0,1,1.43-7.1c2.29-7.11,5.85-13.64,9.69-20,1.91-3.17,3.83-6.33,5.85-9.42a5.23,5.23,0,0,0-2.39-7.69,2.13,2.13,0,0,0-2.88.83c-1.5,2.22-3.07,4.41-4.43,6.72-2.24,3.8-4.46,7.63-6.46,11.56-3.18,6.26-6,12.71-6.9,19.76a15.26,15.26,0,0,0,3.7,12.32c2.72,3.19,6.12,3.73,9.57,1.48a37.82,37.82,0,0,0,5.73-4.42c1.48-1.44,2.89-2.94,4.26-4.47v0h.05a162.78,162.78,0,0,0,13.28-17.66c.26-.39.54-.78.81-1.17a1.14,1.14,0,0,1,.07.21C121.9,2323.19,126,2317.22,125.4,2315.17Z"/><path id="Fill-1-5" data-name="Fill-1" d="M3,2518.09c.6-1.42,1.1-2.88,1.82-4.23a6,6,0,0,1,1.85-2.08,6.89,6.89,0,0,1,2.24-.58,6.8,6.8,0,0,1-.35,2.07c-1.92,3.65-.88,6.08,3.13,7,4.18,1,8.38.53,12.51-.21,10.47-1.87,20.63-4.8,30-9.91a36.58,36.58,0,0,0,7.77-5.51,12.63,12.63,0,0,0,2.47-15.53,46.25,46.25,0,0,0-5.9-8.08c-6.9-8.05-14-15.91-20.87-24a24.58,24.58,0,0,1-5.14-10.65c-1.41-6.41,1-11.62,5.29-16.12,7.16-7.47,16-12.12,25.71-15.44a70.45,70.45,0,0,1,16.07-3.72,11.75,11.75,0,0,1,7.21,1.35,7.82,7.82,0,0,1,3.44,9.78c-1.94,5-4.38,9.75-6.66,14.59-.52,1.11-1.34.81-2,.07-1.73-2-2.7-4.28-1.54-7,1.06-2.48,2.16-5,3.07-7.5,1-2.87.43-3.81-2.58-3.55a50.29,50.29,0,0,0-10.07,1.71c-7.61,2.28-15,5.12-21.54,9.86a22.26,22.26,0,0,0-7.49,8.47c-2.45,5.26-1.66,10.38,1.56,14.9,2.94,4.12,6.4,7.88,9.74,11.7,4.64,5.32,9.53,10.43,14,15.85,3.52,4.24,6.11,9.05,6.68,14.72.48,4.71-.61,8.87-4,12.34a42.26,42.26,0,0,1-11.24,8.05,109.23,109.23,0,0,1-30,10.43c-5.65,1.07-11.35,1.78-17.11.89-4-.61-7-2.58-8.17-6.67Z"/><path d="M123.1,2481.32l.17-.22a10.48,10.48,0,0,0,4.86,2.61,74.83,74.83,0,0,1,3.81-8.84c.84-1.65,1-3.05-.19-4.42a13.64,13.64,0,0,0-3-2.78c-2.33-1.45-3.65-1-5.29,1.22-7.37,9.94-14.66,19.95-22.26,29.71-2.58,3.31-5.93,6-9.06,8.87a3.07,3.07,0,0,1-2.76.55,3.11,3.11,0,0,1-1.14-2.58,36.61,36.61,0,0,1,1.43-7.1c2.29-7.11,5.85-13.64,9.69-20,1.91-3.17,3.83-6.33,5.85-9.42a5.23,5.23,0,0,0-2.39-7.69,2.13,2.13,0,0,0-2.88.83c-1.5,2.22-3.07,4.41-4.43,6.72-2.24,3.8-4.46,7.63-6.46,11.56-3.18,6.26-6,12.71-6.9,19.76a15.26,15.26,0,0,0,3.7,12.32c2.72,3.19,6.12,3.73,9.57,1.48a37.82,37.82,0,0,0,5.73-4.42c1.48-1.44,2.89-2.94,4.26-4.47v0h.05a162.78,162.78,0,0,0,13.28-17.66c.26-.39.54-.78.81-1.17a1.14,1.14,0,0,1,.07.21c1-1.35,2.3-3.22,3.44-5.08Z"/><path id="Fill-1-6" data-name="Fill-1" d="M3,2678.09c.6-1.42,1.1-2.88,1.82-4.23a6,6,0,0,1,1.85-2.08,6.89,6.89,0,0,1,2.24-.58,6.8,6.8,0,0,1-.35,2.07c-1.92,3.65-.88,6.08,3.13,7,4.18,1,8.38.53,12.51-.21,10.47-1.87,20.63-4.8,30-9.91a36.58,36.58,0,0,0,7.77-5.51,12.63,12.63,0,0,0,2.47-15.53,46.25,46.25,0,0,0-5.9-8.08c-6.9-8.05-14-15.91-20.87-24a24.58,24.58,0,0,1-5.14-10.65c-1.41-6.41,1-11.62,5.29-16.12,7.16-7.47,16-12.12,25.71-15.44a70.45,70.45,0,0,1,16.07-3.72,11.75,11.75,0,0,1,7.21,1.35,7.82,7.82,0,0,1,3.44,9.78c-1.94,5-4.38,9.75-6.66,14.59-.52,1.11-1.34.81-2,.07-1.73-2-2.7-4.28-1.54-7,1.06-2.48,2.16-5,3.07-7.5,1-2.87.43-3.81-2.58-3.55a50.29,50.29,0,0,0-10.07,1.71c-7.61,2.28-15,5.12-21.54,9.86a22.26,22.26,0,0,0-7.49,8.47c-2.45,5.26-1.66,10.38,1.56,14.9,2.94,4.12,6.4,7.88,9.74,11.7,4.64,5.32,9.53,10.43,14,15.85,3.52,4.24,6.11,9.05,6.68,14.72.48,4.71-.61,8.87-4,12.34a42.26,42.26,0,0,1-11.24,8.05,109.23,109.23,0,0,1-30,10.43c-5.65,1.07-11.35,1.78-17.11.89-4-.61-7-2.58-8.17-6.67Z"/><path d="M125.49,2665.72a4.79,4.79,0,0,1-.8-3.23c.08-9.82,2.85-18.94,7.24-27.61.84-1.65,1-3.05-.19-4.42a13.64,13.64,0,0,0-3-2.78c-2.33-1.45-3.65-1-5.29,1.22-7.37,9.94-14.66,19.95-22.26,29.71-2.58,3.31-5.93,6-9.06,8.87a3.07,3.07,0,0,1-2.76.55,3.11,3.11,0,0,1-1.14-2.58,36.61,36.61,0,0,1,1.43-7.1c2.29-7.11,5.85-13.64,9.69-20,1.91-3.17,3.83-6.33,5.85-9.42a5.23,5.23,0,0,0-2.39-7.69,2.13,2.13,0,0,0-2.88.83c-1.5,2.22-3.07,4.41-4.43,6.72-2.24,3.8-4.46,7.63-6.46,11.56-3.18,6.26-6,12.71-6.9,19.76a15.26,15.26,0,0,0,3.7,12.32c2.72,3.19,6.12,3.73,9.57,1.48a37.82,37.82,0,0,0,5.73-4.42c6.81-6.63,12.29-14.33,17.57-22.18.26-.39.54-.78.81-1.17a.92.92,0,0,1,0,.74c-1.43,4.9-2.52,9.86-2.13,15,.28,3.6,1.51,6.77,4.5,8.9A10.51,10.51,0,0,0,125.49,2665.72Z"/><path id="Fill-1-7" data-name="Fill-1" d="M3,2838.09c.6-1.42,1.1-2.88,1.82-4.23a6,6,0,0,1,1.85-2.08,6.89,6.89,0,0,1,2.24-.58,6.8,6.8,0,0,1-.35,2.07c-1.92,3.65-.88,6.08,3.13,7,4.18,1,8.38.53,12.51-.21,10.47-1.87,20.63-4.8,30-9.91a36.58,36.58,0,0,0,7.77-5.51,12.63,12.63,0,0,0,2.47-15.53,46.25,46.25,0,0,0-5.9-8.08c-6.9-8.05-14-15.91-20.87-24a24.58,24.58,0,0,1-5.14-10.65c-1.41-6.41,1-11.62,5.29-16.12,7.16-7.47,16-12.12,25.71-15.44a70.45,70.45,0,0,1,16.07-3.72,11.75,11.75,0,0,1,7.21,1.35,7.82,7.82,0,0,1,3.44,9.78c-1.94,5-4.38,9.75-6.66,14.59-.52,1.11-1.34.81-2,.07-1.73-2-2.7-4.28-1.54-7,1.06-2.48,2.16-5,3.07-7.5,1-2.87.43-3.81-2.58-3.55a50.29,50.29,0,0,0-10.07,1.71c-7.61,2.28-15,5.12-21.54,9.86a22.26,22.26,0,0,0-7.49,8.47c-2.45,5.26-1.66,10.38,1.56,14.9,2.94,4.12,6.4,7.88,9.74,11.7,4.64,5.32,9.53,10.43,14,15.85,3.52,4.24,6.11,9.05,6.68,14.72.48,4.71-.61,8.87-4,12.34a42.26,42.26,0,0,1-11.24,8.05,109.23,109.23,0,0,1-30,10.43c-5.65,1.07-11.35,1.78-17.11.89-4-.61-7-2.58-8.17-6.67Z"/><path d="M147.93,2811.1c-.83-1.3-2.48-1.23-3.87-.88l-.67.86c-4,5-8.07,10.1-13.31,14-1.12.83-2.35,2-3.87,1.23s-1.53-2.37-1.52-3.81c.08-9.82,2.85-18.94,7.24-27.61.84-1.65,1-3.05-.19-4.42a13.64,13.64,0,0,0-3-2.78c-2.33-1.45-3.65-1-5.29,1.22-7.37,9.94-14.66,19.95-22.26,29.71-2.58,3.31-5.93,6-9.06,8.87a3.07,3.07,0,0,1-2.76.55,3.11,3.11,0,0,1-1.14-2.58,36.61,36.61,0,0,1,1.43-7.1c2.29-7.11,5.85-13.64,9.69-20,1.91-3.17,3.83-6.33,5.85-9.42a5.23,5.23,0,0,0-2.39-7.69,2.13,2.13,0,0,0-2.88.83c-1.5,2.22-3.07,4.41-4.43,6.72-2.24,3.8-4.46,7.63-6.46,11.56-3.18,6.26-6,12.71-6.9,19.76a15.26,15.26,0,0,0,3.7,12.32c2.72,3.19,6.12,3.73,9.57,1.48a37.82,37.82,0,0,0,5.73-4.42c6.81-6.63,12.29-14.33,17.57-22.18.26-.39.54-.78.81-1.17a.92.92,0,0,1,0,.74c-1.43,4.9-2.52,9.86-2.13,15,.29,3.74,1.59,7,4.85,9.17,4.33,2.83,8.55,1.52,12.36-1,2.87-1.91,5.32-4.44,7.89-6.64a.42.42,0,0,1,0,.21C144.22,2821.1,149.26,2813.17,147.93,2811.1Z"/><path id="Fill-1-8" data-name="Fill-1" d="M3,2998.09c.6-1.42,1.1-2.88,1.82-4.23a6,6,0,0,1,1.85-2.08,6.89,6.89,0,0,1,2.24-.58,6.8,6.8,0,0,1-.35,2.07c-1.92,3.65-.88,6.08,3.13,7,4.18,1,8.38.53,12.51-.21,10.47-1.87,20.63-4.8,30-9.91a36.58,36.58,0,0,0,7.77-5.51,12.63,12.63,0,0,0,2.47-15.53,46.25,46.25,0,0,0-5.9-8.08c-6.9-8.05-14-15.91-20.87-24a24.58,24.58,0,0,1-5.14-10.65c-1.41-6.41,1-11.62,5.29-16.12,7.16-7.47,16-12.12,25.71-15.44a70.45,70.45,0,0,1,16.07-3.72,11.75,11.75,0,0,1,7.21,1.35,7.82,7.82,0,0,1,3.44,9.78c-1.94,5-4.38,9.75-6.66,14.59-.52,1.11-1.34.81-2,.07-1.73-2-2.7-4.28-1.54-7,1.06-2.48,2.16-5,3.07-7.5,1-2.87.43-3.81-2.58-3.55a50.29,50.29,0,0,0-10.07,1.71c-7.61,2.28-15,5.12-21.54,9.86a22.26,22.26,0,0,0-7.49,8.47c-2.45,5.26-1.66,10.38,1.56,14.9,2.94,4.12,6.4,7.88,9.74,11.7,4.64,5.32,9.53,10.43,14,15.85,3.52,4.24,6.11,9.05,6.68,14.72.48,4.71-.61,8.87-4,12.34a42.26,42.26,0,0,1-11.24,8.05,109.23,109.23,0,0,1-30,10.43c-5.65,1.07-11.35,1.78-17.11.89-4-.61-7-2.58-8.17-6.67Z"/><path d="M146.19,2977.53c.34-.41,11.16-13.6,11.16-16.06a3.24,3.24,0,0,0-.14-.9c1.53-1.84,4.7-5.69,6.49-8l.2-.48,1-2.36c-.53-1.92-2.76-5.52-5.44-4.5-2.88,7.14-6.28,14-11.47,20-1.63,1.87-3,3.95-4.59,5.89-4,5-8.07,10.1-13.31,14-1.12.83-2.35,2-3.87,1.23s-1.53-2.37-1.52-3.81c.08-9.82,2.85-18.94,7.24-27.61.84-1.65,1-3.05-.19-4.42a13.64,13.64,0,0,0-3-2.78c-2.33-1.45-3.65-1-5.29,1.22-7.37,9.94-14.66,19.95-22.26,29.71-2.58,3.31-5.93,6-9.06,8.87a3.07,3.07,0,0,1-2.76.55,3.11,3.11,0,0,1-1.14-2.58,36.61,36.61,0,0,1,1.43-7.1c2.29-7.11,5.85-13.64,9.69-20,1.91-3.17,3.83-6.33,5.85-9.42a5.23,5.23,0,0,0-2.39-7.69,2.13,2.13,0,0,0-2.88.83c-1.5,2.22-3.07,4.41-4.43,6.72-2.24,3.8-4.46,7.63-6.46,11.56-3.18,6.26-6,12.71-6.9,19.76a15.26,15.26,0,0,0,3.7,12.32c2.72,3.19,6.12,3.73,9.57,1.48a37.82,37.82,0,0,0,5.73-4.42c6.81-6.63,12.29-14.33,17.57-22.18.26-.39.54-.78.81-1.17a.92.92,0,0,1,0,.74c-1.43,4.9-2.52,9.86-2.13,15,.29,3.74,1.59,7,4.85,9.17,4.33,2.83,8.55,1.52,12.36-1,2.87-1.91,5.32-4.44,7.89-6.64a.42.42,0,0,1,0,.21C143.36,2982.41,144.92,2980,146.19,2977.53Z"/><path id="Fill-1-9" data-name="Fill-1" d="M3,3158.09c.6-1.42,1.1-2.88,1.82-4.23a6,6,0,0,1,1.85-2.08,6.89,6.89,0,0,1,2.24-.58,6.8,6.8,0,0,1-.35,2.07c-1.92,3.65-.88,6.08,3.13,7,4.18,1,8.38.53,12.51-.21,10.47-1.87,20.63-4.8,30-9.91a36.58,36.58,0,0,0,7.77-5.51,12.63,12.63,0,0,0,2.47-15.53,46.25,46.25,0,0,0-5.9-8.08c-6.9-8.05-14-15.91-20.87-24a24.58,24.58,0,0,1-5.14-10.65c-1.41-6.41,1-11.62,5.29-16.12,7.16-7.47,16-12.12,25.71-15.44a70.45,70.45,0,0,1,16.07-3.72,11.75,11.75,0,0,1,7.21,1.35,7.82,7.82,0,0,1,3.44,9.78c-1.94,5-4.38,9.75-6.66,14.59-.52,1.11-1.34.81-2,.07-1.73-2-2.7-4.28-1.54-7,1.06-2.48,2.16-5,3.07-7.5,1-2.87.43-3.81-2.58-3.55a50.29,50.29,0,0,0-10.07,1.71c-7.61,2.28-15,5.12-21.54,9.86a22.26,22.26,0,0,0-7.49,8.47c-2.45,5.26-1.66,10.38,1.56,14.9,2.94,4.12,6.4,7.88,9.74,11.7,4.64,5.32,9.53,10.43,14,15.85,3.52,4.24,6.11,9.05,6.68,14.72.48,4.71-.61,8.87-4,12.34a42.26,42.26,0,0,1-11.24,8.05,109.23,109.23,0,0,1-30,10.43c-5.65,1.07-11.35,1.78-17.11.89-4-.61-7-2.58-8.17-6.67Z"/><path d="M146.19,3137.53c.2-.24,3.91-4.77,7-9,1.25.59,2.49.84,2.95.22.89-1.22,6.15-13.5,7-15.47l.57-.74.2-.48c1.81-4.37,3.72-8.71,5.4-13.14a6,6,0,0,0-1.61-6.83c-1.39-1.33-2.63-1.8-3.64.89-4.21,11.3-7.95,22.88-16.08,32.24-1.63,1.87-3,3.95-4.59,5.89-4,5-8.07,10.1-13.31,14-1.12.83-2.35,2-3.87,1.23s-1.53-2.37-1.52-3.81c.08-9.82,2.85-18.94,7.24-27.61.84-1.65,1-3.05-.19-4.42a13.64,13.64,0,0,0-3-2.78c-2.33-1.45-3.65-1-5.29,1.22-7.37,9.94-14.66,19.95-22.26,29.71-2.58,3.31-5.93,6-9.06,8.87a3.07,3.07,0,0,1-2.76.55,3.11,3.11,0,0,1-1.14-2.58,36.61,36.61,0,0,1,1.43-7.1c2.29-7.11,5.85-13.64,9.69-20,1.91-3.17,3.83-6.33,5.85-9.42a5.23,5.23,0,0,0-2.39-7.69,2.13,2.13,0,0,0-2.88.83c-1.5,2.22-3.07,4.41-4.43,6.72-2.24,3.8-4.46,7.63-6.46,11.56-3.18,6.26-6,12.71-6.9,19.76a15.26,15.26,0,0,0,3.7,12.32c2.72,3.19,6.12,3.73,9.57,1.48a37.82,37.82,0,0,0,5.73-4.42c6.81-6.63,12.29-14.33,17.57-22.18.26-.39.54-.78.81-1.17a.92.92,0,0,1,0,.74c-1.43,4.9-2.52,9.86-2.13,15,.29,3.74,1.59,7,4.85,9.17,4.33,2.83,8.55,1.52,12.36-1,2.87-1.91,5.32-4.44,7.89-6.64a.42.42,0,0,1,0,.21C143.36,3142.41,144.92,3140,146.19,3137.53Z"/><path id="Fill-1-10" data-name="Fill-1" d="M3,3318.09c.6-1.42,1.1-2.88,1.82-4.23a6,6,0,0,1,1.85-2.08,6.89,6.89,0,0,1,2.24-.58,6.8,6.8,0,0,1-.35,2.07c-1.92,3.65-.88,6.08,3.13,7,4.18,1,8.38.53,12.51-.21,10.47-1.87,20.63-4.8,30-9.91a36.58,36.58,0,0,0,7.77-5.51,12.63,12.63,0,0,0,2.47-15.53,46.25,46.25,0,0,0-5.9-8.08c-6.9-8.05-14-15.91-20.87-24a24.58,24.58,0,0,1-5.14-10.65c-1.41-6.41,1-11.62,5.29-16.12,7.16-7.47,16-12.12,25.71-15.44a70.45,70.45,0,0,1,16.07-3.72,11.75,11.75,0,0,1,7.21,1.35,7.82,7.82,0,0,1,3.44,9.78c-1.94,5-4.38,9.75-6.66,14.59-.52,1.11-1.34.81-2,.07-1.73-2-2.7-4.28-1.54-7,1.06-2.48,2.16-5,3.07-7.5,1-2.87.43-3.81-2.58-3.55a50.29,50.29,0,0,0-10.07,1.71c-7.61,2.28-15,5.12-21.54,9.86a22.26,22.26,0,0,0-7.49,8.47c-2.45,5.26-1.66,10.38,1.56,14.9,2.94,4.12,6.4,7.88,9.74,11.7,4.64,5.32,9.53,10.43,14,15.85,3.52,4.24,6.11,9.05,6.68,14.72.48,4.71-.61,8.87-4,12.34a42.26,42.26,0,0,1-11.24,8.05,109.23,109.23,0,0,1-30,10.43c-5.65,1.07-11.35,1.78-17.11.89-4-.61-7-2.58-8.17-6.67Z"/><path d="M157.32,3286.46c1.87-4,5.17-11.67,5.82-13.19l.57-.74.2-.48c1.81-4.37,3.72-8.71,5.4-13.14a6,6,0,0,0-1.61-6.83c-1.39-1.33-2.63-1.8-3.64.89-4.21,11.3-7.95,22.88-16.08,32.24-1.63,1.87-3,3.95-4.59,5.89-4,5-8.07,10.1-13.31,14-1.12.83-2.35,2-3.87,1.23s-1.53-2.37-1.52-3.81c.08-9.82,2.85-18.94,7.24-27.61.84-1.65,1-3.05-.19-4.42a13.64,13.64,0,0,0-3-2.78c-2.33-1.45-3.65-1-5.29,1.22-7.37,9.94-14.66,19.95-22.26,29.71-2.58,3.31-5.93,6-9.06,8.87a3.07,3.07,0,0,1-2.76.55,3.11,3.11,0,0,1-1.14-2.58,36.61,36.61,0,0,1,1.43-7.1c2.29-7.11,5.85-13.64,9.69-20,1.91-3.17,3.83-6.33,5.85-9.42a5.23,5.23,0,0,0-2.39-7.69,2.13,2.13,0,0,0-2.88.83c-1.5,2.22-3.07,4.41-4.43,6.72-2.24,3.8-4.46,7.63-6.46,11.56-3.18,6.26-6,12.71-6.9,19.76a15.26,15.26,0,0,0,3.7,12.32c2.72,3.19,6.12,3.73,9.57,1.48a37.82,37.82,0,0,0,5.73-4.42c6.81-6.63,12.29-14.33,17.57-22.18.26-.39.54-.78.81-1.17a.92.92,0,0,1,0,.74c-1.43,4.9-2.52,9.86-2.13,15,.29,3.74,1.59,7,4.85,9.17,4.33,2.83,8.55,1.52,12.36-1,2.87-1.91,5.32-4.44,7.89-6.64a.4.4,0,0,1,0,.28q-1.55,3.5-3.14,7c1.14,2.27,4.42,5.43,6.52,3.46,1.69-3.77,3.45-7.57,5.24-11.54v0a42.75,42.75,0,0,0,1.63-5.6C154.4,3293.75,156.85,3287.64,157.32,3286.46Z"/><path id="Fill-1-11" data-name="Fill-1" d="M3,3478.09c.6-1.42,1.1-2.88,1.82-4.23a6,6,0,0,1,1.85-2.08,6.89,6.89,0,0,1,2.24-.58,6.8,6.8,0,0,1-.35,2.07c-1.92,3.65-.88,6.08,3.13,7,4.18,1,8.38.53,12.51-.21,10.47-1.87,20.63-4.8,30-9.91a36.58,36.58,0,0,0,7.77-5.51,12.63,12.63,0,0,0,2.47-15.53,46.25,46.25,0,0,0-5.9-8.08c-6.9-8.05-14-15.91-20.87-24a24.58,24.58,0,0,1-5.14-10.65c-1.41-6.41,1-11.62,5.29-16.12,7.16-7.47,16-12.12,25.71-15.44a70.45,70.45,0,0,1,16.07-3.72,11.75,11.75,0,0,1,7.21,1.35,7.82,7.82,0,0,1,3.44,9.78c-1.94,5-4.38,9.75-6.66,14.59-.52,1.11-1.34.81-2,.07-1.73-2-2.7-4.28-1.54-7,1.06-2.48,2.16-5,3.07-7.5,1-2.87.43-3.81-2.58-3.55a50.29,50.29,0,0,0-10.07,1.71c-7.61,2.28-15,5.12-21.54,9.86a22.26,22.26,0,0,0-7.49,8.47c-2.45,5.26-1.66,10.38,1.56,14.9,2.94,4.12,6.4,7.88,9.74,11.7,4.64,5.32,9.53,10.43,14,15.85,3.52,4.24,6.11,9.05,6.68,14.72.48,4.71-.61,8.87-4,12.34a42.26,42.26,0,0,1-11.24,8.05,109.23,109.23,0,0,1-30,10.43c-5.65,1.07-11.35,1.78-17.11.89-4-.61-7-2.58-8.17-6.67Z"/><path d="M157.32,3446.46c1.87-4,5.17-11.67,5.82-13.19l.57-.74.2-.48c1.81-4.37,3.72-8.71,5.4-13.14a6,6,0,0,0-1.61-6.83c-1.39-1.33-2.63-1.8-3.64.89-4.21,11.3-7.95,22.88-16.08,32.24-1.63,1.87-3,3.95-4.59,5.89-4,5-8.07,10.1-13.31,14-1.12.83-2.35,2-3.87,1.23s-1.53-2.37-1.52-3.81c.08-9.82,2.85-18.94,7.24-27.61.84-1.65,1-3.05-.19-4.42a13.64,13.64,0,0,0-3-2.78c-2.33-1.45-3.65-1-5.29,1.22-7.37,9.94-14.66,19.95-22.26,29.71-2.58,3.31-5.93,6-9.06,8.87a3.07,3.07,0,0,1-2.76.55,3.11,3.11,0,0,1-1.14-2.58,36.61,36.61,0,0,1,1.43-7.1c2.29-7.11,5.85-13.64,9.69-20,1.91-3.17,3.83-6.33,5.85-9.42a5.23,5.23,0,0,0-2.39-7.69,2.13,2.13,0,0,0-2.88.83c-1.5,2.22-3.07,4.41-4.43,6.72-2.24,3.8-4.46,7.63-6.46,11.56-3.18,6.26-6,12.71-6.9,19.76a15.26,15.26,0,0,0,3.7,12.32c2.72,3.19,6.12,3.73,9.57,1.48a37.82,37.82,0,0,0,5.73-4.42c6.81-6.63,12.29-14.33,17.57-22.18.26-.39.54-.78.81-1.17a.92.92,0,0,1,0,.74c-1.43,4.9-2.52,9.86-2.13,15,.29,3.74,1.59,7,4.85,9.17,4.33,2.83,8.55,1.52,12.36-1,2.87-1.91,5.32-4.44,7.89-6.64a.4.4,0,0,1,0,.28c-3.08,6.93-6.29,13.81-9.22,20.81q-3.35,8-6.07,16.27c-.83,2.53.2,5,1.93,7.07,1.23,1.45,2.76,1.11,3.46-.66.5-1.26,1-2.53,1.46-3.79,3-7.7,6-15.44,9.14-23.08,2.43-5.85,5.15-11.57,7.91-17.71v0a42.75,42.75,0,0,0,1.63-5.6C154.4,3453.75,156.85,3447.64,157.32,3446.46Z"/><path id="Fill-1-12" data-name="Fill-1" d="M3,3638.09c.6-1.42,1.1-2.88,1.82-4.23a6,6,0,0,1,1.85-2.08,6.89,6.89,0,0,1,2.24-.58,6.8,6.8,0,0,1-.35,2.07c-1.92,3.65-.88,6.08,3.13,7,4.18,1,8.38.53,12.51-.21,10.47-1.87,20.63-4.8,30-9.91a36.58,36.58,0,0,0,7.77-5.51,12.63,12.63,0,0,0,2.47-15.53,46.25,46.25,0,0,0-5.9-8.08c-6.9-8.05-14-15.91-20.87-24a24.58,24.58,0,0,1-5.14-10.65c-1.41-6.41,1-11.62,5.29-16.12,7.16-7.47,16-12.12,25.71-15.44a70.45,70.45,0,0,1,16.07-3.72,11.75,11.75,0,0,1,7.21,1.35,7.82,7.82,0,0,1,3.44,9.78c-1.94,5-4.38,9.75-6.66,14.59-.52,1.11-1.34.81-2,.07-1.73-2-2.7-4.28-1.54-7,1.06-2.48,2.16-5,3.07-7.5,1-2.87.43-3.81-2.58-3.55a50.29,50.29,0,0,0-10.07,1.71c-7.61,2.28-15,5.12-21.54,9.86a22.26,22.26,0,0,0-7.49,8.47c-2.45,5.26-1.66,10.38,1.56,14.9,2.94,4.12,6.4,7.88,9.74,11.7,4.64,5.32,9.53,10.43,14,15.85,3.52,4.24,6.11,9.05,6.68,14.72.48,4.71-.61,8.87-4,12.34a42.26,42.26,0,0,1-11.24,8.05,109.23,109.23,0,0,1-30,10.43c-5.65,1.07-11.35,1.78-17.11.89-4-.61-7-2.58-8.17-6.67Z"/><path d="M157.32,3606.46c1.87-4,5.17-11.67,5.82-13.19l.57-.74.2-.48c1.81-4.37,3.72-8.71,5.4-13.14a6,6,0,0,0-1.61-6.83c-1.39-1.33-2.63-1.8-3.64.89-4.21,11.3-7.95,22.88-16.08,32.24-1.63,1.87-3,3.95-4.59,5.89-4,5-8.07,10.1-13.31,14-1.12.83-2.35,2-3.87,1.23s-1.53-2.37-1.52-3.81c.08-9.82,2.85-18.94,7.24-27.61.84-1.65,1-3.05-.19-4.42a13.63,13.63,0,0,0-3-2.78c-2.33-1.45-3.65-1-5.29,1.22-7.37,9.94-14.66,19.95-22.26,29.71-2.58,3.31-5.93,6-9.06,8.87a3.07,3.07,0,0,1-2.76.55,3.11,3.11,0,0,1-1.14-2.58,36.61,36.61,0,0,1,1.43-7.1c2.29-7.11,5.85-13.64,9.69-20,1.91-3.17,3.83-6.33,5.85-9.42a5.23,5.23,0,0,0-2.39-7.69,2.13,2.13,0,0,0-2.88.83c-1.5,2.22-3.07,4.41-4.43,6.72-2.24,3.8-4.46,7.63-6.46,11.56-3.18,6.26-6,12.71-6.9,19.76a15.26,15.26,0,0,0,3.7,12.32c2.72,3.19,6.12,3.73,9.57,1.48a37.83,37.83,0,0,0,5.73-4.42c6.81-6.63,12.29-14.33,17.57-22.18.26-.39.54-.78.81-1.17a.92.92,0,0,1,0,.74c-1.43,4.9-2.52,9.86-2.13,15,.29,3.74,1.59,7,4.85,9.17,4.33,2.83,8.55,1.52,12.36-1,2.87-1.91,5.32-4.44,7.89-6.64a.4.4,0,0,1,0,.28c-3.08,6.93-6.29,13.81-9.22,20.81q-3.35,8-6.07,16.27c-.83,2.53.2,5,1.93,7.07,1.23,1.45,2.76,1.11,3.46-.66.5-1.26,1-2.53,1.46-3.79,3-7.7,6-15.44,9.14-23.08,2.43-5.85,5.15-11.57,7.91-17.71v0a42.74,42.74,0,0,0,1.63-5.6C154.4,3613.75,156.85,3607.64,157.32,3606.46Z"/><path id="Fill-1-13" data-name="Fill-1" d="M3,3798.09c.6-1.42,1.1-2.88,1.82-4.23a6,6,0,0,1,1.85-2.08,6.89,6.89,0,0,1,2.24-.58,6.8,6.8,0,0,1-.35,2.07c-1.92,3.65-.88,6.08,3.13,7,4.18,1,8.38.53,12.51-.21,10.47-1.87,20.63-4.8,30-9.91a36.58,36.58,0,0,0,7.77-5.51,12.63,12.63,0,0,0,2.47-15.53,46.25,46.25,0,0,0-5.9-8.08c-6.9-8.05-14-15.91-20.87-24a24.58,24.58,0,0,1-5.14-10.65c-1.41-6.41,1-11.62,5.29-16.12,7.16-7.47,16-12.12,25.71-15.44a70.45,70.45,0,0,1,16.07-3.72,11.75,11.75,0,0,1,7.21,1.35,7.82,7.82,0,0,1,3.44,9.78c-1.94,5-4.38,9.75-6.66,14.59-.52,1.11-1.34.81-2,.07-1.73-2-2.7-4.28-1.54-7,1.06-2.48,2.16-5,3.07-7.5,1-2.87.43-3.81-2.58-3.55a50.29,50.29,0,0,0-10.07,1.71c-7.61,2.28-15,5.12-21.54,9.86a22.26,22.26,0,0,0-7.49,8.47c-2.45,5.26-1.66,10.38,1.56,14.9,2.94,4.12,6.4,7.88,9.74,11.7,4.64,5.32,9.53,10.43,14,15.85,3.52,4.24,6.11,9.05,6.68,14.72.48,4.71-.61,8.87-4,12.34a42.26,42.26,0,0,1-11.24,8.05,109.23,109.23,0,0,1-30,10.43c-5.65,1.07-11.35,1.78-17.11.89-4-.61-7-2.58-8.17-6.67Z"/><path d="M153.88,3774.68c1.76-1.78,4.14-4.19,6-6.08a95,95,0,0,1,10.44-12.11c1.58-1.5,3.23-2.92,4.91-4.31.76-2.52,1.89-7.29.3-9.28a60.28,60.28,0,0,0-10.44,9.21c-.54.6-1.11,1.18-1.67,1.78a4.54,4.54,0,0,1,.51-1.85c1.81-4.37,3.72-8.71,5.4-13.14a6,6,0,0,0-1.61-6.83c-1.39-1.33-2.63-1.8-3.64.89-4.21,11.3-7.95,22.88-16.08,32.24-1.63,1.87-3,3.95-4.59,5.89-4,5-8.07,10.1-13.31,14-1.12.83-2.35,2-3.87,1.23s-1.53-2.37-1.52-3.81c.08-9.82,2.85-18.94,7.24-27.61.84-1.65,1-3.05-.19-4.42a13.63,13.63,0,0,0-3-2.78c-2.33-1.45-3.65-1-5.29,1.22-7.37,9.94-14.66,19.95-22.26,29.71-2.58,3.31-5.93,6-9.06,8.87a3.07,3.07,0,0,1-2.76.55,3.11,3.11,0,0,1-1.14-2.58,36.61,36.61,0,0,1,1.43-7.1c2.29-7.11,5.85-13.64,9.69-20,1.91-3.17,3.83-6.33,5.85-9.42a5.23,5.23,0,0,0-2.39-7.69,2.13,2.13,0,0,0-2.88.83c-1.5,2.22-3.07,4.41-4.43,6.72-2.24,3.8-4.46,7.63-6.46,11.56-3.18,6.26-6,12.71-6.9,19.76a15.26,15.26,0,0,0,3.7,12.32c2.72,3.19,6.12,3.73,9.57,1.48a37.83,37.83,0,0,0,5.73-4.42c6.81-6.63,12.29-14.33,17.57-22.18.26-.39.54-.78.81-1.17a.92.92,0,0,1,0,.74c-1.43,4.9-2.52,9.86-2.13,15,.29,3.74,1.59,7,4.85,9.17,4.33,2.83,8.55,1.52,12.36-1,2.87-1.91,5.32-4.44,7.89-6.64a.4.4,0,0,1,0,.28c-3.08,6.93-6.29,13.81-9.22,20.81q-3.35,8-6.07,16.27c-.83,2.53.2,5,1.93,7.07,1.23,1.45,2.76,1.11,3.46-.66.5-1.26,1-2.53,1.46-3.79,3-7.7,6-15.44,9.14-23.08,2.43-5.85,5.15-11.57,7.91-17.71v0a42.74,42.74,0,0,0,1.63-5.6C153.13,3776.33,153.5,3775.53,153.88,3774.68Z"/><path id="Fill-1-14" data-name="Fill-1" d="M3,3958.09c.6-1.42,1.1-2.88,1.82-4.23a6,6,0,0,1,1.85-2.08,6.89,6.89,0,0,1,2.24-.58,6.8,6.8,0,0,1-.35,2.07c-1.92,3.65-.88,6.08,3.13,7,4.18,1,8.38.53,12.51-.21,10.47-1.87,20.63-4.8,30-9.91a36.58,36.58,0,0,0,7.77-5.51,12.63,12.63,0,0,0,2.47-15.53,46.25,46.25,0,0,0-5.9-8.08c-6.9-8.05-14-15.91-20.87-24a24.58,24.58,0,0,1-5.14-10.65c-1.41-6.41,1-11.62,5.29-16.12,7.16-7.47,16-12.12,25.71-15.44a70.45,70.45,0,0,1,16.07-3.72,11.75,11.75,0,0,1,7.21,1.35,7.82,7.82,0,0,1,3.44,9.78c-1.94,5-4.38,9.75-6.66,14.59-.52,1.11-1.34.81-2,.07-1.73-2-2.7-4.28-1.54-7,1.06-2.48,2.16-5,3.07-7.5,1-2.87.43-3.81-2.58-3.55a50.29,50.29,0,0,0-10.07,1.71c-7.61,2.28-15,5.12-21.54,9.86a22.26,22.26,0,0,0-7.49,8.47c-2.45,5.26-1.66,10.38,1.56,14.9,2.94,4.12,6.4,7.88,9.74,11.7,4.64,5.32,9.53,10.43,14,15.85,3.52,4.24,6.11,9.05,6.68,14.72.48,4.71-.61,8.87-4,12.34a42.26,42.26,0,0,1-11.24,8.05,109.23,109.23,0,0,1-30,10.43c-5.65,1.07-11.35,1.78-17.11.89-4-.61-7-2.58-8.17-6.67Z"/><path d="M192.73,3907.63c-1.29-6.22-6.49-11.37-14-6.87a60.27,60.27,0,0,0-13.72,11.35c-.54.6-1.11,1.18-1.67,1.78a4.54,4.54,0,0,1,.51-1.85c1.81-4.37,3.72-8.71,5.4-13.14a6,6,0,0,0-1.61-6.83c-1.39-1.33-2.63-1.8-3.64.89-4.21,11.3-7.95,22.88-16.08,32.24-1.63,1.87-3,3.95-4.59,5.89-4,5-8.07,10.1-13.31,14-1.12.83-2.35,2-3.87,1.23s-1.53-2.37-1.52-3.81c.08-9.82,2.85-18.94,7.24-27.61.84-1.65,1-3.05-.19-4.42a13.63,13.63,0,0,0-3-2.78c-2.33-1.45-3.65-1-5.29,1.22-7.37,9.94-14.66,19.95-22.26,29.71-2.58,3.31-5.93,6-9.06,8.87a3.07,3.07,0,0,1-2.76.55,3.11,3.11,0,0,1-1.14-2.58,36.61,36.61,0,0,1,1.43-7.1c2.29-7.11,5.85-13.64,9.69-20,1.91-3.17,3.83-6.33,5.85-9.42a5.23,5.23,0,0,0-2.39-7.69,2.13,2.13,0,0,0-2.88.83c-1.5,2.22-3.07,4.41-4.43,6.72-2.24,3.8-4.46,7.63-6.46,11.56-3.18,6.26-6,12.71-6.9,19.76a15.26,15.26,0,0,0,3.7,12.32c2.72,3.19,6.12,3.73,9.57,1.48a37.83,37.83,0,0,0,5.73-4.42c6.81-6.63,12.29-14.33,17.57-22.18.26-.39.54-.78.81-1.17a.92.92,0,0,1,0,.74c-1.43,4.9-2.52,9.86-2.13,15,.29,3.74,1.59,7,4.85,9.17,4.33,2.83,8.55,1.52,12.36-1,2.87-1.91,5.32-4.44,7.89-6.64a.4.4,0,0,1,0,.28c-3.08,6.93-6.29,13.81-9.22,20.81q-3.35,8-6.07,16.27c-.83,2.53.2,5,1.93,7.07,1.23,1.45,2.76,1.11,3.46-.66.5-1.26,1-2.53,1.46-3.79,3-7.7,6-15.44,9.14-23.08,2.43-5.85,5.15-11.57,7.91-17.71v0a42.74,42.74,0,0,0,1.63-5.6c.33-.68.7-1.47,1.08-2.33,1.76-1.78,4.14-4.19,6-6.08a95,95,0,0,1,10.44-12.11c3.42-3.26,7.19-6.16,10.88-9.12a15.07,15.07,0,0,1,3.58-2c1.69-.71,2.35-.17,2.57,1.76-.7,2.25-1.24,4.57-2.13,6.75q-1.56,3.82-3.44,7.46a10.5,10.5,0,0,0,6.15,4.35,95.87,95.87,0,0,0,3.78-9.26A16.1,16.1,0,0,0,192.73,3907.63Z"/><path id="Fill-1-15" data-name="Fill-1" d="M3,4118.09c.6-1.42,1.1-2.88,1.82-4.23a6,6,0,0,1,1.85-2.08,6.89,6.89,0,0,1,2.24-.58,6.8,6.8,0,0,1-.35,2.07c-1.92,3.65-.88,6.08,3.13,7,4.18,1,8.38.53,12.51-.21,10.47-1.87,20.63-4.8,30-9.91a36.58,36.58,0,0,0,7.77-5.51,12.63,12.63,0,0,0,2.47-15.53,46.25,46.25,0,0,0-5.9-8.08c-6.9-8.05-14-15.91-20.87-24a24.58,24.58,0,0,1-5.14-10.65c-1.41-6.41,1-11.62,5.29-16.12,7.16-7.47,16-12.12,25.71-15.44a70.45,70.45,0,0,1,16.07-3.72,11.75,11.75,0,0,1,7.21,1.35,7.82,7.82,0,0,1,3.44,9.78c-1.94,5-4.38,9.75-6.66,14.59-.52,1.11-1.34.81-2,.07-1.73-2-2.7-4.28-1.54-7,1.06-2.48,2.16-5,3.07-7.5,1-2.87.43-3.81-2.58-3.55a50.29,50.29,0,0,0-10.07,1.71c-7.61,2.28-15,5.12-21.54,9.86a22.26,22.26,0,0,0-7.49,8.47c-2.45,5.26-1.66,10.38,1.56,14.9,2.94,4.12,6.4,7.88,9.74,11.7,4.64,5.32,9.53,10.43,14,15.85,3.52,4.24,6.11,9.05,6.68,14.72.48,4.71-.61,8.87-4,12.34a42.26,42.26,0,0,1-11.24,8.05,109.23,109.23,0,0,1-30,10.43c-5.65,1.07-11.35,1.78-17.11.89-4-.61-7-2.58-8.17-6.67Z"/><path d="M191.69,4076.4a16.1,16.1,0,0,0,1-8.77c-1.29-6.22-6.49-11.37-14-6.87a60.27,60.27,0,0,0-13.72,11.35c-.54.6-1.11,1.18-1.67,1.78a4.54,4.54,0,0,1,.51-1.85c1.81-4.37,3.72-8.71,5.4-13.14a6,6,0,0,0-1.61-6.83c-1.39-1.33-2.63-1.8-3.64.89-4.21,11.3-7.95,22.88-16.08,32.24-1.63,1.87-3,3.95-4.59,5.89-4,5-8.07,10.1-13.31,14-1.12.83-2.35,2-3.87,1.23s-1.53-2.37-1.52-3.81c.08-9.82,2.85-18.94,7.24-27.61.84-1.65,1-3.05-.19-4.42a13.63,13.63,0,0,0-3-2.78c-2.33-1.45-3.65-1-5.29,1.22-7.37,9.94-14.66,19.95-22.26,29.71-2.58,3.31-5.93,6-9.06,8.87a3.07,3.07,0,0,1-2.76.55,3.11,3.11,0,0,1-1.14-2.58,36.61,36.61,0,0,1,1.43-7.1c2.29-7.11,5.85-13.64,9.69-20,1.91-3.17,3.83-6.33,5.85-9.42a5.23,5.23,0,0,0-2.39-7.69,2.13,2.13,0,0,0-2.88.83c-1.5,2.22-3.07,4.41-4.43,6.72-2.24,3.8-4.46,7.63-6.46,11.56-3.18,6.26-6,12.71-6.9,19.76a15.26,15.26,0,0,0,3.7,12.32c2.72,3.19,6.12,3.73,9.57,1.48a37.83,37.83,0,0,0,5.73-4.42c6.81-6.63,12.29-14.33,17.57-22.18.26-.39.54-.78.81-1.17a.92.92,0,0,1,0,.74c-1.43,4.9-2.52,9.86-2.13,15,.29,3.74,1.59,7,4.85,9.17,4.33,2.83,8.55,1.52,12.36-1,2.87-1.91,5.32-4.44,7.89-6.64a.4.4,0,0,1,0,.28c-3.08,6.93-6.29,13.81-9.22,20.81q-3.35,8-6.07,16.27c-.83,2.53.2,5,1.93,7.07,1.23,1.45,2.76,1.11,3.46-.66.5-1.26,1-2.53,1.46-3.79,3-7.7,6-15.44,9.14-23.08,2.43-5.85,5.15-11.57,7.91-17.71v0a42.74,42.74,0,0,0,1.63-5.6c.33-.68.7-1.47,1.08-2.33,1.76-1.78,4.14-4.19,6-6.08a95,95,0,0,1,10.44-12.11c3.42-3.26,7.19-6.16,10.88-9.12a15.07,15.07,0,0,1,3.58-2c1.69-.71,2.35-.17,2.57,1.76-.7,2.25-1.24,4.57-2.13,6.75A84.37,84.37,0,0,1,172,4096.13c-2.65,3.18-5.47,6.36-9.41,8.13a5.84,5.84,0,0,1-3.48.66,10.19,10.19,0,0,0,1,6.25,9.9,9.9,0,0,0,5.39-.73,30.05,30.05,0,0,0,8.45-5.3,61.8,61.8,0,0,0,13.92-19.38l0-.1.09,0A95.85,95.85,0,0,0,191.69,4076.4Z"/><path id="Fill-4" d="M187.33,4227.1c-.22-1.92-.88-2.47-2.57-1.76a15.07,15.07,0,0,0-3.58,2c-3.69,3-7.46,5.86-10.88,9.12-5.29,5-9.63,10.89-13.88,16.84-2.2,3.08-1.9,5.66-.41,8.62s3.42,3.75,6.61,2.31c3.94-1.78,6.77-5,9.41-8.13a84.37,84.37,0,0,0,13.17-22.29c.89-2.18,1.43-4.5,2.13-6.75m-36.16,35.5c-2.76,6.14-5.49,11.86-7.91,17.71-3.17,7.64-6.11,15.38-9.14,23.08-.5,1.26-1,2.54-1.46,3.79-.71,1.77-2.24,2.11-3.46.66-1.73-2-2.76-4.54-1.93-7.07q2.7-8.25,6.07-16.27c2.93-7,6.14-13.88,9.22-20.81a.4.4,0,0,0,0-.28c-2.58,2.2-5,4.74-7.89,6.64-3.81,2.53-8,3.84-12.36,1-3.27-2.13-4.56-5.42-4.85-9.17-.4-5.16.7-10.11,2.13-15a.92.92,0,0,0,0-.74c-.27.39-.54.78-.81,1.17-5.28,7.85-10.76,15.55-17.57,22.18a37.84,37.84,0,0,1-5.73,4.42c-3.44,2.25-6.84,1.71-9.57-1.48a15.26,15.26,0,0,1-3.7-12.32c.94-7,3.72-13.5,6.9-19.76,2-3.93,4.22-7.76,6.46-11.56,1.36-2.31,2.94-4.49,4.43-6.72a2.13,2.13,0,0,1,2.88-.83,5.23,5.23,0,0,1,2.39,7.69c-2,3.09-3.95,6.26-5.85,9.42-3.84,6.37-7.4,12.89-9.69,20a36.61,36.61,0,0,0-1.43,7.1,3.1,3.1,0,0,0,1.14,2.58,3.07,3.07,0,0,0,2.76-.55c3.13-2.84,6.49-5.56,9.06-8.87,7.6-9.76,14.88-19.77,22.26-29.71,1.64-2.21,3-2.67,5.29-1.22a13.63,13.63,0,0,1,3,2.78c1.17,1.37,1,2.77.19,4.42-4.4,8.67-7.17,17.8-7.24,27.61,0,1.44.09,3.06,1.52,3.81s2.74-.4,3.87-1.23c5.25-3.88,9.27-8.95,13.31-14,1.56-1.94,3-4,4.59-5.89,8.13-9.36,11.87-20.94,16.08-32.24,1-2.7,2.25-2.22,3.64-.89a6,6,0,0,1,1.61,6.83c-1.68,4.43-3.58,8.77-5.4,13.14a4.54,4.54,0,0,0-.51,1.85c.56-.59,1.12-1.17,1.67-1.78a60.27,60.27,0,0,1,13.72-11.35c7.46-4.5,12.66.65,14,6.87a16.1,16.1,0,0,1-1,8.77c-3.82,10.87-9.17,20.86-17.75,28.73a30.05,30.05,0,0,1-8.45,5.3c-5.13,2.18-10.28,0-12.91-4.9-.44-.82-.81-1.68-1.41-2.94"/><path id="Fill-1-16" data-name="Fill-1" d="M3,4278.09c.6-1.42,1.1-2.88,1.82-4.23a6,6,0,0,1,1.85-2.08,6.89,6.89,0,0,1,2.24-.58,6.8,6.8,0,0,1-.35,2.07c-1.92,3.65-.88,6.08,3.13,7,4.18,1,8.38.53,12.51-.21,10.47-1.87,20.63-4.8,30-9.91a36.58,36.58,0,0,0,7.77-5.51,12.63,12.63,0,0,0,2.47-15.53,46.25,46.25,0,0,0-5.9-8.08c-6.9-8.05-14-15.91-20.87-24a24.58,24.58,0,0,1-5.14-10.65c-1.41-6.41,1-11.62,5.29-16.12,7.16-7.47,16-12.12,25.71-15.44a70.45,70.45,0,0,1,16.07-3.72,11.75,11.75,0,0,1,7.21,1.35,7.82,7.82,0,0,1,3.44,9.78c-1.94,5-4.38,9.75-6.66,14.59-.52,1.11-1.34.81-2,.07-1.73-2-2.7-4.28-1.54-7,1.06-2.48,2.16-5,3.07-7.5,1-2.87.43-3.81-2.58-3.55a50.29,50.29,0,0,0-10.07,1.71c-7.61,2.28-15,5.12-21.54,9.86a22.26,22.26,0,0,0-7.49,8.47c-2.45,5.26-1.66,10.38,1.56,14.9,2.94,4.12,6.4,7.88,9.74,11.7,4.64,5.32,9.53,10.43,14,15.85,3.52,4.24,6.11,9.05,6.68,14.72.48,4.71-.61,8.87-4,12.34a42.26,42.26,0,0,1-11.24,8.05,109.23,109.23,0,0,1-30,10.43c-5.65,1.07-11.35,1.78-17.11.89-4-.61-7-2.58-8.17-6.67Z"/><path d="M214.21,4240.6c-2.55,2-5.17,3.83-7.74,5.76a5.68,5.68,0,0,1-.66.37h0c-1.49,2-4.6,6.7-3.62,10.34a3,3,0,0,1,1.55-1.43,101.91,101.91,0,0,0,15.74-9.62A26.92,26.92,0,0,0,214.21,4240.6Z"/><path id="Fill-4-2" data-name="Fill-4" d="M187.33,4387.1c-.22-1.92-.88-2.47-2.57-1.76a15.07,15.07,0,0,0-3.58,2c-3.69,3-7.46,5.86-10.88,9.12-5.29,5-9.63,10.89-13.88,16.84-2.2,3.08-1.9,5.66-.41,8.62s3.42,3.75,6.61,2.31c3.94-1.78,6.77-5,9.41-8.13a84.37,84.37,0,0,0,13.17-22.29c.89-2.18,1.43-4.5,2.13-6.75m-36.16,35.5c-2.76,6.14-5.49,11.86-7.91,17.71-3.17,7.64-6.11,15.38-9.14,23.08-.5,1.26-1,2.54-1.46,3.79-.71,1.77-2.24,2.11-3.46.66-1.73-2-2.76-4.54-1.93-7.07q2.7-8.25,6.07-16.27c2.93-7,6.14-13.88,9.22-20.81a.4.4,0,0,0,0-.28c-2.58,2.2-5,4.74-7.89,6.64-3.81,2.53-8,3.84-12.36,1-3.27-2.13-4.56-5.42-4.85-9.17-.4-5.16.7-10.11,2.13-15a.92.92,0,0,0,0-.74c-.27.39-.54.78-.81,1.17-5.28,7.85-10.76,15.55-17.57,22.18a37.84,37.84,0,0,1-5.73,4.42c-3.44,2.25-6.84,1.71-9.57-1.48a15.26,15.26,0,0,1-3.7-12.32c.94-7,3.72-13.5,6.9-19.76,2-3.93,4.22-7.76,6.46-11.56,1.36-2.31,2.94-4.49,4.43-6.72a2.13,2.13,0,0,1,2.88-.83,5.23,5.23,0,0,1,2.39,7.69c-2,3.09-3.95,6.26-5.85,9.42-3.84,6.37-7.4,12.89-9.69,20a36.61,36.61,0,0,0-1.43,7.1,3.1,3.1,0,0,0,1.14,2.58,3.07,3.07,0,0,0,2.76-.55c3.13-2.84,6.49-5.56,9.06-8.87,7.6-9.76,14.88-19.77,22.26-29.71,1.64-2.21,3-2.67,5.29-1.22a13.63,13.63,0,0,1,3,2.78c1.17,1.37,1,2.77.19,4.42-4.4,8.67-7.17,17.8-7.24,27.61,0,1.44.09,3.06,1.52,3.81s2.74-.4,3.87-1.23c5.25-3.88,9.27-8.95,13.31-14,1.56-1.94,3-4,4.59-5.89,8.13-9.36,11.87-20.94,16.08-32.24,1-2.7,2.25-2.22,3.64-.89a6,6,0,0,1,1.61,6.83c-1.68,4.43-3.58,8.77-5.4,13.14a4.54,4.54,0,0,0-.51,1.85c.56-.59,1.12-1.17,1.67-1.78a60.27,60.27,0,0,1,13.72-11.35c7.46-4.5,12.66.65,14,6.87a16.1,16.1,0,0,1-1,8.77c-3.82,10.87-9.17,20.86-17.75,28.73a30.05,30.05,0,0,1-8.45,5.3c-5.13,2.18-10.28,0-12.91-4.9-.44-.82-.81-1.68-1.41-2.94"/><path id="Fill-1-17" data-name="Fill-1" d="M3,4438.09c.6-1.42,1.1-2.88,1.82-4.23a6,6,0,0,1,1.85-2.08,6.89,6.89,0,0,1,2.24-.58,6.8,6.8,0,0,1-.35,2.07c-1.92,3.65-.88,6.08,3.13,7,4.18,1,8.38.53,12.51-.21,10.47-1.87,20.63-4.8,30-9.91a36.58,36.58,0,0,0,7.77-5.51,12.63,12.63,0,0,0,2.47-15.53,46.25,46.25,0,0,0-5.9-8.08c-6.9-8.05-14-15.91-20.87-24a24.58,24.58,0,0,1-5.14-10.65c-1.41-6.41,1-11.62,5.29-16.12,7.16-7.47,16-12.12,25.71-15.44a70.45,70.45,0,0,1,16.07-3.72,11.75,11.75,0,0,1,7.21,1.35,7.82,7.82,0,0,1,3.44,9.78c-1.94,5-4.38,9.75-6.66,14.59-.52,1.11-1.34.81-2,.07-1.73-2-2.7-4.28-1.54-7,1.06-2.48,2.16-5,3.07-7.5,1-2.87.43-3.81-2.58-3.55a50.29,50.29,0,0,0-10.07,1.71c-7.61,2.28-15,5.12-21.54,9.86a22.26,22.26,0,0,0-7.49,8.47c-2.45,5.26-1.66,10.38,1.56,14.9,2.94,4.12,6.4,7.88,9.74,11.7,4.64,5.32,9.53,10.43,14,15.85,3.52,4.24,6.11,9.05,6.68,14.72.48,4.71-.61,8.87-4,12.34a42.26,42.26,0,0,1-11.24,8.05,109.23,109.23,0,0,1-30,10.43c-5.65,1.07-11.35,1.78-17.11.89-4-.61-7-2.58-8.17-6.67Z"/><path d="M223.74,4386.19c1-.59,2.53-1.21,3.27,0,.39.65-.09,2.32-.74,3a89.89,89.89,0,0,1-8.25,8.33c-3.69,3.13-7.68,5.89-11.55,8.8a5.68,5.68,0,0,1-.66.37h0c-1.49,2-4.6,6.7-3.62,10.34a3,3,0,0,1,1.55-1.43,96.35,96.35,0,0,0,19.92-13c3.4-2.93,6.6-6.06,8.54-10.23,2.1-4.53.89-9.17-3-11.43-2.93-1.67-6-1.5-9.14-.57-.59.18-1.15.38-1.71.61a10.37,10.37,0,0,0,1.21,7.86A33.39,33.39,0,0,1,223.74,4386.19Z"/><path id="Fill-4-3" data-name="Fill-4" d="M187.33,4547.1c-.22-1.92-.88-2.47-2.57-1.76a15.07,15.07,0,0,0-3.58,2c-3.69,3-7.46,5.86-10.88,9.12-5.29,5-9.63,10.89-13.88,16.84-2.2,3.08-1.9,5.66-.41,8.62s3.42,3.75,6.61,2.31c3.94-1.78,6.77-5,9.41-8.13a84.37,84.37,0,0,0,13.17-22.29c.89-2.18,1.43-4.5,2.13-6.75m-36.16,35.5c-2.76,6.14-5.49,11.86-7.91,17.71-3.17,7.64-6.11,15.38-9.14,23.08-.5,1.26-1,2.54-1.46,3.79-.71,1.77-2.24,2.11-3.46.66-1.73-2-2.76-4.54-1.93-7.07q2.7-8.25,6.07-16.27c2.93-7,6.14-13.88,9.22-20.81a.4.4,0,0,0,0-.28c-2.58,2.2-5,4.74-7.89,6.64-3.81,2.53-8,3.84-12.36,1-3.27-2.13-4.56-5.42-4.85-9.17-.4-5.16.7-10.11,2.13-15a.92.92,0,0,0,0-.74c-.27.39-.54.78-.81,1.17-5.28,7.85-10.76,15.55-17.57,22.18a37.84,37.84,0,0,1-5.73,4.42c-3.44,2.25-6.84,1.71-9.57-1.48a15.26,15.26,0,0,1-3.7-12.32c.94-7,3.72-13.5,6.9-19.76,2-3.93,4.22-7.76,6.46-11.56,1.36-2.31,2.94-4.49,4.43-6.72a2.13,2.13,0,0,1,2.88-.83,5.23,5.23,0,0,1,2.39,7.69c-2,3.09-3.95,6.26-5.85,9.42-3.84,6.37-7.4,12.89-9.69,20a36.61,36.61,0,0,0-1.43,7.1,3.1,3.1,0,0,0,1.14,2.58,3.07,3.07,0,0,0,2.76-.55c3.13-2.84,6.49-5.56,9.06-8.87,7.6-9.76,14.88-19.77,22.26-29.71,1.64-2.21,3-2.67,5.29-1.22a13.63,13.63,0,0,1,3,2.78c1.17,1.37,1,2.77.19,4.42-4.4,8.67-7.17,17.8-7.24,27.61,0,1.44.09,3.06,1.52,3.81s2.74-.4,3.87-1.23c5.25-3.88,9.27-8.95,13.31-14,1.56-1.94,3-4,4.59-5.89,8.13-9.36,11.87-20.94,16.08-32.24,1-2.7,2.25-2.22,3.64-.89a6,6,0,0,1,1.61,6.83c-1.68,4.43-3.58,8.77-5.4,13.14a4.54,4.54,0,0,0-.51,1.85c.56-.59,1.12-1.17,1.67-1.78a60.27,60.27,0,0,1,13.72-11.35c7.46-4.5,12.66.65,14,6.87a16.1,16.1,0,0,1-1,8.77c-3.82,10.87-9.17,20.86-17.75,28.73a30.05,30.05,0,0,1-8.45,5.3c-5.13,2.18-10.28,0-12.91-4.9-.44-.82-.81-1.68-1.41-2.94"/><path id="Fill-1-18" data-name="Fill-1" d="M3,4598.09c.6-1.42,1.1-2.88,1.82-4.23a6,6,0,0,1,1.85-2.08,6.89,6.89,0,0,1,2.24-.58,6.8,6.8,0,0,1-.35,2.07c-1.92,3.65-.88,6.08,3.13,7,4.18,1,8.38.53,12.51-.21,10.47-1.87,20.63-4.8,30-9.91a36.58,36.58,0,0,0,7.77-5.51,12.63,12.63,0,0,0,2.47-15.53,46.25,46.25,0,0,0-5.9-8.08c-6.9-8.05-14-15.91-20.87-24a24.58,24.58,0,0,1-5.14-10.65c-1.41-6.41,1-11.62,5.29-16.12,7.16-7.47,16-12.12,25.71-15.44a70.45,70.45,0,0,1,16.07-3.72,11.75,11.75,0,0,1,7.21,1.35,7.82,7.82,0,0,1,3.44,9.78c-1.94,5-4.38,9.75-6.66,14.59-.52,1.11-1.34.81-2,.07-1.73-2-2.7-4.28-1.54-7,1.06-2.48,2.16-5,3.07-7.5,1-2.87.43-3.81-2.58-3.55a50.29,50.29,0,0,0-10.07,1.71c-7.61,2.28-15,5.12-21.54,9.86a22.26,22.26,0,0,0-7.49,8.47c-2.45,5.26-1.66,10.38,1.56,14.9,2.94,4.12,6.4,7.88,9.74,11.7,4.64,5.32,9.53,10.43,14,15.85,3.52,4.24,6.11,9.05,6.68,14.72.48,4.71-.61,8.87-4,12.34a42.26,42.26,0,0,1-11.24,8.05,109.23,109.23,0,0,1-30,10.43c-5.65,1.07-11.35,1.78-17.11.89-4-.61-7-2.58-8.17-6.67Z"/><path d="M202.5,4568a10.52,10.52,0,0,0,2.62-.33c-1.58,2.3-3.77,6.24-2.93,9.37a3,3,0,0,1,1.54-1.41,96.35,96.35,0,0,0,19.92-13c3.4-2.93,6.6-6.06,8.54-10.23,2.1-4.53.89-9.17-3-11.43-2.93-1.67-6-1.5-9.14-.57-4.87,1.47-8.59,4.77-11.91,8.34a57,57,0,0,0-7.1,9.95,45.76,45.76,0,0,0-3.69,7.9A10.44,10.44,0,0,0,202.5,4568Zm6.18-6.81c3.14-3.89,6.36-7.71,9.79-11.34a23.21,23.21,0,0,1,5.27-3.65c1-.59,2.53-1.21,3.27,0,.39.65-.09,2.32-.74,3a89.89,89.89,0,0,1-8.25,8.33c-3.69,3.13-7.68,5.89-11.55,8.8a5.68,5.68,0,0,1-.66.37l-.27-.22A40.77,40.77,0,0,1,208.68,4561.19Z"/><path id="Fill-4-4" data-name="Fill-4" d="M187.33,4707.1c-.22-1.92-.88-2.47-2.57-1.76a15.07,15.07,0,0,0-3.58,2c-3.69,3-7.46,5.86-10.88,9.12-5.29,5-9.63,10.89-13.88,16.84-2.2,3.08-1.9,5.66-.41,8.62s3.42,3.75,6.61,2.31c3.94-1.78,6.77-5,9.41-8.13a84.37,84.37,0,0,0,13.17-22.29c.89-2.18,1.43-4.5,2.13-6.75m-36.16,35.5c-2.76,6.14-5.49,11.86-7.91,17.71-3.17,7.64-6.11,15.38-9.14,23.08-.5,1.26-1,2.54-1.46,3.79-.71,1.77-2.24,2.11-3.46.66-1.73-2-2.76-4.54-1.93-7.07q2.7-8.25,6.07-16.27c2.93-7,6.14-13.88,9.22-20.81a.4.4,0,0,0,0-.28c-2.58,2.2-5,4.74-7.89,6.64-3.81,2.53-8,3.84-12.36,1-3.27-2.13-4.56-5.42-4.85-9.17-.4-5.16.7-10.11,2.13-15a.92.92,0,0,0,0-.74c-.27.39-.54.78-.81,1.17-5.28,7.85-10.76,15.55-17.57,22.18a37.84,37.84,0,0,1-5.73,4.42c-3.44,2.25-6.84,1.71-9.57-1.48a15.26,15.26,0,0,1-3.7-12.32c.94-7,3.72-13.5,6.9-19.76,2-3.93,4.22-7.76,6.46-11.56,1.36-2.31,2.94-4.49,4.43-6.72a2.13,2.13,0,0,1,2.88-.83,5.23,5.23,0,0,1,2.39,7.69c-2,3.09-3.95,6.26-5.85,9.42-3.84,6.37-7.4,12.89-9.69,20a36.61,36.61,0,0,0-1.43,7.1,3.1,3.1,0,0,0,1.14,2.58,3.07,3.07,0,0,0,2.76-.55c3.13-2.84,6.49-5.56,9.06-8.87,7.6-9.76,14.88-19.77,22.26-29.71,1.64-2.21,3-2.67,5.29-1.22a13.63,13.63,0,0,1,3,2.78c1.17,1.37,1,2.77.19,4.42-4.4,8.67-7.17,17.8-7.24,27.61,0,1.44.09,3.06,1.52,3.81s2.74-.4,3.87-1.23c5.25-3.88,9.27-8.95,13.31-14,1.56-1.94,3-4,4.59-5.89,8.13-9.36,11.87-20.94,16.08-32.24,1-2.7,2.25-2.22,3.64-.89a6,6,0,0,1,1.61,6.83c-1.68,4.43-3.58,8.77-5.4,13.14a4.54,4.54,0,0,0-.51,1.85c.56-.59,1.12-1.17,1.67-1.78a60.27,60.27,0,0,1,13.72-11.35c7.46-4.5,12.66.65,14,6.87a16.1,16.1,0,0,1-1,8.77c-3.82,10.87-9.17,20.86-17.75,28.73a30.05,30.05,0,0,1-8.45,5.3c-5.13,2.18-10.28,0-12.91-4.9-.44-.82-.81-1.68-1.41-2.94"/><path id="Fill-1-19" data-name="Fill-1" d="M3,4758.09c.6-1.42,1.1-2.88,1.82-4.23a6,6,0,0,1,1.85-2.08,6.89,6.89,0,0,1,2.24-.58,6.8,6.8,0,0,1-.35,2.07c-1.92,3.65-.88,6.08,3.13,7,4.18,1,8.38.53,12.51-.21,10.47-1.87,20.63-4.8,30-9.91a36.58,36.58,0,0,0,7.77-5.51,12.63,12.63,0,0,0,2.47-15.53,46.25,46.25,0,0,0-5.9-8.08c-6.9-8.05-14-15.91-20.87-24a24.58,24.58,0,0,1-5.14-10.65c-1.41-6.41,1-11.62,5.29-16.12,7.16-7.47,16-12.12,25.71-15.44a70.45,70.45,0,0,1,16.07-3.72,11.75,11.75,0,0,1,7.21,1.35,7.82,7.82,0,0,1,3.44,9.78c-1.94,5-4.38,9.75-6.66,14.59-.52,1.11-1.34.81-2,.07-1.73-2-2.7-4.28-1.54-7,1.06-2.48,2.16-5,3.07-7.5,1-2.87.43-3.81-2.58-3.55a50.29,50.29,0,0,0-10.07,1.71c-7.61,2.28-15,5.12-21.54,9.86a22.26,22.26,0,0,0-7.49,8.47c-2.45,5.26-1.66,10.38,1.56,14.9,2.94,4.12,6.4,7.88,9.74,11.7,4.64,5.32,9.53,10.43,14,15.85,3.52,4.24,6.11,9.05,6.68,14.72.48,4.71-.61,8.87-4,12.34a42.26,42.26,0,0,1-11.24,8.05,109.23,109.23,0,0,1-30,10.43c-5.65,1.07-11.35,1.78-17.11.89-4-.61-7-2.58-8.17-6.67Z"/><path d="M202,4744.69a37.22,37.22,0,0,1,0-6.57,2.63,2.63,0,0,1,1.76-2.49,96.35,96.35,0,0,0,19.92-13c3.4-2.93,6.6-6.06,8.54-10.23,2.1-4.53.89-9.17-3-11.43-2.93-1.67-6-1.5-9.14-.57-4.87,1.47-8.59,4.77-11.91,8.34a57,57,0,0,0-7.1,9.95,41.53,41.53,0,0,0-6,20.46c.08.86.17,2.25.36,3.61,1.31,9.4,9.22,15.17,18.18,13.77a10.52,10.52,0,0,0-.23-6.81c-.38.17-.76.35-1.15.5C206.66,4752.42,203,4750.48,202,4744.69Zm6.7-23.5c3.14-3.89,6.36-7.71,9.79-11.34a23.21,23.21,0,0,1,5.27-3.65c1-.59,2.53-1.21,3.27,0,.39.65-.09,2.32-.74,3a89.88,89.88,0,0,1-8.25,8.33c-3.69,3.13-7.68,5.89-11.55,8.81a5.66,5.66,0,0,1-.66.37l-.27-.22A40.78,40.78,0,0,1,208.68,4721.19Z"/><path id="Fill-4-5" data-name="Fill-4" d="M187.33,4867.1c-.22-1.92-.88-2.47-2.57-1.76a15.07,15.07,0,0,0-3.58,2c-3.69,3-7.46,5.86-10.88,9.12-5.29,5-9.63,10.89-13.88,16.84-2.2,3.08-1.9,5.66-.41,8.62s3.42,3.75,6.61,2.31c3.94-1.78,6.77-5,9.41-8.13a84.37,84.37,0,0,0,13.17-22.29c.89-2.18,1.43-4.5,2.13-6.75m-36.16,35.5c-2.76,6.14-5.49,11.86-7.91,17.71-3.17,7.64-6.11,15.38-9.14,23.08-.5,1.26-1,2.54-1.46,3.79-.71,1.77-2.24,2.11-3.46.66-1.73-2-2.76-4.54-1.93-7.07q2.7-8.25,6.07-16.27c2.93-7,6.14-13.88,9.22-20.81a.4.4,0,0,0,0-.28c-2.58,2.2-5,4.74-7.89,6.64-3.81,2.53-8,3.84-12.36,1-3.27-2.13-4.56-5.42-4.85-9.17-.4-5.16.7-10.11,2.13-15a.92.92,0,0,0,0-.74c-.27.39-.54.78-.81,1.17-5.28,7.85-10.76,15.55-17.57,22.18a37.84,37.84,0,0,1-5.73,4.42c-3.44,2.25-6.84,1.71-9.57-1.48a15.26,15.26,0,0,1-3.7-12.32c.94-7,3.72-13.5,6.9-19.76,2-3.93,4.22-7.76,6.46-11.56,1.36-2.31,2.94-4.49,4.43-6.72a2.13,2.13,0,0,1,2.88-.83,5.23,5.23,0,0,1,2.39,7.69c-2,3.09-3.95,6.26-5.85,9.42-3.84,6.37-7.4,12.89-9.69,20a36.61,36.61,0,0,0-1.43,7.1,3.1,3.1,0,0,0,1.14,2.58,3.07,3.07,0,0,0,2.76-.55c3.13-2.84,6.49-5.56,9.06-8.87,7.6-9.76,14.88-19.77,22.26-29.71,1.64-2.21,3-2.67,5.29-1.22a13.63,13.63,0,0,1,3,2.78c1.17,1.37,1,2.77.19,4.42-4.4,8.67-7.17,17.8-7.24,27.61,0,1.44.09,3.06,1.52,3.81s2.74-.4,3.87-1.23c5.25-3.88,9.27-8.95,13.31-14,1.56-1.94,3-4,4.59-5.89,8.13-9.36,11.87-20.94,16.08-32.24,1-2.7,2.25-2.22,3.64-.89a6,6,0,0,1,1.61,6.83c-1.68,4.43-3.58,8.77-5.4,13.14a4.54,4.54,0,0,0-.51,1.85c.56-.59,1.12-1.17,1.67-1.78a60.27,60.27,0,0,1,13.72-11.35c7.46-4.5,12.66.65,14,6.87a16.1,16.1,0,0,1-1,8.77c-3.82,10.87-9.17,20.86-17.75,28.73a30.05,30.05,0,0,1-8.45,5.3c-5.13,2.18-10.28,0-12.91-4.9-.44-.82-.81-1.68-1.41-2.94"/><path id="Fill-1-20" data-name="Fill-1" d="M3,4918.09c.6-1.42,1.1-2.88,1.82-4.23a6,6,0,0,1,1.85-2.08,6.89,6.89,0,0,1,2.24-.58,6.8,6.8,0,0,1-.35,2.07c-1.92,3.65-.88,6.08,3.13,7,4.18,1,8.38.53,12.51-.21,10.47-1.87,20.63-4.8,30-9.91a36.58,36.58,0,0,0,7.77-5.51,12.63,12.63,0,0,0,2.47-15.53,46.25,46.25,0,0,0-5.9-8.08c-6.9-8.05-14-15.91-20.87-24a24.58,24.58,0,0,1-5.14-10.65c-1.41-6.41,1-11.62,5.29-16.12,7.16-7.47,16-12.12,25.71-15.44a70.45,70.45,0,0,1,16.07-3.72,11.75,11.75,0,0,1,7.21,1.35,7.82,7.82,0,0,1,3.44,9.78c-1.94,5-4.38,9.75-6.66,14.59-.52,1.11-1.34.81-2,.07-1.73-2-2.7-4.28-1.54-7,1.06-2.48,2.16-5,3.07-7.5,1-2.87.43-3.81-2.58-3.55a50.29,50.29,0,0,0-10.07,1.71c-7.61,2.28-15,5.12-21.54,9.86a22.26,22.26,0,0,0-7.49,8.47c-2.45,5.26-1.66,10.38,1.56,14.9,2.94,4.12,6.4,7.88,9.74,11.7,4.64,5.32,9.53,10.43,14,15.85,3.52,4.24,6.11,9.05,6.68,14.72.48,4.71-.61,8.87-4,12.34a42.26,42.26,0,0,1-11.24,8.05,109.23,109.23,0,0,1-30,10.43c-5.65,1.07-11.35,1.78-17.11.89-4-.61-7-2.58-8.17-6.67Z"/><path d="M237.26,4887.73A117.88,117.88,0,0,1,225.38,4901q-1.05,1-2.14,2l0,0h-.08a36.91,36.91,0,0,1-11,7.24c-5.5,2.15-9.18.22-10.18-5.57a37.22,37.22,0,0,1,0-6.57,2.63,2.63,0,0,1,1.76-2.49,96.35,96.35,0,0,0,19.92-13c3.4-2.93,6.6-6.06,8.54-10.23,2.1-4.53.89-9.17-3-11.43-2.93-1.67-6-1.5-9.14-.57-4.87,1.47-8.59,4.77-11.91,8.34a57,57,0,0,0-7.1,9.95,41.53,41.53,0,0,0-6,20.46c.08.86.17,2.25.36,3.61,1.42,10.16,10.55,16.1,20.39,13.3,4.34-1.24,8-3.72,11.4-6.54,5.57-4.57,10.14-10,14.52-15.66A10.5,10.5,0,0,0,237.26,4887.73Zm-28.58-6.54c3.14-3.89,6.36-7.71,9.79-11.34a23.21,23.21,0,0,1,5.27-3.65c1-.59,2.53-1.21,3.27,0,.39.65-.09,2.32-.74,3a89.88,89.88,0,0,1-8.25,8.33c-3.69,3.13-7.68,5.89-11.55,8.81a5.66,5.66,0,0,1-.66.37l-.27-.22A40.78,40.78,0,0,1,208.68,4881.19Z"/><path id="Fill-4-6" data-name="Fill-4" d="M187.33,5027.1c-.22-1.92-.88-2.47-2.57-1.76a15.07,15.07,0,0,0-3.58,2c-3.69,3-7.46,5.86-10.88,9.12-5.29,5-9.63,10.89-13.88,16.84-2.2,3.08-1.9,5.66-.41,8.62s3.42,3.75,6.61,2.31c3.94-1.78,6.77-5,9.41-8.13a84.37,84.37,0,0,0,13.17-22.29c.89-2.18,1.43-4.5,2.13-6.75m-36.16,35.5c-2.76,6.14-5.49,11.86-7.91,17.71-3.17,7.64-6.11,15.38-9.14,23.08-.5,1.26-1,2.54-1.46,3.79-.71,1.77-2.24,2.11-3.46.66-1.73-2-2.76-4.54-1.93-7.07q2.7-8.25,6.07-16.27c2.93-7,6.14-13.88,9.22-20.81a.4.4,0,0,0,0-.28c-2.58,2.2-5,4.74-7.89,6.64-3.81,2.53-8,3.84-12.36,1-3.27-2.13-4.56-5.42-4.85-9.17-.4-5.16.7-10.11,2.13-15a.92.92,0,0,0,0-.74c-.27.39-.54.78-.81,1.17-5.28,7.85-10.76,15.55-17.57,22.18a37.84,37.84,0,0,1-5.73,4.42c-3.44,2.25-6.84,1.71-9.57-1.48a15.26,15.26,0,0,1-3.7-12.32c.94-7,3.72-13.5,6.9-19.76,2-3.93,4.22-7.76,6.46-11.56,1.36-2.31,2.94-4.49,4.43-6.72a2.13,2.13,0,0,1,2.88-.83,5.23,5.23,0,0,1,2.39,7.69c-2,3.09-3.95,6.26-5.85,9.42-3.84,6.37-7.4,12.89-9.69,20a36.61,36.61,0,0,0-1.43,7.1,3.1,3.1,0,0,0,1.14,2.58,3.07,3.07,0,0,0,2.76-.55c3.13-2.84,6.49-5.56,9.06-8.87,7.6-9.76,14.88-19.77,22.26-29.71,1.64-2.21,3-2.67,5.29-1.22a13.63,13.63,0,0,1,3,2.78c1.17,1.37,1,2.77.19,4.42-4.4,8.67-7.17,17.8-7.24,27.61,0,1.44.09,3.06,1.52,3.81s2.74-.4,3.87-1.23c5.25-3.88,9.27-8.95,13.31-14,1.56-1.94,3-4,4.59-5.89,8.13-9.36,11.87-20.94,16.08-32.24,1-2.7,2.25-2.22,3.64-.89a6,6,0,0,1,1.61,6.83c-1.68,4.43-3.58,8.77-5.4,13.14a4.54,4.54,0,0,0-.51,1.85c.56-.59,1.12-1.17,1.67-1.78a60.27,60.27,0,0,1,13.72-11.35c7.46-4.5,12.66.65,14,6.87a16.1,16.1,0,0,1-1,8.77c-3.82,10.87-9.17,20.86-17.75,28.73a30.05,30.05,0,0,1-8.45,5.3c-5.13,2.18-10.28,0-12.91-4.9-.44-.82-.81-1.68-1.41-2.94"/><path id="Fill-1-21" data-name="Fill-1" d="M3,5078.09c.6-1.42,1.1-2.88,1.82-4.23a6,6,0,0,1,1.85-2.08,6.89,6.89,0,0,1,2.24-.58,6.8,6.8,0,0,1-.35,2.07c-1.92,3.65-.88,6.08,3.13,7,4.18,1,8.38.53,12.51-.21,10.47-1.87,20.63-4.8,30-9.91a36.58,36.58,0,0,0,7.77-5.51,12.63,12.63,0,0,0,2.47-15.53,46.25,46.25,0,0,0-5.9-8.08c-6.9-8.05-14-15.91-20.87-24a24.58,24.58,0,0,1-5.14-10.65c-1.41-6.41,1-11.62,5.29-16.12,7.16-7.47,16-12.12,25.71-15.44a70.45,70.45,0,0,1,16.07-3.72,11.75,11.75,0,0,1,7.21,1.35,7.82,7.82,0,0,1,3.44,9.78c-1.94,5-4.38,9.75-6.66,14.59-.52,1.11-1.34.81-2,.07-1.73-2-2.7-4.28-1.54-7,1.06-2.48,2.16-5,3.07-7.5,1-2.87.43-3.81-2.58-3.55a50.29,50.29,0,0,0-10.07,1.71c-7.61,2.28-15,5.12-21.54,9.86a22.26,22.26,0,0,0-7.49,8.47c-2.45,5.26-1.66,10.38,1.56,14.9,2.94,4.12,6.4,7.88,9.74,11.7,4.64,5.32,9.53,10.43,14,15.85,3.52,4.24,6.11,9.05,6.68,14.72.48,4.71-.61,8.87-4,12.34a42.26,42.26,0,0,1-11.24,8.05,109.23,109.23,0,0,1-30,10.43c-5.65,1.07-11.35,1.78-17.11.89-4-.61-7-2.58-8.17-6.67Z"/><path d="M256.3,5033.88q1.82-2.57,3.69-5.1c0-.09,0-.18,0-.28a10.47,10.47,0,0,0-3.92-8.18c-4.07,6.19-8.15,12.38-12.34,18.5a136.82,136.82,0,0,1-18.36,22.2q-1.05,1-2.14,2l0,0h-.08a36.91,36.91,0,0,1-11,7.24c-5.5,2.15-9.18.22-10.18-5.57a37.22,37.22,0,0,1,0-6.57,2.63,2.63,0,0,1,1.76-2.49,96.35,96.35,0,0,0,19.92-13c3.4-2.93,6.6-6.06,8.54-10.23,2.1-4.53.89-9.17-3-11.43-2.93-1.67-6-1.5-9.14-.57-4.87,1.47-8.59,4.77-11.91,8.34a57,57,0,0,0-7.1,9.95,41.53,41.53,0,0,0-6,20.46c.08.86.17,2.25.36,3.61,1.42,10.16,10.55,16.1,20.39,13.3,4.34-1.24,8-3.72,11.4-6.54,8.1-6.65,14.09-15.18,20.46-23.35C250.69,5042.24,253.4,5038,256.3,5033.88Zm-47.62,7.31c3.14-3.89,6.36-7.71,9.79-11.34a23.21,23.21,0,0,1,5.27-3.65c1-.59,2.53-1.21,3.27,0,.39.65-.09,2.32-.74,3a89.88,89.88,0,0,1-8.25,8.33c-3.69,3.13-7.68,5.89-11.55,8.81a5.66,5.66,0,0,1-.66.37l-.27-.22A40.78,40.78,0,0,1,208.68,5041.19Z"/><path id="Fill-4-7" data-name="Fill-4" d="M187.33,5187.1c-.22-1.92-.88-2.47-2.57-1.76a15.07,15.07,0,0,0-3.58,2c-3.69,3-7.46,5.86-10.88,9.12-5.29,5-9.63,10.89-13.88,16.84-2.2,3.08-1.9,5.66-.41,8.62s3.42,3.75,6.61,2.31c3.94-1.78,6.77-5,9.41-8.13a84.37,84.37,0,0,0,13.17-22.29c.89-2.18,1.43-4.5,2.13-6.75m-36.16,35.5c-2.76,6.14-5.49,11.86-7.91,17.71-3.17,7.64-6.11,15.38-9.14,23.08-.5,1.26-1,2.54-1.46,3.79-.71,1.77-2.24,2.11-3.46.66-1.73-2-2.76-4.54-1.93-7.07q2.7-8.25,6.07-16.27c2.93-7,6.14-13.88,9.22-20.81a.4.4,0,0,0,0-.28c-2.58,2.2-5,4.74-7.89,6.64-3.81,2.53-8,3.84-12.36,1-3.27-2.13-4.56-5.42-4.85-9.17-.4-5.16.7-10.11,2.13-15a.92.92,0,0,0,0-.74c-.27.39-.54.78-.81,1.17-5.28,7.85-10.76,15.55-17.57,22.18a37.84,37.84,0,0,1-5.73,4.42c-3.44,2.25-6.84,1.71-9.57-1.48a15.26,15.26,0,0,1-3.7-12.32c.94-7,3.72-13.5,6.9-19.76,2-3.93,4.22-7.76,6.46-11.56,1.36-2.31,2.94-4.49,4.43-6.72a2.13,2.13,0,0,1,2.88-.83,5.23,5.23,0,0,1,2.39,7.69c-2,3.09-3.95,6.26-5.85,9.42-3.84,6.37-7.4,12.89-9.69,20a36.61,36.61,0,0,0-1.43,7.1,3.1,3.1,0,0,0,1.14,2.58,3.07,3.07,0,0,0,2.76-.55c3.13-2.84,6.49-5.56,9.06-8.87,7.6-9.76,14.88-19.77,22.26-29.71,1.64-2.21,3-2.67,5.29-1.22a13.63,13.63,0,0,1,3,2.78c1.17,1.37,1,2.77.19,4.42-4.4,8.67-7.17,17.8-7.24,27.61,0,1.44.09,3.06,1.52,3.81s2.74-.4,3.87-1.23c5.25-3.88,9.27-8.95,13.31-14,1.56-1.94,3-4,4.59-5.89,8.13-9.36,11.87-20.94,16.08-32.24,1-2.7,2.25-2.22,3.64-.89a6,6,0,0,1,1.61,6.83c-1.68,4.43-3.58,8.77-5.4,13.14a4.54,4.54,0,0,0-.51,1.85c.56-.59,1.12-1.17,1.67-1.78a60.27,60.27,0,0,1,13.72-11.35c7.46-4.5,12.66.65,14,6.87a16.1,16.1,0,0,1-1,8.77c-3.82,10.87-9.17,20.86-17.75,28.73a30.05,30.05,0,0,1-8.45,5.3c-5.13,2.18-10.28,0-12.91-4.9-.44-.82-.81-1.68-1.41-2.94"/><path id="Fill-1-22" data-name="Fill-1" d="M3,5238.09c.6-1.42,1.1-2.88,1.82-4.23a6,6,0,0,1,1.85-2.08,6.89,6.89,0,0,1,2.24-.58,6.8,6.8,0,0,1-.35,2.07c-1.92,3.65-.88,6.08,3.13,7,4.18,1,8.38.53,12.51-.21,10.47-1.87,20.63-4.8,30-9.91a36.58,36.58,0,0,0,7.77-5.51,12.63,12.63,0,0,0,2.47-15.53,46.25,46.25,0,0,0-5.9-8.08c-6.9-8.05-14-15.91-20.87-24a24.58,24.58,0,0,1-5.14-10.65c-1.41-6.41,1-11.62,5.29-16.12,7.16-7.47,16-12.12,25.71-15.44a70.45,70.45,0,0,1,16.07-3.72,11.75,11.75,0,0,1,7.21,1.35,7.82,7.82,0,0,1,3.44,9.78c-1.94,5-4.38,9.75-6.66,14.59-.52,1.11-1.34.81-2,.07-1.73-2-2.7-4.28-1.54-7,1.06-2.48,2.16-5,3.07-7.5,1-2.87.43-3.81-2.58-3.55a50.29,50.29,0,0,0-10.07,1.71c-7.61,2.28-15,5.12-21.54,9.86a22.26,22.26,0,0,0-7.49,8.47c-2.45,5.26-1.66,10.38,1.56,14.9,2.94,4.12,6.4,7.88,9.74,11.7,4.64,5.32,9.53,10.43,14,15.85,3.52,4.24,6.11,9.05,6.68,14.72.48,4.71-.61,8.87-4,12.34a42.26,42.26,0,0,1-11.24,8.05,109.23,109.23,0,0,1-30,10.43c-5.65,1.07-11.35,1.78-17.11.89-4-.61-7-2.58-8.17-6.67Z"/><path d="M256.3,5193.88c1.53-2.17,3.07-4.33,4.68-6.44a3.05,3.05,0,0,1,.48-.5c1.23-2.14,3-5.15,4.27-7.41,0-.1.06-.2.11-.31.34-.81.8-1.58,1.14-2.39a4.71,4.71,0,0,0-3.11-6.66,1.65,1.65,0,0,0-2.37,1,45.3,45.3,0,0,1-3,5.52c-4.87,7.41-9.73,14.83-14.74,22.14a136.82,136.82,0,0,1-18.36,22.2q-1.05,1-2.14,2l0,0h-.08a36.91,36.91,0,0,1-11,7.24c-5.5,2.15-9.18.22-10.18-5.57a37.22,37.22,0,0,1,0-6.57,2.63,2.63,0,0,1,1.76-2.49,96.35,96.35,0,0,0,19.92-13c3.4-2.93,6.6-6.06,8.54-10.23,2.1-4.53.89-9.17-3-11.43-2.93-1.67-6-1.5-9.14-.57-4.87,1.47-8.59,4.77-11.91,8.34a57,57,0,0,0-7.1,9.95,41.53,41.53,0,0,0-6,20.46c.08.86.17,2.25.36,3.61,1.42,10.16,10.55,16.1,20.39,13.3,4.34-1.24,8-3.72,11.4-6.54,8.1-6.65,14.09-15.18,20.46-23.35C250.69,5202.24,253.4,5198,256.3,5193.88Zm-47.62,7.31c3.14-3.89,6.36-7.71,9.79-11.34a23.21,23.21,0,0,1,5.27-3.65c1-.59,2.53-1.21,3.27,0,.39.65-.09,2.32-.74,3a89.88,89.88,0,0,1-8.25,8.33c-3.69,3.13-7.68,5.89-11.55,8.81a5.66,5.66,0,0,1-.66.37l-.27-.22A40.78,40.78,0,0,1,208.68,5201.19Z"/><path id="Fill-4-8" data-name="Fill-4" d="M187.33,5347.1c-.22-1.92-.88-2.47-2.57-1.76a15.07,15.07,0,0,0-3.58,2c-3.69,3-7.46,5.86-10.88,9.12-5.29,5-9.63,10.89-13.88,16.84-2.2,3.08-1.9,5.66-.41,8.62s3.42,3.75,6.61,2.31c3.94-1.78,6.77-5,9.41-8.13a84.37,84.37,0,0,0,13.17-22.29c.89-2.18,1.43-4.5,2.13-6.75m-36.16,35.5c-2.76,6.14-5.49,11.86-7.91,17.71-3.17,7.64-6.11,15.38-9.14,23.08-.5,1.26-1,2.54-1.46,3.79-.71,1.77-2.24,2.11-3.46.66-1.73-2-2.76-4.54-1.93-7.07q2.7-8.25,6.07-16.27c2.93-7,6.14-13.88,9.22-20.81a.4.4,0,0,0,0-.28c-2.58,2.2-5,4.74-7.89,6.64-3.81,2.53-8,3.84-12.36,1-3.27-2.13-4.56-5.42-4.85-9.17-.4-5.16.7-10.11,2.13-15a.92.92,0,0,0,0-.74c-.27.39-.54.78-.81,1.17-5.28,7.85-10.76,15.55-17.57,22.18a37.84,37.84,0,0,1-5.73,4.42c-3.44,2.25-6.84,1.71-9.57-1.48a15.26,15.26,0,0,1-3.7-12.32c.94-7,3.72-13.5,6.9-19.76,2-3.93,4.22-7.76,6.46-11.56,1.36-2.31,2.94-4.49,4.43-6.72a2.13,2.13,0,0,1,2.88-.83,5.23,5.23,0,0,1,2.39,7.69c-2,3.09-3.95,6.26-5.85,9.42-3.84,6.37-7.4,12.89-9.69,20a36.61,36.61,0,0,0-1.43,7.1,3.1,3.1,0,0,0,1.14,2.58,3.07,3.07,0,0,0,2.76-.55c3.13-2.84,6.49-5.56,9.06-8.87,7.6-9.76,14.88-19.77,22.26-29.71,1.64-2.21,3-2.67,5.29-1.22a13.63,13.63,0,0,1,3,2.78c1.17,1.37,1,2.77.19,4.42-4.4,8.67-7.17,17.8-7.24,27.61,0,1.44.09,3.06,1.52,3.81s2.74-.4,3.87-1.23c5.25-3.88,9.27-8.95,13.31-14,1.56-1.94,3-4,4.59-5.89,8.13-9.36,11.87-20.94,16.08-32.24,1-2.7,2.25-2.22,3.64-.89a6,6,0,0,1,1.61,6.83c-1.68,4.43-3.58,8.77-5.4,13.14a4.54,4.54,0,0,0-.51,1.85c.56-.59,1.12-1.17,1.67-1.78a60.27,60.27,0,0,1,13.72-11.35c7.46-4.5,12.66.65,14,6.87a16.1,16.1,0,0,1-1,8.77c-3.82,10.87-9.17,20.86-17.75,28.73a30.05,30.05,0,0,1-8.45,5.3c-5.13,2.18-10.28,0-12.91-4.9-.44-.82-.81-1.68-1.41-2.94"/><path id="Fill-1-23" data-name="Fill-1" d="M3,5398.09c.6-1.42,1.1-2.88,1.82-4.23a6,6,0,0,1,1.85-2.08,6.89,6.89,0,0,1,2.24-.58,6.8,6.8,0,0,1-.35,2.07c-1.92,3.65-.88,6.08,3.13,7,4.18,1,8.38.53,12.51-.21,10.47-1.87,20.63-4.8,30-9.91a36.58,36.58,0,0,0,7.77-5.51,12.63,12.63,0,0,0,2.47-15.53,46.25,46.25,0,0,0-5.9-8.08c-6.9-8.05-14-15.91-20.87-24a24.58,24.58,0,0,1-5.14-10.65c-1.41-6.41,1-11.62,5.29-16.12,7.16-7.47,16-12.12,25.71-15.44a70.45,70.45,0,0,1,16.07-3.72,11.75,11.75,0,0,1,7.21,1.35,7.82,7.82,0,0,1,3.44,9.78c-1.94,5-4.38,9.75-6.66,14.59-.52,1.11-1.34.81-2,.07-1.73-2-2.7-4.28-1.54-7,1.06-2.48,2.16-5,3.07-7.5,1-2.87.43-3.81-2.58-3.55a50.29,50.29,0,0,0-10.07,1.71c-7.61,2.28-15,5.12-21.54,9.86a22.26,22.26,0,0,0-7.49,8.47c-2.45,5.26-1.66,10.38,1.56,14.9,2.94,4.12,6.4,7.88,9.74,11.7,4.64,5.32,9.53,10.43,14,15.85,3.52,4.24,6.11,9.05,6.68,14.72.48,4.71-.61,8.87-4,12.34a42.26,42.26,0,0,1-11.24,8.05,109.23,109.23,0,0,1-30,10.43c-5.65,1.07-11.35,1.78-17.11.89-4-.61-7-2.58-8.17-6.67Z"/><path d="M256.3,5353.88c1.53-2.17,3.07-4.33,4.68-6.44,1.08-1.42,3.12-1.61,5-.58,1.38.77,1.62,1.73.91,3.71-.21.57-.46,1.13-.71,1.67l-.62,1.3a10.36,10.36,0,0,0,9.3-1.67l.24-.52c2.07-4.76.13-8.35-4.92-9.27-1-.18-2-.22-2.95-.41-1.59-.3-1.94-1-1.33-2.45.34-.81.8-1.58,1.14-2.39a4.71,4.71,0,0,0-3.11-6.66,1.65,1.65,0,0,0-2.37,1,45.3,45.3,0,0,1-3,5.52c-4.87,7.41-9.73,14.83-14.74,22.14a136.83,136.83,0,0,1-18.36,22.2q-1.05,1-2.14,2l0,0h-.08a36.91,36.91,0,0,1-11,7.24c-5.5,2.15-9.18.22-10.18-5.57a37.22,37.22,0,0,1,0-6.57,2.63,2.63,0,0,1,1.76-2.49,96.35,96.35,0,0,0,19.92-13c3.4-2.93,6.6-6.06,8.54-10.23,2.1-4.53.89-9.17-3-11.43-2.93-1.67-6-1.5-9.14-.57-4.87,1.47-8.59,4.77-11.91,8.34a57,57,0,0,0-7.1,9.95,41.53,41.53,0,0,0-6,20.46c.08.86.17,2.25.36,3.61,1.42,10.16,10.55,16.1,20.39,13.3,4.34-1.24,8-3.72,11.4-6.54,8.1-6.65,14.09-15.18,20.46-23.35C250.69,5362.24,253.4,5358,256.3,5353.88Zm-47.62,7.31c3.14-3.89,6.36-7.71,9.79-11.34a23.21,23.21,0,0,1,5.27-3.65c1-.59,2.53-1.21,3.27,0,.39.65-.09,2.32-.74,3a89.88,89.88,0,0,1-8.25,8.33c-3.69,3.13-7.68,5.89-11.55,8.81a5.66,5.66,0,0,1-.66.37l-.27-.22A40.78,40.78,0,0,1,208.68,5361.19Z"/><path id="Fill-4-9" data-name="Fill-4" d="M187.33,5507.1c-.22-1.92-.88-2.47-2.57-1.76a15.07,15.07,0,0,0-3.58,2c-3.69,3-7.46,5.86-10.88,9.12-5.29,5-9.63,10.89-13.88,16.84-2.2,3.08-1.9,5.66-.41,8.62s3.42,3.75,6.61,2.31c3.94-1.78,6.77-5,9.41-8.13a84.37,84.37,0,0,0,13.17-22.29c.89-2.18,1.43-4.5,2.13-6.75m-36.16,35.5c-2.76,6.14-5.49,11.86-7.91,17.71-3.17,7.64-6.11,15.38-9.14,23.08-.5,1.26-1,2.54-1.46,3.79-.71,1.77-2.24,2.11-3.46.66-1.73-2-2.76-4.54-1.93-7.07q2.7-8.25,6.07-16.27c2.93-7,6.14-13.88,9.22-20.81a.4.4,0,0,0,0-.28c-2.58,2.2-5,4.74-7.89,6.64-3.81,2.53-8,3.84-12.36,1-3.27-2.13-4.56-5.42-4.85-9.17-.4-5.16.7-10.11,2.13-15a.92.92,0,0,0,0-.74c-.27.39-.54.78-.81,1.17-5.28,7.85-10.76,15.55-17.57,22.18a37.84,37.84,0,0,1-5.73,4.42c-3.44,2.25-6.84,1.71-9.57-1.48a15.26,15.26,0,0,1-3.7-12.32c.94-7,3.72-13.5,6.9-19.76,2-3.93,4.22-7.76,6.46-11.56,1.36-2.31,2.94-4.49,4.43-6.72a2.13,2.13,0,0,1,2.88-.83,5.23,5.23,0,0,1,2.39,7.69c-2,3.09-3.95,6.26-5.85,9.42-3.84,6.37-7.4,12.89-9.69,20a36.61,36.61,0,0,0-1.43,7.1,3.1,3.1,0,0,0,1.14,2.58,3.07,3.07,0,0,0,2.76-.55c3.13-2.84,6.49-5.56,9.06-8.87,7.6-9.76,14.88-19.77,22.26-29.71,1.64-2.21,3-2.67,5.29-1.22a13.63,13.63,0,0,1,3,2.78c1.17,1.37,1,2.77.19,4.42-4.4,8.67-7.17,17.8-7.24,27.61,0,1.44.09,3.06,1.52,3.81s2.74-.4,3.87-1.23c5.25-3.88,9.27-8.95,13.31-14,1.56-1.94,3-4,4.59-5.89,8.13-9.36,11.87-20.94,16.08-32.24,1-2.7,2.25-2.22,3.64-.89a6,6,0,0,1,1.61,6.83c-1.68,4.43-3.58,8.77-5.4,13.14a4.54,4.54,0,0,0-.51,1.85c.56-.59,1.12-1.17,1.67-1.78a60.27,60.27,0,0,1,13.72-11.35c7.46-4.5,12.66.65,14,6.87a16.1,16.1,0,0,1-1,8.77c-3.82,10.87-9.17,20.86-17.75,28.73a30.05,30.05,0,0,1-8.45,5.3c-5.13,2.18-10.28,0-12.91-4.9-.44-.82-.81-1.68-1.41-2.94"/><path id="Fill-1-24" data-name="Fill-1" d="M3,5558.09c.6-1.42,1.1-2.88,1.82-4.23a6,6,0,0,1,1.85-2.08,6.89,6.89,0,0,1,2.24-.58,6.8,6.8,0,0,1-.35,2.07c-1.92,3.65-.88,6.08,3.13,7,4.18,1,8.38.53,12.51-.21,10.47-1.87,20.63-4.8,30-9.91a36.58,36.58,0,0,0,7.77-5.51,12.63,12.63,0,0,0,2.47-15.53,46.25,46.25,0,0,0-5.9-8.08c-6.9-8.05-14-15.91-20.87-24a24.58,24.58,0,0,1-5.14-10.65c-1.41-6.41,1-11.62,5.29-16.12,7.16-7.47,16-12.12,25.71-15.44a70.45,70.45,0,0,1,16.07-3.72,11.75,11.75,0,0,1,7.21,1.35,7.82,7.82,0,0,1,3.44,9.78c-1.94,5-4.38,9.75-6.66,14.59-.52,1.11-1.34.81-2,.07-1.73-2-2.7-4.28-1.54-7,1.06-2.48,2.16-5,3.07-7.5,1-2.87.43-3.81-2.58-3.55a50.29,50.29,0,0,0-10.07,1.71c-7.61,2.28-15,5.12-21.54,9.86a22.26,22.26,0,0,0-7.49,8.47c-2.45,5.26-1.66,10.38,1.56,14.9,2.94,4.12,6.4,7.88,9.74,11.7,4.64,5.32,9.53,10.43,14,15.85,3.52,4.24,6.11,9.05,6.68,14.72.48,4.71-.61,8.87-4,12.34a42.26,42.26,0,0,1-11.24,8.05,109.23,109.23,0,0,1-30,10.43c-5.65,1.07-11.35,1.78-17.11.89-4-.61-7-2.58-8.17-6.67Z"/><path d="M256.3,5513.88c1.53-2.17,3.07-4.33,4.68-6.44,1.08-1.42,3.12-1.61,5-.58,1.38.77,1.62,1.73.91,3.71-.21.57-.46,1.13-.71,1.67-1.82,3.91-3.75,7.79-5.53,11.72a10.51,10.51,0,0,0,6.23,6.36q1.86-4.69,3.76-9.36c1.34-3.26,3.05-6.37,4.46-9.61,2.07-4.76.13-8.35-4.92-9.27-1-.18-2-.22-2.95-.41-1.59-.3-1.94-1-1.33-2.45.34-.81.8-1.58,1.14-2.39a4.71,4.71,0,0,0-3.11-6.66,1.65,1.65,0,0,0-2.37,1,45.3,45.3,0,0,1-3,5.52c-4.87,7.41-9.73,14.83-14.74,22.14a136.83,136.83,0,0,1-18.36,22.2q-1.05,1-2.14,2l0,0h-.08a36.91,36.91,0,0,1-11,7.24c-5.5,2.15-9.18.22-10.18-5.57a37.22,37.22,0,0,1,0-6.57,2.63,2.63,0,0,1,1.76-2.49,96.35,96.35,0,0,0,19.92-13c3.4-2.93,6.6-6.06,8.54-10.23,2.1-4.53.89-9.17-3-11.43-2.93-1.67-6-1.5-9.14-.57-4.87,1.47-8.59,4.77-11.91,8.34a57,57,0,0,0-7.1,9.95,41.53,41.53,0,0,0-6,20.46c.08.86.17,2.25.36,3.61,1.42,10.16,10.55,16.1,20.39,13.3,4.34-1.24,8-3.72,11.4-6.54,8.1-6.65,14.09-15.18,20.46-23.35C250.69,5522.24,253.4,5518,256.3,5513.88Zm-47.62,7.31c3.14-3.89,6.36-7.71,9.79-11.34a23.21,23.21,0,0,1,5.27-3.65c1-.59,2.53-1.21,3.27,0,.39.65-.09,2.32-.74,3a89.88,89.88,0,0,1-8.25,8.33c-3.69,3.13-7.68,5.89-11.55,8.81a5.66,5.66,0,0,1-.66.37l-.27-.22A40.78,40.78,0,0,1,208.68,5521.19Z"/><path id="Fill-4-10" data-name="Fill-4" d="M187.33,5667.1c-.22-1.92-.88-2.47-2.57-1.76a15.07,15.07,0,0,0-3.58,2c-3.69,3-7.46,5.86-10.88,9.12-5.29,5-9.63,10.89-13.88,16.84-2.2,3.08-1.9,5.66-.41,8.62s3.42,3.75,6.61,2.31c3.94-1.78,6.77-5,9.41-8.13a84.37,84.37,0,0,0,13.17-22.29c.89-2.18,1.43-4.5,2.13-6.75m-36.16,35.5c-2.76,6.14-5.49,11.86-7.91,17.71-3.17,7.64-6.11,15.38-9.14,23.08-.5,1.26-1,2.54-1.46,3.79-.71,1.77-2.24,2.11-3.46.66-1.73-2-2.76-4.54-1.93-7.07q2.7-8.25,6.07-16.27c2.93-7,6.14-13.88,9.22-20.81a.4.4,0,0,0,0-.28c-2.58,2.2-5,4.74-7.89,6.64-3.81,2.53-8,3.84-12.36,1-3.27-2.13-4.56-5.42-4.85-9.17-.4-5.16.7-10.11,2.13-15a.92.92,0,0,0,0-.74c-.27.39-.54.78-.81,1.17-5.28,7.85-10.76,15.55-17.57,22.18a37.84,37.84,0,0,1-5.73,4.42c-3.44,2.25-6.84,1.71-9.57-1.48a15.26,15.26,0,0,1-3.7-12.32c.94-7,3.72-13.5,6.9-19.76,2-3.93,4.22-7.76,6.46-11.56,1.36-2.31,2.94-4.49,4.43-6.72a2.13,2.13,0,0,1,2.88-.83,5.23,5.23,0,0,1,2.39,7.69c-2,3.09-3.95,6.26-5.85,9.42-3.84,6.37-7.4,12.89-9.69,20a36.61,36.61,0,0,0-1.43,7.1,3.1,3.1,0,0,0,1.14,2.58,3.07,3.07,0,0,0,2.76-.55c3.13-2.84,6.49-5.56,9.06-8.87,7.6-9.76,14.88-19.77,22.26-29.71,1.64-2.21,3-2.67,5.29-1.22a13.63,13.63,0,0,1,3,2.78c1.17,1.37,1,2.77.19,4.42-4.4,8.67-7.17,17.8-7.24,27.61,0,1.44.09,3.06,1.52,3.81s2.74-.4,3.87-1.23c5.25-3.88,9.27-8.95,13.31-14,1.56-1.94,3-4,4.59-5.89,8.13-9.36,11.87-20.94,16.08-32.24,1-2.7,2.25-2.22,3.64-.89a6,6,0,0,1,1.61,6.83c-1.68,4.43-3.58,8.77-5.4,13.14a4.54,4.54,0,0,0-.51,1.85c.56-.59,1.12-1.17,1.67-1.78a60.27,60.27,0,0,1,13.72-11.35c7.46-4.5,12.66.65,14,6.87a16.1,16.1,0,0,1-1,8.77c-3.82,10.87-9.17,20.86-17.75,28.73a30.05,30.05,0,0,1-8.45,5.3c-5.13,2.18-10.28,0-12.91-4.9-.44-.82-.81-1.68-1.41-2.94"/><path id="Fill-1-25" data-name="Fill-1" d="M3,5718.09c.6-1.42,1.1-2.88,1.82-4.23a6,6,0,0,1,1.85-2.08,6.89,6.89,0,0,1,2.24-.58,6.8,6.8,0,0,1-.35,2.07c-1.92,3.65-.88,6.08,3.13,7,4.18,1,8.38.53,12.51-.21,10.47-1.87,20.63-4.8,30-9.91a36.58,36.58,0,0,0,7.77-5.51,12.63,12.63,0,0,0,2.47-15.53,46.25,46.25,0,0,0-5.9-8.08c-6.9-8.05-14-15.91-20.87-24a24.58,24.58,0,0,1-5.14-10.65c-1.41-6.41,1-11.62,5.29-16.12,7.16-7.47,16-12.12,25.71-15.44a70.45,70.45,0,0,1,16.07-3.72,11.75,11.75,0,0,1,7.21,1.35,7.82,7.82,0,0,1,3.44,9.78c-1.94,5-4.38,9.75-6.66,14.59-.52,1.11-1.34.81-2,.07-1.73-2-2.7-4.28-1.54-7,1.06-2.48,2.16-5,3.07-7.5,1-2.87.43-3.81-2.58-3.55a50.29,50.29,0,0,0-10.07,1.71c-7.61,2.28-15,5.12-21.54,9.86a22.26,22.26,0,0,0-7.49,8.47c-2.45,5.26-1.66,10.38,1.56,14.9,2.94,4.12,6.4,7.88,9.74,11.7,4.64,5.32,9.53,10.43,14,15.85,3.52,4.24,6.11,9.05,6.68,14.72.48,4.71-.61,8.87-4,12.34a42.26,42.26,0,0,1-11.24,8.05,109.23,109.23,0,0,1-30,10.43c-5.65,1.07-11.35,1.78-17.11.89-4-.61-7-2.58-8.17-6.67Z"/><path d="M262.35,5701.81c2.68-7,5.4-13.93,8.24-20.84,1.34-3.26,3.05-6.37,4.46-9.61,2.07-4.76.13-8.35-4.92-9.27-1-.18-2-.22-2.95-.41-1.59-.3-1.94-1-1.33-2.45.34-.81.8-1.58,1.14-2.39a4.71,4.71,0,0,0-3.11-6.66,1.65,1.65,0,0,0-2.37,1,45.3,45.3,0,0,1-3,5.52c-4.87,7.41-9.73,14.83-14.74,22.14a136.82,136.82,0,0,1-18.36,22.2q-1.05,1-2.14,2l0,0h-.08a36.91,36.91,0,0,1-11,7.24c-5.5,2.15-9.18.22-10.18-5.57a37.22,37.22,0,0,1,0-6.57,2.63,2.63,0,0,1,1.76-2.49,96.35,96.35,0,0,0,19.92-13c3.4-2.93,6.6-6.06,8.54-10.23,2.1-4.53.89-9.17-3-11.43-2.93-1.67-6-1.5-9.14-.57-4.87,1.47-8.59,4.77-11.91,8.34a57,57,0,0,0-7.1,9.95,41.53,41.53,0,0,0-6,20.46c.08.86.17,2.25.36,3.61,1.42,10.16,10.55,16.1,20.39,13.3,4.34-1.24,8-3.72,11.4-6.54,8.1-6.65,14.09-15.18,20.46-23.35,3.08-4,5.79-8.22,8.7-12.32,1.53-2.17,3.07-4.33,4.68-6.44,1.08-1.42,3.12-1.61,5-.58,1.38.77,1.62,1.73.91,3.71-.21.57-.46,1.13-.71,1.67-2.4,5.15-5,10.23-7.16,15.47-2,4.79-4,9.65-3.59,15.06a10.38,10.38,0,0,0,7-1Zm-53.67-20.62c3.14-3.89,6.36-7.71,9.79-11.34a23.21,23.21,0,0,1,5.27-3.65c1-.59,2.53-1.21,3.27,0,.39.65-.09,2.32-.74,3a89.88,89.88,0,0,1-8.25,8.33c-3.69,3.13-7.68,5.89-11.55,8.81a5.65,5.65,0,0,1-.66.37l-.27-.22A40.79,40.79,0,0,1,208.68,5681.19Z"/><path id="Fill-4-11" data-name="Fill-4" d="M187.33,5827.1c-.22-1.92-.88-2.47-2.57-1.76a15.07,15.07,0,0,0-3.58,2c-3.69,3-7.46,5.86-10.88,9.12-5.29,5-9.63,10.89-13.88,16.84-2.2,3.08-1.9,5.66-.41,8.62s3.42,3.75,6.61,2.31c3.94-1.78,6.77-5,9.41-8.13a84.37,84.37,0,0,0,13.17-22.29c.89-2.18,1.43-4.5,2.13-6.75m-36.16,35.5c-2.76,6.14-5.49,11.86-7.91,17.71-3.17,7.64-6.11,15.38-9.14,23.08-.5,1.26-1,2.54-1.46,3.79-.71,1.77-2.24,2.11-3.46.66-1.73-2-2.76-4.54-1.93-7.07q2.7-8.25,6.07-16.27c2.93-7,6.14-13.88,9.22-20.81a.4.4,0,0,0,0-.28c-2.58,2.2-5,4.74-7.89,6.64-3.81,2.53-8,3.84-12.36,1-3.27-2.13-4.56-5.42-4.85-9.17-.4-5.16.7-10.11,2.13-15a.92.92,0,0,0,0-.74c-.27.39-.54.78-.81,1.17-5.28,7.85-10.76,15.55-17.57,22.18a37.84,37.84,0,0,1-5.73,4.42c-3.44,2.25-6.84,1.71-9.57-1.48a15.26,15.26,0,0,1-3.7-12.32c.94-7,3.72-13.5,6.9-19.76,2-3.93,4.22-7.76,6.46-11.56,1.36-2.31,2.94-4.49,4.43-6.72a2.13,2.13,0,0,1,2.88-.83,5.23,5.23,0,0,1,2.39,7.69c-2,3.09-3.95,6.26-5.85,9.42-3.84,6.37-7.4,12.89-9.69,20a36.61,36.61,0,0,0-1.43,7.1,3.1,3.1,0,0,0,1.14,2.58,3.07,3.07,0,0,0,2.76-.55c3.13-2.84,6.49-5.56,9.06-8.87,7.6-9.76,14.88-19.77,22.26-29.71,1.64-2.21,3-2.67,5.29-1.22a13.63,13.63,0,0,1,3,2.78c1.17,1.37,1,2.77.19,4.42-4.4,8.67-7.17,17.8-7.24,27.61,0,1.44.09,3.06,1.52,3.81s2.74-.4,3.87-1.23c5.25-3.88,9.27-8.95,13.31-14,1.56-1.94,3-4,4.59-5.89,8.13-9.36,11.87-20.94,16.08-32.24,1-2.7,2.25-2.22,3.64-.89a6,6,0,0,1,1.61,6.83c-1.68,4.43-3.58,8.77-5.4,13.14a4.54,4.54,0,0,0-.51,1.85c.56-.59,1.12-1.17,1.67-1.78a60.27,60.27,0,0,1,13.72-11.35c7.46-4.5,12.66.65,14,6.87a16.1,16.1,0,0,1-1,8.77c-3.82,10.87-9.17,20.86-17.75,28.73a30.05,30.05,0,0,1-8.45,5.3c-5.13,2.18-10.28,0-12.91-4.9-.44-.82-.81-1.68-1.41-2.94"/><path id="Fill-1-26" data-name="Fill-1" d="M3,5878.09c.6-1.42,1.1-2.88,1.82-4.23a6,6,0,0,1,1.85-2.08,6.89,6.89,0,0,1,2.24-.58,6.8,6.8,0,0,1-.35,2.07c-1.92,3.65-.88,6.08,3.13,7,4.18,1,8.38.53,12.51-.21,10.47-1.87,20.63-4.8,30-9.91a36.58,36.58,0,0,0,7.77-5.51,12.63,12.63,0,0,0,2.47-15.53,46.25,46.25,0,0,0-5.9-8.08c-6.9-8.05-14-15.91-20.87-24a24.58,24.58,0,0,1-5.14-10.65c-1.41-6.41,1-11.62,5.29-16.12,7.16-7.47,16-12.12,25.71-15.44a70.45,70.45,0,0,1,16.07-3.72,11.75,11.75,0,0,1,7.21,1.35,7.82,7.82,0,0,1,3.44,9.78c-1.94,5-4.38,9.75-6.66,14.59-.52,1.11-1.34.81-2,.07-1.73-2-2.7-4.28-1.54-7,1.06-2.48,2.16-5,3.07-7.5,1-2.87.43-3.81-2.58-3.55a50.29,50.29,0,0,0-10.07,1.71c-7.61,2.28-15,5.12-21.54,9.86a22.26,22.26,0,0,0-7.49,8.47c-2.45,5.26-1.66,10.38,1.56,14.9,2.94,4.12,6.4,7.88,9.74,11.7,4.64,5.32,9.53,10.43,14,15.85,3.52,4.24,6.11,9.05,6.68,14.72.48,4.71-.61,8.87-4,12.34a42.26,42.26,0,0,1-11.24,8.05,109.23,109.23,0,0,1-30,10.43c-5.65,1.07-11.35,1.78-17.11.89-4-.61-7-2.58-8.17-6.67Z"/><path d="M268.23,5864.39q-.85.65-1.75,1.25a11,11,0,0,1-3.16,1.31c-1,.28-1.65-.31-1.58-1.34a12.1,12.1,0,0,1,.53-3.58c2.71-7,5.45-14.08,8.32-21.07,1.34-3.26,3.05-6.37,4.46-9.61,2.07-4.76.13-8.35-4.92-9.27-1-.18-2-.22-2.95-.41-1.59-.3-1.94-1-1.33-2.45.34-.81.8-1.58,1.14-2.39a4.71,4.71,0,0,0-3.11-6.66,1.65,1.65,0,0,0-2.37,1,45.3,45.3,0,0,1-3,5.52c-4.87,7.41-9.73,14.83-14.74,22.14a136.82,136.82,0,0,1-18.36,22.2q-1.05,1-2.14,2l0,0h-.08a36.91,36.91,0,0,1-11,7.24c-5.5,2.15-9.18.22-10.18-5.57a37.22,37.22,0,0,1,0-6.57,2.63,2.63,0,0,1,1.76-2.49,96.35,96.35,0,0,0,19.92-13c3.4-2.93,6.6-6.06,8.54-10.23,2.1-4.53.89-9.17-3-11.43-2.93-1.67-6-1.5-9.14-.57-4.87,1.47-8.59,4.77-11.91,8.34a57,57,0,0,0-7.1,9.95,41.53,41.53,0,0,0-6,20.46c.08.86.17,2.25.36,3.61,1.42,10.16,10.55,16.1,20.39,13.3,4.34-1.24,8-3.72,11.4-6.54,8.1-6.65,14.09-15.18,20.46-23.35,3.08-4,5.79-8.22,8.7-12.32,1.53-2.17,3.07-4.33,4.68-6.44,1.08-1.42,3.12-1.61,5-.58,1.38.77,1.62,1.73.91,3.71-.21.57-.46,1.13-.71,1.67-2.4,5.15-5,10.23-7.16,15.47-2,4.82-4,9.71-3.58,15.16.4,4.93,3.49,9,7.67,9.9a8.91,8.91,0,0,0,7.91-2.1A10.46,10.46,0,0,0,268.23,5864.39Zm-59.55-23.2c3.14-3.89,6.36-7.71,9.79-11.34a23.21,23.21,0,0,1,5.27-3.65c1-.59,2.53-1.21,3.27,0,.39.65-.09,2.32-.74,3a89.88,89.88,0,0,1-8.25,8.33c-3.69,3.13-7.68,5.89-11.55,8.81a5.65,5.65,0,0,1-.66.37l-.27-.22A40.79,40.79,0,0,1,208.68,5841.19Z"/><path id="Fill-4-12" data-name="Fill-4" d="M187.33,5987.1c-.22-1.92-.88-2.47-2.57-1.76a15.07,15.07,0,0,0-3.58,2c-3.69,3-7.46,5.86-10.88,9.12-5.29,5-9.63,10.89-13.88,16.84-2.2,3.08-1.9,5.66-.41,8.62s3.42,3.75,6.61,2.31c3.94-1.78,6.77-5,9.41-8.13a84.37,84.37,0,0,0,13.17-22.29c.89-2.18,1.43-4.5,2.13-6.75m-36.16,35.5c-2.76,6.14-5.49,11.86-7.91,17.71-3.17,7.64-6.11,15.38-9.14,23.08-.5,1.26-1,2.54-1.46,3.79-.71,1.77-2.24,2.11-3.46.66-1.73-2-2.76-4.54-1.93-7.07q2.7-8.25,6.07-16.27c2.93-7,6.14-13.88,9.22-20.81a.4.4,0,0,0,0-.28c-2.58,2.2-5,4.74-7.89,6.64-3.81,2.53-8,3.84-12.36,1-3.27-2.13-4.56-5.42-4.85-9.17-.4-5.16.7-10.11,2.13-15a.92.92,0,0,0,0-.74c-.27.39-.54.78-.81,1.17-5.28,7.85-10.76,15.55-17.57,22.18a37.84,37.84,0,0,1-5.73,4.42c-3.44,2.25-6.84,1.71-9.57-1.48a15.26,15.26,0,0,1-3.7-12.32c.94-7,3.72-13.5,6.9-19.76,2-3.93,4.22-7.76,6.46-11.56,1.36-2.31,2.94-4.49,4.43-6.72a2.13,2.13,0,0,1,2.88-.83,5.23,5.23,0,0,1,2.39,7.69c-2,3.09-3.95,6.26-5.85,9.42-3.84,6.37-7.4,12.89-9.69,20a36.61,36.61,0,0,0-1.43,7.1,3.1,3.1,0,0,0,1.14,2.58,3.07,3.07,0,0,0,2.76-.55c3.13-2.84,6.49-5.56,9.06-8.87,7.6-9.76,14.88-19.77,22.26-29.71,1.64-2.21,3-2.67,5.29-1.22a13.63,13.63,0,0,1,3,2.78c1.17,1.37,1,2.77.19,4.42-4.4,8.67-7.17,17.8-7.24,27.61,0,1.44.09,3.06,1.52,3.81s2.74-.4,3.87-1.23c5.25-3.88,9.27-8.95,13.31-14,1.56-1.94,3-4,4.59-5.89,8.13-9.36,11.87-20.94,16.08-32.24,1-2.7,2.25-2.22,3.64-.89a6,6,0,0,1,1.61,6.83c-1.68,4.43-3.58,8.77-5.4,13.14a4.54,4.54,0,0,0-.51,1.85c.56-.59,1.12-1.17,1.67-1.78a60.27,60.27,0,0,1,13.72-11.35c7.46-4.5,12.66.65,14,6.87a16.1,16.1,0,0,1-1,8.77c-3.82,10.87-9.17,20.86-17.75,28.73a30.05,30.05,0,0,1-8.45,5.3c-5.13,2.18-10.28,0-12.91-4.9-.44-.82-.81-1.68-1.41-2.94"/><path id="Fill-1-27" data-name="Fill-1" d="M3,6038.09c.6-1.42,1.1-2.88,1.82-4.23a6,6,0,0,1,1.85-2.08,6.89,6.89,0,0,1,2.24-.58,6.8,6.8,0,0,1-.35,2.07c-1.92,3.65-.88,6.08,3.13,7,4.18,1,8.38.53,12.51-.21,10.47-1.87,20.63-4.8,30-9.91a36.58,36.58,0,0,0,7.77-5.51,12.63,12.63,0,0,0,2.47-15.53,46.25,46.25,0,0,0-5.9-8.08c-6.9-8.05-14-15.91-20.87-24a24.58,24.58,0,0,1-5.14-10.65c-1.41-6.41,1-11.62,5.29-16.12,7.16-7.47,16-12.12,25.71-15.44a70.45,70.45,0,0,1,16.07-3.72,11.75,11.75,0,0,1,7.21,1.35,7.82,7.82,0,0,1,3.44,9.78c-1.94,5-4.38,9.75-6.66,14.59-.52,1.11-1.34.81-2,.07-1.73-2-2.7-4.28-1.54-7,1.06-2.48,2.16-5,3.07-7.5,1-2.87.43-3.81-2.58-3.55a50.29,50.29,0,0,0-10.07,1.71c-7.61,2.28-15,5.12-21.54,9.86a22.26,22.26,0,0,0-7.49,8.47c-2.45,5.26-1.66,10.38,1.56,14.9,2.94,4.12,6.4,7.88,9.74,11.7,4.64,5.32,9.53,10.43,14,15.85,3.52,4.24,6.11,9.05,6.68,14.72.48,4.71-.61,8.87-4,12.34a42.26,42.26,0,0,1-11.24,8.05,109.23,109.23,0,0,1-30,10.43c-5.65,1.07-11.35,1.78-17.11.89-4-.61-7-2.58-8.17-6.67Z"/><path d="M279.13,6013l-.76.91c-3.6,4.27-7.18,8.58-11.89,11.71a11,11,0,0,1-3.16,1.31c-1,.28-1.65-.31-1.58-1.34a12.1,12.1,0,0,1,.53-3.58c2.71-7,5.45-14.08,8.32-21.07,1.34-3.26,3.05-6.37,4.46-9.61,2.07-4.76.13-8.35-4.92-9.27-1-.18-2-.22-2.95-.41-1.59-.3-1.94-1-1.33-2.45.34-.81.8-1.58,1.14-2.39a4.71,4.71,0,0,0-3.11-6.66,1.65,1.65,0,0,0-2.37,1,45.3,45.3,0,0,1-3,5.52c-4.87,7.41-9.73,14.83-14.74,22.14a136.82,136.82,0,0,1-18.36,22.2q-1.05,1-2.14,2l0,0h-.08a36.91,36.91,0,0,1-11,7.24c-5.5,2.15-9.18.22-10.18-5.57a37.22,37.22,0,0,1,0-6.57,2.63,2.63,0,0,1,1.76-2.49,96.35,96.35,0,0,0,19.92-13c3.4-2.93,6.6-6.06,8.54-10.23,2.1-4.53.89-9.17-3-11.43-2.93-1.67-6-1.5-9.14-.57-4.87,1.47-8.59,4.77-11.91,8.34a57,57,0,0,0-7.1,9.95,41.53,41.53,0,0,0-6,20.46c.08.86.17,2.25.36,3.61,1.42,10.16,10.55,16.1,20.39,13.3,4.34-1.24,8-3.72,11.4-6.54,8.1-6.65,14.09-15.18,20.46-23.35,3.08-4,5.79-8.22,8.7-12.32,1.53-2.17,3.07-4.33,4.68-6.44,1.08-1.42,3.12-1.61,5-.58,1.38.77,1.62,1.73.91,3.71-.21.57-.46,1.13-.71,1.67-2.4,5.15-5,10.23-7.16,15.47-2,4.82-4,9.71-3.58,15.16.4,4.93,3.49,9,7.67,9.9a9,9,0,0,0,8.27-2.4c4.54-4.16,9.25-8.26,13.12-13,.41-.5.81-1,1.2-1.53A10.44,10.44,0,0,0,279.13,6013Zm-70.45-11.84c3.14-3.89,6.36-7.71,9.79-11.34a23.21,23.21,0,0,1,5.27-3.65c1-.59,2.53-1.21,3.27,0,.39.65-.09,2.32-.74,3a89.88,89.88,0,0,1-8.25,8.33c-3.69,3.13-7.68,5.89-11.55,8.81a5.65,5.65,0,0,1-.66.37l-.27-.22A40.79,40.79,0,0,1,208.68,6001.19Z"/><path id="Fill-4-13" data-name="Fill-4" d="M187.33,6147.1c-.22-1.92-.88-2.47-2.57-1.76a15.07,15.07,0,0,0-3.58,2c-3.69,3-7.46,5.86-10.88,9.12-5.29,5-9.63,10.89-13.88,16.84-2.2,3.08-1.9,5.66-.41,8.62s3.42,3.75,6.61,2.31c3.94-1.78,6.77-5,9.41-8.13a84.37,84.37,0,0,0,13.17-22.29c.89-2.18,1.43-4.5,2.13-6.75m-36.16,35.5c-2.76,6.14-5.49,11.86-7.91,17.71-3.17,7.64-6.11,15.38-9.14,23.08-.5,1.26-1,2.54-1.46,3.79-.71,1.77-2.24,2.11-3.46.66-1.73-2-2.76-4.54-1.93-7.07q2.7-8.25,6.07-16.27c2.93-7,6.14-13.88,9.22-20.81a.4.4,0,0,0,0-.28c-2.58,2.2-5,4.74-7.89,6.64-3.81,2.53-8,3.84-12.36,1-3.27-2.13-4.56-5.42-4.85-9.17-.4-5.16.7-10.11,2.13-15a.92.92,0,0,0,0-.74c-.27.39-.54.78-.81,1.17-5.28,7.85-10.76,15.55-17.57,22.18a37.84,37.84,0,0,1-5.73,4.42c-3.44,2.25-6.84,1.71-9.57-1.48a15.26,15.26,0,0,1-3.7-12.32c.94-7,3.72-13.5,6.9-19.76,2-3.93,4.22-7.76,6.46-11.56,1.36-2.31,2.94-4.49,4.43-6.72a2.13,2.13,0,0,1,2.88-.83,5.23,5.23,0,0,1,2.39,7.69c-2,3.09-3.95,6.26-5.85,9.42-3.84,6.37-7.4,12.89-9.69,20a36.61,36.61,0,0,0-1.43,7.1,3.1,3.1,0,0,0,1.14,2.58,3.07,3.07,0,0,0,2.76-.55c3.13-2.84,6.49-5.56,9.06-8.87,7.6-9.76,14.88-19.77,22.26-29.71,1.64-2.21,3-2.67,5.29-1.22a13.63,13.63,0,0,1,3,2.78c1.17,1.37,1,2.77.19,4.42-4.4,8.67-7.17,17.8-7.24,27.61,0,1.44.09,3.06,1.52,3.81s2.74-.4,3.87-1.23c5.25-3.88,9.27-8.95,13.31-14,1.56-1.94,3-4,4.59-5.89,8.13-9.36,11.87-20.94,16.08-32.24,1-2.7,2.25-2.22,3.64-.89a6,6,0,0,1,1.61,6.83c-1.68,4.43-3.58,8.77-5.4,13.14a4.54,4.54,0,0,0-.51,1.85c.56-.59,1.12-1.17,1.67-1.78a60.27,60.27,0,0,1,13.72-11.35c7.46-4.5,12.66.65,14,6.87a16.1,16.1,0,0,1-1,8.77c-3.82,10.87-9.17,20.86-17.75,28.73a30.05,30.05,0,0,1-8.45,5.3c-5.13,2.18-10.28,0-12.91-4.9-.44-.82-.81-1.68-1.41-2.94"/><path id="Fill-1-28" data-name="Fill-1" d="M3,6198.09c.6-1.42,1.1-2.88,1.82-4.23a6,6,0,0,1,1.85-2.08,6.89,6.89,0,0,1,2.24-.58,6.8,6.8,0,0,1-.35,2.07c-1.92,3.65-.88,6.08,3.13,7,4.18,1,8.38.53,12.51-.21,10.47-1.87,20.63-4.8,30-9.91a36.58,36.58,0,0,0,7.77-5.51,12.63,12.63,0,0,0,2.47-15.53,46.25,46.25,0,0,0-5.9-8.08c-6.9-8.05-14-15.91-20.87-24a24.58,24.58,0,0,1-5.14-10.65c-1.41-6.41,1-11.62,5.29-16.12,7.16-7.47,16-12.12,25.71-15.44a70.45,70.45,0,0,1,16.07-3.72,11.75,11.75,0,0,1,7.21,1.35,7.82,7.82,0,0,1,3.44,9.78c-1.94,5-4.38,9.75-6.66,14.59-.52,1.11-1.34.81-2,.07-1.73-2-2.7-4.28-1.54-7,1.06-2.48,2.16-5,3.07-7.5,1-2.87.43-3.81-2.58-3.55a50.29,50.29,0,0,0-10.07,1.71c-7.61,2.28-15,5.12-21.54,9.86a22.26,22.26,0,0,0-7.49,8.47c-2.45,5.26-1.66,10.38,1.56,14.9,2.94,4.12,6.4,7.88,9.74,11.7,4.64,5.32,9.53,10.43,14,15.85,3.52,4.24,6.11,9.05,6.68,14.72.48,4.71-.61,8.87-4,12.34a42.26,42.26,0,0,1-11.24,8.05,109.23,109.23,0,0,1-30,10.43c-5.65,1.07-11.35,1.78-17.11.89-4-.61-7-2.58-8.17-6.67Z"/><path d="M291.46,6157.25c-4,5.82-8.53,11.28-13.09,16.69-3.6,4.27-7.18,8.58-11.89,11.71a11,11,0,0,1-3.16,1.31c-1,.28-1.65-.31-1.58-1.34a12.1,12.1,0,0,1,.53-3.58c2.71-7,5.45-14.08,8.32-21.07,1.34-3.26,3.05-6.37,4.46-9.61,2.07-4.76.13-8.35-4.92-9.27-1-.18-2-.22-2.95-.41-1.59-.3-1.94-1-1.33-2.45.34-.81.8-1.58,1.14-2.39a4.71,4.71,0,0,0-3.11-6.66,1.65,1.65,0,0,0-2.37,1,45.3,45.3,0,0,1-3,5.52c-4.87,7.41-9.73,14.83-14.74,22.14a136.82,136.82,0,0,1-18.36,22.2q-1.05,1-2.14,2l0,0h-.08a36.91,36.91,0,0,1-11,7.24c-5.5,2.15-9.18.22-10.18-5.57a37.22,37.22,0,0,1,0-6.57,2.63,2.63,0,0,1,1.76-2.49,96.35,96.35,0,0,0,19.92-13c3.4-2.93,6.6-6.06,8.54-10.23,2.1-4.53.89-9.17-3-11.43-2.93-1.67-6-1.5-9.14-.57-4.87,1.47-8.59,4.77-11.91,8.34a57,57,0,0,0-7.1,9.95,41.53,41.53,0,0,0-6,20.46c.08.86.17,2.25.36,3.61,1.42,10.16,10.55,16.1,20.39,13.3,4.34-1.24,8-3.72,11.4-6.54,8.1-6.65,14.09-15.18,20.46-23.35,3.08-4,5.79-8.22,8.7-12.32,1.53-2.17,3.07-4.33,4.68-6.44,1.08-1.42,3.12-1.61,5-.58,1.38.77,1.62,1.73.91,3.71-.21.57-.46,1.13-.71,1.67-2.4,5.15-5,10.23-7.16,15.47-2,4.82-4,9.71-3.58,15.16.4,4.93,3.49,9,7.67,9.9a9,9,0,0,0,8.27-2.4c4.54-4.16,9.25-8.26,13.12-13,4.1-5,7.57-10.6,11.18-16A10.54,10.54,0,0,0,291.46,6157.25Zm-82.78,3.94c3.14-3.89,6.36-7.71,9.79-11.34a23.21,23.21,0,0,1,5.27-3.65c1-.59,2.53-1.21,3.27,0,.39.65-.09,2.32-.74,3a89.88,89.88,0,0,1-8.25,8.33c-3.69,3.13-7.68,5.89-11.55,8.81a5.65,5.65,0,0,1-.66.37l-.27-.22A40.79,40.79,0,0,1,208.68,6161.19Z"/><path id="Fill-4-14" data-name="Fill-4" d="M187.33,6307.1c-.22-1.92-.88-2.47-2.57-1.76a15.07,15.07,0,0,0-3.58,2c-3.69,3-7.46,5.86-10.88,9.12-5.29,5-9.63,10.89-13.88,16.84-2.2,3.08-1.9,5.66-.41,8.62s3.42,3.75,6.61,2.31c3.94-1.78,6.77-5,9.41-8.13a84.37,84.37,0,0,0,13.17-22.29c.89-2.18,1.43-4.5,2.13-6.75m-36.16,35.5c-2.76,6.14-5.49,11.86-7.91,17.71-3.17,7.64-6.11,15.38-9.14,23.08-.5,1.26-1,2.54-1.46,3.79-.71,1.77-2.24,2.11-3.46.66-1.73-2-2.76-4.54-1.93-7.07q2.7-8.25,6.07-16.27c2.93-7,6.14-13.88,9.22-20.81a.4.4,0,0,0,0-.28c-2.58,2.2-5,4.74-7.89,6.64-3.81,2.53-8,3.84-12.36,1-3.27-2.13-4.56-5.42-4.85-9.17-.4-5.16.7-10.11,2.13-15a.92.92,0,0,0,0-.74c-.27.39-.54.78-.81,1.17-5.28,7.85-10.76,15.55-17.57,22.18a37.84,37.84,0,0,1-5.73,4.42c-3.44,2.25-6.84,1.71-9.57-1.48a15.26,15.26,0,0,1-3.7-12.32c.94-7,3.72-13.5,6.9-19.76,2-3.93,4.22-7.76,6.46-11.56,1.36-2.31,2.94-4.49,4.43-6.72a2.13,2.13,0,0,1,2.88-.83,5.23,5.23,0,0,1,2.39,7.69c-2,3.09-3.95,6.26-5.85,9.42-3.84,6.37-7.4,12.89-9.69,20a36.61,36.61,0,0,0-1.43,7.1,3.1,3.1,0,0,0,1.14,2.58,3.07,3.07,0,0,0,2.76-.55c3.13-2.84,6.49-5.56,9.06-8.87,7.6-9.76,14.88-19.77,22.26-29.71,1.64-2.21,3-2.67,5.29-1.22a13.63,13.63,0,0,1,3,2.78c1.17,1.37,1,2.77.19,4.42-4.4,8.67-7.17,17.8-7.24,27.61,0,1.44.09,3.06,1.52,3.81s2.74-.4,3.87-1.23c5.25-3.88,9.27-8.95,13.31-14,1.56-1.94,3-4,4.59-5.89,8.13-9.36,11.87-20.94,16.08-32.24,1-2.7,2.25-2.22,3.64-.89a6,6,0,0,1,1.61,6.83c-1.68,4.43-3.58,8.77-5.4,13.14a4.54,4.54,0,0,0-.51,1.85c.56-.59,1.12-1.17,1.67-1.78a60.27,60.27,0,0,1,13.72-11.35c7.46-4.5,12.66.65,14,6.87a16.1,16.1,0,0,1-1,8.77c-3.82,10.87-9.17,20.86-17.75,28.73a30.05,30.05,0,0,1-8.45,5.3c-5.13,2.18-10.28,0-12.91-4.9-.44-.82-.81-1.68-1.41-2.94"/><path id="Fill-1-29" data-name="Fill-1" d="M3,6358.09c.6-1.42,1.1-2.88,1.82-4.23a6,6,0,0,1,1.85-2.08,6.89,6.89,0,0,1,2.24-.58,6.8,6.8,0,0,1-.35,2.07c-1.92,3.65-.88,6.08,3.13,7,4.18,1,8.38.53,12.51-.21,10.47-1.87,20.63-4.8,30-9.91a36.58,36.58,0,0,0,7.77-5.51,12.63,12.63,0,0,0,2.47-15.53,46.25,46.25,0,0,0-5.9-8.08c-6.9-8.05-14-15.91-20.87-24a24.58,24.58,0,0,1-5.14-10.65c-1.41-6.41,1-11.62,5.29-16.12,7.16-7.47,16-12.12,25.71-15.44a70.45,70.45,0,0,1,16.07-3.72,11.75,11.75,0,0,1,7.21,1.35,7.82,7.82,0,0,1,3.44,9.78c-1.94,5-4.38,9.75-6.66,14.59-.52,1.11-1.34.81-2,.07-1.73-2-2.7-4.28-1.54-7,1.06-2.48,2.16-5,3.07-7.5,1-2.87.43-3.81-2.58-3.55a50.29,50.29,0,0,0-10.07,1.71c-7.61,2.28-15,5.12-21.54,9.86a22.26,22.26,0,0,0-7.49,8.47c-2.45,5.26-1.66,10.38,1.56,14.9,2.94,4.12,6.4,7.88,9.74,11.7,4.64,5.32,9.53,10.43,14,15.85,3.52,4.24,6.11,9.05,6.68,14.72.48,4.71-.61,8.87-4,12.34a42.26,42.26,0,0,1-11.24,8.05,109.23,109.23,0,0,1-30,10.43c-5.65,1.07-11.35,1.78-17.11.89-4-.61-7-2.58-8.17-6.67Z"/><path id="Fill-7" d="M205.54,6326.5l.27.22a5.65,5.65,0,0,0,.66-.37c3.87-2.91,7.87-5.67,11.55-8.81a89.88,89.88,0,0,0,8.25-8.33c.64-.71,1.13-2.38.74-3-.74-1.22-2.26-.6-3.27,0a23.21,23.21,0,0,0-5.27,3.65c-3.43,3.63-6.65,7.45-9.79,11.34a40.79,40.79,0,0,0-3.14,5.31M195,6339.19a41.53,41.53,0,0,1,6-20.46,57,57,0,0,1,7.1-9.95c3.31-3.58,7-6.87,11.91-8.34,3.1-.93,6.21-1.11,9.14.57,3.94,2.25,5.14,6.9,3,11.43-1.93,4.17-5.13,7.3-8.54,10.23a96.35,96.35,0,0,1-19.92,13,2.63,2.63,0,0,0-1.76,2.49,37.22,37.22,0,0,0,0,6.57c1,5.79,4.67,7.73,10.18,5.57,5.14-2,9.28-5.5,13.22-9.24a136.83,136.83,0,0,0,18.36-22.2c5-7.32,9.88-14.73,14.74-22.14a45.3,45.3,0,0,0,3-5.52,1.65,1.65,0,0,1,2.37-1,4.71,4.71,0,0,1,3.11,6.66c-.34.81-.8,1.58-1.14,2.39-.61,1.48-.25,2.15,1.33,2.45,1,.19,2,.23,2.95.41,5,.93,7,4.51,4.92,9.27-1.41,3.24-3.12,6.35-4.46,9.61-2.87,7-5.62,14-8.32,21.07a12.1,12.1,0,0,0-.53,3.58c-.06,1,.58,1.62,1.58,1.34a11,11,0,0,0,3.16-1.31c4.71-3.13,8.3-7.43,11.89-11.71a191.67,191.67,0,0,0,15.55-20.38c.37-.58,1.51-1.28,1.93-1.09a3.76,3.76,0,0,1,1.89,2,5.75,5.75,0,0,1-.94,5.06c-4,6-7.81,12.22-12.35,17.81-3.87,4.75-8.57,8.85-13.12,13a9,9,0,0,1-8.27,2.4c-4.19-.94-7.28-5-7.67-9.9-.44-5.45,1.58-10.34,3.58-15.16,2.18-5.24,4.76-10.32,7.16-15.47.26-.55.51-1.11.71-1.67.71-2,.47-2.94-.91-3.71-1.84-1-3.87-.85-5,.58-1.6,2.11-3.14,4.27-4.68,6.44-2.9,4.11-5.61,8.36-8.7,12.32-6.37,8.17-12.36,16.7-20.46,23.35-3.43,2.82-7.06,5.3-11.4,6.54-9.84,2.8-19-3.14-20.39-13.3-.19-1.37-.27-2.75-.36-3.61"/></svg>