<?xml version="1.0" encoding="utf-8"?>
<!-- Generator: Adobe Illustrator 21.1.0, SVG Export Plug-In . SVG Version: 6.00 Build 0)  -->
<svg version="1.1" id="message" xmlns="http://www.w3.org/2000/svg" xmlns:xlink="http://www.w3.org/1999/xlink" x="0px" y="0px"
	 viewBox="0 0 240 4140" style="enable-background:new 0 0 240 4140;" xml:space="preserve">
<title>message</title>
<path d="M9.8,277.2c-0.1-0.2-0.2-0.3-0.4-0.2H9c-0.2,0-0.3,0.1-0.4,0.2l-3.4,8.9H5.1l-2.2-8.6c-0.1-0.2-0.2-0.3-0.4-0.3h-2
	c-0.2,0-0.4,0.1-0.4,0.3c0,0.1,0,0.1,0,0.2l4.1,14.6c0.1,0.2,0.2,0.3,0.4,0.3h0.3c0.2,0,0.3-0.1,0.4-0.2l3.6-9.1l0,0l0.3-0.7h0.1
	l0.2,0.5c0.9-0.4,1.5-1.1,1.8-2L9.8,277.2z"/>
<path id="Path" d="M4.2,472.2c0.1,0.2,0.2,0.3,0.4,0.3h0.3c0.2,0,0.3-0.1,0.4-0.2l3.8-9.8h0.1l3.9,9.8c0.1,0.2,0.2,0.3,0.4,0.2h0.4
	c0.2,0,0.3-0.1,0.4-0.3l4.1-14.6c0.1-0.2,0-0.4-0.2-0.5c-0.1,0-0.1,0-0.2,0h-2c-0.2,0-0.3,0.1-0.4,0.3l-2.2,8.6h-0.1l-3.5-8.9
	c-0.1-0.2-0.2-0.3-0.4-0.2H9c-0.2,0-0.3,0.1-0.4,0.2l-3.4,8.9H5.1l-2.2-8.6c-0.1-0.2-0.2-0.3-0.4-0.3h-2c-0.2,0-0.4,0.1-0.4,0.3
	c0,0.1,0,0.1,0,0.2L4.2,472.2z"/>
<path id="Path-2" d="M4.2,562.2c0.1,0.2,0.2,0.3,0.4,0.3h0.3c0.2,0,0.3-0.1,0.4-0.2l3.8-9.8h0.1l3.9,9.8c0.1,0.2,0.2,0.3,0.4,0.2
	h0.4c0.2,0,0.3-0.1,0.4-0.3l4.1-14.6c0.1-0.2,0-0.4-0.2-0.5c-0.1,0-0.1,0-0.2,0h-2c-0.2,0-0.3,0.1-0.4,0.3l-2.2,8.6h-0.1l-3.5-8.9
	c-0.1-0.2-0.2-0.3-0.4-0.2H9c-0.2,0-0.3,0.1-0.4,0.2l-3.4,8.9H5.1l-2.2-8.6c-0.1-0.2-0.2-0.3-0.4-0.3h-2c-0.2,0-0.4,0.1-0.4,0.3
	c0,0.1,0,0.1,0,0.2L4.2,562.2z"/>
<path d="M54.1,547.1h-8.8c-0.2,0-0.4,0.2-0.4,0.4l0,0v2.2H45h2.7l0,0h6.4c0.2,0,0.4-0.2,0.4-0.4l0,0v-1.8
	C54.5,547.3,54.3,547.2,54.1,547.1C54.1,547.1,54.1,547.1,54.1,547.1z"/>
<path id="Path-3" d="M4.2,652.2c0.1,0.2,0.2,0.3,0.4,0.3h0.3c0.2,0,0.3-0.1,0.4-0.2l3.8-9.8h0.1l3.9,9.8c0.1,0.2,0.2,0.3,0.4,0.2
	h0.4c0.2,0,0.3-0.1,0.4-0.3l4.1-14.6c0.1-0.2,0-0.4-0.2-0.5c-0.1,0-0.1,0-0.2,0h-2c-0.2,0-0.3,0.1-0.4,0.3l-2.2,8.7h-0.1l-3.5-8.9
	c-0.1-0.2-0.2-0.3-0.4-0.2H9c-0.2,0-0.3,0.1-0.4,0.2l-3.4,8.9H5.1l-2.2-8.7c-0.1-0.2-0.2-0.3-0.4-0.3h-2c-0.2,0-0.4,0.1-0.4,0.3
	c0,0.1,0,0.1,0,0.2L4.2,652.2z"/>
<path id="Path-4" d="M4.2,742.2c0.1,0.2,0.2,0.3,0.4,0.3h0.3c0.2,0,0.3-0.1,0.4-0.2l3.8-9.8h0.1l3.9,9.8c0.1,0.2,0.2,0.3,0.4,0.2
	h0.4c0.2,0,0.3-0.1,0.4-0.3l4.1-14.6c0.1-0.2,0-0.4-0.2-0.5c-0.1,0-0.1,0-0.2,0h-2c-0.2,0-0.3,0.1-0.4,0.3l-2.2,8.7h-0.1l-3.5-8.9
	c-0.1-0.2-0.2-0.3-0.4-0.2H9c-0.2,0-0.3,0.1-0.4,0.2l-3.4,8.9H5.1l-2.2-8.7c-0.1-0.2-0.2-0.3-0.4-0.3h-2c-0.2,0-0.4,0.1-0.4,0.3
	c0,0.1,0,0.1,0,0.2L4.2,742.2z"/>
<path id="Path-5" d="M4.2,832.2c0.1,0.2,0.2,0.3,0.4,0.3h0.3c0.2,0,0.3-0.1,0.4-0.2l3.8-9.8h0.1l3.9,9.8c0.1,0.2,0.2,0.3,0.4,0.2
	h0.4c0.2,0,0.3-0.1,0.4-0.3l4.1-14.6c0.1-0.2,0-0.4-0.2-0.5c-0.1,0-0.1,0-0.2,0h-2c-0.2,0-0.3,0.1-0.4,0.3l-2.2,8.7h-0.1l-3.5-8.9
	c-0.1-0.2-0.2-0.3-0.4-0.2H9c-0.2,0-0.3,0.1-0.4,0.2l-3.4,8.9H5.1l-2.2-8.7c-0.1-0.2-0.2-0.3-0.4-0.3h-2c-0.2,0-0.4,0.1-0.4,0.3
	c0,0.1,0,0.1,0,0.2L4.2,832.2z"/>
<path d="M54.1,829.7h-6.4v-3.8h3c0.8-0.5,1.1-1.6,0.6-2.5c0-0.1-0.1-0.1-0.1-0.2h-3.5v-3.5H54c0.2,0,0.4-0.2,0.4-0.4v-1.8
	c0-0.2-0.2-0.4-0.4-0.4h-8.8c-0.2,0-0.4,0.2-0.4,0.4v14.3c0,0.2,0.2,0.4,0.4,0.4h8.8c0.2,0,0.4-0.2,0.4-0.4v-1.8
	C54.5,829.9,54.3,829.7,54.1,829.7z"/>
<path id="Path-6" d="M4.2,922.2c0.1,0.2,0.2,0.3,0.4,0.3h0.3c0.2,0,0.3-0.1,0.4-0.2l3.8-9.8h0.1l3.9,9.8c0.1,0.2,0.2,0.3,0.4,0.2
	h0.4c0.2,0,0.3-0.1,0.4-0.3l4.1-14.6c0.1-0.2,0-0.4-0.2-0.5c-0.1,0-0.1,0-0.2,0h-2c-0.2,0-0.3,0.1-0.4,0.3l-2.2,8.7h-0.1l-3.5-8.9
	c-0.1-0.2-0.2-0.3-0.4-0.2H9c-0.2,0-0.3,0.1-0.4,0.2l-3.4,8.9H5.1l-2.2-8.7c-0.1-0.2-0.2-0.3-0.4-0.3h-2c-0.2,0-0.4,0.1-0.4,0.3
	c0,0.1,0,0.1,0,0.2L4.2,922.2z"/>
<path id="Path-7" d="M44.8,921.9c0,0.2,0.2,0.4,0.4,0.4h8.8c0.2,0,0.4-0.2,0.4-0.4v-1.8c0-0.2-0.2-0.4-0.4-0.4h-6.4v-3.8H53
	c0.2,0,0.4-0.2,0.4-0.4v-1.8c0-0.2-0.2-0.4-0.4-0.4h-5.3v-3.5h6.4c0.2,0,0.4-0.2,0.4-0.4v-1.8c0-0.2-0.2-0.4-0.4-0.4h-8.8
	c-0.2,0-0.4,0.2-0.4,0.4V921.9z"/>
<path d="M111.5,914c-0.2,0-0.5,0-0.7,0.1l-1.4,7.7c-0.1,0.2,0.1,0.4,0.3,0.5c0,0,0.1,0,0.1,0h2c0.2,0,0.3-0.1,0.4-0.3l0.9-6
	C113.2,915,112.5,914.1,111.5,914z"/>
<path id="Path-8" d="M4.2,1012.2c0.1,0.2,0.2,0.3,0.4,0.3h0.3c0.2,0,0.3-0.1,0.4-0.2l3.8-9.8h0.1l3.9,9.8c0.1,0.2,0.2,0.3,0.4,0.2
	h0.4c0.2,0,0.3-0.1,0.4-0.3l4.1-14.6c0.1-0.2,0-0.4-0.2-0.5c-0.1,0-0.1,0-0.2,0h-2c-0.2,0-0.3,0.1-0.4,0.3l-2.2,8.7h-0.1l-3.5-8.9
	c-0.1-0.2-0.2-0.3-0.4-0.2H9c-0.2,0-0.3,0.1-0.4,0.2l-3.4,8.9H5.1l-2.2-8.7c-0.1-0.2-0.2-0.3-0.4-0.3h-2c-0.2,0-0.4,0.1-0.4,0.3
	c0,0.1,0,0.1,0,0.2L4.2,1012.2z"/>
<path id="Path-9" d="M44.8,1011.9c0,0.2,0.2,0.4,0.4,0.4h8.8c0.2,0,0.4-0.2,0.4-0.4v-1.8c0-0.2-0.2-0.4-0.4-0.4h-6.4v-3.8H53
	c0.2,0,0.4-0.2,0.4-0.4v-1.8c0-0.2-0.2-0.4-0.4-0.4h-5.3v-3.5h6.4c0.2,0,0.4-0.2,0.4-0.4v-1.8c0-0.2-0.2-0.4-0.4-0.4h-8.8
	c-0.2,0-0.4,0.2-0.4,0.4V1011.9z"/>
<path id="Path-10" d="M4.2,1102.2c0.1,0.2,0.2,0.3,0.4,0.3h0.3c0.2,0,0.3-0.1,0.4-0.2l3.8-9.8h0.1l3.9,9.8c0.1,0.2,0.2,0.3,0.4,0.2
	h0.4c0.2,0,0.3-0.1,0.4-0.3l4.1-14.6c0.1-0.2,0-0.4-0.2-0.5c-0.1,0-0.1,0-0.2,0h-2c-0.2,0-0.3,0.1-0.4,0.3l-2.2,8.7h-0.1l-3.5-8.9
	c-0.1-0.2-0.2-0.3-0.4-0.2H9c-0.2,0-0.3,0.1-0.4,0.2l-3.4,8.9H5.1l-2.2-8.7c-0.1-0.2-0.2-0.3-0.4-0.3h-2c-0.2,0-0.4,0.1-0.4,0.3
	c0,0.1,0,0.1,0,0.2L4.2,1102.2z"/>
<path d="M118,1097.2l-0.1,0.2h-0.1l-4.8-10.2c-0.1-0.1-0.2-0.2-0.4-0.2h-0.3c-0.2,0-0.4,0.1-0.4,0.3l-2.6,14.6
	c-0.1,0.2,0.1,0.4,0.3,0.5c0,0,0.1,0,0.1,0h2c0.2,0,0.3-0.1,0.4-0.3l1.3-8.2h0.1l3.8,8.5c0.1,0.1,0.2,0.2,0.4,0.2h0.3
	c0.2,0,0.3-0.1,0.4-0.2l1-2.2L118,1097.2z"/>
<path id="Path-11" d="M4.2,1192.2c0.1,0.2,0.2,0.3,0.4,0.3h0.3c0.2,0,0.3-0.1,0.4-0.2l3.8-9.8h0.1l3.9,9.8c0.1,0.2,0.2,0.3,0.4,0.2
	h0.4c0.2,0,0.3-0.1,0.4-0.3l4.1-14.6c0.1-0.2,0-0.4-0.2-0.5c-0.1,0-0.1,0-0.2,0h-2c-0.2,0-0.3,0.1-0.4,0.3l-2.2,8.7h-0.1l-3.5-8.9
	c-0.1-0.2-0.2-0.3-0.4-0.2H9c-0.2,0-0.3,0.1-0.4,0.2l-3.4,8.9H5.1l-2.2-8.7c-0.1-0.2-0.2-0.3-0.4-0.3h-2c-0.2,0-0.4,0.1-0.4,0.3
	c0,0.1,0,0.1,0,0.2L4.2,1192.2z"/>
<path d="M123.8,1177.2c0-0.2-0.2-0.3-0.4-0.3H123c-0.2,0-0.3,0.1-0.4,0.2l-4.8,10.2h-0.1l-4.8-10.2c-0.1-0.1-0.2-0.2-0.4-0.2h-0.3
	c-0.2,0-0.4,0.1-0.4,0.3l-2.6,14.6c-0.1,0.2,0.1,0.4,0.3,0.5c0,0,0.1,0,0.1,0h2c0.2,0,0.3-0.1,0.4-0.3l1.3-8.2h0.1l3.8,8.5
	c0.1,0.1,0.2,0.2,0.4,0.2h0.3c0.2,0,0.3-0.1,0.4-0.2l3.8-8.5h0.1l0.1,0.5c0.7-1.7,1.3-3.4,1.8-5.1L123.8,1177.2z"/>
<path id="Path-12" d="M4.2,1282.2c0.1,0.2,0.2,0.3,0.4,0.3h0.3c0.2,0,0.3-0.1,0.4-0.2l3.8-9.8h0.1l3.9,9.8c0.1,0.2,0.2,0.3,0.4,0.2
	h0.4c0.2,0,0.3-0.1,0.4-0.3l4.1-14.6c0.1-0.2,0-0.4-0.2-0.5c-0.1,0-0.1,0-0.2,0h-2c-0.2,0-0.3,0.1-0.4,0.3l-2.2,8.7h-0.1l-3.5-8.9
	c-0.1-0.2-0.2-0.3-0.4-0.2H9c-0.2,0-0.3,0.1-0.4,0.2l-3.4,8.9H5.1l-2.2-8.7c-0.1-0.2-0.2-0.3-0.4-0.3h-2c-0.2,0-0.4,0.1-0.4,0.3
	c0,0.1,0,0.1,0,0.2L4.2,1282.2z"/>
<path id="Path-13" d="M44.8,1281.9c0,0.2,0.2,0.4,0.4,0.4c0,0,0,0,0,0h8.8c0.2,0,0.4-0.2,0.4-0.4l0,0v-1.8c0-0.2-0.2-0.4-0.4-0.4
	c0,0,0,0,0,0h-6.4v-3.8H53c0.2,0,0.4-0.2,0.4-0.4l0,0v-1.8c0-0.2-0.2-0.4-0.4-0.4h-5.3v-3.6h6.4c0.2,0,0.4-0.2,0.4-0.4l0,0v-1.8
	c0-0.2-0.2-0.4-0.4-0.4c0,0,0,0,0,0h-8.8c-0.2,0-0.4,0.2-0.4,0.4l0,0V1281.9z"/>
<path d="M126.3,1281.8l-2.6-14.6c0-0.2-0.2-0.3-0.4-0.3H123c-0.2,0-0.3,0.1-0.4,0.2l-4.8,10.2h-0.1l-4.8-10.2
	c-0.1-0.1-0.2-0.2-0.4-0.2h-0.3c-0.2,0-0.4,0.1-0.4,0.3l-2.6,14.6c-0.1,0.2,0.1,0.4,0.3,0.5c0,0,0.1,0,0.1,0h2
	c0.2,0,0.3-0.1,0.4-0.3l1.3-8.2h0.1l3.8,8.5c0.1,0.1,0.2,0.2,0.4,0.2h0.3c0.2,0,0.3-0.1,0.4-0.2l3.8-8.5h0.1l1.3,8.2
	c0.1,0.2,0.2,0.3,0.4,0.3h2c0.2,0,0.4-0.1,0.4-0.3C126.3,1281.9,126.3,1281.9,126.3,1281.8z"/>
<path id="Path-14" d="M4.2,1372.2c0.1,0.2,0.2,0.3,0.4,0.3h0.3c0.2,0,0.3-0.1,0.4-0.2l3.8-9.8h0.1l3.9,9.8c0.1,0.2,0.2,0.3,0.4,0.2
	h0.4c0.2,0,0.3-0.1,0.4-0.3l4.1-14.6c0.1-0.2,0-0.4-0.2-0.5c-0.1,0-0.1,0-0.2,0h-2c-0.2,0-0.3,0.1-0.4,0.3l-2.2,8.7h-0.1l-3.5-8.9
	c-0.1-0.2-0.2-0.3-0.4-0.2H9c-0.2,0-0.3,0.1-0.4,0.2l-3.4,8.9H5.1l-2.2-8.7c-0.1-0.2-0.2-0.3-0.4-0.3h-2c-0.2,0-0.4,0.1-0.4,0.3
	c0,0.1,0,0.1,0,0.2L4.2,1372.2z"/>
<path id="Path-15" d="M44.8,1371.9c0,0.2,0.2,0.4,0.4,0.4c0,0,0,0,0,0h8.8c0.2,0,0.4-0.2,0.4-0.4l0,0v-1.8c0-0.2-0.2-0.4-0.4-0.4
	c0,0,0,0,0,0h-6.4v-3.8H53c0.2,0,0.4-0.2,0.4-0.4l0,0v-1.8c0-0.2-0.2-0.4-0.4-0.4h-5.3v-3.6h6.4c0.2,0,0.4-0.2,0.4-0.4l0,0v-1.8
	c0-0.2-0.2-0.4-0.4-0.4c0,0,0,0,0,0h-8.8c-0.2,0-0.4,0.2-0.4,0.4l0,0V1371.9z"/>
<path id="Path-16" d="M109.4,1371.8c-0.1,0.2,0.1,0.4,0.3,0.5c0,0,0.1,0,0.1,0h2c0.2,0,0.3-0.1,0.4-0.3l1.3-8.2h0.1l3.8,8.5
	c0.1,0.1,0.2,0.2,0.4,0.2h0.3c0.2,0,0.3-0.1,0.4-0.2l3.8-8.5h0.1l1.3,8.2c0.1,0.2,0.2,0.3,0.4,0.3h2c0.2,0,0.4-0.1,0.4-0.3
	c0-0.1,0-0.1,0-0.2l-2.6-14.6c0-0.2-0.2-0.3-0.4-0.3H123c-0.2,0-0.3,0.1-0.4,0.2l-4.8,10.2h-0.1l-4.8-10.2c-0.1-0.1-0.2-0.2-0.4-0.2
	h-0.3c-0.2,0-0.4,0.1-0.4,0.3L109.4,1371.8z"/>
<path id="Path-17" d="M4.2,1462.2c0.1,0.2,0.2,0.3,0.4,0.3h0.3c0.2,0,0.3-0.1,0.4-0.2l3.8-9.8h0.1l3.9,9.8c0.1,0.2,0.2,0.3,0.4,0.2
	h0.4c0.2,0,0.3-0.1,0.4-0.3l4.1-14.6c0.1-0.2,0-0.4-0.2-0.5c-0.1,0-0.1,0-0.2,0h-2c-0.2,0-0.3,0.1-0.4,0.3l-2.2,8.7h-0.1l-3.5-8.9
	c-0.1-0.2-0.2-0.3-0.4-0.2H9c-0.2,0-0.3,0.1-0.4,0.2l-3.4,8.9H5.1l-2.2-8.7c-0.1-0.2-0.2-0.3-0.4-0.3h-2c-0.2,0-0.4,0.1-0.4,0.3
	c0,0.1,0,0.1,0,0.2L4.2,1462.2z"/>
<path id="Path-18" d="M44.8,1461.9c0,0.2,0.2,0.4,0.4,0.4c0,0,0,0,0,0h8.8c0.2,0,0.4-0.2,0.4-0.4l0,0v-1.8c0-0.2-0.2-0.4-0.4-0.4
	c0,0,0,0,0,0h-6.4v-3.8H53c0.2,0,0.4-0.2,0.4-0.4l0,0v-1.8c0-0.2-0.2-0.4-0.4-0.4h-5.3v-3.6h6.4c0.2,0,0.4-0.2,0.4-0.4l0,0v-1.8
	c0-0.2-0.2-0.4-0.4-0.4c0,0,0,0,0,0h-8.8c-0.2,0-0.4,0.2-0.4,0.4l0,0V1461.9z"/>
<path id="Path-19" d="M109.4,1461.8c-0.1,0.2,0.1,0.4,0.3,0.5c0,0,0.1,0,0.1,0h2c0.2,0,0.3-0.1,0.4-0.3l1.3-8.2h0.1l3.8,8.5
	c0.1,0.1,0.2,0.2,0.4,0.2h0.3c0.2,0,0.3-0.1,0.4-0.2l3.8-8.5h0.1l1.3,8.2c0.1,0.2,0.2,0.3,0.4,0.3h2c0.2,0,0.4-0.1,0.4-0.3
	c0-0.1,0-0.1,0-0.2l-2.6-14.6c0-0.2-0.2-0.3-0.4-0.3H123c-0.2,0-0.3,0.1-0.4,0.2l-4.8,10.2h-0.1l-4.8-10.2c-0.1-0.1-0.2-0.2-0.4-0.2
	h-0.3c-0.2,0-0.4,0.1-0.4,0.3L109.4,1461.8z"/>
<path id="Path-20" d="M4.2,1552.2c0.1,0.2,0.2,0.3,0.4,0.3h0.3c0.2,0,0.3-0.1,0.4-0.2l3.8-9.8h0.1l3.9,9.8c0.1,0.2,0.2,0.3,0.4,0.2
	h0.4c0.2,0,0.3-0.1,0.4-0.3l4.1-14.6c0.1-0.2,0-0.4-0.2-0.5c-0.1,0-0.1,0-0.2,0h-2c-0.2,0-0.3,0.1-0.4,0.3l-2.2,8.7h-0.1l-3.5-8.9
	c-0.1-0.2-0.2-0.3-0.4-0.2H9c-0.2,0-0.3,0.1-0.4,0.2l-3.4,8.9H5.1l-2.2-8.7c-0.1-0.2-0.2-0.3-0.4-0.3h-2c-0.2,0-0.4,0.1-0.4,0.3
	c0,0.1,0,0.1,0,0.2L4.2,1552.2z"/>
<path id="Path-21" d="M44.8,1551.9c0,0.2,0.2,0.4,0.4,0.4c0,0,0,0,0,0h8.8c0.2,0,0.4-0.2,0.4-0.4l0,0v-1.8c0-0.2-0.2-0.4-0.4-0.4
	c0,0,0,0,0,0h-6.4v-3.8H53c0.2,0,0.4-0.2,0.4-0.4l0,0v-1.8c0-0.2-0.2-0.4-0.4-0.4h-5.3v-3.6h6.4c0.2,0,0.4-0.2,0.4-0.4l0,0v-1.8
	c0-0.2-0.2-0.4-0.4-0.4c0,0,0,0,0,0h-8.8c-0.2,0-0.4,0.2-0.4,0.4l0,0V1551.9z"/>
<path id="Path-22" d="M109.4,1551.8c-0.1,0.2,0.1,0.4,0.3,0.5c0,0,0.1,0,0.1,0h2c0.2,0,0.3-0.1,0.4-0.3l1.3-8.2h0.1l3.8,8.5
	c0.1,0.1,0.2,0.2,0.4,0.2h0.3c0.2,0,0.3-0.1,0.4-0.2l3.8-8.5h0.1l1.3,8.2c0.1,0.2,0.2,0.3,0.4,0.3h2c0.2,0,0.4-0.1,0.4-0.3
	c0-0.1,0-0.1,0-0.2l-2.6-14.6c0-0.2-0.2-0.3-0.4-0.3H123c-0.2,0-0.3,0.1-0.4,0.2l-4.8,10.2h-0.1l-4.8-10.2c-0.1-0.1-0.2-0.2-0.4-0.2
	h-0.3c-0.2,0-0.4,0.1-0.4,0.3L109.4,1551.8z"/>
<path id="Combined-Shape" d="M151.7,1552.3c-0.2,0-0.4-0.1-0.4-0.3c0-0.1,0-0.2,0-0.2l6.7-14.6c0.1-0.1,0.2-0.2,0.4-0.2h0.2
	c0.2,0,0.3,0.1,0.4,0.2l6.7,14.6c0.1,0.2,0,0.4-0.2,0.5c-0.1,0-0.1,0.1-0.2,0h-1.9c-0.3,0-0.5-0.2-0.6-0.4l-1.1-2.3h-6.5l-1.1,2.3
	c-0.1,0.3-0.3,0.4-0.6,0.4H151.7z M156.3,1547.1h4.4l-2.2-4.8h-0.1L156.3,1547.1z"/>
<path d="M193.2,1543.9c0.6,0,1.1-0.3,1.4-0.7v-5.5c0-0.3-0.2-0.5-0.5-0.5h-1.9c-0.3,0-0.5,0.2-0.5,0.5c0,0,0,0,0,0v5.3
	C192,1543.5,192.6,1543.9,193.2,1543.9z"/>
<path id="Path-23" d="M4.2,1642.2c0.1,0.2,0.2,0.3,0.4,0.3h0.3c0.2,0,0.3-0.1,0.4-0.2l3.8-9.8h0.1l3.9,9.8c0.1,0.2,0.2,0.3,0.4,0.2
	h0.4c0.2,0,0.3-0.1,0.4-0.3l4.1-14.6c0.1-0.2,0-0.4-0.2-0.5c-0.1,0-0.1,0-0.2,0h-2c-0.2,0-0.3,0.1-0.4,0.3l-2.2,8.7h-0.1l-3.5-8.9
	c-0.1-0.2-0.2-0.3-0.4-0.2H9c-0.2,0-0.3,0.1-0.4,0.2l-3.4,8.9H5.1l-2.2-8.7c-0.1-0.2-0.2-0.3-0.4-0.3h-2c-0.2,0-0.4,0.1-0.4,0.3
	c0,0.1,0,0.1,0,0.2L4.2,1642.2z"/>
<path id="Path-24" d="M44.8,1641.9c0,0.2,0.2,0.4,0.4,0.4c0,0,0,0,0,0h8.8c0.2,0,0.4-0.2,0.4-0.4l0,0v-1.8c0-0.2-0.2-0.4-0.4-0.4
	c0,0,0,0,0,0h-6.4v-3.8H53c0.2,0,0.4-0.2,0.4-0.4l0,0v-1.8c0-0.2-0.2-0.4-0.4-0.4h-5.3v-3.6h6.4c0.2,0,0.4-0.2,0.4-0.4l0,0v-1.8
	c0-0.2-0.2-0.4-0.4-0.4c0,0,0,0,0,0h-8.8c-0.2,0-0.4,0.2-0.4,0.4l0,0V1641.9z"/>
<path id="Path-25" d="M109.4,1641.8c-0.1,0.2,0.1,0.4,0.3,0.5c0,0,0.1,0,0.1,0h2c0.2,0,0.3-0.1,0.4-0.3l1.3-8.2h0.1l3.8,8.5
	c0.1,0.1,0.2,0.2,0.4,0.2h0.3c0.2,0,0.3-0.1,0.4-0.2l3.8-8.5h0.1l1.3,8.2c0.1,0.2,0.2,0.3,0.4,0.3h2c0.2,0,0.4-0.1,0.4-0.3
	c0-0.1,0-0.1,0-0.2l-2.6-14.6c0-0.2-0.2-0.3-0.4-0.3H123c-0.2,0-0.3,0.1-0.4,0.2l-4.8,10.2h-0.1l-4.8-10.2c-0.1-0.1-0.2-0.2-0.4-0.2
	h-0.3c-0.2,0-0.4,0.1-0.4,0.3L109.4,1641.8z"/>
<path id="Combined-Shape-2" d="M151.7,1642.3c-0.2,0-0.4-0.1-0.4-0.3c0-0.1,0-0.2,0-0.2l6.7-14.6c0.1-0.1,0.2-0.2,0.4-0.2h0.2
	c0.2,0,0.3,0.1,0.4,0.2l6.7,14.6c0.1,0.2,0,0.4-0.2,0.5c-0.1,0-0.1,0.1-0.2,0h-1.9c-0.3,0-0.5-0.2-0.6-0.4l-1.1-2.3h-6.5l-1.1,2.3
	c-0.1,0.3-0.3,0.4-0.6,0.4H151.7z M156.3,1637.1h4.4l-2.2-4.8h-0.1L156.3,1637.1z"/>
<path id="Path-26" d="M4.2,1732.2c0.1,0.2,0.2,0.3,0.4,0.3h0.3c0.2,0,0.3-0.1,0.4-0.2l3.8-9.8h0.1l3.9,9.8c0.1,0.2,0.2,0.3,0.4,0.2
	h0.4c0.2,0,0.3-0.1,0.4-0.3l4.1-14.6c0.1-0.2,0-0.4-0.2-0.5c-0.1,0-0.1,0-0.2,0h-2c-0.2,0-0.3,0.1-0.4,0.3l-2.2,8.7h-0.1l-3.5-8.9
	c-0.1-0.2-0.2-0.3-0.4-0.2H9c-0.2,0-0.3,0.1-0.4,0.2l-3.4,8.9H5.1l-2.2-8.7c-0.1-0.2-0.2-0.3-0.4-0.3h-2c-0.2,0-0.4,0.1-0.4,0.3
	c0,0.1,0,0.1,0,0.2L4.2,1732.2z"/>
<path id="Path-27" d="M44.8,1731.9c0,0.2,0.2,0.4,0.4,0.4c0,0,0,0,0,0h8.8c0.2,0,0.4-0.2,0.4-0.4l0,0v-1.8c0-0.2-0.2-0.4-0.4-0.4
	c0,0,0,0,0,0h-6.4v-3.8H53c0.2,0,0.4-0.2,0.4-0.4l0,0v-1.8c0-0.2-0.2-0.4-0.4-0.4h-5.3v-3.6h6.4c0.2,0,0.4-0.2,0.4-0.4l0,0v-1.8
	c0-0.2-0.2-0.4-0.4-0.4c0,0,0,0,0,0h-8.8c-0.2,0-0.4,0.2-0.4,0.4l0,0V1731.9z"/>
<path id="Path-28" d="M109.4,1731.8c-0.1,0.2,0.1,0.4,0.3,0.5c0,0,0.1,0,0.1,0h2c0.2,0,0.3-0.1,0.4-0.3l1.3-8.2h0.1l3.8,8.5
	c0.1,0.1,0.2,0.2,0.4,0.2h0.3c0.2,0,0.3-0.1,0.4-0.2l3.8-8.5h0.1l1.3,8.2c0.1,0.2,0.2,0.3,0.4,0.3h2c0.2,0,0.4-0.1,0.4-0.3
	c0-0.1,0-0.1,0-0.2l-2.6-14.6c0-0.2-0.2-0.3-0.4-0.3H123c-0.2,0-0.3,0.1-0.4,0.2l-4.8,10.2h-0.1l-4.8-10.2c-0.1-0.1-0.2-0.2-0.4-0.2
	h-0.3c-0.2,0-0.4,0.1-0.4,0.3L109.4,1731.8z"/>
<path id="Combined-Shape-3" d="M151.7,1732.3c-0.2,0-0.4-0.1-0.4-0.3c0-0.1,0-0.2,0-0.2l6.7-14.6c0.1-0.1,0.2-0.2,0.4-0.2h0.2
	c0.2,0,0.3,0.1,0.4,0.2l6.7,14.6c0.1,0.2,0,0.4-0.2,0.5c-0.1,0-0.1,0.1-0.2,0h-1.9c-0.3,0-0.5-0.2-0.6-0.4l-1.1-2.3h-6.5l-1.1,2.3
	c-0.1,0.3-0.3,0.4-0.6,0.4H151.7z M156.3,1727.1h4.4l-2.2-4.8h-0.1L156.3,1727.1z"/>
<path d="M202.6,1717.1h-2.2c-0.2,0-0.3,0.1-0.4,0.2l-5.5,6.2v-5.8c0-0.3-0.2-0.5-0.5-0.5h-1.9c-0.3,0-0.5,0.2-0.5,0.5c0,0,0,0,0,0
	v14.1c0,0.3,0.2,0.5,0.5,0.5c0,0,0,0,0,0h1.9c0.3,0,0.5-0.2,0.5-0.5v-6.6l2.7,3.4c0.9,0.4,1.9-0.1,2.3-1c0-0.1,0.1-0.2,0.1-0.4
	l-2.4-2.9l5.7-6.4c0.2-0.2,0.2-0.5,0-0.7C202.9,1717.2,202.8,1717.1,202.6,1717.1z"/>
<path id="Path-29" d="M4.2,1822.2c0.1,0.2,0.2,0.3,0.4,0.3h0.3c0.2,0,0.3-0.1,0.4-0.2l3.8-9.8h0.1l3.9,9.8c0.1,0.2,0.2,0.3,0.4,0.2
	h0.4c0.2,0,0.3-0.1,0.4-0.3l4.1-14.6c0.1-0.2,0-0.4-0.2-0.5c-0.1,0-0.1,0-0.2,0h-2c-0.2,0-0.3,0.1-0.4,0.3l-2.2,8.7h-0.1l-3.5-8.9
	c-0.1-0.2-0.2-0.3-0.4-0.2H9c-0.2,0-0.3,0.1-0.4,0.2l-3.4,8.9H5.1l-2.2-8.7c-0.1-0.2-0.2-0.3-0.4-0.3h-2c-0.2,0-0.4,0.1-0.4,0.3
	c0,0.1,0,0.1,0,0.2L4.2,1822.2z"/>
<path id="Path-30" d="M44.8,1821.9c0,0.2,0.2,0.4,0.4,0.4c0,0,0,0,0,0h8.8c0.2,0,0.4-0.2,0.4-0.4l0,0v-1.8c0-0.2-0.2-0.4-0.4-0.4
	c0,0,0,0,0,0h-6.4v-3.8H53c0.2,0,0.4-0.2,0.4-0.4l0,0v-1.8c0-0.2-0.2-0.4-0.4-0.4h-5.3v-3.6h6.4c0.2,0,0.4-0.2,0.4-0.4l0,0v-1.8
	c0-0.2-0.2-0.4-0.4-0.4c0,0,0,0,0,0h-8.8c-0.2,0-0.4,0.2-0.4,0.4l0,0V1821.9z"/>
<path id="Path-31" d="M109.4,1821.8c-0.1,0.2,0.1,0.4,0.3,0.5c0,0,0.1,0,0.1,0h2c0.2,0,0.3-0.1,0.4-0.3l1.3-8.2h0.1l3.8,8.5
	c0.1,0.1,0.2,0.2,0.4,0.2h0.3c0.2,0,0.3-0.1,0.4-0.2l3.8-8.5h0.1l1.3,8.2c0.1,0.2,0.2,0.3,0.4,0.3h2c0.2,0,0.4-0.1,0.4-0.3
	c0-0.1,0-0.1,0-0.2l-2.6-14.6c0-0.2-0.2-0.3-0.4-0.3H123c-0.2,0-0.3,0.1-0.4,0.2l-4.8,10.2h-0.1l-4.8-10.2c-0.1-0.1-0.2-0.2-0.4-0.2
	h-0.3c-0.2,0-0.4,0.1-0.4,0.3L109.4,1821.8z"/>
<path id="Combined-Shape-4" d="M151.7,1822.3c-0.2,0-0.4-0.1-0.4-0.3c0-0.1,0-0.2,0-0.2l6.7-14.6c0.1-0.1,0.2-0.2,0.4-0.2h0.2
	c0.2,0,0.3,0.1,0.4,0.2l6.7,14.6c0.1,0.2,0,0.4-0.2,0.5c-0.1,0-0.1,0.1-0.2,0h-1.9c-0.3,0-0.5-0.2-0.6-0.4l-1.1-2.3h-6.5l-1.1,2.3
	c-0.1,0.3-0.3,0.4-0.6,0.4H151.7z M156.3,1817.1h4.4l-2.2-4.8h-0.1L156.3,1817.1z"/>
<path id="Path-32" d="M191.7,1821.8c0,0.3,0.2,0.5,0.5,0.5c0,0,0,0,0,0h1.9c0.3,0,0.5-0.2,0.5-0.5v-6.6l5.7,7
	c0.1,0.1,0.2,0.2,0.4,0.2h2.3c0.3,0,0.5-0.2,0.5-0.5c0-0.1,0-0.2-0.1-0.3l-6.1-7.3l5.7-6.4c0.2-0.2,0.2-0.5,0-0.7
	c-0.1-0.1-0.2-0.1-0.3-0.1h-2.2c-0.2,0-0.3,0.1-0.4,0.2l-5.5,6.2v-5.8c0-0.3-0.2-0.5-0.5-0.5h-1.9c-0.3,0-0.5,0.2-0.5,0.5
	c0,0,0,0,0,0L191.7,1821.8z"/>
<path d="M234,1808.4c0,0.5,0.2,1,0.6,1.3h4.5c0.2,0,0.4-0.2,0.4-0.4l0,0v-1.8c0-0.2-0.2-0.4-0.4-0.4c0,0,0,0,0,0h-4.6
	C234.2,1807.5,234,1807.9,234,1808.4z"/>
<path id="Path-33" d="M4.2,1912.2c0.1,0.2,0.2,0.3,0.4,0.3h0.3c0.2,0,0.3-0.1,0.4-0.2l3.8-9.8h0.1l3.9,9.8c0.1,0.2,0.2,0.3,0.4,0.2
	h0.4c0.2,0,0.3-0.1,0.4-0.3l4.1-14.6c0.1-0.2,0-0.4-0.2-0.5c-0.1,0-0.1,0-0.2,0h-2c-0.2,0-0.3,0.1-0.4,0.3l-2.2,8.7h-0.1l-3.5-8.9
	c-0.1-0.2-0.2-0.3-0.4-0.2H9c-0.2,0-0.3,0.1-0.4,0.2l-3.4,8.9H5.1l-2.2-8.7c-0.1-0.2-0.2-0.3-0.4-0.3h-2c-0.2,0-0.4,0.1-0.4,0.3
	c0,0.1,0,0.1,0,0.2L4.2,1912.2z"/>
<path id="Path-34" d="M44.8,1911.9c0,0.2,0.2,0.4,0.4,0.4c0,0,0,0,0,0h8.8c0.2,0,0.4-0.2,0.4-0.4l0,0v-1.8c0-0.2-0.2-0.4-0.4-0.4
	c0,0,0,0,0,0h-6.4v-3.8H53c0.2,0,0.4-0.2,0.4-0.4l0,0v-1.8c0-0.2-0.2-0.4-0.4-0.4h-5.3v-3.6h6.4c0.2,0,0.4-0.2,0.4-0.4l0,0v-1.8
	c0-0.2-0.2-0.4-0.4-0.4c0,0,0,0,0,0h-8.8c-0.2,0-0.4,0.2-0.4,0.4l0,0V1911.9z"/>
<path id="Path-35" d="M109.4,1911.8c-0.1,0.2,0.1,0.4,0.3,0.5c0,0,0.1,0,0.1,0h2c0.2,0,0.3-0.1,0.4-0.3l1.3-8.2h0.1l3.8,8.5
	c0.1,0.1,0.2,0.2,0.4,0.2h0.3c0.2,0,0.3-0.1,0.4-0.2l3.8-8.5h0.1l1.3,8.2c0.1,0.2,0.2,0.3,0.4,0.3h2c0.2,0,0.4-0.1,0.4-0.3
	c0-0.1,0-0.1,0-0.2l-2.6-14.6c0-0.2-0.2-0.3-0.4-0.3H123c-0.2,0-0.3,0.1-0.4,0.2l-4.8,10.2h-0.1l-4.8-10.2c-0.1-0.1-0.2-0.2-0.4-0.2
	h-0.3c-0.2,0-0.4,0.1-0.4,0.3L109.4,1911.8z"/>
<path id="Combined-Shape-5" d="M151.7,1912.3c-0.2,0-0.4-0.1-0.4-0.3c0-0.1,0-0.2,0-0.2l6.7-14.6c0.1-0.1,0.2-0.2,0.4-0.2h0.2
	c0.2,0,0.3,0.1,0.4,0.2l6.7,14.6c0.1,0.2,0,0.4-0.2,0.5c-0.1,0-0.1,0.1-0.2,0h-1.9c-0.3,0-0.5-0.2-0.6-0.4l-1.1-2.3h-6.5l-1.1,2.3
	c-0.1,0.3-0.3,0.4-0.6,0.4H151.7z M156.3,1907.1h4.4l-2.2-4.8h-0.1L156.3,1907.1z"/>
<path id="Path-36" d="M191.7,1911.8c0,0.3,0.2,0.5,0.5,0.5c0,0,0,0,0,0h1.9c0.3,0,0.5-0.2,0.5-0.5v-6.6l5.7,7
	c0.1,0.1,0.2,0.2,0.4,0.2h2.3c0.3,0,0.5-0.2,0.5-0.5c0-0.1,0-0.2-0.1-0.3l-6.1-7.3l5.7-6.4c0.2-0.2,0.2-0.5,0-0.7
	c-0.1-0.1-0.2-0.1-0.3-0.1h-2.2c-0.2,0-0.3,0.1-0.4,0.2l-5.5,6.2v-5.8c0-0.3-0.2-0.5-0.5-0.5h-1.9c-0.3,0-0.5,0.2-0.5,0.5
	c0,0,0,0,0,0L191.7,1911.8z"/>
<path id="Path-37" d="M4.2,2002.2c0.1,0.2,0.2,0.3,0.4,0.3h0.3c0.2,0,0.3-0.1,0.4-0.2l3.8-9.8h0.1l3.9,9.8c0.1,0.2,0.2,0.3,0.4,0.2
	h0.4c0.2,0,0.3-0.1,0.4-0.3l4.1-14.6c0.1-0.2,0-0.4-0.2-0.5c-0.1,0-0.1,0-0.2,0h-2c-0.2,0-0.3,0.1-0.4,0.3l-2.2,8.7h-0.1l-3.5-8.9
	c-0.1-0.2-0.2-0.3-0.4-0.2H9c-0.2,0-0.3,0.1-0.4,0.2l-3.4,8.9H5.1l-2.2-8.7c-0.1-0.2-0.2-0.3-0.4-0.3h-2c-0.2,0-0.4,0.1-0.4,0.3
	c0,0.1,0,0.1,0,0.2L4.2,2002.2z"/>
<path id="Path-38" d="M44.8,2001.9c0,0.2,0.2,0.4,0.4,0.4c0,0,0,0,0,0h8.8c0.2,0,0.4-0.2,0.4-0.4l0,0v-1.8c0-0.2-0.2-0.4-0.4-0.4
	c0,0,0,0,0,0h-6.4v-3.8H53c0.2,0,0.4-0.2,0.4-0.4l0,0v-1.8c0-0.2-0.2-0.4-0.4-0.4h-5.3v-3.6h6.4c0.2,0,0.4-0.2,0.4-0.4l0,0v-1.8
	c0-0.2-0.2-0.4-0.4-0.4c0,0,0,0,0,0h-8.8c-0.2,0-0.4,0.2-0.4,0.4l0,0V2001.9z"/>
<path id="Path-39" d="M109.4,2001.8c-0.1,0.2,0.1,0.4,0.3,0.5c0,0,0.1,0,0.1,0h2c0.2,0,0.3-0.1,0.4-0.3l1.3-8.2h0.1l3.8,8.5
	c0.1,0.1,0.2,0.2,0.4,0.2h0.3c0.2,0,0.3-0.1,0.4-0.2l3.8-8.5h0.1l1.3,8.2c0.1,0.2,0.2,0.3,0.4,0.3h2c0.2,0,0.4-0.1,0.4-0.3
	c0-0.1,0-0.1,0-0.2l-2.6-14.6c0-0.2-0.2-0.3-0.4-0.3H123c-0.2,0-0.3,0.1-0.4,0.2l-4.8,10.2h-0.1l-4.8-10.2c-0.1-0.1-0.2-0.2-0.4-0.2
	h-0.3c-0.2,0-0.4,0.1-0.4,0.3L109.4,2001.8z"/>
<path id="Combined-Shape-6" d="M151.7,2002.3c-0.2,0-0.4-0.1-0.4-0.3c0-0.1,0-0.2,0-0.2l6.7-14.6c0.1-0.1,0.2-0.2,0.4-0.2h0.2
	c0.2,0,0.3,0.1,0.4,0.2l6.7,14.6c0.1,0.2,0,0.4-0.2,0.5c-0.1,0-0.1,0.1-0.2,0h-1.9c-0.3,0-0.5-0.2-0.6-0.4l-1.1-2.3h-6.5l-1.1,2.3
	c-0.1,0.3-0.3,0.4-0.6,0.4H151.7z M156.3,1997.1h4.4l-2.2-4.8h-0.1L156.3,1997.1z"/>
<path id="Path-40" d="M191.7,2001.8c0,0.3,0.2,0.5,0.5,0.5c0,0,0,0,0,0h1.9c0.3,0,0.5-0.2,0.5-0.5v-6.6l5.7,7
	c0.1,0.1,0.2,0.2,0.4,0.2h2.3c0.3,0,0.5-0.2,0.5-0.5c0-0.1,0-0.2-0.1-0.3l-6.1-7.3l5.7-6.4c0.2-0.2,0.2-0.5,0-0.7
	c-0.1-0.1-0.2-0.1-0.3-0.1h-2.2c-0.2,0-0.3,0.1-0.4,0.2l-5.5,6.2v-5.8c0-0.3-0.2-0.5-0.5-0.5h-1.9c-0.3,0-0.5,0.2-0.5,0.5
	c0,0,0,0,0,0L191.7,2001.8z"/>
<path id="Path-41" d="M4.2,2092.2c0.1,0.2,0.2,0.3,0.4,0.3h0.3c0.2,0,0.3-0.1,0.4-0.2l3.8-9.8h0.1l3.9,9.8c0.1,0.2,0.2,0.3,0.4,0.2
	h0.4c0.2,0,0.3-0.1,0.4-0.3l4.1-14.6c0.1-0.2,0-0.4-0.2-0.5c-0.1,0-0.1,0-0.2,0h-2c-0.2,0-0.3,0.1-0.4,0.3l-2.2,8.6h-0.1l-3.5-8.9
	c-0.1-0.2-0.2-0.3-0.4-0.2H9c-0.2,0-0.3,0.1-0.4,0.2l-3.4,8.9H5.1l-2.2-8.6c-0.1-0.2-0.2-0.3-0.4-0.3h-2c-0.2,0-0.4,0.1-0.4,0.3
	c0,0.1,0,0.1,0,0.2L4.2,2092.2z"/>
<path id="Path-42" d="M44.8,2091.9c0,0.2,0.2,0.4,0.4,0.4c0,0,0,0,0,0h8.8c0.2,0,0.4-0.2,0.4-0.4l0,0v-1.8c0-0.2-0.2-0.4-0.4-0.4
	c0,0,0,0,0,0h-6.4v-3.8H53c0.2,0,0.4-0.2,0.4-0.4l0,0v-1.8c0-0.2-0.2-0.4-0.4-0.4h-5.3v-3.6h6.4c0.2,0,0.4-0.2,0.4-0.4l0,0v-1.8
	c0-0.2-0.2-0.4-0.4-0.4c0,0,0,0,0,0h-8.8c-0.2,0-0.4,0.2-0.4,0.4l0,0V2091.9z"/>
<path id="Path-43" d="M109.4,2091.8c-0.1,0.2,0.1,0.4,0.3,0.5c0,0,0.1,0,0.1,0h2c0.2,0,0.3-0.1,0.4-0.3l1.3-8.2h0.1l3.8,8.5
	c0.1,0.1,0.2,0.2,0.4,0.2h0.3c0.2,0,0.3-0.1,0.4-0.2l3.8-8.5h0.1l1.3,8.2c0.1,0.2,0.2,0.3,0.4,0.3h2c0.2,0,0.4-0.1,0.4-0.3
	c0-0.1,0-0.1,0-0.2l-2.6-14.6c0-0.2-0.2-0.3-0.4-0.3H123c-0.2,0-0.3,0.1-0.4,0.2l-4.8,10.2h-0.1l-4.8-10.2c-0.1-0.1-0.2-0.2-0.4-0.2
	h-0.3c-0.2,0-0.4,0.1-0.4,0.3L109.4,2091.8z"/>
<path id="Combined-Shape-7" d="M151.7,2092.3c-0.2,0-0.4-0.1-0.4-0.3c0-0.1,0-0.2,0-0.2l6.7-14.6c0.1-0.1,0.2-0.2,0.4-0.2h0.2
	c0.2,0,0.3,0.1,0.4,0.2l6.7,14.6c0.1,0.2,0,0.4-0.2,0.5c-0.1,0-0.1,0.1-0.2,0h-1.9c-0.3,0-0.5-0.2-0.6-0.4l-1.1-2.3h-6.5l-1.1,2.3
	c-0.1,0.3-0.3,0.4-0.6,0.4H151.7z M156.3,2087.1h4.4l-2.2-4.8h-0.1L156.3,2087.1z"/>
<path id="Path-44" d="M191.7,2091.8c0,0.3,0.2,0.5,0.5,0.5c0,0,0,0,0,0h1.9c0.3,0,0.5-0.2,0.5-0.5v-6.6l5.7,7
	c0.1,0.1,0.2,0.2,0.4,0.1h2.3c0.3,0,0.5-0.2,0.5-0.5c0-0.1,0-0.2-0.1-0.3l-6.1-7.3l5.7-6.4c0.2-0.2,0.2-0.5,0-0.7
	c-0.1-0.1-0.2-0.1-0.3-0.1h-2.2c-0.2,0-0.3,0.1-0.4,0.2l-5.5,6.2v-5.8c0-0.3-0.2-0.5-0.5-0.5h-1.9c-0.3,0-0.5,0.2-0.5,0.5
	c0,0,0,0,0,0L191.7,2091.8z"/>
<path id="Path-45" d="M4.2,2182.2c0.1,0.2,0.2,0.3,0.4,0.3h0.3c0.2,0,0.3-0.1,0.4-0.2l3.8-9.8h0.1l3.9,9.8c0.1,0.2,0.2,0.3,0.4,0.2
	h0.4c0.2,0,0.3-0.1,0.4-0.3l4.1-14.6c0.1-0.2,0-0.4-0.2-0.5c-0.1,0-0.1,0-0.2,0h-2c-0.2,0-0.3,0.1-0.4,0.3l-2.2,8.6h-0.1l-3.5-8.9
	c-0.1-0.2-0.2-0.3-0.4-0.2H9c-0.2,0-0.3,0.1-0.4,0.2l-3.4,8.9H5.1l-2.2-8.6c-0.1-0.2-0.2-0.3-0.4-0.3h-2c-0.2,0-0.4,0.1-0.4,0.3
	c0,0.1,0,0.1,0,0.2L4.2,2182.2z"/>
<path id="Path-46" d="M44.8,2181.9c0,0.2,0.2,0.4,0.4,0.4h8.8c0.2,0,0.4-0.2,0.4-0.4v-1.8c0-0.2-0.2-0.4-0.4-0.4h-6.4v-3.8H53
	c0.2,0,0.4-0.2,0.4-0.4v-1.8c0-0.2-0.2-0.4-0.4-0.4h-5.3v-3.6h6.4c0.2,0,0.4-0.2,0.4-0.4v-1.8c0-0.2-0.2-0.4-0.4-0.4h-8.8
	c-0.2,0-0.4,0.2-0.4,0.4V2181.9z"/>
<path id="Path-47" d="M109.4,2181.8c-0.1,0.2,0.1,0.4,0.3,0.5c0,0,0.1,0,0.1,0h2c0.2,0,0.3-0.1,0.4-0.3l1.3-8.2h0.1l3.8,8.5
	c0.1,0.1,0.2,0.2,0.4,0.2h0.3c0.2,0,0.3-0.1,0.4-0.2l3.8-8.5h0.1l1.3,8.2c0.1,0.2,0.2,0.3,0.4,0.3h2c0.2,0,0.4-0.1,0.4-0.3
	c0-0.1,0-0.1,0-0.2l-2.6-14.6c0-0.2-0.2-0.3-0.4-0.3H123c-0.2,0-0.3,0.1-0.4,0.2l-4.8,10.2h-0.1l-4.8-10.2c-0.1-0.1-0.2-0.2-0.4-0.2
	h-0.3c-0.2,0-0.4,0.1-0.4,0.3L109.4,2181.8z"/>
<path id="Combined-Shape-8" d="M151.7,2182.3c-0.2,0-0.4-0.1-0.4-0.3c0-0.1,0-0.2,0-0.2l6.7-14.6c0.1-0.1,0.2-0.2,0.4-0.2h0.2
	c0.2,0,0.3,0.1,0.4,0.2l6.7,14.6c0.1,0.2,0,0.4-0.2,0.5c-0.1,0-0.1,0.1-0.2,0h-1.9c-0.3,0-0.5-0.2-0.6-0.4l-1.1-2.3h-6.5l-1.1,2.3
	c-0.1,0.3-0.3,0.4-0.6,0.4H151.7z M156.3,2177.1h4.4l-2.2-4.8h-0.1L156.3,2177.1z"/>
<path id="Path-48" d="M191.7,2181.8c0,0.3,0.2,0.5,0.5,0.5c0,0,0,0,0,0h1.9c0.3,0,0.5-0.2,0.5-0.5v-6.6l5.7,7
	c0.1,0.1,0.2,0.2,0.4,0.1h2.3c0.3,0,0.5-0.2,0.5-0.5c0-0.1,0-0.2-0.1-0.3l-6.1-7.3l5.7-6.4c0.2-0.2,0.2-0.5,0-0.7
	c-0.1-0.1-0.2-0.1-0.3-0.1h-2.2c-0.2,0-0.3,0.1-0.4,0.2l-5.5,6.1v-5.9c0-0.3-0.2-0.5-0.5-0.5h-1.9c-0.3,0-0.5,0.2-0.5,0.5
	c0,0,0,0,0,0L191.7,2181.8z"/>
<path id="Path-49" d="M229.9,2181.9c0,0.2,0.2,0.4,0.4,0.4h8.8c0.2,0,0.4-0.2,0.4-0.4v-1.8c0-0.2-0.2-0.4-0.4-0.4h-6.4v-3.8h5.3
	c0.2,0,0.4-0.2,0.4-0.4v-1.8c0-0.2-0.2-0.4-0.4-0.4h-5.4v-3.6h6.4c0.2,0,0.4-0.2,0.4-0.4v-1.8c0-0.2-0.2-0.4-0.4-0.4h-8.8
	c-0.2,0-0.4,0.2-0.4,0.4L229.9,2181.9z"/>
<path id="path-89" d="M12.9,2174.9L12.9,2174.9L12.9,2174.9L12.9,2174.9z"/>
<path id="Path-50" d="M4.2,2272.2c0.1,0.2,0.2,0.3,0.4,0.3h0.3c0.2,0,0.3-0.1,0.4-0.2l3.8-9.8h0.1l3.9,9.8c0.1,0.2,0.2,0.3,0.4,0.2
	h0.4c0.2,0,0.3-0.1,0.4-0.3l4.1-14.6c0.1-0.2,0-0.4-0.2-0.5c-0.1,0-0.1,0-0.2,0h-2c-0.2,0-0.3,0.1-0.4,0.3l-2.2,8.6h-0.1l-3.5-8.9
	c-0.1-0.2-0.2-0.3-0.4-0.2H9c-0.2,0-0.3,0.1-0.4,0.2l-3.4,8.9H5.1l-2.2-8.6c-0.1-0.2-0.2-0.3-0.4-0.3h-2c-0.2,0-0.4,0.1-0.4,0.3
	c0,0.1,0,0.1,0,0.2L4.2,2272.2z"/>
<path id="Path-51" d="M44.8,2271.9c0,0.2,0.2,0.4,0.4,0.4h8.8c0.2,0,0.4-0.2,0.4-0.4v-1.8c0-0.2-0.2-0.4-0.4-0.4h-6.4v-3.8H53
	c0.2,0,0.4-0.2,0.4-0.4v-1.8c0-0.2-0.2-0.4-0.4-0.4h-5.3v-3.6h6.4c0.2,0,0.4-0.2,0.4-0.4v-1.8c0-0.2-0.2-0.4-0.4-0.4h-8.8
	c-0.2,0-0.4,0.2-0.4,0.4V2271.9z"/>
<path id="Path-52" d="M109.4,2271.8c-0.1,0.2,0.1,0.4,0.3,0.5c0,0,0.1,0,0.1,0h2c0.2,0,0.3-0.1,0.4-0.3l1.3-8.2h0.1l3.8,8.5
	c0.1,0.1,0.2,0.2,0.4,0.2h0.3c0.2,0,0.3-0.1,0.4-0.2l3.8-8.5h0.1l1.3,8.2c0.1,0.2,0.2,0.3,0.4,0.3h2c0.2,0,0.4-0.1,0.4-0.3
	c0-0.1,0-0.1,0-0.2l-2.6-14.6c0-0.2-0.2-0.3-0.4-0.3H123c-0.2,0-0.3,0.1-0.4,0.2l-4.8,10.2h-0.1l-4.8-10.2c-0.1-0.1-0.2-0.2-0.4-0.2
	h-0.3c-0.2,0-0.4,0.1-0.4,0.3L109.4,2271.8z"/>
<path id="Combined-Shape-9" d="M151.7,2272.3c-0.2,0-0.4-0.1-0.4-0.3c0-0.1,0-0.2,0-0.2l6.7-14.6c0.1-0.1,0.2-0.2,0.4-0.2h0.2
	c0.2,0,0.3,0.1,0.4,0.2l6.7,14.6c0.1,0.2,0,0.4-0.2,0.5c-0.1,0-0.1,0.1-0.2,0h-1.9c-0.3,0-0.5-0.2-0.6-0.4l-1.1-2.3h-6.5l-1.1,2.3
	c-0.1,0.3-0.3,0.4-0.6,0.4H151.7z M156.3,2267.1h4.4l-2.2-4.8h-0.1L156.3,2267.1z"/>
<path id="Path-53" d="M191.7,2271.8c0,0.3,0.2,0.5,0.5,0.5c0,0,0,0,0,0h1.9c0.3,0,0.5-0.2,0.5-0.5v-6.6l5.7,7
	c0.1,0.1,0.2,0.2,0.4,0.1h2.3c0.3,0,0.5-0.2,0.5-0.5c0-0.1,0-0.2-0.1-0.3l-6.1-7.3l5.7-6.4c0.2-0.2,0.2-0.5,0-0.7
	c-0.1-0.1-0.2-0.1-0.3-0.1h-2.2c-0.2,0-0.3,0.1-0.4,0.2l-5.5,6.1v-5.9c0-0.3-0.2-0.5-0.5-0.5h-1.9c-0.3,0-0.5,0.2-0.5,0.5
	c0,0,0,0,0,0L191.7,2271.8z"/>
<path id="Path-54" d="M229.9,2271.9c0,0.2,0.2,0.4,0.4,0.4h8.8c0.2,0,0.4-0.2,0.4-0.4v-1.8c0-0.2-0.2-0.4-0.4-0.4h-6.4v-3.8h5.3
	c0.2,0,0.4-0.2,0.4-0.4v-1.8c0-0.2-0.2-0.4-0.4-0.4h-5.4v-3.6h6.4c0.2,0,0.4-0.2,0.4-0.4v-1.8c0-0.2-0.2-0.4-0.4-0.4h-8.8
	c-0.2,0-0.4,0.2-0.4,0.4L229.9,2271.9z"/>
<path id="Path-55" d="M1.4,2332c0,0.2,0.2,0.4,0.4,0.4h2c0.2,0,0.4-0.2,0.4-0.4v-14.4c0-0.2-0.2-0.4-0.4-0.4h-2
	c-0.2,0-0.4,0.2-0.4,0.4V2332z"/>
<path id="Path-56" d="M4.2,2362.2c0.1,0.2,0.2,0.3,0.4,0.3h0.3c0.2,0,0.3-0.1,0.4-0.2l3.8-9.8h0.1l3.9,9.8c0.1,0.2,0.2,0.3,0.4,0.2
	h0.4c0.2,0,0.3-0.1,0.4-0.3l4.1-14.6c0.1-0.2,0-0.4-0.2-0.5c-0.1,0-0.1,0-0.2,0h-2c-0.2,0-0.3,0.1-0.4,0.3l-2.2,8.6h-0.1l-3.5-8.9
	c-0.1-0.2-0.2-0.3-0.4-0.2H9c-0.2,0-0.3,0.1-0.4,0.2l-3.4,8.9H5.1l-2.2-8.6c-0.1-0.2-0.2-0.3-0.4-0.3h-2c-0.2,0-0.4,0.1-0.4,0.3
	c0,0.1,0,0.1,0,0.2L4.2,2362.2z"/>
<path id="Path-57" d="M44.8,2361.9c0,0.2,0.2,0.4,0.4,0.4h8.8c0.2,0,0.4-0.2,0.4-0.4v-1.8c0-0.2-0.2-0.4-0.4-0.4h-6.4v-3.8H53
	c0.2,0,0.4-0.2,0.4-0.4v-1.8c0-0.2-0.2-0.4-0.4-0.4h-5.3v-3.6h6.4c0.2,0,0.4-0.2,0.4-0.4v-1.8c0-0.2-0.2-0.4-0.4-0.4h-8.8
	c-0.2,0-0.4,0.2-0.4,0.4V2361.9z"/>
<path id="Path-58" d="M109.4,2361.8c-0.1,0.2,0.1,0.4,0.3,0.5c0,0,0.1,0,0.1,0h2c0.2,0,0.3-0.1,0.4-0.3l1.3-8.2h0.1l3.8,8.5
	c0.1,0.1,0.2,0.2,0.4,0.2h0.3c0.2,0,0.3-0.1,0.4-0.2l3.8-8.5h0.1l1.3,8.2c0.1,0.2,0.2,0.3,0.4,0.3h2c0.2,0,0.4-0.1,0.4-0.3
	c0-0.1,0-0.1,0-0.2l-2.6-14.6c0-0.2-0.2-0.3-0.4-0.3H123c-0.2,0-0.3,0.1-0.4,0.2l-4.8,10.2h-0.1l-4.8-10.2c-0.1-0.1-0.2-0.2-0.4-0.2
	h-0.3c-0.2,0-0.4,0.1-0.4,0.3L109.4,2361.8z"/>
<path id="Combined-Shape-10" d="M151.7,2362.3c-0.2,0-0.4-0.1-0.4-0.3c0-0.1,0-0.2,0-0.2l6.7-14.6c0.1-0.1,0.2-0.2,0.4-0.2h0.2
	c0.2,0,0.3,0.1,0.4,0.2l6.7,14.6c0.1,0.2,0,0.4-0.2,0.5c-0.1,0-0.1,0.1-0.2,0h-1.9c-0.3,0-0.5-0.2-0.6-0.4l-1.1-2.3h-6.5l-1.1,2.3
	c-0.1,0.3-0.3,0.4-0.6,0.4H151.7z M156.3,2357.1h4.4l-2.2-4.8h-0.1L156.3,2357.1z"/>
<path id="Path-59" d="M191.7,2361.8c0,0.3,0.2,0.5,0.5,0.5c0,0,0,0,0,0h1.9c0.3,0,0.5-0.2,0.5-0.5v-6.6l5.7,7
	c0.1,0.1,0.2,0.2,0.4,0.1h2.3c0.3,0,0.5-0.2,0.5-0.5c0-0.1,0-0.2-0.1-0.3l-6.1-7.3l5.7-6.4c0.2-0.2,0.2-0.5,0-0.7
	c-0.1-0.1-0.2-0.1-0.3-0.1h-2.2c-0.2,0-0.3,0.1-0.4,0.2l-5.5,6.1v-5.9c0-0.3-0.2-0.5-0.5-0.5h-1.9c-0.3,0-0.5,0.2-0.5,0.5
	c0,0,0,0,0,0L191.7,2361.8z"/>
<path id="Path-60" d="M229.9,2361.9c0,0.2,0.2,0.4,0.4,0.4h8.8c0.2,0,0.4-0.2,0.4-0.4v-1.8c0-0.2-0.2-0.4-0.4-0.4h-6.4v-3.8h5.3
	c0.2,0,0.4-0.2,0.4-0.4v-1.8c0-0.2-0.2-0.4-0.4-0.4h-5.4v-3.6h6.4c0.2,0,0.4-0.2,0.4-0.4v-1.8c0-0.2-0.2-0.4-0.4-0.4h-8.8
	c-0.2,0-0.4,0.2-0.4,0.4L229.9,2361.9z"/>
<path id="Path-61" d="M1.4,2422c0,0.2,0.2,0.4,0.4,0.4h2c0.2,0,0.4-0.2,0.4-0.4v-14.4c0-0.2-0.2-0.4-0.4-0.4h-2
	c-0.2,0-0.4,0.2-0.4,0.4V2422z"/>
<path id="Path-62" d="M4.2,2452.2c0.1,0.2,0.2,0.3,0.4,0.3h0.3c0.2,0,0.3-0.1,0.4-0.2l3.8-9.8h0.1l3.9,9.8c0.1,0.2,0.2,0.3,0.4,0.2
	h0.4c0.2,0,0.3-0.1,0.4-0.3l4.1-14.6c0.1-0.2,0-0.4-0.2-0.5c-0.1,0-0.1,0-0.2,0h-2c-0.2,0-0.3,0.1-0.4,0.3l-2.2,8.6h-0.1l-3.5-8.9
	c-0.1-0.2-0.2-0.3-0.4-0.2H9c-0.2,0-0.3,0.1-0.4,0.2l-3.4,8.9H5.1l-2.2-8.6c-0.1-0.2-0.2-0.3-0.4-0.3h-2c-0.2,0-0.4,0.1-0.4,0.3
	c0,0.1,0,0.1,0,0.2L4.2,2452.2z"/>
<path id="Path-63" d="M44.8,2451.9c0,0.2,0.2,0.4,0.4,0.4h8.8c0.2,0,0.4-0.2,0.4-0.4v-1.8c0-0.2-0.2-0.4-0.4-0.4h-6.4v-3.8H53
	c0.2,0,0.4-0.2,0.4-0.4v-1.8c0-0.2-0.2-0.4-0.4-0.4h-5.3v-3.6h6.4c0.2,0,0.4-0.2,0.4-0.4v-1.8c0-0.2-0.2-0.4-0.4-0.4h-8.8
	c-0.2,0-0.4,0.2-0.4,0.4V2451.9z"/>
<path id="Path-64" d="M109.4,2451.8c-0.1,0.2,0.1,0.4,0.3,0.5c0,0,0.1,0,0.1,0h2c0.2,0,0.3-0.1,0.4-0.3l1.3-8.2h0.1l3.8,8.5
	c0.1,0.1,0.2,0.2,0.4,0.2h0.3c0.2,0,0.3-0.1,0.4-0.2l3.8-8.5h0.1l1.3,8.2c0.1,0.2,0.2,0.3,0.4,0.3h2c0.2,0,0.4-0.1,0.4-0.3
	c0-0.1,0-0.1,0-0.2l-2.6-14.6c0-0.2-0.2-0.3-0.4-0.3H123c-0.2,0-0.3,0.1-0.4,0.2l-4.8,10.2h-0.1l-4.8-10.2c-0.1-0.1-0.2-0.2-0.4-0.2
	h-0.3c-0.2,0-0.4,0.1-0.4,0.3L109.4,2451.8z"/>
<path id="Combined-Shape-11" d="M151.7,2452.3c-0.2,0-0.4-0.1-0.4-0.3c0-0.1,0-0.2,0-0.2l6.7-14.6c0.1-0.1,0.2-0.2,0.4-0.2h0.2
	c0.2,0,0.3,0.1,0.4,0.2l6.7,14.6c0.1,0.2,0,0.4-0.2,0.5c-0.1,0-0.1,0.1-0.2,0h-1.9c-0.3,0-0.5-0.2-0.6-0.4l-1.1-2.3h-6.5l-1.1,2.3
	c-0.1,0.3-0.3,0.4-0.6,0.4H151.7z M156.3,2447.1h4.4l-2.2-4.8h-0.1L156.3,2447.1z"/>
<path id="Path-65" d="M191.7,2451.8c0,0.3,0.2,0.5,0.5,0.5c0,0,0,0,0,0h1.9c0.3,0,0.5-0.2,0.5-0.5v-6.6l5.7,7
	c0.1,0.1,0.2,0.2,0.4,0.1h2.3c0.3,0,0.5-0.2,0.5-0.5c0-0.1,0-0.2-0.1-0.3l-6.1-7.3l5.7-6.4c0.2-0.2,0.2-0.5,0-0.7
	c-0.1-0.1-0.2-0.1-0.3-0.1h-2.2c-0.2,0-0.3,0.1-0.4,0.2l-5.5,6.1v-5.9c0-0.3-0.2-0.5-0.5-0.5h-1.9c-0.3,0-0.5,0.2-0.5,0.5
	c0,0,0,0,0,0L191.7,2451.8z"/>
<path id="Path-66" d="M229.9,2451.9c0,0.2,0.2,0.4,0.4,0.4h8.8c0.2,0,0.4-0.2,0.4-0.4v-1.8c0-0.2-0.2-0.4-0.4-0.4h-6.4v-3.8h5.3
	c0.2,0,0.4-0.2,0.4-0.4v-1.8c0-0.2-0.2-0.4-0.4-0.4h-5.4v-3.6h6.4c0.2,0,0.4-0.2,0.4-0.4v-1.8c0-0.2-0.2-0.4-0.4-0.4h-8.8
	c-0.2,0-0.4,0.2-0.4,0.4L229.9,2451.9z"/>
<path id="Path-67" d="M1.4,2512c0,0.2,0.2,0.4,0.4,0.4h2c0.2,0,0.4-0.2,0.4-0.4v-14.4c0-0.2-0.2-0.4-0.4-0.4h-2
	c-0.2,0-0.4,0.2-0.4,0.4V2512z"/>
<path id="Path-68" d="M31.9,2512c0,0.2,0.2,0.4,0.4,0.4h2c0.2,0,0.4-0.2,0.4-0.4v-12.2h3.3c0.2,0,0.4-0.2,0.4-0.4v-1.8
	c0-0.2-0.2-0.4-0.4-0.4h-9.5c-0.2,0-0.4,0.2-0.4,0.4v1.8c0,0.2,0.2,0.4,0.4,0.4h3.3V2512z"/>
<path id="path-101" d="M12.9,2444.9L12.9,2444.9L12.9,2444.9L12.9,2444.9z"/>
<path id="Path-69" d="M4.2,2542.2c0.1,0.2,0.2,0.3,0.4,0.3h0.3c0.2,0,0.3-0.1,0.4-0.2l3.8-9.8h0.1l3.9,9.8c0.1,0.2,0.2,0.3,0.4,0.2
	h0.4c0.2,0,0.3-0.1,0.4-0.3l4.1-14.6c0.1-0.2,0-0.4-0.2-0.5c-0.1,0-0.1,0-0.2,0h-2c-0.2,0-0.3,0.1-0.4,0.3l-2.2,8.6h-0.1l-3.5-8.9
	c-0.1-0.2-0.2-0.3-0.4-0.2H9c-0.2,0-0.3,0.1-0.4,0.2l-3.4,8.9H5.1l-2.2-8.6c-0.1-0.2-0.2-0.3-0.4-0.3h-2c-0.2,0-0.4,0.1-0.4,0.3
	c0,0.1,0,0.1,0,0.2L4.2,2542.2z"/>
<path id="Path-70" d="M44.8,2541.9c0,0.2,0.2,0.4,0.4,0.4h8.8c0.2,0,0.4-0.2,0.4-0.4v-1.8c0-0.2-0.2-0.4-0.4-0.4h-6.4v-3.8H53
	c0.2,0,0.4-0.2,0.4-0.4v-1.8c0-0.2-0.2-0.4-0.4-0.4h-5.3v-3.6h6.4c0.2,0,0.4-0.2,0.4-0.4v-1.8c0-0.2-0.2-0.4-0.4-0.4h-8.8
	c-0.2,0-0.4,0.2-0.4,0.4V2541.9z"/>
<path id="Path-71" d="M109.4,2541.8c-0.1,0.2,0.1,0.4,0.3,0.5c0,0,0.1,0,0.1,0h2c0.2,0,0.3-0.1,0.4-0.3l1.3-8.2h0.1l3.8,8.5
	c0.1,0.1,0.2,0.2,0.4,0.2h0.3c0.2,0,0.3-0.1,0.4-0.2l3.8-8.5h0.1l1.3,8.2c0.1,0.2,0.2,0.3,0.4,0.3h2c0.2,0,0.4-0.1,0.4-0.3
	c0-0.1,0-0.1,0-0.2l-2.6-14.6c0-0.2-0.2-0.3-0.4-0.3H123c-0.2,0-0.3,0.1-0.4,0.2l-4.8,10.2h-0.1l-4.8-10.2c-0.1-0.1-0.2-0.2-0.4-0.2
	h-0.3c-0.2,0-0.4,0.1-0.4,0.3L109.4,2541.8z"/>
<path id="Combined-Shape-12" d="M151.7,2542.3c-0.2,0-0.4-0.1-0.4-0.3c0-0.1,0-0.2,0-0.2l6.7-14.6c0.1-0.1,0.2-0.2,0.4-0.2h0.2
	c0.2,0,0.3,0.1,0.4,0.2l6.7,14.6c0.1,0.2,0,0.4-0.2,0.5c-0.1,0-0.1,0.1-0.2,0h-1.9c-0.3,0-0.5-0.2-0.6-0.4l-1.1-2.3h-6.5l-1.1,2.3
	c-0.1,0.3-0.3,0.4-0.6,0.4H151.7z M156.3,2537.1h4.4l-2.2-4.8h-0.1L156.3,2537.1z"/>
<path id="Path-72" d="M191.7,2541.8c0,0.3,0.2,0.5,0.5,0.5c0,0,0,0,0,0h1.9c0.3,0,0.5-0.2,0.5-0.5v-6.6l5.7,7
	c0.1,0.1,0.2,0.2,0.4,0.1h2.3c0.3,0,0.5-0.2,0.5-0.5c0-0.1,0-0.2-0.1-0.3l-6.1-7.3l5.7-6.4c0.2-0.2,0.2-0.5,0-0.7
	c-0.1-0.1-0.2-0.1-0.3-0.1h-2.2c-0.2,0-0.3,0.1-0.4,0.2l-5.5,6.1v-5.9c0-0.3-0.2-0.5-0.5-0.5h-1.9c-0.3,0-0.5,0.2-0.5,0.5
	c0,0,0,0,0,0L191.7,2541.8z"/>
<path id="Path-73" d="M229.9,2541.9c0,0.2,0.2,0.4,0.4,0.4h8.8c0.2,0,0.4-0.2,0.4-0.4v-1.8c0-0.2-0.2-0.4-0.4-0.4h-6.4v-3.8h5.3
	c0.2,0,0.4-0.2,0.4-0.4v-1.8c0-0.2-0.2-0.4-0.4-0.4h-5.4v-3.6h6.4c0.2,0,0.4-0.2,0.4-0.4v-1.8c0-0.2-0.2-0.4-0.4-0.4h-8.8
	c-0.2,0-0.4,0.2-0.4,0.4L229.9,2541.9z"/>
<path id="Path-74" d="M1.4,2602c0,0.2,0.2,0.4,0.4,0.4h2c0.2,0,0.4-0.2,0.4-0.4v-14.4c0-0.2-0.2-0.4-0.4-0.4h-2
	c-0.2,0-0.4,0.2-0.4,0.4V2602z"/>
<path id="Path-75" d="M31.9,2602c0,0.2,0.2,0.4,0.4,0.4h2c0.2,0,0.4-0.2,0.4-0.4v-12.2h3.3c0.2,0,0.4-0.2,0.4-0.4v-1.8
	c0-0.2-0.2-0.4-0.4-0.4h-9.5c-0.2,0-0.4,0.2-0.4,0.4v1.8c0,0.2,0.2,0.4,0.4,0.4h3.3V2602z"/>
<path d="M92.8,2587.1c-2.5,0-4,1.2-4.6,2.6c0.7,0.7,1.6,1.1,2.6,1.1c0.2-0.8,1-1.3,1.9-1.3c1.1,0.2,2.1,0.6,3,1.2
	c0.3,0.1,0.6,0,0.8-0.3l0.8-1.2c0.2-0.2,0.1-0.6-0.1-0.7C95.9,2587.6,94.3,2587.1,92.8,2587.1z"/>
<path id="Path-76" d="M4.2,2632.2c0.1,0.2,0.2,0.3,0.4,0.3h0.3c0.2,0,0.3-0.1,0.4-0.2l3.8-9.8h0.1l3.9,9.8c0.1,0.2,0.2,0.3,0.4,0.2
	h0.4c0.2,0,0.3-0.1,0.4-0.3l4.1-14.6c0.1-0.2,0-0.4-0.2-0.5c-0.1,0-0.1,0-0.2,0h-2c-0.2,0-0.3,0.1-0.4,0.3l-2.2,8.6h-0.1l-3.5-8.9
	c-0.1-0.2-0.2-0.3-0.4-0.2H9c-0.2,0-0.3,0.1-0.4,0.2l-3.4,8.9H5.1l-2.2-8.6c-0.1-0.2-0.2-0.3-0.4-0.3h-2c-0.2,0-0.4,0.1-0.4,0.3
	c0,0.1,0,0.1,0,0.2L4.2,2632.2z"/>
<path id="Path-77" d="M44.8,2631.9c0,0.2,0.2,0.4,0.4,0.4h8.8c0.2,0,0.4-0.2,0.4-0.4v-1.8c0-0.2-0.2-0.4-0.4-0.4h-6.4v-3.8H53
	c0.2,0,0.4-0.2,0.4-0.4v-1.8c0-0.2-0.2-0.4-0.4-0.4h-5.3v-3.6h6.4c0.2,0,0.4-0.2,0.4-0.4v-1.8c0-0.2-0.2-0.4-0.4-0.4h-8.8
	c-0.2,0-0.4,0.2-0.4,0.4V2631.9z"/>
<path id="Path-78" d="M109.4,2631.8c-0.1,0.2,0.1,0.4,0.3,0.5c0,0,0.1,0,0.1,0h2c0.2,0,0.3-0.1,0.4-0.3l1.3-8.2h0.1l3.8,8.5
	c0.1,0.1,0.2,0.2,0.4,0.2h0.3c0.2,0,0.3-0.1,0.4-0.2l3.8-8.5h0.1l1.3,8.2c0.1,0.2,0.2,0.3,0.4,0.3h2c0.2,0,0.4-0.1,0.4-0.3
	c0-0.1,0-0.1,0-0.2l-2.6-14.6c0-0.2-0.2-0.3-0.4-0.3H123c-0.2,0-0.3,0.1-0.4,0.2l-4.8,10.2h-0.1l-4.8-10.2c-0.1-0.1-0.2-0.2-0.4-0.2
	h-0.3c-0.2,0-0.4,0.1-0.4,0.3L109.4,2631.8z"/>
<path id="Combined-Shape-13" d="M151.7,2632.3c-0.2,0-0.4-0.1-0.4-0.3c0-0.1,0-0.2,0-0.2l6.7-14.6c0.1-0.1,0.2-0.2,0.4-0.2h0.2
	c0.2,0,0.3,0.1,0.4,0.2l6.7,14.6c0.1,0.2,0,0.4-0.2,0.5c-0.1,0-0.1,0.1-0.2,0h-1.9c-0.3,0-0.5-0.2-0.6-0.4l-1.1-2.3h-6.5l-1.1,2.3
	c-0.1,0.3-0.3,0.4-0.6,0.4H151.7z M156.3,2627.1h4.4l-2.2-4.8h-0.1L156.3,2627.1z"/>
<path id="Path-79" d="M191.7,2631.8c0,0.3,0.2,0.5,0.5,0.5c0,0,0,0,0,0h1.9c0.3,0,0.5-0.2,0.5-0.5v-6.6l5.7,7
	c0.1,0.1,0.2,0.2,0.4,0.1h2.3c0.3,0,0.5-0.2,0.5-0.5c0-0.1,0-0.2-0.1-0.3l-6.1-7.3l5.7-6.4c0.2-0.2,0.2-0.5,0-0.7
	c-0.1-0.1-0.2-0.1-0.3-0.1h-2.2c-0.2,0-0.3,0.1-0.4,0.2l-5.5,6.1v-5.9c0-0.3-0.2-0.5-0.5-0.5h-1.9c-0.3,0-0.5,0.2-0.5,0.5
	c0,0,0,0,0,0L191.7,2631.8z"/>
<path id="Path-80" d="M229.9,2631.9c0,0.2,0.2,0.4,0.4,0.4h8.8c0.2,0,0.4-0.2,0.4-0.4v-1.8c0-0.2-0.2-0.4-0.4-0.4h-6.4v-3.8h5.3
	c0.2,0,0.4-0.2,0.4-0.4v-1.8c0-0.2-0.2-0.4-0.4-0.4h-5.4v-3.6h6.4c0.2,0,0.4-0.2,0.4-0.4v-1.8c0-0.2-0.2-0.4-0.4-0.4h-8.8
	c-0.2,0-0.4,0.2-0.4,0.4L229.9,2631.9z"/>
<path id="Path-81" d="M1.4,2692c0,0.2,0.2,0.4,0.4,0.4h2c0.2,0,0.4-0.2,0.4-0.4v-14.4c0-0.2-0.2-0.4-0.4-0.4h-2
	c-0.2,0-0.4,0.2-0.4,0.4V2692z"/>
<path id="Path-82" d="M31.9,2692c0,0.2,0.2,0.4,0.4,0.4h2c0.2,0,0.4-0.2,0.4-0.4v-12.2h3.3c0.2,0,0.4-0.2,0.4-0.4v-1.8
	c0-0.2-0.2-0.4-0.4-0.4h-9.5c-0.2,0-0.4,0.2-0.4,0.4v1.8c0,0.2,0.2,0.4,0.4,0.4h3.3V2692z"/>
<path d="M93.3,2683.5c-1.8-0.7-2.6-1.4-2.6-2.4c0.1-0.9,1-1.6,1.9-1.5c1.1,0.2,2.1,0.6,3,1.2c0.3,0.1,0.6,0,0.8-0.3l0.8-1.2
	c0.2-0.2,0.1-0.6-0.1-0.7c-1.3-0.9-2.8-1.4-4.3-1.4c-3.4,0-4.9,2.2-4.9,4.2c0,2.6,2,3.9,4.1,4.7c1.8,0.7,2.7,1.5,2.7,2.5
	c0.4,0.1,0.8,0.2,1.3,0.2c0.6,0,1.3-0.1,1.8-0.4C97.7,2685.5,95.4,2684.3,93.3,2683.5z"/>
<path id="Path-83" d="M4.2,2722.2c0.1,0.2,0.2,0.3,0.4,0.3h0.3c0.2,0,0.3-0.1,0.4-0.2l3.8-9.8h0.1l3.9,9.8c0.1,0.2,0.2,0.3,0.4,0.2
	h0.4c0.2,0,0.3-0.1,0.4-0.3l4.1-14.6c0.1-0.2,0-0.4-0.2-0.5c-0.1,0-0.1,0-0.2,0h-2c-0.2,0-0.3,0.1-0.4,0.3l-2.2,8.6h-0.1l-3.5-8.9
	c-0.1-0.2-0.2-0.3-0.4-0.2H9c-0.2,0-0.3,0.1-0.4,0.2l-3.4,8.9H5.1l-2.2-8.6c-0.1-0.2-0.2-0.3-0.4-0.3h-2c-0.2,0-0.4,0.1-0.4,0.3
	c0,0.1,0,0.1,0,0.2L4.2,2722.2z"/>
<path id="Path-84" d="M44.8,2721.9c0,0.2,0.2,0.4,0.4,0.4h8.8c0.2,0,0.4-0.2,0.4-0.4v-1.8c0-0.2-0.2-0.4-0.4-0.4h-6.4v-3.8H53
	c0.2,0,0.4-0.2,0.4-0.4v-1.8c0-0.2-0.2-0.4-0.4-0.4h-5.3v-3.6h6.4c0.2,0,0.4-0.2,0.4-0.4v-1.8c0-0.2-0.2-0.4-0.4-0.4h-8.8
	c-0.2,0-0.4,0.2-0.4,0.4V2721.9z"/>
<path id="Path-85" d="M109.4,2721.8c-0.1,0.2,0.1,0.4,0.3,0.5c0,0,0.1,0,0.1,0h2c0.2,0,0.3-0.1,0.4-0.3l1.3-8.2h0.1l3.8,8.5
	c0.1,0.1,0.2,0.2,0.4,0.2h0.3c0.2,0,0.3-0.1,0.4-0.2l3.8-8.5h0.1l1.3,8.2c0.1,0.2,0.2,0.3,0.4,0.3h2c0.2,0,0.4-0.1,0.4-0.3
	c0-0.1,0-0.1,0-0.2l-2.6-14.6c0-0.2-0.2-0.3-0.4-0.3H123c-0.2,0-0.3,0.1-0.4,0.2l-4.8,10.2h-0.1l-4.8-10.2c-0.1-0.1-0.2-0.2-0.4-0.2
	h-0.3c-0.2,0-0.4,0.1-0.4,0.3L109.4,2721.8z"/>
<path id="Combined-Shape-14" d="M151.7,2722.3c-0.2,0-0.4-0.1-0.4-0.3c0-0.1,0-0.2,0-0.2l6.7-14.6c0.1-0.1,0.2-0.2,0.4-0.2h0.2
	c0.2,0,0.3,0.1,0.4,0.2l6.7,14.6c0.1,0.2,0,0.4-0.2,0.5c-0.1,0-0.1,0.1-0.2,0h-1.9c-0.3,0-0.5-0.2-0.6-0.4l-1.1-2.3h-6.5l-1.1,2.3
	c-0.1,0.3-0.3,0.4-0.6,0.4H151.7z M156.3,2717.1h4.4l-2.2-4.8h-0.1L156.3,2717.1z"/>
<path id="Path-86" d="M191.7,2721.8c0,0.3,0.2,0.5,0.5,0.5c0,0,0,0,0,0h1.9c0.3,0,0.5-0.2,0.5-0.5v-6.6l5.7,7
	c0.1,0.1,0.2,0.2,0.4,0.1h2.3c0.3,0,0.5-0.2,0.5-0.5c0-0.1,0-0.2-0.1-0.3l-6.1-7.3l5.7-6.4c0.2-0.2,0.2-0.5,0-0.7
	c-0.1-0.1-0.2-0.1-0.3-0.1h-2.2c-0.2,0-0.3,0.1-0.4,0.2l-5.5,6.1v-5.9c0-0.3-0.2-0.5-0.5-0.5h-1.9c-0.3,0-0.5,0.2-0.5,0.5
	c0,0,0,0,0,0L191.7,2721.8z"/>
<path id="Path-87" d="M229.9,2721.9c0,0.2,0.2,0.4,0.4,0.4h8.8c0.2,0,0.4-0.2,0.4-0.4v-1.8c0-0.2-0.2-0.4-0.4-0.4h-6.4v-3.8h5.3
	c0.2,0,0.4-0.2,0.4-0.4v-1.8c0-0.2-0.2-0.4-0.4-0.4h-5.4v-3.6h6.4c0.2,0,0.4-0.2,0.4-0.4v-1.8c0-0.2-0.2-0.4-0.4-0.4h-8.8
	c-0.2,0-0.4,0.2-0.4,0.4L229.9,2721.9z"/>
<path id="Path-88" d="M1.4,2782c0,0.2,0.2,0.4,0.4,0.4h2c0.2,0,0.4-0.2,0.4-0.4v-14.4c0-0.2-0.2-0.4-0.4-0.4h-2
	c-0.2,0-0.4,0.2-0.4,0.4V2782z"/>
<path id="Path-89-2" d="M31.9,2782c0,0.2,0.2,0.4,0.4,0.4h2c0.2,0,0.4-0.2,0.4-0.4v-12.2h3.3c0.2,0,0.4-0.2,0.4-0.4v-1.8
	c0-0.2-0.2-0.4-0.4-0.4h-9.5c-0.2,0-0.4,0.2-0.4,0.4v1.8c0,0.2,0.2,0.4,0.4,0.4h3.3V2782z"/>
<path id="Path-90" d="M88.1,2781c1.3,1.1,3,1.7,4.8,1.7c3.1,0,5-2.1,5-4.3c0-2.8-2.4-4.1-4.5-4.9c-1.8-0.7-2.6-1.4-2.6-2.4
	c0.1-0.9,1-1.6,1.9-1.5c1.1,0.2,2.1,0.6,3,1.2c0.3,0.1,0.6,0,0.8-0.3l0.8-1.2c0.2-0.2,0.1-0.6-0.1-0.7c-1.3-0.9-2.8-1.4-4.3-1.4
	c-3.4,0-4.9,2.2-4.9,4.2c0,2.6,2,3.9,4.1,4.7c1.8,0.7,2.8,1.5,2.8,2.6c-0.1,1-0.9,1.7-1.9,1.7c0,0,0,0-0.1,0
	c-1.2-0.2-2.3-0.6-3.3-1.3c-0.2-0.2-0.5-0.1-0.7,0.1c0,0,0,0,0,0.1l-0.8,1.3C87.8,2780.7,87.9,2780.8,88.1,2781z"/>
<path id="path-113" d="M12.9,2714.9L12.9,2714.9L12.9,2714.9L12.9,2714.9z"/>
<path id="Path-91" d="M4.2,2812.2c0.1,0.2,0.2,0.3,0.4,0.3h0.3c0.2,0,0.3-0.1,0.4-0.2l3.8-9.8h0.1l3.9,9.8c0.1,0.2,0.2,0.3,0.4,0.2
	h0.4c0.2,0,0.3-0.1,0.4-0.3l4.1-14.6c0.1-0.2,0-0.4-0.2-0.5c-0.1,0-0.1,0-0.2,0h-2c-0.2,0-0.3,0.1-0.4,0.3l-2.2,8.6h-0.1l-3.5-8.9
	c-0.1-0.2-0.2-0.3-0.4-0.2H9c-0.2,0-0.3,0.1-0.4,0.2l-3.4,8.9H5.1l-2.2-8.6c-0.1-0.2-0.2-0.3-0.4-0.3h-2c-0.2,0-0.4,0.1-0.4,0.3
	c0,0.1,0,0.1,0,0.2L4.2,2812.2z"/>
<path id="Path-92" d="M44.8,2811.9c0,0.2,0.2,0.4,0.4,0.4h8.8c0.2,0,0.4-0.2,0.4-0.4v-1.8c0-0.2-0.2-0.4-0.4-0.4h-6.4v-3.8H53
	c0.2,0,0.4-0.2,0.4-0.4v-1.8c0-0.2-0.2-0.4-0.4-0.4h-5.3v-3.6h6.4c0.2,0,0.4-0.2,0.4-0.4v-1.8c0-0.2-0.2-0.4-0.4-0.4h-8.8
	c-0.2,0-0.4,0.2-0.4,0.4V2811.9z"/>
<path id="Path-93" d="M109.4,2811.8c-0.1,0.2,0.1,0.4,0.3,0.5c0,0,0.1,0,0.1,0h2c0.2,0,0.3-0.1,0.4-0.3l1.3-8.2h0.1l3.8,8.5
	c0.1,0.1,0.2,0.2,0.4,0.2h0.3c0.2,0,0.3-0.1,0.4-0.2l3.8-8.5h0.1l1.3,8.2c0.1,0.2,0.2,0.3,0.4,0.3h2c0.2,0,0.4-0.1,0.4-0.3
	c0-0.1,0-0.1,0-0.2l-2.6-14.6c0-0.2-0.2-0.3-0.4-0.3H123c-0.2,0-0.3,0.1-0.4,0.2l-4.8,10.2h-0.1l-4.8-10.2c-0.1-0.1-0.2-0.2-0.4-0.2
	h-0.3c-0.2,0-0.4,0.1-0.4,0.3L109.4,2811.8z"/>
<path id="Combined-Shape-15" d="M151.7,2812.3c-0.2,0-0.4-0.1-0.4-0.3c0-0.1,0-0.2,0-0.2l6.7-14.6c0.1-0.1,0.2-0.2,0.4-0.2h0.2
	c0.2,0,0.3,0.1,0.4,0.2l6.7,14.6c0.1,0.2,0,0.4-0.2,0.5c-0.1,0-0.1,0.1-0.2,0h-1.9c-0.3,0-0.5-0.2-0.6-0.4l-1.1-2.3h-6.5l-1.1,2.3
	c-0.1,0.3-0.3,0.4-0.6,0.4H151.7z M156.3,2807.1h4.4l-2.2-4.8h-0.1L156.3,2807.1z"/>
<path id="Path-94" d="M191.7,2811.8c0,0.3,0.2,0.5,0.5,0.5c0,0,0,0,0,0h1.9c0.3,0,0.5-0.2,0.5-0.5v-6.6l5.7,7
	c0.1,0.1,0.2,0.2,0.4,0.1h2.3c0.3,0,0.5-0.2,0.5-0.5c0-0.1,0-0.2-0.1-0.3l-6.1-7.3l5.7-6.4c0.2-0.2,0.2-0.5,0-0.7
	c-0.1-0.1-0.2-0.1-0.3-0.1h-2.2c-0.2,0-0.3,0.1-0.4,0.2l-5.5,6.1v-5.9c0-0.3-0.2-0.5-0.5-0.5h-1.9c-0.3,0-0.5,0.2-0.5,0.5
	c0,0,0,0,0,0L191.7,2811.8z"/>
<path id="Path-95" d="M229.9,2811.9c0,0.2,0.2,0.4,0.4,0.4h8.8c0.2,0,0.4-0.2,0.4-0.4v-1.8c0-0.2-0.2-0.4-0.4-0.4h-6.4v-3.8h5.3
	c0.2,0,0.4-0.2,0.4-0.4v-1.8c0-0.2-0.2-0.4-0.4-0.4h-5.4v-3.6h6.4c0.2,0,0.4-0.2,0.4-0.4v-1.8c0-0.2-0.2-0.4-0.4-0.4h-8.8
	c-0.2,0-0.4,0.2-0.4,0.4L229.9,2811.9z"/>
<path id="Path-96" d="M1.4,2872c0,0.2,0.2,0.4,0.4,0.4h2c0.2,0,0.4-0.2,0.4-0.4v-14.4c0-0.2-0.2-0.4-0.4-0.4h-2
	c-0.2,0-0.4,0.2-0.4,0.4V2872z"/>
<path id="Path-97" d="M31.9,2872c0,0.2,0.2,0.4,0.4,0.4h2c0.2,0,0.4-0.2,0.4-0.4v-12.2h3.3c0.2,0,0.4-0.2,0.4-0.4v-1.8
	c0-0.2-0.2-0.4-0.4-0.4h-9.5c-0.2,0-0.4,0.2-0.4,0.4v1.8c0,0.2,0.2,0.4,0.4,0.4h3.3V2872z"/>
<path id="Path-98" d="M88.1,2871c1.3,1.1,3,1.7,4.8,1.7c3.1,0,5-2.1,5-4.3c0-2.8-2.4-4.1-4.5-4.9c-1.8-0.7-2.6-1.4-2.6-2.4
	c0.1-0.9,1-1.6,1.9-1.5c1.1,0.2,2.1,0.6,3,1.2c0.3,0.1,0.6,0,0.8-0.3l0.8-1.2c0.2-0.2,0.1-0.6-0.1-0.7c-1.3-0.9-2.8-1.4-4.3-1.4
	c-3.4,0-4.9,2.2-4.9,4.2c0,2.6,2,3.9,4.1,4.7c1.8,0.7,2.8,1.5,2.8,2.6c-0.1,1-0.9,1.7-1.9,1.7c0,0,0,0-0.1,0
	c-1.2-0.2-2.3-0.6-3.3-1.3c-0.2-0.2-0.5-0.1-0.7,0.1c0,0,0,0,0,0.1l-0.8,1.3C87.8,2870.7,87.9,2870.8,88.1,2871z"/>
<path d="M126.3,2869.3c-0.9-0.6-1.4-1.7-1.3-2.7v-8.9c0-0.2-0.2-0.4-0.4-0.4h-2.1c-0.2,0-0.4,0.2-0.4,0.4v9c0,1,0.3,2,0.7,2.9
	c0.5,0.2,0.9,0.2,1.4,0.2C124.9,2869.8,125.6,2869.6,126.3,2869.3z"/>
<path id="Path-99" d="M4.2,2902.2c0.1,0.2,0.2,0.3,0.4,0.3h0.3c0.2,0,0.3-0.1,0.4-0.2l3.8-9.8h0.1l3.9,9.8c0.1,0.2,0.2,0.3,0.4,0.2
	h0.4c0.2,0,0.3-0.1,0.4-0.3l4.1-14.6c0.1-0.2,0-0.4-0.2-0.5c-0.1,0-0.1,0-0.2,0h-2c-0.2,0-0.3,0.1-0.4,0.3l-2.2,8.6h-0.1l-3.5-8.9
	c-0.1-0.2-0.2-0.3-0.4-0.2H9c-0.2,0-0.3,0.1-0.4,0.2l-3.4,8.9H5.1l-2.2-8.6c-0.1-0.2-0.2-0.3-0.4-0.3h-2c-0.2,0-0.4,0.1-0.4,0.3
	c0,0.1,0,0.1,0,0.2L4.2,2902.2z"/>
<path id="Path-100" d="M44.8,2901.9c0,0.2,0.2,0.4,0.4,0.4h8.8c0.2,0,0.4-0.2,0.4-0.4v-1.8c0-0.2-0.2-0.4-0.4-0.4h-6.4v-3.8H53
	c0.2,0,0.4-0.2,0.4-0.4v-1.8c0-0.2-0.2-0.4-0.4-0.4h-5.3v-3.6h6.4c0.2,0,0.4-0.2,0.4-0.4v-1.8c0-0.2-0.2-0.4-0.4-0.4h-8.8
	c-0.2,0-0.4,0.2-0.4,0.4V2901.9z"/>
<path id="Path-101-2" d="M109.4,2901.8c-0.1,0.2,0.1,0.4,0.3,0.5c0,0,0.1,0,0.1,0h2c0.2,0,0.3-0.1,0.4-0.3l1.3-8.2h0.1l3.8,8.5
	c0.1,0.1,0.2,0.2,0.4,0.2h0.3c0.2,0,0.3-0.1,0.4-0.2l3.8-8.5h0.1l1.3,8.2c0.1,0.2,0.2,0.3,0.4,0.3h2c0.2,0,0.4-0.1,0.4-0.3
	c0-0.1,0-0.1,0-0.2l-2.6-14.6c0-0.2-0.2-0.3-0.4-0.3H123c-0.2,0-0.3,0.1-0.4,0.2l-4.8,10.2h-0.1l-4.8-10.2c-0.1-0.1-0.2-0.2-0.4-0.2
	h-0.3c-0.2,0-0.4,0.1-0.4,0.3L109.4,2901.8z"/>
<path id="Combined-Shape-16" d="M151.7,2902.3c-0.2,0-0.4-0.1-0.4-0.3c0-0.1,0-0.2,0-0.2l6.7-14.6c0.1-0.1,0.2-0.2,0.4-0.2h0.2
	c0.2,0,0.3,0.1,0.4,0.2l6.7,14.6c0.1,0.2,0,0.4-0.2,0.5c-0.1,0-0.1,0.1-0.2,0h-1.9c-0.3,0-0.5-0.2-0.6-0.4l-1.1-2.3h-6.5l-1.1,2.3
	c-0.1,0.3-0.3,0.4-0.6,0.4H151.7z M156.3,2897.1h4.4l-2.2-4.8h-0.1L156.3,2897.1z"/>
<path id="Path-102" d="M191.7,2901.8c0,0.3,0.2,0.5,0.5,0.5c0,0,0,0,0,0h1.9c0.3,0,0.5-0.2,0.5-0.5v-6.6l5.7,7
	c0.1,0.1,0.2,0.2,0.4,0.1h2.3c0.3,0,0.5-0.2,0.5-0.5c0-0.1,0-0.2-0.1-0.3l-6.1-7.3l5.7-6.4c0.2-0.2,0.2-0.5,0-0.7
	c-0.1-0.1-0.2-0.1-0.3-0.1h-2.2c-0.2,0-0.3,0.1-0.4,0.2l-5.5,6.1v-5.9c0-0.3-0.2-0.5-0.5-0.5h-1.9c-0.3,0-0.5,0.2-0.5,0.5
	c0,0,0,0,0,0L191.7,2901.8z"/>
<path id="Path-103" d="M229.9,2901.9c0,0.2,0.2,0.4,0.4,0.4h8.8c0.2,0,0.4-0.2,0.4-0.4v-1.8c0-0.2-0.2-0.4-0.4-0.4h-6.4v-3.8h5.3
	c0.2,0,0.4-0.2,0.4-0.4v-1.8c0-0.2-0.2-0.4-0.4-0.4h-5.4v-3.6h6.4c0.2,0,0.4-0.2,0.4-0.4v-1.8c0-0.2-0.2-0.4-0.4-0.4h-8.8
	c-0.2,0-0.4,0.2-0.4,0.4L229.9,2901.9z"/>
<path id="Path-104" d="M1.4,2962c0,0.2,0.2,0.4,0.4,0.4h2c0.2,0,0.4-0.2,0.4-0.4v-14.4c0-0.2-0.2-0.4-0.4-0.4h-2
	c-0.2,0-0.4,0.2-0.4,0.4V2962z"/>
<path id="Path-105" d="M31.9,2962c0,0.2,0.2,0.4,0.4,0.4h2c0.2,0,0.4-0.2,0.4-0.4v-12.2h3.3c0.2,0,0.4-0.2,0.4-0.4v-1.8
	c0-0.2-0.2-0.4-0.4-0.4h-9.5c-0.2,0-0.4,0.2-0.4,0.4v1.8c0,0.2,0.2,0.4,0.4,0.4h3.3V2962z"/>
<path id="Path-106" d="M88.1,2961c1.3,1.1,3,1.7,4.8,1.7c3.1,0,5-2.1,5-4.3c0-2.8-2.4-4.1-4.5-4.9c-1.8-0.7-2.6-1.4-2.6-2.4
	c0.1-0.9,1-1.6,1.9-1.5c1.1,0.2,2.1,0.6,3,1.2c0.3,0.1,0.6,0,0.8-0.3l0.8-1.2c0.2-0.2,0.1-0.6-0.1-0.7c-1.3-0.9-2.8-1.4-4.3-1.4
	c-3.4,0-4.9,2.2-4.9,4.2c0,2.6,2,3.9,4.1,4.7c1.8,0.7,2.8,1.5,2.8,2.6c-0.1,1-0.9,1.7-1.9,1.7c0,0,0,0-0.1,0
	c-1.2-0.2-2.3-0.6-3.3-1.3c-0.2-0.2-0.5-0.1-0.7,0.1c0,0,0,0,0,0.1l-0.8,1.3C87.8,2960.7,87.9,2960.8,88.1,2961z"/>
<path d="M131.4,2955.6h-0.1v1c0.1,1.7-1.2,3.2-3,3.3s-3.2-1.2-3.3-3c0-0.1,0-0.2,0-0.4v-8.9c0-0.2-0.2-0.4-0.4-0.4h-2.1
	c-0.2,0-0.4,0.2-0.4,0.4v9c0,3.3,2.7,6,6,6s6-2.7,6-6v-0.2C133.4,2956,132.4,2955.6,131.4,2955.6z"/>
<path id="Path-107" d="M4.2,2992.2c0.1,0.2,0.2,0.3,0.4,0.3h0.3c0.2,0,0.3-0.1,0.4-0.2l3.8-9.8h0.1l3.9,9.8c0.1,0.2,0.2,0.3,0.4,0.2
	h0.4c0.2,0,0.3-0.1,0.4-0.3l4.1-14.6c0.1-0.2,0-0.4-0.2-0.5c-0.1,0-0.1,0-0.2,0h-2c-0.2,0-0.3,0.1-0.4,0.3l-2.2,8.6h-0.1l-3.5-8.9
	c-0.1-0.2-0.2-0.3-0.4-0.2H9c-0.2,0-0.3,0.1-0.4,0.2l-3.4,8.9H5.1l-2.2-8.6c-0.1-0.2-0.2-0.3-0.4-0.3h-2c-0.2,0-0.4,0.1-0.4,0.3
	c0,0.1,0,0.1,0,0.2L4.2,2992.2z"/>
<path id="Path-108" d="M44.8,2991.9c0,0.2,0.2,0.4,0.4,0.4h8.8c0.2,0,0.4-0.2,0.4-0.4v-1.8c0-0.2-0.2-0.4-0.4-0.4h-6.4v-3.8H53
	c0.2,0,0.4-0.2,0.4-0.4v-1.8c0-0.2-0.2-0.4-0.4-0.4h-5.3v-3.6h6.4c0.2,0,0.4-0.2,0.4-0.4v-1.8c0-0.2-0.2-0.4-0.4-0.4h-8.8
	c-0.2,0-0.4,0.2-0.4,0.4V2991.9z"/>
<path id="Path-109" d="M109.4,2991.8c-0.1,0.2,0.1,0.4,0.3,0.5c0,0,0.1,0,0.1,0h2c0.2,0,0.3-0.1,0.4-0.3l1.3-8.2h0.1l3.8,8.5
	c0.1,0.1,0.2,0.2,0.4,0.2h0.3c0.2,0,0.3-0.1,0.4-0.2l3.8-8.5h0.1l1.3,8.2c0.1,0.2,0.2,0.3,0.4,0.3h2c0.2,0,0.4-0.1,0.4-0.3
	c0-0.1,0-0.1,0-0.2l-2.6-14.6c0-0.2-0.2-0.3-0.4-0.3H123c-0.2,0-0.3,0.1-0.4,0.2l-4.8,10.2h-0.1l-4.8-10.2c-0.1-0.1-0.2-0.2-0.4-0.2
	h-0.3c-0.2,0-0.4,0.1-0.4,0.3L109.4,2991.8z"/>
<path id="Combined-Shape-17" d="M151.7,2992.3c-0.2,0-0.4-0.1-0.4-0.3c0-0.1,0-0.2,0-0.2l6.7-14.6c0.1-0.1,0.2-0.2,0.4-0.2h0.2
	c0.2,0,0.3,0.1,0.4,0.2l6.7,14.6c0.1,0.2,0,0.4-0.2,0.5c-0.1,0-0.1,0.1-0.2,0h-1.9c-0.3,0-0.5-0.2-0.6-0.4l-1.1-2.3h-6.5l-1.1,2.3
	c-0.1,0.3-0.3,0.4-0.6,0.4H151.7z M156.3,2987.1h4.4l-2.2-4.8h-0.1L156.3,2987.1z"/>
<path id="Path-110" d="M191.7,2991.8c0,0.3,0.2,0.5,0.5,0.5c0,0,0,0,0,0h1.9c0.3,0,0.5-0.2,0.5-0.5v-6.6l5.7,7
	c0.1,0.1,0.2,0.2,0.4,0.1h2.3c0.3,0,0.5-0.2,0.5-0.5c0-0.1,0-0.2-0.1-0.3l-6.1-7.3l5.7-6.4c0.2-0.2,0.2-0.5,0-0.7
	c-0.1-0.1-0.2-0.1-0.3-0.1h-2.2c-0.2,0-0.3,0.1-0.4,0.2l-5.5,6.1v-5.9c0-0.3-0.2-0.5-0.5-0.5h-1.9c-0.3,0-0.5,0.2-0.5,0.5
	c0,0,0,0,0,0L191.7,2991.8z"/>
<path id="Path-111" d="M229.9,2991.9c0,0.2,0.2,0.4,0.4,0.4h8.8c0.2,0,0.4-0.2,0.4-0.4v-1.8c0-0.2-0.2-0.4-0.4-0.4h-6.4v-3.8h5.3
	c0.2,0,0.4-0.2,0.4-0.4v-1.8c0-0.2-0.2-0.4-0.4-0.4h-5.4v-3.6h6.4c0.2,0,0.4-0.2,0.4-0.4v-1.8c0-0.2-0.2-0.4-0.4-0.4h-8.8
	c-0.2,0-0.4,0.2-0.4,0.4L229.9,2991.9z"/>
<path id="Path-112" d="M1.4,3052c0,0.2,0.2,0.4,0.4,0.4h2c0.2,0,0.4-0.2,0.4-0.4v-14.4c0-0.2-0.2-0.4-0.4-0.4h-2
	c-0.2,0-0.4,0.2-0.4,0.4V3052z"/>
<path id="Path-113-2" d="M31.9,3052c0,0.2,0.2,0.4,0.4,0.4h2c0.2,0,0.4-0.2,0.4-0.4v-12.2h3.3c0.2,0,0.4-0.2,0.4-0.4v-1.8
	c0-0.2-0.2-0.4-0.4-0.4h-9.5c-0.2,0-0.4,0.2-0.4,0.4v1.8c0,0.2,0.2,0.4,0.4,0.4h3.3V3052z"/>
<path id="Path-114" d="M88.1,3051c1.3,1.1,3,1.7,4.8,1.7c3.1,0,5-2.1,5-4.3c0-2.8-2.4-4.1-4.5-4.9c-1.8-0.7-2.6-1.4-2.6-2.4
	c0.1-0.9,1-1.6,1.9-1.5c1.1,0.2,2.1,0.6,3,1.2c0.3,0.1,0.6,0,0.8-0.3l0.8-1.2c0.2-0.2,0.1-0.6-0.1-0.7c-1.3-0.9-2.8-1.4-4.3-1.4
	c-3.4,0-4.9,2.2-4.9,4.2c0,2.6,2,3.9,4.1,4.7c1.8,0.7,2.8,1.5,2.8,2.6c-0.1,1-0.9,1.7-1.9,1.7c0,0,0,0-0.1,0
	c-1.2-0.2-2.3-0.6-3.3-1.3c-0.2-0.2-0.5-0.1-0.7,0.1c0,0,0,0,0,0.1l-0.8,1.3C87.8,3050.7,87.9,3050.8,88.1,3051z"/>
<path id="Path-115" d="M122.1,3046.7c0,3.3,2.7,6,6,6s6-2.7,6-6v-9c0-0.2-0.2-0.4-0.4-0.4h-2.1c-0.2,0-0.4,0.2-0.4,0.4v8.9
	c0.1,1.7-1.2,3.2-3,3.3s-3.2-1.2-3.3-3c0-0.1,0-0.2,0-0.4v-8.9c0-0.2-0.2-0.4-0.4-0.4h-2.1c-0.2,0-0.4,0.2-0.4,0.4L122.1,3046.7z"/>
<path id="Path-116" d="M4.2,3082.2c0.1,0.2,0.2,0.3,0.4,0.3h0.3c0.2,0,0.3-0.1,0.4-0.2l3.8-9.8h0.1l3.9,9.8c0.1,0.2,0.2,0.3,0.4,0.2
	h0.4c0.2,0,0.3-0.1,0.4-0.3l4.1-14.6c0.1-0.2,0-0.4-0.2-0.5c-0.1,0-0.1,0-0.2,0h-2c-0.2,0-0.3,0.1-0.4,0.3l-2.2,8.6h-0.1l-3.5-8.9
	c-0.1-0.2-0.2-0.3-0.4-0.2H9c-0.2,0-0.3,0.1-0.4,0.2l-3.4,8.9H5.1l-2.2-8.6c-0.1-0.2-0.2-0.3-0.4-0.3h-2c-0.2,0-0.4,0.1-0.4,0.3
	c0,0.1,0,0.1,0,0.2L4.2,3082.2z"/>
<path id="Path-117" d="M44.8,3081.9c0,0.2,0.2,0.4,0.4,0.4h8.8c0.2,0,0.4-0.2,0.4-0.4v-1.8c0-0.2-0.2-0.4-0.4-0.4h-6.4v-3.8H53
	c0.2,0,0.4-0.2,0.4-0.4v-1.8c0-0.2-0.2-0.4-0.4-0.4h-5.3v-3.6h6.4c0.2,0,0.4-0.2,0.4-0.4v-1.8c0-0.2-0.2-0.4-0.4-0.4h-8.8
	c-0.2,0-0.4,0.2-0.4,0.4V3081.9z"/>
<path id="Path-118" d="M109.4,3081.8c-0.1,0.2,0.1,0.4,0.3,0.5c0,0,0.1,0,0.1,0h2c0.2,0,0.3-0.1,0.4-0.3l1.3-8.2h0.1l3.8,8.5
	c0.1,0.1,0.2,0.2,0.4,0.2h0.3c0.2,0,0.3-0.1,0.4-0.2l3.8-8.5h0.1l1.3,8.2c0.1,0.2,0.2,0.3,0.4,0.3h2c0.2,0,0.4-0.1,0.4-0.3
	c0-0.1,0-0.1,0-0.2l-2.6-14.6c0-0.2-0.2-0.3-0.4-0.3H123c-0.2,0-0.3,0.1-0.4,0.2l-4.8,10.2h-0.1l-4.8-10.2c-0.1-0.1-0.2-0.2-0.4-0.2
	h-0.3c-0.2,0-0.4,0.1-0.4,0.3L109.4,3081.8z"/>
<path id="Combined-Shape-18" d="M151.7,3082.3c-0.2,0-0.4-0.1-0.4-0.3c0-0.1,0-0.2,0-0.2l6.7-14.6c0.1-0.1,0.2-0.2,0.4-0.2h0.2
	c0.2,0,0.3,0.1,0.4,0.2l6.7,14.6c0.1,0.2,0,0.4-0.2,0.5c-0.1,0-0.1,0.1-0.2,0h-1.9c-0.3,0-0.5-0.2-0.6-0.4l-1.1-2.3h-6.5l-1.1,2.3
	c-0.1,0.3-0.3,0.4-0.6,0.4H151.7z M156.3,3077.1h4.4l-2.2-4.8h-0.1L156.3,3077.1z"/>
<path id="Path-119" d="M191.7,3081.8c0,0.3,0.2,0.5,0.5,0.5c0,0,0,0,0,0h1.9c0.3,0,0.5-0.2,0.5-0.5v-6.6l5.7,7
	c0.1,0.1,0.2,0.2,0.4,0.1h2.3c0.3,0,0.5-0.2,0.5-0.5c0-0.1,0-0.2-0.1-0.3l-6.1-7.3l5.7-6.4c0.2-0.2,0.2-0.5,0-0.7
	c-0.1-0.1-0.2-0.1-0.3-0.1h-2.2c-0.2,0-0.3,0.1-0.4,0.2l-5.5,6.1v-5.9c0-0.3-0.2-0.5-0.5-0.5h-1.9c-0.3,0-0.5,0.2-0.5,0.5
	c0,0,0,0,0,0L191.7,3081.8z"/>
<path id="Path-120" d="M229.9,3081.9c0,0.2,0.2,0.4,0.4,0.4h8.8c0.2,0,0.4-0.2,0.4-0.4v-1.8c0-0.2-0.2-0.4-0.4-0.4h-6.4v-3.8h5.3
	c0.2,0,0.4-0.2,0.4-0.4v-1.8c0-0.2-0.2-0.4-0.4-0.4h-5.4v-3.6h6.4c0.2,0,0.4-0.2,0.4-0.4v-1.8c0-0.2-0.2-0.4-0.4-0.4h-8.8
	c-0.2,0-0.4,0.2-0.4,0.4L229.9,3081.9z"/>
<path id="Path-121" d="M1.4,3142c0,0.2,0.2,0.4,0.4,0.4h2c0.2,0,0.4-0.2,0.4-0.4v-14.4c0-0.2-0.2-0.4-0.4-0.4h-2
	c-0.2,0-0.4,0.2-0.4,0.4V3142z"/>
<path id="Path-122" d="M31.9,3142c0,0.2,0.2,0.4,0.4,0.4h2c0.2,0,0.4-0.2,0.4-0.4v-12.2h3.3c0.2,0,0.4-0.2,0.4-0.4v-1.8
	c0-0.2-0.2-0.4-0.4-0.4h-9.5c-0.2,0-0.4,0.2-0.4,0.4v1.8c0,0.2,0.2,0.4,0.4,0.4h3.3V3142z"/>
<path id="Path-123" d="M88.1,3141c1.3,1.1,3,1.7,4.8,1.7c3.1,0,5-2.1,5-4.3c0-2.8-2.4-4.1-4.5-4.9c-1.8-0.7-2.6-1.4-2.6-2.4
	c0.1-0.9,1-1.6,1.9-1.5c1.1,0.2,2.1,0.6,3,1.2c0.3,0.1,0.6,0,0.8-0.3l0.8-1.2c0.2-0.2,0.1-0.6-0.1-0.7c-1.3-0.9-2.8-1.4-4.3-1.4
	c-3.4,0-4.9,2.2-4.9,4.2c0,2.6,2,3.9,4.1,4.7c1.8,0.7,2.8,1.5,2.8,2.6c-0.1,1-0.9,1.7-1.9,1.7c0,0,0,0-0.1,0
	c-1.2-0.2-2.3-0.6-3.3-1.3c-0.2-0.2-0.5-0.1-0.7,0.1c0,0,0,0,0,0.1l-0.8,1.3C87.8,3140.7,87.9,3140.8,88.1,3141z"/>
<path id="Path-124" d="M122.1,3136.7c0,3.3,2.7,6,6,6s6-2.7,6-6v-9c0-0.2-0.2-0.4-0.4-0.4h-2.1c-0.2,0-0.4,0.2-0.4,0.4v8.9
	c0.1,1.7-1.2,3.2-3,3.3s-3.2-1.2-3.3-3c0-0.1,0-0.2,0-0.4v-8.9c0-0.2-0.2-0.4-0.4-0.4h-2.1c-0.2,0-0.4,0.2-0.4,0.4L122.1,3136.7z"/>
<path id="Path-125" d="M4.2,3172.2c0.1,0.2,0.2,0.3,0.4,0.3h0.3c0.2,0,0.3-0.1,0.4-0.2l3.8-9.8h0.1l3.9,9.8c0.1,0.2,0.2,0.3,0.4,0.2
	h0.4c0.2,0,0.3-0.1,0.4-0.3l4.1-14.6c0.1-0.2,0-0.4-0.2-0.5c-0.1,0-0.1,0-0.2,0h-2c-0.2,0-0.3,0.1-0.4,0.3l-2.2,8.6h-0.1l-3.5-8.9
	c-0.1-0.2-0.2-0.3-0.4-0.2H9c-0.2,0-0.3,0.1-0.4,0.2l-3.4,8.9H5.1l-2.2-8.6c-0.1-0.2-0.2-0.3-0.4-0.3h-2c-0.2,0-0.4,0.1-0.4,0.3
	c0,0.1,0,0.1,0,0.2L4.2,3172.2z"/>
<path id="Path-126" d="M44.8,3171.9c0,0.2,0.2,0.4,0.4,0.4h8.8c0.2,0,0.4-0.2,0.4-0.4v-1.8c0-0.2-0.2-0.4-0.4-0.4h-6.4v-3.8H53
	c0.2,0,0.4-0.2,0.4-0.4v-1.8c0-0.2-0.2-0.4-0.4-0.4h-5.3v-3.6h6.4c0.2,0,0.4-0.2,0.4-0.4v-1.8c0-0.2-0.2-0.4-0.4-0.4h-8.8
	c-0.2,0-0.4,0.2-0.4,0.4V3171.9z"/>
<path id="Path-127" d="M109.4,3171.8c-0.1,0.2,0.1,0.4,0.3,0.5c0,0,0.1,0,0.1,0h2c0.2,0,0.3-0.1,0.4-0.3l1.3-8.2h0.1l3.8,8.5
	c0.1,0.1,0.2,0.2,0.4,0.2h0.3c0.2,0,0.3-0.1,0.4-0.2l3.8-8.5h0.1l1.3,8.2c0.1,0.2,0.2,0.3,0.4,0.3h2c0.2,0,0.4-0.1,0.4-0.3
	c0-0.1,0-0.1,0-0.2l-2.6-14.6c0-0.2-0.2-0.3-0.4-0.3H123c-0.2,0-0.3,0.1-0.4,0.2l-4.8,10.2h-0.1l-4.8-10.2c-0.1-0.1-0.2-0.2-0.4-0.2
	h-0.3c-0.2,0-0.4,0.1-0.4,0.3L109.4,3171.8z"/>
<path id="Combined-Shape-19" d="M151.7,3172.3c-0.2,0-0.4-0.1-0.4-0.3c0-0.1,0-0.2,0-0.2l6.7-14.6c0.1-0.1,0.2-0.2,0.4-0.2h0.2
	c0.2,0,0.3,0.1,0.4,0.2l6.7,14.6c0.1,0.2,0,0.4-0.2,0.5c-0.1,0-0.1,0.1-0.2,0h-1.9c-0.3,0-0.5-0.2-0.6-0.4l-1.1-2.3h-6.5l-1.1,2.3
	c-0.1,0.3-0.3,0.4-0.6,0.4H151.7z M156.3,3167.1h4.4l-2.2-4.8h-0.1L156.3,3167.1z"/>
<path id="Path-128" d="M191.7,3171.8c0,0.3,0.2,0.5,0.5,0.5c0,0,0,0,0,0h1.9c0.3,0,0.5-0.2,0.5-0.5v-6.6l5.7,7
	c0.1,0.1,0.2,0.2,0.4,0.1h2.3c0.3,0,0.5-0.2,0.5-0.5c0-0.1,0-0.2-0.1-0.3l-6.1-7.3l5.7-6.4c0.2-0.2,0.2-0.5,0-0.7
	c-0.1-0.1-0.2-0.1-0.3-0.1h-2.2c-0.2,0-0.3,0.1-0.4,0.2l-5.5,6.1v-5.9c0-0.3-0.2-0.5-0.5-0.5h-1.9c-0.3,0-0.5,0.2-0.5,0.5
	c0,0,0,0,0,0L191.7,3171.8z"/>
<path id="Path-129" d="M229.9,3171.9c0,0.2,0.2,0.4,0.4,0.4h8.8c0.2,0,0.4-0.2,0.4-0.4v-1.8c0-0.2-0.2-0.4-0.4-0.4h-6.4v-3.8h5.3
	c0.2,0,0.4-0.2,0.4-0.4v-1.8c0-0.2-0.2-0.4-0.4-0.4h-5.4v-3.6h6.4c0.2,0,0.4-0.2,0.4-0.4v-1.8c0-0.2-0.2-0.4-0.4-0.4h-8.8
	c-0.2,0-0.4,0.2-0.4,0.4L229.9,3171.9z"/>
<path id="Path-130" d="M1.4,3232c0,0.2,0.2,0.4,0.4,0.4h2c0.2,0,0.4-0.2,0.4-0.4v-14.4c0-0.2-0.2-0.4-0.4-0.4h-2
	c-0.2,0-0.4,0.2-0.4,0.4V3232z"/>
<path id="Path-131" d="M31.9,3232c0,0.2,0.2,0.4,0.4,0.4h2c0.2,0,0.4-0.2,0.4-0.4v-12.2h3.3c0.2,0,0.4-0.2,0.4-0.4v-1.8
	c0-0.2-0.2-0.4-0.4-0.4h-9.5c-0.2,0-0.4,0.2-0.4,0.4v1.8c0,0.2,0.2,0.4,0.4,0.4h3.3V3232z"/>
<path id="Path-132" d="M88.1,3231c1.3,1.1,3,1.7,4.8,1.7c3.1,0,5-2.1,5-4.3c0-2.8-2.4-4.1-4.5-4.9c-1.8-0.7-2.6-1.4-2.6-2.4
	c0.1-0.9,1-1.6,1.9-1.5c1.1,0.2,2.1,0.6,3,1.2c0.3,0.1,0.6,0,0.8-0.3l0.8-1.2c0.2-0.2,0.1-0.6-0.1-0.7c-1.3-0.9-2.8-1.4-4.3-1.4
	c-3.4,0-4.9,2.2-4.9,4.2c0,2.6,2,3.9,4.1,4.7c1.8,0.7,2.8,1.5,2.8,2.6c-0.1,1-0.9,1.7-1.9,1.7c0,0,0,0-0.1,0
	c-1.2-0.2-2.3-0.6-3.3-1.3c-0.2-0.2-0.5-0.1-0.7,0.1c0,0,0,0,0,0.1l-0.8,1.3C87.8,3230.7,87.9,3230.8,88.1,3231z"/>
<path id="Path-133" d="M122.1,3226.7c0,3.3,2.7,6,6,6s6-2.7,6-6v-9c0-0.2-0.2-0.4-0.4-0.4h-2.1c-0.2,0-0.4,0.2-0.4,0.4v8.9
	c0.1,1.7-1.2,3.2-3,3.3s-3.2-1.2-3.3-3c0-0.1,0-0.2,0-0.4v-8.9c0-0.2-0.2-0.4-0.4-0.4h-2.1c-0.2,0-0.4,0.2-0.4,0.4L122.1,3226.7z"/>
<path id="Path-134" d="M4.2,3262.2c0.1,0.2,0.2,0.3,0.4,0.3h0.3c0.2,0,0.3-0.1,0.4-0.2l3.8-9.8h0.1l3.9,9.8c0.1,0.2,0.2,0.3,0.4,0.2
	h0.4c0.2,0,0.3-0.1,0.4-0.3l4.1-14.6c0.1-0.2,0-0.4-0.2-0.5c-0.1,0-0.1,0-0.2,0h-2c-0.2,0-0.3,0.1-0.4,0.3l-2.2,8.6h-0.1l-3.5-8.9
	c-0.1-0.2-0.2-0.3-0.4-0.2H9c-0.2,0-0.3,0.1-0.4,0.2l-3.4,8.9H5.1l-2.2-8.6c-0.1-0.2-0.2-0.3-0.4-0.3h-2c-0.2,0-0.4,0.1-0.4,0.3
	c0,0.1,0,0.1,0,0.2L4.2,3262.2z"/>
<path id="Path-135" d="M44.8,3261.9c0,0.2,0.2,0.4,0.4,0.4h8.8c0.2,0,0.4-0.2,0.4-0.4v-1.8c0-0.2-0.2-0.4-0.4-0.4h-6.4v-3.8H53
	c0.2,0,0.4-0.2,0.4-0.4v-1.8c0-0.2-0.2-0.4-0.4-0.4h-5.3v-3.6h6.4c0.2,0,0.4-0.2,0.4-0.4v-1.8c0-0.2-0.2-0.4-0.4-0.4h-8.8
	c-0.2,0-0.4,0.2-0.4,0.4V3261.9z"/>
<path id="Path-136" d="M109.4,3261.8c-0.1,0.2,0.1,0.4,0.3,0.5c0,0,0.1,0,0.1,0h2c0.2,0,0.3-0.1,0.4-0.3l1.3-8.2h0.1l3.8,8.5
	c0.1,0.1,0.2,0.2,0.4,0.2h0.3c0.2,0,0.3-0.1,0.4-0.2l3.8-8.5h0.1l1.3,8.2c0.1,0.2,0.2,0.3,0.4,0.3h2c0.2,0,0.4-0.1,0.4-0.3
	c0-0.1,0-0.1,0-0.2l-2.6-14.6c0-0.2-0.2-0.3-0.4-0.3H123c-0.2,0-0.3,0.1-0.4,0.2l-4.8,10.2h-0.1l-4.8-10.2c-0.1-0.1-0.2-0.2-0.4-0.2
	h-0.3c-0.2,0-0.4,0.1-0.4,0.3L109.4,3261.8z"/>
<path id="Combined-Shape-20" d="M151.7,3262.3c-0.2,0-0.4-0.1-0.4-0.3c0-0.1,0-0.2,0-0.2l6.7-14.6c0.1-0.1,0.2-0.2,0.4-0.2h0.2
	c0.2,0,0.3,0.1,0.4,0.2l6.7,14.6c0.1,0.2,0,0.4-0.2,0.5c-0.1,0-0.1,0.1-0.2,0h-1.9c-0.3,0-0.5-0.2-0.6-0.4l-1.1-2.3h-6.5l-1.1,2.3
	c-0.1,0.3-0.3,0.4-0.6,0.4H151.7z M156.3,3257.1h4.4l-2.2-4.8h-0.1L156.3,3257.1z"/>
<path id="Path-137" d="M191.7,3261.8c0,0.3,0.2,0.5,0.5,0.5c0,0,0,0,0,0h1.9c0.3,0,0.5-0.2,0.5-0.5v-6.6l5.7,7
	c0.1,0.1,0.2,0.2,0.4,0.1h2.3c0.3,0,0.5-0.2,0.5-0.5c0-0.1,0-0.2-0.1-0.3l-6.1-7.3l5.7-6.4c0.2-0.2,0.2-0.5,0-0.7
	c-0.1-0.1-0.2-0.1-0.3-0.1h-2.2c-0.2,0-0.3,0.1-0.4,0.2l-5.5,6.1v-5.9c0-0.3-0.2-0.5-0.5-0.5h-1.9c-0.3,0-0.5,0.2-0.5,0.5
	c0,0,0,0,0,0L191.7,3261.8z"/>
<path id="Path-138" d="M229.9,3261.9c0,0.2,0.2,0.4,0.4,0.4h8.8c0.2,0,0.4-0.2,0.4-0.4v-1.8c0-0.2-0.2-0.4-0.4-0.4h-6.4v-3.8h5.3
	c0.2,0,0.4-0.2,0.4-0.4v-1.8c0-0.2-0.2-0.4-0.4-0.4h-5.4v-3.6h6.4c0.2,0,0.4-0.2,0.4-0.4v-1.8c0-0.2-0.2-0.4-0.4-0.4h-8.8
	c-0.2,0-0.4,0.2-0.4,0.4L229.9,3261.9z"/>
<path id="Path-139" d="M1.4,3322c0,0.2,0.2,0.4,0.4,0.4h2c0.2,0,0.4-0.2,0.4-0.4v-14.4c0-0.2-0.2-0.4-0.4-0.4h-2
	c-0.2,0-0.4,0.2-0.4,0.4V3322z"/>
<path id="Path-140" d="M31.9,3322c0,0.2,0.2,0.4,0.4,0.4h2c0.2,0,0.4-0.2,0.4-0.4v-12.2h3.3c0.2,0,0.4-0.2,0.4-0.4v-1.8
	c0-0.2-0.2-0.4-0.4-0.4h-9.5c-0.2,0-0.4,0.2-0.4,0.4v1.8c0,0.2,0.2,0.4,0.4,0.4h3.3V3322z"/>
<path id="Path-141" d="M88.1,3321c1.3,1.1,3,1.7,4.8,1.7c3.1,0,5-2.1,5-4.3c0-2.8-2.4-4.1-4.5-4.9c-1.8-0.7-2.6-1.4-2.6-2.4
	c0.1-0.9,1-1.6,1.9-1.5c1.1,0.2,2.1,0.6,3,1.2c0.3,0.1,0.6,0,0.8-0.3l0.8-1.2c0.2-0.2,0.1-0.6-0.1-0.7c-1.3-0.9-2.8-1.4-4.3-1.4
	c-3.4,0-4.9,2.2-4.9,4.2c0,2.6,2,3.9,4.1,4.7c1.8,0.7,2.8,1.5,2.8,2.6c-0.1,1-0.9,1.7-1.9,1.7c0,0,0,0-0.1,0
	c-1.2-0.2-2.3-0.6-3.3-1.3c-0.2-0.2-0.5-0.1-0.7,0.1c0,0,0,0,0,0.1l-0.8,1.3C87.8,3320.7,87.9,3320.8,88.1,3321z"/>
<path id="Path-142" d="M122.1,3316.7c0,3.3,2.7,6,6,6s6-2.7,6-6v-9c0-0.2-0.2-0.4-0.4-0.4h-2.1c-0.2,0-0.4,0.2-0.4,0.4v8.9
	c0.1,1.7-1.2,3.2-3,3.3s-3.2-1.2-3.3-3c0-0.1,0-0.2,0-0.4v-8.9c0-0.2-0.2-0.4-0.4-0.4h-2.1c-0.2,0-0.4,0.2-0.4,0.4L122.1,3316.7z"/>
<path id="Combined-Shape-21" d="M159.5,3322v-14.4c0-0.2,0.2-0.4,0.4-0.4h5.1c2.7,0,4.8,2.1,4.9,4.8s-2.1,4.8-4.8,4.9c0,0,0,0,0,0
	h-2.7v5.1c0,0.2-0.2,0.4-0.4,0.4h-2C159.7,3322.4,159.5,3322.2,159.5,3322z M162.4,3314.3h2.5c1.2,0,2.2-1,2.2-2.2c0,0,0,0,0,0
	c0-1.2-1-2.1-2.2-2.1c0,0,0,0,0,0h-2.5V3314.3z"/>
<path id="path-137-2" d="M12.9,3254.9L12.9,3254.9L12.9,3254.9L12.9,3254.9z"/>
<path id="Path-143" d="M4.2,3352.2c0.1,0.2,0.2,0.3,0.4,0.3h0.3c0.2,0,0.3-0.1,0.4-0.2l3.8-9.8h0.1l3.9,9.8c0.1,0.2,0.2,0.3,0.4,0.2
	h0.4c0.2,0,0.3-0.1,0.4-0.3l4.1-14.6c0.1-0.2,0-0.4-0.2-0.5c-0.1,0-0.1,0-0.2,0h-2c-0.2,0-0.3,0.1-0.4,0.3l-2.2,8.6h-0.1l-3.5-8.9
	c-0.1-0.2-0.2-0.3-0.4-0.2H9c-0.2,0-0.3,0.1-0.4,0.2l-3.4,8.9H5.1l-2.2-8.6c-0.1-0.2-0.2-0.3-0.4-0.3h-2c-0.2,0-0.4,0.1-0.4,0.3
	c0,0.1,0,0.1,0,0.2L4.2,3352.2z"/>
<path id="Path-144" d="M44.8,3351.9c0,0.2,0.2,0.4,0.4,0.4h8.8c0.2,0,0.4-0.2,0.4-0.4v-1.8c0-0.2-0.2-0.4-0.4-0.4h-6.4v-3.8H53
	c0.2,0,0.4-0.2,0.4-0.4v-1.8c0-0.2-0.2-0.4-0.4-0.4h-5.3v-3.6h6.4c0.2,0,0.4-0.2,0.4-0.4v-1.8c0-0.2-0.2-0.4-0.4-0.4h-8.8
	c-0.2,0-0.4,0.2-0.4,0.4V3351.9z"/>
<path id="Path-145" d="M109.4,3351.8c-0.1,0.2,0.1,0.4,0.3,0.5c0,0,0.1,0,0.1,0h2c0.2,0,0.3-0.1,0.4-0.3l1.3-8.2h0.1l3.8,8.5
	c0.1,0.1,0.2,0.2,0.4,0.2h0.3c0.2,0,0.3-0.1,0.4-0.2l3.8-8.5h0.1l1.3,8.2c0.1,0.2,0.2,0.3,0.4,0.3h2c0.2,0,0.4-0.1,0.4-0.3
	c0-0.1,0-0.1,0-0.2l-2.6-14.6c0-0.2-0.2-0.3-0.4-0.3H123c-0.2,0-0.3,0.1-0.4,0.2l-4.8,10.2h-0.1l-4.8-10.2c-0.1-0.1-0.2-0.2-0.4-0.2
	h-0.3c-0.2,0-0.4,0.1-0.4,0.3L109.4,3351.8z"/>
<path id="Combined-Shape-22" d="M151.7,3352.3c-0.2,0-0.4-0.1-0.4-0.3c0-0.1,0-0.2,0-0.2l6.7-14.6c0.1-0.1,0.2-0.2,0.4-0.2h0.2
	c0.2,0,0.3,0.1,0.4,0.2l6.7,14.6c0.1,0.2,0,0.4-0.2,0.5c-0.1,0-0.1,0.1-0.2,0h-1.9c-0.3,0-0.5-0.2-0.6-0.4l-1.1-2.3h-6.5l-1.1,2.3
	c-0.1,0.3-0.3,0.4-0.6,0.4H151.7z M156.3,3347.1h4.4l-2.2-4.8h-0.1L156.3,3347.1z"/>
<path id="Path-146" d="M191.7,3351.8c0,0.3,0.2,0.5,0.5,0.5c0,0,0,0,0,0h1.9c0.3,0,0.5-0.2,0.5-0.5v-6.6l5.7,7
	c0.1,0.1,0.2,0.2,0.4,0.1h2.3c0.3,0,0.5-0.2,0.5-0.5c0-0.1,0-0.2-0.1-0.3l-6.1-7.3l5.7-6.4c0.2-0.2,0.2-0.5,0-0.7
	c-0.1-0.1-0.2-0.1-0.3-0.1h-2.2c-0.2,0-0.3,0.1-0.4,0.2l-5.5,6.1v-5.9c0-0.3-0.2-0.5-0.5-0.5h-1.9c-0.3,0-0.5,0.2-0.5,0.5
	c0,0,0,0,0,0L191.7,3351.8z"/>
<path id="Path-147" d="M229.9,3351.9c0,0.2,0.2,0.4,0.4,0.4h8.8c0.2,0,0.4-0.2,0.4-0.4v-1.8c0-0.2-0.2-0.4-0.4-0.4h-6.4v-3.8h5.3
	c0.2,0,0.4-0.2,0.4-0.4v-1.8c0-0.2-0.2-0.4-0.4-0.4h-5.4v-3.6h6.4c0.2,0,0.4-0.2,0.4-0.4v-1.8c0-0.2-0.2-0.4-0.4-0.4h-8.8
	c-0.2,0-0.4,0.2-0.4,0.4L229.9,3351.9z"/>
<path id="Path-148" d="M1.4,3412c0,0.2,0.2,0.4,0.4,0.4h2c0.2,0,0.4-0.2,0.4-0.4v-14.4c0-0.2-0.2-0.4-0.4-0.4h-2
	c-0.2,0-0.4,0.2-0.4,0.4V3412z"/>
<path id="Path-149" d="M31.9,3412c0,0.2,0.2,0.4,0.4,0.4h2c0.2,0,0.4-0.2,0.4-0.4v-12.2h3.3c0.2,0,0.4-0.2,0.4-0.4v-1.8
	c0-0.2-0.2-0.4-0.4-0.4h-9.5c-0.2,0-0.4,0.2-0.4,0.4v1.8c0,0.2,0.2,0.4,0.4,0.4h3.3V3412z"/>
<path id="Path-150" d="M88.1,3411c1.3,1.1,3,1.7,4.8,1.7c3.1,0,5-2.1,5-4.3c0-2.8-2.4-4.1-4.5-4.9c-1.8-0.7-2.6-1.4-2.6-2.4
	c0.1-0.9,1-1.6,1.9-1.5c1.1,0.2,2.1,0.6,3,1.2c0.3,0.1,0.6,0,0.8-0.3l0.8-1.2c0.2-0.2,0.1-0.6-0.1-0.7c-1.3-0.9-2.8-1.4-4.3-1.4
	c-3.4,0-4.9,2.2-4.9,4.2c0,2.6,2,3.9,4.1,4.7c1.8,0.7,2.8,1.5,2.8,2.6c-0.1,1-0.9,1.7-1.9,1.7c0,0,0,0-0.1,0
	c-1.2-0.2-2.3-0.6-3.3-1.3c-0.2-0.2-0.5-0.1-0.7,0.1c0,0,0,0,0,0.1l-0.8,1.3C87.8,3410.7,87.9,3410.8,88.1,3411z"/>
<path id="Path-151" d="M122.1,3406.7c0,3.3,2.7,6,6,6s6-2.7,6-6v-9c0-0.2-0.2-0.4-0.4-0.4h-2.1c-0.2,0-0.4,0.2-0.4,0.4v8.9
	c0.1,1.7-1.2,3.2-3,3.3s-3.2-1.2-3.3-3c0-0.1,0-0.2,0-0.4v-8.9c0-0.2-0.2-0.4-0.4-0.4h-2.1c-0.2,0-0.4,0.2-0.4,0.4L122.1,3406.7z"/>
<path id="Combined-Shape-23" d="M159.5,3412v-14.4c0-0.2,0.2-0.4,0.4-0.4h5.1c2.7,0,4.8,2.1,4.9,4.8s-2.1,4.8-4.8,4.9c0,0,0,0,0,0
	h-2.7v5.1c0,0.2-0.2,0.4-0.4,0.4h-2C159.7,3412.4,159.5,3412.2,159.5,3412z M162.4,3404.3h2.5c1.2,0,2.2-1,2.2-2.2c0,0,0,0,0,0
	c0-1.2-1-2.1-2.2-2.1c0,0,0,0,0,0h-2.5V3404.3z"/>
<path id="Path-152" d="M4.2,3442.2c0.1,0.2,0.2,0.3,0.4,0.3h0.3c0.2,0,0.3-0.1,0.4-0.2l3.8-9.8h0.1l3.9,9.8c0.1,0.2,0.2,0.3,0.4,0.2
	h0.4c0.2,0,0.3-0.1,0.4-0.3l4.1-14.6c0.1-0.2,0-0.4-0.2-0.5c-0.1,0-0.1,0-0.2,0h-2c-0.2,0-0.3,0.1-0.4,0.3l-2.2,8.6h-0.1l-3.5-8.9
	c-0.1-0.2-0.2-0.3-0.4-0.2H9c-0.2,0-0.3,0.1-0.4,0.2l-3.4,8.9H5.1l-2.2-8.6c-0.1-0.2-0.2-0.3-0.4-0.3h-2c-0.2,0-0.4,0.1-0.4,0.3
	c0,0.1,0,0.1,0,0.2L4.2,3442.2z"/>
<path id="Path-153" d="M44.8,3441.9c0,0.2,0.2,0.4,0.4,0.4h8.8c0.2,0,0.4-0.2,0.4-0.4v-1.8c0-0.2-0.2-0.4-0.4-0.4h-6.4v-3.8H53
	c0.2,0,0.4-0.2,0.4-0.4v-1.8c0-0.2-0.2-0.4-0.4-0.4h-5.3v-3.6h6.4c0.2,0,0.4-0.2,0.4-0.4v-1.8c0-0.2-0.2-0.4-0.4-0.4h-8.8
	c-0.2,0-0.4,0.2-0.4,0.4V3441.9z"/>
<path id="Path-154" d="M109.4,3441.8c-0.1,0.2,0.1,0.4,0.3,0.5c0,0,0.1,0,0.1,0h2c0.2,0,0.3-0.1,0.4-0.3l1.3-8.2h0.1l3.8,8.5
	c0.1,0.1,0.2,0.2,0.4,0.2h0.3c0.2,0,0.3-0.1,0.4-0.2l3.8-8.5h0.1l1.3,8.2c0.1,0.2,0.2,0.3,0.4,0.3h2c0.2,0,0.4-0.1,0.4-0.3
	c0-0.1,0-0.1,0-0.2l-2.6-14.6c0-0.2-0.2-0.3-0.4-0.3H123c-0.2,0-0.3,0.1-0.4,0.2l-4.8,10.2h-0.1l-4.8-10.2c-0.1-0.1-0.2-0.2-0.4-0.2
	h-0.3c-0.2,0-0.4,0.1-0.4,0.3L109.4,3441.8z"/>
<path id="Combined-Shape-24" d="M151.7,3442.3c-0.2,0-0.4-0.1-0.4-0.3c0-0.1,0-0.2,0-0.2l6.7-14.6c0.1-0.1,0.2-0.2,0.4-0.2h0.2
	c0.2,0,0.3,0.1,0.4,0.2l6.7,14.6c0.1,0.2,0,0.4-0.2,0.5c-0.1,0-0.1,0.1-0.2,0h-1.9c-0.3,0-0.5-0.2-0.6-0.4l-1.1-2.3h-6.5l-1.1,2.3
	c-0.1,0.3-0.3,0.4-0.6,0.4H151.7z M156.3,3437.1h4.4l-2.2-4.8h-0.1L156.3,3437.1z"/>
<path id="Path-155" d="M191.7,3441.8c0,0.3,0.2,0.5,0.5,0.5c0,0,0,0,0,0h1.9c0.3,0,0.5-0.2,0.5-0.5v-6.6l5.7,7
	c0.1,0.1,0.2,0.2,0.4,0.1h2.3c0.3,0,0.5-0.2,0.5-0.5c0-0.1,0-0.2-0.1-0.3l-6.1-7.3l5.7-6.4c0.2-0.2,0.2-0.5,0-0.7
	c-0.1-0.1-0.2-0.1-0.3-0.1h-2.2c-0.2,0-0.3,0.1-0.4,0.2l-5.5,6.1v-5.9c0-0.3-0.2-0.5-0.5-0.5h-1.9c-0.3,0-0.5,0.2-0.5,0.5
	c0,0,0,0,0,0L191.7,3441.8z"/>
<path id="Path-156" d="M229.9,3441.9c0,0.2,0.2,0.4,0.4,0.4h8.8c0.2,0,0.4-0.2,0.4-0.4v-1.8c0-0.2-0.2-0.4-0.4-0.4h-6.4v-3.8h5.3
	c0.2,0,0.4-0.2,0.4-0.4v-1.8c0-0.2-0.2-0.4-0.4-0.4h-5.4v-3.6h6.4c0.2,0,0.4-0.2,0.4-0.4v-1.8c0-0.2-0.2-0.4-0.4-0.4h-8.8
	c-0.2,0-0.4,0.2-0.4,0.4L229.9,3441.9z"/>
<path id="Path-157" d="M1.4,3502c0,0.2,0.2,0.4,0.4,0.4h2c0.2,0,0.4-0.2,0.4-0.4v-14.4c0-0.2-0.2-0.4-0.4-0.4h-2
	c-0.2,0-0.4,0.2-0.4,0.4V3502z"/>
<path id="Path-158" d="M31.9,3502c0,0.2,0.2,0.4,0.4,0.4h2c0.2,0,0.4-0.2,0.4-0.4v-12.2h3.3c0.2,0,0.4-0.2,0.4-0.4v-1.8
	c0-0.2-0.2-0.4-0.4-0.4h-9.5c-0.2,0-0.4,0.2-0.4,0.4v1.8c0,0.2,0.2,0.4,0.4,0.4h3.3V3502z"/>
<path id="Path-159" d="M88.1,3501c1.3,1.1,3,1.7,4.8,1.7c3.1,0,5-2.1,5-4.3c0-2.8-2.4-4.1-4.5-4.9c-1.8-0.7-2.6-1.4-2.6-2.4
	c0.1-0.9,1-1.6,1.9-1.5c1.1,0.2,2.1,0.6,3,1.2c0.3,0.1,0.6,0,0.8-0.3l0.8-1.2c0.2-0.2,0.1-0.6-0.1-0.7c-1.3-0.9-2.8-1.4-4.3-1.4
	c-3.4,0-4.9,2.2-4.9,4.2c0,2.6,2,3.9,4.1,4.7c1.8,0.7,2.8,1.5,2.8,2.6c-0.1,1-0.9,1.7-1.9,1.7c0,0,0,0-0.1,0
	c-1.2-0.2-2.3-0.6-3.3-1.3c-0.2-0.2-0.5-0.1-0.7,0.1c0,0,0,0,0,0.1l-0.8,1.3C87.8,3500.7,87.9,3500.8,88.1,3501z"/>
<path id="Path-160" d="M122.1,3496.7c0,3.3,2.7,6,6,6s6-2.7,6-6v-9c0-0.2-0.2-0.4-0.4-0.4h-2.1c-0.2,0-0.4,0.2-0.4,0.4v8.9
	c0.1,1.7-1.2,3.2-3,3.3s-3.2-1.2-3.3-3c0-0.1,0-0.2,0-0.4v-8.9c0-0.2-0.2-0.4-0.4-0.4h-2.1c-0.2,0-0.4,0.2-0.4,0.4L122.1,3496.7z"/>
<path id="Combined-Shape-25" d="M159.5,3502v-14.4c0-0.2,0.2-0.4,0.4-0.4h5.1c2.7,0,4.8,2.1,4.9,4.8s-2.1,4.8-4.8,4.9c0,0,0,0,0,0
	h-2.7v5.1c0,0.2-0.2,0.4-0.4,0.4h-2C159.7,3502.4,159.5,3502.2,159.5,3502z M162.4,3494.3h2.5c1.2,0,2.2-1,2.2-2.2c0,0,0,0,0,0
	c0-1.2-1-2.1-2.2-2.1c0,0,0,0,0,0h-2.5V3494.3z"/>
<path d="M203.3,3487.3h-8.8c-0.2,0-0.4,0.2-0.4,0.4v11.3c0.8,0.5,1.9,0.3,2.5-0.5c0.2-0.3,0.3-0.6,0.3-1v-7.3l0,0v-0.3h6.4
	c0.2,0,0.4-0.2,0.4-0.4v-1.8C203.6,3487.5,203.5,3487.3,203.3,3487.3z"/>
<path id="Path-161" d="M4.2,3532.2c0.1,0.2,0.2,0.3,0.4,0.3h0.3c0.2,0,0.3-0.1,0.4-0.2l3.8-9.8h0.1l3.9,9.8c0.1,0.2,0.2,0.3,0.4,0.2
	h0.4c0.2,0,0.3-0.1,0.4-0.3l4.1-14.6c0.1-0.2,0-0.4-0.2-0.5c-0.1,0-0.1,0-0.2,0h-2c-0.2,0-0.3,0.1-0.4,0.3l-2.2,8.6h-0.1l-3.5-8.9
	c-0.1-0.2-0.2-0.3-0.4-0.2H9c-0.2,0-0.3,0.1-0.4,0.2l-3.4,8.9H5.1l-2.2-8.6c-0.1-0.2-0.2-0.3-0.4-0.3h-2c-0.2,0-0.4,0.1-0.4,0.3
	c0,0.1,0,0.1,0,0.2L4.2,3532.2z"/>
<path id="Path-162" d="M44.8,3531.9c0,0.2,0.2,0.4,0.4,0.4h8.8c0.2,0,0.4-0.2,0.4-0.4v-1.8c0-0.2-0.2-0.4-0.4-0.4h-6.4v-3.8H53
	c0.2,0,0.4-0.2,0.4-0.4v-1.8c0-0.2-0.2-0.4-0.4-0.4h-5.3v-3.6h6.4c0.2,0,0.4-0.2,0.4-0.4v-1.8c0-0.2-0.2-0.4-0.4-0.4h-8.8
	c-0.2,0-0.4,0.2-0.4,0.4V3531.9z"/>
<path id="Path-163" d="M109.4,3531.8c-0.1,0.2,0.1,0.4,0.3,0.5c0,0,0.1,0,0.1,0h2c0.2,0,0.3-0.1,0.4-0.3l1.3-8.2h0.1l3.8,8.5
	c0.1,0.1,0.2,0.2,0.4,0.2h0.3c0.2,0,0.3-0.1,0.4-0.2l3.8-8.5h0.1l1.3,8.2c0.1,0.2,0.2,0.3,0.4,0.3h2c0.2,0,0.4-0.1,0.4-0.3
	c0-0.1,0-0.1,0-0.2l-2.6-14.6c0-0.2-0.2-0.3-0.4-0.3H123c-0.2,0-0.3,0.1-0.4,0.2l-4.8,10.2h-0.1l-4.8-10.2c-0.1-0.1-0.2-0.2-0.4-0.2
	h-0.3c-0.2,0-0.4,0.1-0.4,0.3L109.4,3531.8z"/>
<path id="Combined-Shape-26" d="M151.7,3532.3c-0.2,0-0.4-0.1-0.4-0.3c0-0.1,0-0.2,0-0.2l6.7-14.6c0.1-0.1,0.2-0.2,0.4-0.2h0.2
	c0.2,0,0.3,0.1,0.4,0.2l6.7,14.6c0.1,0.2,0,0.4-0.2,0.5c-0.1,0-0.1,0.1-0.2,0h-1.9c-0.3,0-0.5-0.2-0.6-0.4l-1.1-2.3h-6.5l-1.1,2.3
	c-0.1,0.3-0.3,0.4-0.6,0.4H151.7z M156.3,3527.1h4.4l-2.2-4.8h-0.1L156.3,3527.1z"/>
<path id="Path-164" d="M191.7,3531.8c0,0.3,0.2,0.5,0.5,0.5c0,0,0,0,0,0h1.9c0.3,0,0.5-0.2,0.5-0.5v-6.6l5.7,7
	c0.1,0.1,0.2,0.2,0.4,0.1h2.3c0.3,0,0.5-0.2,0.5-0.5c0-0.1,0-0.2-0.1-0.3l-6.1-7.3l5.7-6.4c0.2-0.2,0.2-0.5,0-0.7
	c-0.1-0.1-0.2-0.1-0.3-0.1h-2.2c-0.2,0-0.3,0.1-0.4,0.2l-5.5,6.1v-5.9c0-0.3-0.2-0.5-0.5-0.5h-1.9c-0.3,0-0.5,0.2-0.5,0.5
	c0,0,0,0,0,0L191.7,3531.8z"/>
<path id="Path-165" d="M229.9,3531.9c0,0.2,0.2,0.4,0.4,0.4h8.8c0.2,0,0.4-0.2,0.4-0.4v-1.8c0-0.2-0.2-0.4-0.4-0.4h-6.4v-3.8h5.3
	c0.2,0,0.4-0.2,0.4-0.4v-1.8c0-0.2-0.2-0.4-0.4-0.4h-5.4v-3.6h6.4c0.2,0,0.4-0.2,0.4-0.4v-1.8c0-0.2-0.2-0.4-0.4-0.4h-8.8
	c-0.2,0-0.4,0.2-0.4,0.4L229.9,3531.9z"/>
<path id="Path-166" d="M1.4,3592c0,0.2,0.2,0.4,0.4,0.4h2c0.2,0,0.4-0.2,0.4-0.4v-14.4c0-0.2-0.2-0.4-0.4-0.4h-2
	c-0.2,0-0.4,0.2-0.4,0.4V3592z"/>
<path id="Path-167" d="M31.9,3592c0,0.2,0.2,0.4,0.4,0.4h2c0.2,0,0.4-0.2,0.4-0.4v-12.2h3.3c0.2,0,0.4-0.2,0.4-0.4v-1.8
	c0-0.2-0.2-0.4-0.4-0.4h-9.5c-0.2,0-0.4,0.2-0.4,0.4v1.8c0,0.2,0.2,0.4,0.4,0.4h3.3V3592z"/>
<path id="Path-168" d="M88.1,3591c1.3,1.1,3,1.7,4.8,1.7c3.1,0,5-2.1,5-4.3c0-2.8-2.4-4.1-4.5-4.9c-1.8-0.7-2.6-1.4-2.6-2.4
	c0.1-0.9,1-1.6,1.9-1.5c1.1,0.2,2.1,0.6,3,1.2c0.3,0.1,0.6,0,0.8-0.3l0.8-1.2c0.2-0.2,0.1-0.6-0.1-0.7c-1.3-0.9-2.8-1.4-4.3-1.4
	c-3.4,0-4.9,2.2-4.9,4.2c0,2.6,2,3.9,4.1,4.7c1.8,0.7,2.8,1.5,2.8,2.6c-0.1,1-0.9,1.7-1.9,1.7c0,0,0,0-0.1,0
	c-1.2-0.2-2.3-0.6-3.3-1.3c-0.2-0.2-0.5-0.1-0.7,0.1c0,0,0,0,0,0.1l-0.8,1.3C87.8,3590.7,87.9,3590.8,88.1,3591z"/>
<path id="Path-169" d="M122.1,3586.7c0,3.3,2.7,6,6,6s6-2.7,6-6v-9c0-0.2-0.2-0.4-0.4-0.4h-2.1c-0.2,0-0.4,0.2-0.4,0.4v8.9
	c0.1,1.7-1.2,3.2-3,3.3s-3.2-1.2-3.3-3c0-0.1,0-0.2,0-0.4v-8.9c0-0.2-0.2-0.4-0.4-0.4h-2.1c-0.2,0-0.4,0.2-0.4,0.4L122.1,3586.7z"/>
<path id="Combined-Shape-27" d="M159.5,3592v-14.4c0-0.2,0.2-0.4,0.4-0.4h5.1c2.7,0,4.8,2.1,4.9,4.8s-2.1,4.8-4.8,4.9c0,0,0,0,0,0
	h-2.7v5.1c0,0.2-0.2,0.4-0.4,0.4h-2C159.7,3592.4,159.5,3592.2,159.5,3592z M162.4,3584.3h2.5c1.2,0,2.2-1,2.2-2.2c0,0,0,0,0,0
	c0-1.2-1-2.1-2.2-2.1c0,0,0,0,0,0h-2.5V3584.3z"/>
<path d="M203.3,3577.3h-8.8c-0.2,0-0.4,0.2-0.4,0.4v14.3c0,0.2,0.2,0.4,0.4,0.4h6.4c0.8-0.6,1-1.7,0.4-2.5c0,0-0.1-0.1-0.1-0.1h-4.3
	v-0.6l0,0v-9l0,0v-0.3h6.4c0.2,0,0.4-0.2,0.4-0.4v-1.8C203.6,3577.4,203.5,3577.3,203.3,3577.3z"/>
<path id="Path-170" d="M4.2,3622.2c0.1,0.2,0.2,0.3,0.4,0.3h0.3c0.2,0,0.3-0.1,0.4-0.2l3.8-9.8h0.1l3.9,9.8c0.1,0.2,0.2,0.3,0.4,0.2
	h0.4c0.2,0,0.3-0.1,0.4-0.3l4.1-14.6c0.1-0.2,0-0.4-0.2-0.5c-0.1,0-0.1,0-0.2,0h-2c-0.2,0-0.3,0.1-0.4,0.3l-2.2,8.6h-0.1l-3.5-8.9
	c-0.1-0.2-0.2-0.3-0.4-0.2H9c-0.2,0-0.3,0.1-0.4,0.2l-3.4,8.9H5.1l-2.2-8.6c-0.1-0.2-0.2-0.3-0.4-0.3h-2c-0.2,0-0.4,0.1-0.4,0.3
	c0,0.1,0,0.1,0,0.2L4.2,3622.2z"/>
<path id="Path-171" d="M44.8,3621.9c0,0.2,0.2,0.4,0.4,0.4h8.8c0.2,0,0.4-0.2,0.4-0.4v-1.8c0-0.2-0.2-0.4-0.4-0.4h-6.4v-3.8H53
	c0.2,0,0.4-0.2,0.4-0.4v-1.8c0-0.2-0.2-0.4-0.4-0.4h-5.3v-3.6h6.4c0.2,0,0.4-0.2,0.4-0.4v-1.8c0-0.2-0.2-0.4-0.4-0.4h-8.8
	c-0.2,0-0.4,0.2-0.4,0.4V3621.9z"/>
<path id="Path-172" d="M109.4,3621.8c-0.1,0.2,0.1,0.4,0.3,0.5c0,0,0.1,0,0.1,0h2c0.2,0,0.3-0.1,0.4-0.3l1.3-8.2h0.1l3.8,8.5
	c0.1,0.1,0.2,0.2,0.4,0.2h0.3c0.2,0,0.3-0.1,0.4-0.2l3.8-8.5h0.1l1.3,8.2c0.1,0.2,0.2,0.3,0.4,0.3h2c0.2,0,0.4-0.1,0.4-0.3
	c0-0.1,0-0.1,0-0.2l-2.6-14.6c0-0.2-0.2-0.3-0.4-0.3H123c-0.2,0-0.3,0.1-0.4,0.2l-4.8,10.2h-0.1l-4.8-10.2c-0.1-0.1-0.2-0.2-0.4-0.2
	h-0.3c-0.2,0-0.4,0.1-0.4,0.3L109.4,3621.8z"/>
<path id="Combined-Shape-28" d="M151.7,3622.3c-0.2,0-0.4-0.1-0.4-0.3c0-0.1,0-0.2,0-0.2l6.7-14.6c0.1-0.1,0.2-0.2,0.4-0.2h0.2
	c0.2,0,0.3,0.1,0.4,0.2l6.7,14.6c0.1,0.2,0,0.4-0.2,0.5c-0.1,0-0.1,0.1-0.2,0h-1.9c-0.3,0-0.5-0.2-0.6-0.4l-1.1-2.3h-6.5l-1.1,2.3
	c-0.1,0.3-0.3,0.4-0.6,0.4H151.7z M156.3,3617.1h4.4l-2.2-4.8h-0.1L156.3,3617.1z"/>
<path id="Path-173" d="M191.7,3621.8c0,0.3,0.2,0.5,0.5,0.5c0,0,0,0,0,0h1.9c0.3,0,0.5-0.2,0.5-0.5v-6.6l5.7,7
	c0.1,0.1,0.2,0.2,0.4,0.1h2.3c0.3,0,0.5-0.2,0.5-0.5c0-0.1,0-0.2-0.1-0.3l-6.1-7.3l5.7-6.4c0.2-0.2,0.2-0.5,0-0.7
	c-0.1-0.1-0.2-0.1-0.3-0.1h-2.2c-0.2,0-0.3,0.1-0.4,0.2l-5.5,6.1v-5.9c0-0.3-0.2-0.5-0.5-0.5h-1.9c-0.3,0-0.5,0.2-0.5,0.5
	c0,0,0,0,0,0L191.7,3621.8z"/>
<path id="Path-174" d="M229.9,3621.9c0,0.2,0.2,0.4,0.4,0.4h8.8c0.2,0,0.4-0.2,0.4-0.4v-1.8c0-0.2-0.2-0.4-0.4-0.4h-6.4v-3.8h5.3
	c0.2,0,0.4-0.2,0.4-0.4v-1.8c0-0.2-0.2-0.4-0.4-0.4h-5.4v-3.6h6.4c0.2,0,0.4-0.2,0.4-0.4v-1.8c0-0.2-0.2-0.4-0.4-0.4h-8.8
	c-0.2,0-0.4,0.2-0.4,0.4L229.9,3621.9z"/>
<path id="Path-175" d="M1.4,3682c0,0.2,0.2,0.4,0.4,0.4h2c0.2,0,0.4-0.2,0.4-0.4v-14.4c0-0.2-0.2-0.4-0.4-0.4h-2
	c-0.2,0-0.4,0.2-0.4,0.4V3682z"/>
<path id="Path-176" d="M31.9,3682c0,0.2,0.2,0.4,0.4,0.4h2c0.2,0,0.4-0.2,0.4-0.4v-12.2h3.3c0.2,0,0.4-0.2,0.4-0.4v-1.8
	c0-0.2-0.2-0.4-0.4-0.4h-9.5c-0.2,0-0.4,0.2-0.4,0.4v1.8c0,0.2,0.2,0.4,0.4,0.4h3.3V3682z"/>
<path id="Path-177" d="M88.1,3681c1.3,1.1,3,1.7,4.8,1.7c3.1,0,5-2.1,5-4.3c0-2.8-2.4-4.1-4.5-4.9c-1.8-0.7-2.6-1.4-2.6-2.4
	c0.1-0.9,1-1.6,1.9-1.5c1.1,0.2,2.1,0.6,3,1.2c0.3,0.1,0.6,0,0.8-0.3l0.8-1.2c0.2-0.2,0.1-0.6-0.1-0.7c-1.3-0.9-2.8-1.4-4.3-1.4
	c-3.4,0-4.9,2.2-4.9,4.2c0,2.6,2,3.9,4.1,4.7c1.8,0.7,2.8,1.5,2.8,2.6c-0.1,1-0.9,1.7-1.9,1.7c0,0,0,0-0.1,0
	c-1.2-0.2-2.3-0.6-3.3-1.3c-0.2-0.2-0.5-0.1-0.7,0.1c0,0,0,0,0,0.1l-0.8,1.3C87.8,3680.7,87.9,3680.8,88.1,3681z"/>
<path id="Path-178" d="M122.1,3676.7c0,3.3,2.7,6,6,6s6-2.7,6-6l0,0v-9c0-0.2-0.2-0.4-0.4-0.4h-2.1c-0.2,0-0.4,0.2-0.4,0.4v8.9
	c0.1,1.7-1.2,3.2-3,3.3s-3.2-1.2-3.3-3c0-0.1,0-0.2,0-0.4v-8.9c0-0.2-0.2-0.4-0.4-0.4h-2.1c-0.2,0-0.4,0.2-0.4,0.4L122.1,3676.7z"/>
<path id="Combined-Shape-29" d="M159.5,3682v-14.4c0-0.2,0.2-0.4,0.4-0.4h5.1c2.7,0,4.8,2.1,4.9,4.8s-2.1,4.8-4.8,4.9c0,0,0,0,0,0
	h-2.7v5.1c0,0.2-0.2,0.4-0.4,0.4h-2C159.7,3682.4,159.5,3682.2,159.5,3682z M162.4,3674.3h2.5c1.2,0,2.2-1,2.2-2.2c0,0,0,0,0,0
	c0-1.2-1-2.1-2.2-2.1c0,0,0,0,0,0h-2.5V3674.3z"/>
<path id="Path-179" d="M194,3682c0,0.2,0.2,0.4,0.4,0.4h8.8c0.2,0,0.4-0.2,0.4-0.4v-1.8c0-0.2-0.2-0.4-0.4-0.4h-6.4v-3.8h5.4
	c0.2,0,0.4-0.2,0.4-0.4v-1.8c0-0.2-0.2-0.4-0.4-0.4h-5.4v-3.6h6.4c0.2,0,0.4-0.2,0.4-0.4v-1.8c0-0.2-0.2-0.4-0.4-0.4h-8.8
	c-0.2,0-0.4,0.2-0.4,0.4V3682z"/>
<path id="Path-180" d="M4.2,3712.2c0.1,0.2,0.2,0.3,0.4,0.3h0.3c0.2,0,0.3-0.1,0.4-0.2l3.8-9.8h0.1l3.9,9.8c0.1,0.2,0.2,0.3,0.4,0.2
	h0.4c0.2,0,0.3-0.1,0.4-0.3l4.1-14.6c0.1-0.2,0-0.4-0.2-0.5c-0.1,0-0.1,0-0.2,0h-2c-0.2,0-0.3,0.1-0.4,0.3l-2.2,8.6h-0.1l-3.5-8.9
	c-0.1-0.2-0.2-0.3-0.4-0.2H9c-0.2,0-0.3,0.1-0.4,0.2l-3.4,8.9H5.1l-2.2-8.6c-0.1-0.2-0.2-0.3-0.4-0.3h-2c-0.2,0-0.4,0.1-0.4,0.3
	c0,0.1,0,0.1,0,0.2L4.2,3712.2z"/>
<path id="Path-181" d="M44.8,3711.9c0,0.2,0.2,0.4,0.4,0.4h8.8c0.2,0,0.4-0.2,0.4-0.4v-1.8c0-0.2-0.2-0.4-0.4-0.4h-6.4v-3.8H53
	c0.2,0,0.4-0.2,0.4-0.4v-1.8c0-0.2-0.2-0.4-0.4-0.4h-5.3v-3.6h6.4c0.2,0,0.4-0.2,0.4-0.4v-1.8c0-0.2-0.2-0.4-0.4-0.4h-8.8
	c-0.2,0-0.4,0.2-0.4,0.4V3711.9z"/>
<path id="Path-182" d="M109.4,3711.8c-0.1,0.2,0.1,0.4,0.3,0.5c0,0,0.1,0,0.1,0h2c0.2,0,0.3-0.1,0.4-0.3l1.3-8.2h0.1l3.8,8.5
	c0.1,0.1,0.2,0.2,0.4,0.2h0.3c0.2,0,0.3-0.1,0.4-0.2l3.8-8.5h0.1l1.3,8.2c0.1,0.2,0.2,0.3,0.4,0.3h2c0.2,0,0.4-0.1,0.4-0.3
	c0-0.1,0-0.1,0-0.2l-2.6-14.6c0-0.2-0.2-0.3-0.4-0.3H123c-0.2,0-0.3,0.1-0.4,0.2l-4.8,10.2h-0.1l-4.8-10.2c-0.1-0.1-0.2-0.2-0.4-0.2
	h-0.3c-0.2,0-0.4,0.1-0.4,0.3L109.4,3711.8z"/>
<path id="Combined-Shape-30" d="M151.7,3712.3c-0.2,0-0.4-0.1-0.4-0.3c0-0.1,0-0.2,0-0.2l6.7-14.6c0.1-0.1,0.2-0.2,0.4-0.2h0.2
	c0.2,0,0.3,0.1,0.4,0.2l6.7,14.6c0.1,0.2,0,0.4-0.2,0.5c-0.1,0-0.1,0.1-0.2,0h-1.9c-0.3,0-0.5-0.2-0.6-0.4l-1.1-2.3h-6.5l-1.1,2.3
	c-0.1,0.3-0.3,0.4-0.6,0.4H151.7z M156.3,3707.1h4.4l-2.2-4.8h-0.1L156.3,3707.1z"/>
<path id="Path-183" d="M191.7,3711.8c0,0.3,0.2,0.5,0.5,0.5c0,0,0,0,0,0h1.9c0.3,0,0.5-0.2,0.5-0.5v-6.6l5.7,7
	c0.1,0.1,0.2,0.2,0.4,0.1h2.3c0.3,0,0.5-0.2,0.5-0.5c0-0.1,0-0.2-0.1-0.3l-6.1-7.3l5.7-6.4c0.2-0.2,0.2-0.5,0-0.7
	c-0.1-0.1-0.2-0.1-0.3-0.1h-2.2c-0.2,0-0.3,0.1-0.4,0.2l-5.5,6.1v-5.9c0-0.3-0.2-0.5-0.5-0.5h-1.9c-0.3,0-0.5,0.2-0.5,0.5
	c0,0,0,0,0,0L191.7,3711.8z"/>
<path id="Path-184" d="M229.9,3711.9c0,0.2,0.2,0.4,0.4,0.4h8.8c0.2,0,0.4-0.2,0.4-0.4v-1.8c0-0.2-0.2-0.4-0.4-0.4h-6.4v-3.8h5.3
	c0.2,0,0.4-0.2,0.4-0.4v-1.8c0-0.2-0.2-0.4-0.4-0.4h-5.4v-3.6h6.4c0.2,0,0.4-0.2,0.4-0.4v-1.8c0-0.2-0.2-0.4-0.4-0.4h-8.8
	c-0.2,0-0.4,0.2-0.4,0.4L229.9,3711.9z"/>
<path id="Path-185" d="M1.4,3772c0,0.2,0.2,0.4,0.4,0.4h2c0.2,0,0.4-0.2,0.4-0.4v-14.4c0-0.2-0.2-0.4-0.4-0.4h-2
	c-0.2,0-0.4,0.2-0.4,0.4V3772z"/>
<path id="Path-186" d="M31.9,3772c0,0.2,0.2,0.4,0.4,0.4h2c0.2,0,0.4-0.2,0.4-0.4v-12.2h3.3c0.2,0,0.4-0.2,0.4-0.4v-1.8
	c0-0.2-0.2-0.4-0.4-0.4h-9.5c-0.2,0-0.4,0.2-0.4,0.4v1.8c0,0.2,0.2,0.4,0.4,0.4h3.3V3772z"/>
<path id="Path-187" d="M88.1,3771c1.3,1.1,3,1.7,4.8,1.7c3.1,0,5-2.1,5-4.3c0-2.8-2.4-4.1-4.5-4.9c-1.8-0.7-2.6-1.4-2.6-2.4
	c0.1-0.9,1-1.6,1.9-1.5c1.1,0.2,2.1,0.6,3,1.2c0.3,0.1,0.6,0,0.8-0.3l0.8-1.2c0.2-0.2,0.1-0.6-0.1-0.7c-1.3-0.9-2.8-1.4-4.3-1.4
	c-3.4,0-4.9,2.2-4.9,4.2c0,2.6,2,3.9,4.1,4.7c1.8,0.7,2.8,1.5,2.8,2.6c-0.1,1-0.9,1.7-1.9,1.7c0,0,0,0-0.1,0
	c-1.2-0.2-2.3-0.6-3.3-1.3c-0.2-0.2-0.5-0.1-0.7,0.1c0,0,0,0,0,0.1l-0.8,1.3C87.8,3770.7,87.9,3770.8,88.1,3771z"/>
<path id="Path-188" d="M122.1,3766.7c0,3.3,2.7,6,6,6s6-2.7,6-6l0,0v-9c0-0.2-0.2-0.4-0.4-0.4h-2.1c-0.2,0-0.4,0.2-0.4,0.4v8.9
	c0.1,1.7-1.2,3.2-3,3.3s-3.2-1.2-3.3-3c0-0.1,0-0.2,0-0.4v-8.9c0-0.2-0.2-0.4-0.4-0.4h-2.1c-0.2,0-0.4,0.2-0.4,0.4L122.1,3766.7z"/>
<path id="Combined-Shape-31" d="M159.5,3772v-14.4c0-0.2,0.2-0.4,0.4-0.4h5.1c2.7,0,4.8,2.1,4.9,4.8s-2.1,4.8-4.8,4.9c0,0,0,0,0,0
	h-2.7v5.1c0,0.2-0.2,0.4-0.4,0.4h-2C159.7,3772.4,159.5,3772.2,159.5,3772z M162.4,3764.3h2.5c1.2,0,2.2-1,2.2-2.2c0,0,0,0,0,0
	c0-1.2-1-2.1-2.2-2.1c0,0,0,0,0,0h-2.5V3764.3z"/>
<path id="Path-189" d="M194,3772c0,0.2,0.2,0.4,0.4,0.4h8.8c0.2,0,0.4-0.2,0.4-0.4v-1.8c0-0.2-0.2-0.4-0.4-0.4h-6.4v-3.8h5.4
	c0.2,0,0.4-0.2,0.4-0.4v-1.8c0-0.2-0.2-0.4-0.4-0.4h-5.4v-3.6h6.4c0.2,0,0.4-0.2,0.4-0.4v-1.8c0-0.2-0.2-0.4-0.4-0.4h-8.8
	c-0.2,0-0.4,0.2-0.4,0.4V3772z"/>
<path id="Path-190" d="M4.2,3802.2c0.1,0.2,0.2,0.3,0.4,0.3h0.3c0.2,0,0.3-0.1,0.4-0.2l3.8-9.8h0.1l3.9,9.8c0.1,0.2,0.2,0.3,0.4,0.2
	h0.4c0.2,0,0.3-0.1,0.4-0.3l4.1-14.6c0.1-0.2,0-0.4-0.2-0.5c-0.1,0-0.1,0-0.2,0h-2c-0.2,0-0.3,0.1-0.4,0.3l-2.2,8.6h-0.1l-3.5-8.9
	c-0.1-0.2-0.2-0.3-0.4-0.2H9c-0.2,0-0.3,0.1-0.4,0.2l-3.4,8.9H5.1l-2.2-8.6c-0.1-0.2-0.2-0.3-0.4-0.3h-2c-0.2,0-0.4,0.1-0.4,0.3
	c0,0.1,0,0.1,0,0.2L4.2,3802.2z"/>
<path id="Path-191" d="M44.8,3801.9c0,0.2,0.2,0.4,0.4,0.4h8.8c0.2,0,0.4-0.2,0.4-0.4v-1.8c0-0.2-0.2-0.4-0.4-0.4h-6.4v-3.8H53
	c0.2,0,0.4-0.2,0.4-0.4v-1.8c0-0.2-0.2-0.4-0.4-0.4h-5.3v-3.6h6.4c0.2,0,0.4-0.2,0.4-0.4v-1.8c0-0.2-0.2-0.4-0.4-0.4h-8.8
	c-0.2,0-0.4,0.2-0.4,0.4V3801.9z"/>
<path id="Path-192" d="M109.4,3801.8c-0.1,0.2,0.1,0.4,0.3,0.5c0,0,0.1,0,0.1,0h2c0.2,0,0.3-0.1,0.4-0.3l1.3-8.2h0.1l3.8,8.5
	c0.1,0.1,0.2,0.2,0.4,0.2h0.3c0.2,0,0.3-0.1,0.4-0.2l3.8-8.5h0.1l1.3,8.2c0.1,0.2,0.2,0.3,0.4,0.3h2c0.2,0,0.4-0.1,0.4-0.3
	c0-0.1,0-0.1,0-0.2l-2.6-14.6c0-0.2-0.2-0.3-0.4-0.3H123c-0.2,0-0.3,0.1-0.4,0.2l-4.8,10.2h-0.1l-4.8-10.2c-0.1-0.1-0.2-0.2-0.4-0.2
	h-0.3c-0.2,0-0.4,0.1-0.4,0.3L109.4,3801.8z"/>
<path id="Combined-Shape-32" d="M151.7,3802.3c-0.2,0-0.4-0.1-0.4-0.3c0-0.1,0-0.2,0-0.2l6.7-14.6c0.1-0.1,0.2-0.2,0.4-0.2h0.2
	c0.2,0,0.3,0.1,0.4,0.2l6.7,14.6c0.1,0.2,0,0.4-0.2,0.5c-0.1,0-0.1,0.1-0.2,0h-1.9c-0.3,0-0.5-0.2-0.6-0.4l-1.1-2.3h-6.5l-1.1,2.3
	c-0.1,0.3-0.3,0.4-0.6,0.4H151.7z M156.3,3797.1h4.4l-2.2-4.8h-0.1L156.3,3797.1z"/>
<path id="Path-193" d="M191.7,3801.8c0,0.3,0.2,0.5,0.5,0.5c0,0,0,0,0,0h1.9c0.3,0,0.5-0.2,0.5-0.5v-6.6l5.7,7
	c0.1,0.1,0.2,0.2,0.4,0.1h2.3c0.3,0,0.5-0.2,0.5-0.5c0-0.1,0-0.2-0.1-0.3l-6.1-7.3l5.7-6.4c0.2-0.2,0.2-0.5,0-0.7
	c-0.1-0.1-0.2-0.1-0.3-0.1h-2.2c-0.2,0-0.3,0.1-0.4,0.2l-5.5,6.1v-5.9c0-0.3-0.2-0.5-0.5-0.5h-1.9c-0.3,0-0.5,0.2-0.5,0.5
	c0,0,0,0,0,0L191.7,3801.8z"/>
<path id="Path-194" d="M229.9,3801.9c0,0.2,0.2,0.4,0.4,0.4h8.8c0.2,0,0.4-0.2,0.4-0.4v-1.8c0-0.2-0.2-0.4-0.4-0.4h-6.4v-3.8h5.3
	c0.2,0,0.4-0.2,0.4-0.4v-1.8c0-0.2-0.2-0.4-0.4-0.4h-5.4v-3.6h6.4c0.2,0,0.4-0.2,0.4-0.4v-1.8c0-0.2-0.2-0.4-0.4-0.4h-8.8
	c-0.2,0-0.4,0.2-0.4,0.4L229.9,3801.9z"/>
<path id="Path-195" d="M1.4,3862c0,0.2,0.2,0.4,0.4,0.4h2c0.2,0,0.4-0.2,0.4-0.4v-14.4c0-0.2-0.2-0.4-0.4-0.4h-2
	c-0.2,0-0.4,0.2-0.4,0.4V3862z"/>
<path id="Path-196" d="M31.9,3862c0,0.2,0.2,0.4,0.4,0.4h2c0.2,0,0.4-0.2,0.4-0.4v-12.2h3.3c0.2,0,0.4-0.2,0.4-0.4v-1.8
	c0-0.2-0.2-0.4-0.4-0.4h-9.5c-0.2,0-0.4,0.2-0.4,0.4v1.8c0,0.2,0.2,0.4,0.4,0.4h3.3V3862z"/>
<path id="Path-197" d="M88.1,3861c1.3,1.1,3,1.7,4.8,1.7c3.1,0,5-2.1,5-4.3c0-2.8-2.4-4.1-4.5-4.9c-1.8-0.7-2.6-1.4-2.6-2.4
	c0.1-0.9,1-1.6,1.9-1.5c1.1,0.2,2.1,0.6,3,1.2c0.3,0.1,0.6,0,0.8-0.3l0.8-1.2c0.2-0.2,0.1-0.6-0.1-0.7c-1.3-0.9-2.8-1.4-4.3-1.4
	c-3.4,0-4.9,2.2-4.9,4.2c0,2.6,2,3.9,4.1,4.7c1.8,0.7,2.8,1.5,2.8,2.6c-0.1,1-0.9,1.7-1.9,1.7c0,0,0,0-0.1,0
	c-1.2-0.2-2.3-0.6-3.3-1.3c-0.2-0.2-0.5-0.1-0.7,0.1c0,0,0,0,0,0.1l-0.8,1.3C87.8,3860.7,87.9,3860.8,88.1,3861z"/>
<path id="Path-198" d="M122.1,3856.7c0,3.3,2.7,6,6,6s6-2.7,6-6v-9c0-0.2-0.2-0.4-0.4-0.4h-2.1c-0.2,0-0.4,0.2-0.4,0.4v8.9
	c0.1,1.7-1.2,3.2-3,3.3s-3.2-1.2-3.3-3c0-0.1,0-0.2,0-0.4v-8.9c0-0.2-0.2-0.4-0.4-0.4h-2.1c-0.2,0-0.4,0.2-0.4,0.4L122.1,3856.7z"/>
<path id="Combined-Shape-33" d="M159.5,3862v-14.4c0-0.2,0.2-0.4,0.4-0.4h5.1c2.7,0,4.8,2.1,4.9,4.8s-2.1,4.8-4.8,4.9c0,0,0,0,0,0
	h-2.7v5.1c0,0.2-0.2,0.4-0.4,0.4h-2C159.7,3862.4,159.5,3862.2,159.5,3862z M162.4,3854.3h2.5c1.2,0,2.2-1,2.2-2.2c0,0,0,0,0,0
	c0-1.2-1-2.1-2.2-2.1c0,0,0,0,0,0h-2.5V3854.3z"/>
<path id="Path-199" d="M194,3862c0,0.2,0.2,0.4,0.4,0.4h8.8c0.2,0,0.4-0.2,0.4-0.4v-1.8c0-0.2-0.2-0.4-0.4-0.4h-6.4v-3.8h5.4
	c0.2,0,0.4-0.2,0.4-0.4v-1.8c0-0.2-0.2-0.4-0.4-0.4h-5.4v-3.6h6.4c0.2,0,0.4-0.2,0.4-0.4v-1.8c0-0.2-0.2-0.4-0.4-0.4h-8.8
	c-0.2,0-0.4,0.2-0.4,0.4V3862z"/>
<path id="Path-200" d="M4.2,3892.2c0.1,0.2,0.2,0.3,0.4,0.3h0.3c0.2,0,0.3-0.1,0.4-0.2l3.8-9.8h0.1l3.9,9.8c0.1,0.2,0.2,0.3,0.4,0.2
	h0.4c0.2,0,0.3-0.1,0.4-0.3l4.1-14.6c0.1-0.2,0-0.4-0.2-0.5c-0.1,0-0.1,0-0.2,0h-2c-0.2,0-0.3,0.1-0.4,0.3l-2.2,8.6h-0.1l-3.5-8.9
	c-0.1-0.2-0.2-0.3-0.4-0.2H9c-0.2,0-0.3,0.1-0.4,0.2l-3.4,8.9H5.1l-2.2-8.6c-0.1-0.2-0.2-0.3-0.4-0.3h-2c-0.2,0-0.4,0.1-0.4,0.3
	c0,0.1,0,0.1,0,0.2L4.2,3892.2z"/>
<path id="Path-201" d="M44.8,3891.9c0,0.2,0.2,0.4,0.4,0.4h8.8c0.2,0,0.4-0.2,0.4-0.4v-1.8c0-0.2-0.2-0.4-0.4-0.4h-6.4v-3.8H53
	c0.2,0,0.4-0.2,0.4-0.4v-1.8c0-0.2-0.2-0.4-0.4-0.4h-5.3v-3.6h6.4c0.2,0,0.4-0.2,0.4-0.4v-1.8c0-0.2-0.2-0.4-0.4-0.4h-8.8
	c-0.2,0-0.4,0.2-0.4,0.4V3891.9z"/>
<path id="Path-202" d="M109.4,3891.8c-0.1,0.2,0.1,0.4,0.3,0.5c0,0,0.1,0,0.1,0h2c0.2,0,0.3-0.1,0.4-0.3l1.3-8.2h0.1l3.8,8.5
	c0.1,0.1,0.2,0.2,0.4,0.2h0.3c0.2,0,0.3-0.1,0.4-0.2l3.8-8.5h0.1l1.3,8.2c0.1,0.2,0.2,0.3,0.4,0.3h2c0.2,0,0.4-0.1,0.4-0.3
	c0-0.1,0-0.1,0-0.2l-2.6-14.6c0-0.2-0.2-0.3-0.4-0.3H123c-0.2,0-0.3,0.1-0.4,0.2l-4.8,10.2h-0.1l-4.8-10.2c-0.1-0.1-0.2-0.2-0.4-0.2
	h-0.3c-0.2,0-0.4,0.1-0.4,0.3L109.4,3891.8z"/>
<path id="Combined-Shape-34" d="M151.7,3892.3c-0.2,0-0.4-0.1-0.4-0.3c0-0.1,0-0.2,0-0.2l6.7-14.6c0.1-0.1,0.2-0.2,0.4-0.2h0.2
	c0.2,0,0.3,0.1,0.4,0.2l6.7,14.6c0.1,0.2,0,0.4-0.2,0.5c-0.1,0-0.1,0.1-0.2,0h-1.9c-0.3,0-0.5-0.2-0.6-0.4l-1.1-2.3h-6.5l-1.1,2.3
	c-0.1,0.3-0.3,0.4-0.6,0.4H151.7z M156.3,3887.1h4.4l-2.2-4.8h-0.1L156.3,3887.1z"/>
<path id="Path-203" d="M191.7,3891.8c0,0.3,0.2,0.5,0.5,0.5c0,0,0,0,0,0h1.9c0.3,0,0.5-0.2,0.5-0.5v-6.6l5.7,7
	c0.1,0.1,0.2,0.2,0.4,0.1h2.3c0.3,0,0.5-0.2,0.5-0.5c0-0.1,0-0.2-0.1-0.3l-6.1-7.3l5.7-6.4c0.2-0.2,0.2-0.5,0-0.7
	c-0.1-0.1-0.2-0.1-0.3-0.1h-2.2c-0.2,0-0.3,0.1-0.4,0.2l-5.5,6.1v-5.9c0-0.3-0.2-0.5-0.5-0.5h-1.9c-0.3,0-0.5,0.2-0.5,0.5
	c0,0,0,0,0,0L191.7,3891.8z"/>
<path id="Path-204" d="M229.9,3891.9c0,0.2,0.2,0.4,0.4,0.4h8.8c0.2,0,0.4-0.2,0.4-0.4v-1.8c0-0.2-0.2-0.4-0.4-0.4h-6.4v-3.8h5.3
	c0.2,0,0.4-0.2,0.4-0.4v-1.8c0-0.2-0.2-0.4-0.4-0.4h-5.4v-3.6h6.4c0.2,0,0.4-0.2,0.4-0.4v-1.8c0-0.2-0.2-0.4-0.4-0.4h-8.8
	c-0.2,0-0.4,0.2-0.4,0.4L229.9,3891.9z"/>
<path id="Path-205" d="M1.4,3952c0,0.2,0.2,0.4,0.4,0.4h2c0.2,0,0.4-0.2,0.4-0.4v-14.4c0-0.2-0.2-0.4-0.4-0.4h-2
	c-0.2,0-0.4,0.2-0.4,0.4V3952z"/>
<path id="Path-206" d="M31.9,3952c0,0.2,0.2,0.4,0.4,0.4h2c0.2,0,0.4-0.2,0.4-0.4v-12.2h3.3c0.2,0,0.4-0.2,0.4-0.4v-1.8
	c0-0.2-0.2-0.4-0.4-0.4h-9.5c-0.2,0-0.4,0.2-0.4,0.4v1.8c0,0.2,0.2,0.4,0.4,0.4h3.3V3952z"/>
<path id="Path-207" d="M88.1,3951c1.3,1.1,3,1.7,4.8,1.7c3.1,0,5-2.1,5-4.3c0-2.8-2.4-4.1-4.5-4.9c-1.8-0.7-2.6-1.4-2.6-2.4
	c0.1-0.9,1-1.6,1.9-1.5c1.1,0.2,2.1,0.6,3,1.2c0.3,0.1,0.6,0,0.8-0.3l0.8-1.2c0.2-0.2,0.1-0.6-0.1-0.7c-1.3-0.9-2.8-1.4-4.3-1.4
	c-3.4,0-4.9,2.2-4.9,4.2c0,2.6,2,3.9,4.1,4.7c1.8,0.7,2.8,1.5,2.8,2.6c-0.1,1-0.9,1.7-1.9,1.7c0,0,0,0-0.1,0
	c-1.2-0.2-2.3-0.6-3.3-1.3c-0.2-0.2-0.5-0.1-0.7,0.1c0,0,0,0,0,0.1l-0.8,1.3C87.8,3950.7,87.9,3950.8,88.1,3951z"/>
<path id="Path-208" d="M122.1,3946.7c0,3.3,2.7,6,6,6s6-2.7,6-6v-9c0-0.2-0.2-0.4-0.4-0.4h-2.1c-0.2,0-0.4,0.2-0.4,0.4v8.9
	c0.1,1.7-1.2,3.2-3,3.3s-3.2-1.2-3.3-3c0-0.1,0-0.2,0-0.4v-8.9c0-0.2-0.2-0.4-0.4-0.4h-2.1c-0.2,0-0.4,0.2-0.4,0.4L122.1,3946.7z"/>
<path id="Combined-Shape-35" d="M159.5,3952v-14.4c0-0.2,0.2-0.4,0.4-0.4h5.1c2.7,0,4.8,2.1,4.9,4.8s-2.1,4.8-4.8,4.9c0,0,0,0,0,0
	h-2.7v5.1c0,0.2-0.2,0.4-0.4,0.4h-2C159.7,3952.4,159.5,3952.2,159.5,3952z M162.4,3944.3h2.5c1.2,0,2.2-1,2.2-2.2c0,0,0,0,0,0
	c0-1.2-1-2.1-2.2-2.1c0,0,0,0,0,0h-2.5V3944.3z"/>
<path id="Path-209" d="M194,3952c0,0.2,0.2,0.4,0.4,0.4h8.8c0.2,0,0.4-0.2,0.4-0.4v-1.8c0-0.2-0.2-0.4-0.4-0.4h-6.4v-3.8h5.4
	c0.2,0,0.4-0.2,0.4-0.4v-1.8c0-0.2-0.2-0.4-0.4-0.4h-5.4v-3.6h6.4c0.2,0,0.4-0.2,0.4-0.4v-1.8c0-0.2-0.2-0.4-0.4-0.4h-8.8
	c-0.2,0-0.4,0.2-0.4,0.4V3952z"/>
<path id="Path-210" d="M4.2,3982.2c0.1,0.2,0.2,0.3,0.4,0.3h0.3c0.2,0,0.3-0.1,0.4-0.2l3.8-9.8h0.1l3.9,9.8c0.1,0.2,0.2,0.3,0.4,0.2
	h0.4c0.2,0,0.3-0.1,0.4-0.3l4.1-14.6c0.1-0.2,0-0.4-0.2-0.5c-0.1,0-0.1,0-0.2,0h-2c-0.2,0-0.3,0.1-0.4,0.3l-2.2,8.6h-0.1l-3.5-8.9
	c-0.1-0.2-0.2-0.3-0.4-0.2H9c-0.2,0-0.3,0.1-0.4,0.2l-3.4,8.9H5.1l-2.2-8.6c-0.1-0.2-0.2-0.3-0.4-0.3h-2c-0.2,0-0.4,0.1-0.4,0.3
	c0,0.1,0,0.1,0,0.2L4.2,3982.2z"/>
<path id="Path-211" d="M44.8,3981.9c0,0.2,0.2,0.4,0.4,0.4h8.8c0.2,0,0.4-0.2,0.4-0.4v-1.8c0-0.2-0.2-0.4-0.4-0.4h-6.4v-3.8H53
	c0.2,0,0.4-0.2,0.4-0.4v-1.8c0-0.2-0.2-0.4-0.4-0.4h-5.3v-3.6h6.4c0.2,0,0.4-0.2,0.4-0.4v-1.8c0-0.2-0.2-0.4-0.4-0.4h-8.8
	c-0.2,0-0.4,0.2-0.4,0.4V3981.9z"/>
<path id="Path-212" d="M109.4,3981.8c-0.1,0.2,0.1,0.4,0.3,0.5c0,0,0.1,0,0.1,0h2c0.2,0,0.3-0.1,0.4-0.3l1.3-8.2h0.1l3.8,8.5
	c0.1,0.1,0.2,0.2,0.4,0.2h0.3c0.2,0,0.3-0.1,0.4-0.2l3.8-8.5h0.1l1.3,8.2c0.1,0.2,0.2,0.3,0.4,0.3h2c0.2,0,0.4-0.1,0.4-0.3
	c0-0.1,0-0.1,0-0.2l-2.6-14.6c0-0.2-0.2-0.3-0.4-0.3H123c-0.2,0-0.3,0.1-0.4,0.2l-4.8,10.2h-0.1l-4.8-10.2c-0.1-0.1-0.2-0.2-0.4-0.2
	h-0.3c-0.2,0-0.4,0.1-0.4,0.3L109.4,3981.8z"/>
<path id="Combined-Shape-36" d="M151.7,3982.3c-0.2,0-0.4-0.1-0.4-0.3c0-0.1,0-0.2,0-0.2l6.7-14.6c0.1-0.1,0.2-0.2,0.4-0.2h0.2
	c0.2,0,0.3,0.1,0.4,0.2l6.7,14.6c0.1,0.2,0,0.4-0.2,0.5c-0.1,0-0.1,0.1-0.2,0h-1.9c-0.3,0-0.5-0.2-0.6-0.4l-1.1-2.3h-6.5l-1.1,2.3
	c-0.1,0.3-0.3,0.4-0.6,0.4H151.7z M156.3,3977.1h4.4l-2.2-4.8h-0.1L156.3,3977.1z"/>
<path id="Path-213" d="M191.7,3981.8c0,0.3,0.2,0.5,0.5,0.5c0,0,0,0,0,0h1.9c0.3,0,0.5-0.2,0.5-0.5v-6.6l5.7,7
	c0.1,0.1,0.2,0.2,0.4,0.1h2.3c0.3,0,0.5-0.2,0.5-0.5c0-0.1,0-0.2-0.1-0.3l-6.1-7.3l5.7-6.4c0.2-0.2,0.2-0.5,0-0.7
	c-0.1-0.1-0.2-0.1-0.3-0.1h-2.2c-0.2,0-0.3,0.1-0.4,0.2l-5.5,6.1v-5.9c0-0.3-0.2-0.5-0.5-0.5h-1.9c-0.3,0-0.5,0.2-0.5,0.5
	c0,0,0,0,0,0L191.7,3981.8z"/>
<path id="Path-214" d="M229.9,3981.9c0,0.2,0.2,0.4,0.4,0.4h8.8c0.2,0,0.4-0.2,0.4-0.4v-1.8c0-0.2-0.2-0.4-0.4-0.4h-6.4v-3.8h5.3
	c0.2,0,0.4-0.2,0.4-0.4v-1.8c0-0.2-0.2-0.4-0.4-0.4h-5.4v-3.6h6.4c0.2,0,0.4-0.2,0.4-0.4v-1.8c0-0.2-0.2-0.4-0.4-0.4h-8.8
	c-0.2,0-0.4,0.2-0.4,0.4L229.9,3981.9z"/>
<path id="Path-215" d="M1.4,4042c0,0.2,0.2,0.4,0.4,0.4h2c0.2,0,0.4-0.2,0.4-0.4v-14.4c0-0.2-0.2-0.4-0.4-0.4h-2
	c-0.2,0-0.4,0.2-0.4,0.4V4042z"/>
<path id="Path-216" d="M31.9,4042c0,0.2,0.2,0.4,0.4,0.4h2c0.2,0,0.4-0.2,0.4-0.4v-12.2h3.3c0.2,0,0.4-0.2,0.4-0.4v-1.8
	c0-0.2-0.2-0.4-0.4-0.4h-9.5c-0.2,0-0.4,0.2-0.4,0.4v1.8c0,0.2,0.2,0.4,0.4,0.4h3.3V4042z"/>
<path id="Path-217" d="M88.1,4041c1.3,1.1,3,1.7,4.8,1.7c3.1,0,5-2.1,5-4.3c0-2.8-2.4-4.1-4.5-4.9c-1.8-0.7-2.6-1.4-2.6-2.4
	c0.1-0.9,1-1.6,1.9-1.5c1.1,0.2,2.1,0.6,3,1.2c0.3,0.1,0.6,0,0.8-0.3l0.8-1.2c0.2-0.2,0.1-0.6-0.1-0.7c-1.3-0.9-2.8-1.4-4.3-1.4
	c-3.4,0-4.9,2.2-4.9,4.2c0,2.6,2,3.9,4.1,4.7c1.8,0.7,2.8,1.5,2.8,2.6c-0.1,1-0.9,1.7-1.9,1.7c0,0,0,0-0.1,0
	c-1.2-0.2-2.3-0.6-3.3-1.3c-0.2-0.2-0.5-0.1-0.7,0.1c0,0,0,0,0,0.1l-0.8,1.3C87.8,4040.7,87.9,4040.8,88.1,4041z"/>
<path id="Path-218" d="M122.1,4036.7c0,3.3,2.7,6,6,6s6-2.7,6-6v-9c0-0.2-0.2-0.4-0.4-0.4h-2.1c-0.2,0-0.4,0.2-0.4,0.4v8.9
	c0.1,1.7-1.2,3.2-3,3.3s-3.2-1.2-3.3-3c0-0.1,0-0.2,0-0.4v-8.9c0-0.2-0.2-0.4-0.4-0.4h-2.1c-0.2,0-0.4,0.2-0.4,0.4L122.1,4036.7z"/>
<path id="Combined-Shape-37" d="M159.5,4042v-14.4c0-0.2,0.2-0.4,0.4-0.4h5.1c2.7,0,4.8,2.1,4.9,4.8s-2.1,4.8-4.8,4.9c0,0,0,0,0,0
	h-2.7v5.1c0,0.2-0.2,0.4-0.4,0.4h-2C159.7,4042.4,159.5,4042.2,159.5,4042z M162.4,4034.3h2.5c1.2,0,2.2-1,2.2-2.2c0,0,0,0,0,0
	c0-1.2-1-2.1-2.2-2.1c0,0,0,0,0,0h-2.5V4034.3z"/>
<path id="Path-219" d="M194,4042c0,0.2,0.2,0.4,0.4,0.4h8.8c0.2,0,0.4-0.2,0.4-0.4v-1.8c0-0.2-0.2-0.4-0.4-0.4h-6.4v-3.8h5.4
	c0.2,0,0.4-0.2,0.4-0.4v-1.8c0-0.2-0.2-0.4-0.4-0.4h-5.4v-3.6h6.4c0.2,0,0.4-0.2,0.4-0.4v-1.8c0-0.2-0.2-0.4-0.4-0.4h-8.8
	c-0.2,0-0.4,0.2-0.4,0.4V4042z"/>
<path d="M236.6,4036.3c1.9-0.7,3.2-2.4,3.2-4.4c0-2.6-2.1-4.7-4.7-4.7c0,0,0,0,0,0h-6.2c-0.2,0-0.4,0.2-0.4,0.4v14.3
	c0,0.2,0.2,0.4,0.4,0.4h2c0.2,0,0.4-0.2,0.4-0.4v-5.5h2.4l0.1,0.3h1.9c0.3,0,0.7-0.1,0.9-0.3L236.6,4036.3z M234.8,4034.2h-3.5v-4.3
	h2.7h0.1h0.1h0.6c1.2,0,2.2,0.9,2.2,2.1c0,0,0,0,0,0C237,4033.2,236,4034.2,234.8,4034.2L234.8,4034.2z"/>
<path id="Path-220" d="M4.2,4072.2c0.1,0.2,0.2,0.3,0.4,0.3h0.3c0.2,0,0.3-0.1,0.4-0.2l3.8-9.8h0.1l3.9,9.8c0.1,0.2,0.2,0.3,0.4,0.2
	h0.4c0.2,0,0.3-0.1,0.4-0.3l4.1-14.6c0.1-0.2,0-0.4-0.2-0.5c-0.1,0-0.1,0-0.2,0h-2c-0.2,0-0.3,0.1-0.4,0.3l-2.2,8.6h-0.1l-3.5-8.9
	c-0.1-0.2-0.2-0.3-0.4-0.2H9c-0.2,0-0.3,0.1-0.4,0.2l-3.4,8.9H5.1l-2.2-8.6c-0.1-0.2-0.2-0.3-0.4-0.3h-2c-0.2,0-0.4,0.1-0.4,0.3
	c0,0.1,0,0.1,0,0.2L4.2,4072.2z"/>
<path id="Path-221" d="M44.8,4071.9c0,0.2,0.2,0.4,0.4,0.4h8.8c0.2,0,0.4-0.2,0.4-0.4v-1.8c0-0.2-0.2-0.4-0.4-0.4h-6.4v-3.8H53
	c0.2,0,0.4-0.2,0.4-0.4v-1.8c0-0.2-0.2-0.4-0.4-0.4h-5.3v-3.6h6.4c0.2,0,0.4-0.2,0.4-0.4v-1.8c0-0.2-0.2-0.4-0.4-0.4h-8.8
	c-0.2,0-0.4,0.2-0.4,0.4V4071.9z"/>
<path id="Path-222" d="M109.4,4071.8c-0.1,0.2,0.1,0.4,0.3,0.5c0,0,0.1,0,0.1,0h2c0.2,0,0.3-0.1,0.4-0.3l1.3-8.2h0.1l3.8,8.5
	c0.1,0.1,0.2,0.2,0.4,0.2h0.3c0.2,0,0.3-0.1,0.4-0.2l3.8-8.5h0.1l1.3,8.2c0.1,0.2,0.2,0.3,0.4,0.3h2c0.2,0,0.4-0.1,0.4-0.3
	c0-0.1,0-0.1,0-0.2l-2.6-14.6c0-0.2-0.2-0.3-0.4-0.3H123c-0.2,0-0.3,0.1-0.4,0.2l-4.8,10.2h-0.1l-4.8-10.2c-0.1-0.1-0.2-0.2-0.4-0.2
	h-0.3c-0.2,0-0.4,0.1-0.4,0.3L109.4,4071.8z"/>
<path id="Combined-Shape-38" d="M151.7,4072.3c-0.2,0-0.4-0.1-0.4-0.3c0-0.1,0-0.2,0-0.2l6.7-14.6c0.1-0.1,0.2-0.2,0.4-0.2h0.2
	c0.2,0,0.3,0.1,0.4,0.2l6.7,14.6c0.1,0.2,0,0.4-0.2,0.5c-0.1,0-0.1,0.1-0.2,0h-1.9c-0.3,0-0.5-0.2-0.6-0.4l-1.1-2.3h-6.5l-1.1,2.3
	c-0.1,0.3-0.3,0.4-0.6,0.4H151.7z M156.3,4067.1h4.4l-2.2-4.8h-0.1L156.3,4067.1z"/>
<path id="Path-223" d="M191.7,4071.8c0,0.3,0.2,0.5,0.5,0.5c0,0,0,0,0,0h1.9c0.3,0,0.5-0.2,0.5-0.5v-6.6l5.7,7
	c0.1,0.1,0.2,0.2,0.4,0.1h2.3c0.3,0,0.5-0.2,0.5-0.5c0-0.1,0-0.2-0.1-0.3l-6.1-7.3l5.7-6.4c0.2-0.2,0.2-0.5,0-0.7
	c-0.1-0.1-0.2-0.1-0.3-0.1h-2.2c-0.2,0-0.3,0.1-0.4,0.2l-5.5,6.1v-5.9c0-0.3-0.2-0.5-0.5-0.5h-1.9c-0.3,0-0.5,0.2-0.5,0.5
	c0,0,0,0,0,0L191.7,4071.8z"/>
<path id="Path-224" d="M229.9,4071.9c0,0.2,0.2,0.4,0.4,0.4h8.8c0.2,0,0.4-0.2,0.4-0.4v-1.8c0-0.2-0.2-0.4-0.4-0.4h-6.4v-3.8h5.3
	c0.2,0,0.4-0.2,0.4-0.4v-1.8c0-0.2-0.2-0.4-0.4-0.4h-5.4v-3.6h6.4c0.2,0,0.4-0.2,0.4-0.4v-1.8c0-0.2-0.2-0.4-0.4-0.4h-8.8
	c-0.2,0-0.4,0.2-0.4,0.4L229.9,4071.9z"/>
<path id="Path-225" d="M1.4,4132c0,0.2,0.2,0.4,0.4,0.4h2c0.2,0,0.4-0.2,0.4-0.4v-14.4c0-0.2-0.2-0.4-0.4-0.4h-2
	c-0.2,0-0.4,0.2-0.4,0.4V4132z"/>
<path id="Path-226" d="M31.9,4132c0,0.2,0.2,0.4,0.4,0.4h2c0.2,0,0.4-0.2,0.4-0.4v-12.2h3.3c0.2,0,0.4-0.2,0.4-0.4v-1.8
	c0-0.2-0.2-0.4-0.4-0.4h-9.5c-0.2,0-0.4,0.2-0.4,0.4v1.8c0,0.2,0.2,0.4,0.4,0.4h3.3V4132z"/>
<path id="Path-227" d="M88.1,4131c1.3,1.1,3,1.7,4.8,1.7c3.1,0,5-2.1,5-4.3c0-2.8-2.4-4.1-4.5-4.9c-1.8-0.7-2.6-1.4-2.6-2.4
	c0.1-0.9,1-1.6,1.9-1.5c1.1,0.2,2.1,0.6,3,1.2c0.3,0.1,0.6,0,0.8-0.3l0.8-1.2c0.2-0.2,0.1-0.6-0.1-0.7c-1.3-0.9-2.8-1.4-4.3-1.4
	c-3.4,0-4.9,2.2-4.9,4.2c0,2.6,2,3.9,4.1,4.7c1.8,0.7,2.8,1.5,2.8,2.6c-0.1,1-0.9,1.7-1.9,1.7c0,0,0,0-0.1,0
	c-1.2-0.2-2.3-0.6-3.3-1.3c-0.2-0.2-0.5-0.1-0.7,0.1c0,0,0,0,0,0.1l-0.8,1.3C87.8,4130.7,87.9,4130.8,88.1,4131z"/>
<path id="Path-228" d="M122.1,4126.7c0,3.3,2.7,6,6,6s6-2.7,6-6v-9c0-0.2-0.2-0.4-0.4-0.4h-2.1c-0.2,0-0.4,0.2-0.4,0.4v8.9
	c0.1,1.7-1.2,3.2-3,3.3s-3.2-1.2-3.3-3c0-0.1,0-0.2,0-0.4v-8.9c0-0.2-0.2-0.4-0.4-0.4h-2.1c-0.2,0-0.4,0.2-0.4,0.4L122.1,4126.7z"/>
<path id="Combined-Shape-39" d="M159.5,4132v-14.4c0-0.2,0.2-0.4,0.4-0.4h5.1c2.7,0,4.8,2.1,4.9,4.8s-2.1,4.8-4.8,4.9c0,0,0,0,0,0
	h-2.7v5.1c0,0.2-0.2,0.4-0.4,0.4h-2C159.7,4132.4,159.5,4132.2,159.5,4132z M162.4,4124.3h2.5c1.2,0,2.2-1,2.2-2.2c0,0,0,0,0,0
	c0-1.2-1-2.1-2.2-2.1c0,0,0,0,0,0h-2.5V4124.3z"/>
<path id="Path-229" d="M194,4132c0,0.2,0.2,0.4,0.4,0.4h8.8c0.2,0,0.4-0.2,0.4-0.4v-1.8c0-0.2-0.2-0.4-0.4-0.4h-6.4v-3.8h5.4
	c0.2,0,0.4-0.2,0.4-0.4v-1.8c0-0.2-0.2-0.4-0.4-0.4h-5.4v-3.6h6.4c0.2,0,0.4-0.2,0.4-0.4v-1.8c0-0.2-0.2-0.4-0.4-0.4h-8.8
	c-0.2,0-0.4,0.2-0.4,0.4V4132z"/>
<path id="Combined-Shape-40" d="M228.4,4132v-14.4c0-0.2,0.2-0.4,0.4-0.4h6.2c2.6,0,4.7,2.1,4.7,4.7l0,0c-0.1,2-1.3,3.7-3.2,4.4
	l3,5.5c0.1,0.2,0.1,0.4-0.1,0.6c-0.1,0-0.2,0.1-0.2,0.1h-2.3c-0.1,0-0.3-0.1-0.4-0.2l-2.9-5.7h-2.4v5.5c0,0.2-0.2,0.4-0.4,0.4h-2
	C228.6,4132.4,228.4,4132.2,228.4,4132C228.4,4132,228.4,4132,228.4,4132z M231.3,4124.2h3.5c1.2,0,2.2-1,2.2-2.2
	c0-1.2-1-2.1-2.1-2.1h-3.5L231.3,4124.2z"/>
<path id="Path-230" d="M44.8,1101.9c0,0.2,0.2,0.4,0.4,0.4h8.8c0.2,0,0.4-0.2,0.4-0.4v-1.8c0-0.2-0.2-0.4-0.4-0.4h-6.4v-3.8H53
	c0.2,0,0.4-0.2,0.4-0.4v-1.8c0-0.2-0.2-0.4-0.4-0.4h-5.3v-3.5h6.4c0.2,0,0.4-0.2,0.4-0.4v-1.8c0-0.2-0.2-0.4-0.4-0.4h-8.8
	c-0.2,0-0.4,0.2-0.4,0.4V1101.9z"/>
<path id="Path-231" d="M44.8,1191.9c0,0.2,0.2,0.4,0.4,0.4c0,0,0,0,0,0h8.8c0.2,0,0.4-0.2,0.4-0.4l0,0v-1.8c0-0.2-0.2-0.4-0.4-0.4
	c0,0,0,0,0,0h-6.4v-3.8H53c0.2,0,0.4-0.2,0.4-0.4l0,0v-1.8c0-0.2-0.2-0.4-0.4-0.4h-5.3v-3.6h6.4c0.2,0,0.4-0.2,0.4-0.4l0,0v-1.8
	c0-0.2-0.2-0.4-0.4-0.4c0,0,0,0,0,0h-8.8c-0.2,0-0.4,0.2-0.4,0.4l0,0V1191.9z"/>
<path id="Path-232" d="M44.8,2271.9c0,0.2,0.2,0.4,0.4,0.4h8.8c0.2,0,0.4-0.2,0.4-0.4v-1.8c0-0.2-0.2-0.4-0.4-0.4h-6.4v-3.8H53
	c0.2,0,0.4-0.2,0.4-0.4v-1.8c0-0.2-0.2-0.4-0.4-0.4h-5.3v-3.6h6.4c0.2,0,0.4-0.2,0.4-0.4v-1.8c0-0.2-0.2-0.4-0.4-0.4h-8.8
	c-0.2,0-0.4,0.2-0.4,0.4V2271.9z"/>
<path d="M2.5,187.1h-2c-0.2,0-0.4,0.1-0.4,0.3c0,0.1,0,0.1,0,0.2l4.1,14.6c0.1,0.2,0.2,0.3,0.4,0.3h0.3c0.2,0,0.3-0.1,0.4-0.2l1-2.5
	l-1.1-3.7l-2.3-8.6C2.8,187.3,2.7,187.2,2.5,187.1z"/>
<path d="M13.3,376.1L13.3,376.1l-3.5-8.9c-0.1-0.2-0.2-0.3-0.4-0.2H9c-0.2,0-0.3,0.1-0.4,0.2l-3.4,8.9H5.1l-2.2-8.6
	c-0.1-0.2-0.2-0.3-0.4-0.3h-2c-0.2,0-0.4,0.1-0.4,0.3c0,0.1,0,0.1,0,0.2l4.1,14.6c0.1,0.2,0.2,0.3,0.4,0.3h0.3
	c0.2,0,0.3-0.1,0.4-0.2l3.6-9.1l0,0l0.3-0.7h0.1l3.9,9.8c0.1,0.2,0.2,0.3,0.4,0.2h0.4c0.2,0,0.3-0.1,0.4-0.3l0.6-2L13.3,376.1z"/>
<path d="M47.7,645.9v-6.2h6.4c0.2,0,0.4-0.2,0.4-0.4v-1.8c0-0.2-0.2-0.4-0.4-0.4h-8.8c-0.2,0-0.4,0.2-0.4,0.4v11.4
	c0.8,0.6,1.9,0.4,2.5-0.4c0.2-0.2,0.3-0.5,0.3-0.7L47.7,645.9z"/>
<path d="M47.7,739.7v-10h6.4c0.2,0,0.4-0.2,0.4-0.4v-1.8c0-0.2-0.2-0.4-0.4-0.4h-8.8c-0.2,0-0.4,0.2-0.4,0.4v14.4
	c0,0.2,0.2,0.4,0.4,0.4h6.9c0.7-0.7,0.7-1.8,0.1-2.5c0,0,0,0-0.1-0.1H47.7z"/>
<path d="M113.1,997.1c-0.1-0.1-0.2-0.2-0.4-0.2h-0.3c-0.2,0-0.4,0.1-0.4,0.3l-2.6,14.6c-0.1,0.2,0.1,0.4,0.3,0.5c0,0,0.1,0,0.1,0h2
	c0.2,0,0.3-0.1,0.4-0.3l1.8-12.9L113.1,997.1z"/>
<path d="M158.4,1362.4L158.4,1362.4l1.4-3.2l-0.9-1.9c-0.1-0.2-0.2-0.3-0.4-0.2h-0.2c-0.2,0-0.3,0.1-0.4,0.2l-6.7,14.6
	c-0.1,0.2,0,0.4,0.2,0.5c0.1,0,0.1,0.1,0.2,0h1.9c0.3,0,0.5-0.2,0.6-0.4l1.1-2.3l1.1-2.4L158.4,1362.4z"/>
<path d="M165.7,1461.8l-6.7-14.6c-0.1-0.2-0.2-0.3-0.4-0.2h-0.2c-0.2,0-0.3,0.1-0.4,0.2l-6.7,14.6c-0.1,0.2,0,0.4,0.2,0.5
	c0.1,0,0.1,0.1,0.2,0h1.9c0.3,0,0.5-0.2,0.6-0.4l1.1-2.3l1.1-2.4l2.1-4.8h0.1l2.2,4.8l0,0l1.1,2.4l0,0l1.1,2.3
	c0.1,0.3,0.3,0.4,0.6,0.4h1.9c0.2,0,0.4-0.1,0.4-0.3C165.7,1461.9,165.7,1461.8,165.7,1461.8z"/>
<path d="M194.6,1633.5v-5.8c0-0.3-0.2-0.5-0.5-0.5h-1.9c-0.3,0-0.5,0.2-0.5,0.5c0,0,0,0,0,0v14.1c0,0.3,0.2,0.5,0.5,0.5c0,0,0,0,0,0
	h1.9c0.3,0,0.5-0.2,0.5-0.5V1633.5z"/>
<path d="M239.1,1897.1h-8.8c-0.2,0-0.4,0.2-0.4,0.4l0,0v7.1c0.7,0.6,1.9,0.6,2.5-0.2c0.1-0.2,0.2-0.3,0.3-0.5v-4.2h6.4
	c0.2,0,0.4-0.2,0.4-0.4l0,0v-1.8C239.5,1897.3,239.3,1897.1,239.1,1897.1C239.1,1897.1,239.1,1897.1,239.1,1897.1z"/>
<path d="M239.1,1987.1h-8.8c-0.2,0-0.4,0.2-0.4,0.4l0,0v14.3c0,0.2,0.2,0.4,0.4,0.4c0,0,0,0,0,0h2.4v-12.6h6.4
	c0.2,0,0.4-0.2,0.4-0.4l0,0v-1.8C239.5,1987.3,239.3,1987.1,239.1,1987.1C239.1,1987.1,239.1,1987.1,239.1,1987.1z"/>
<path d="M239.5,2079.3v-1.8c0-0.2-0.2-0.4-0.4-0.4c0,0,0,0,0,0h-8.8c-0.2,0-0.4,0.2-0.4,0.4l0,0v14.4c0,0.2,0.2,0.4,0.4,0.4
	c0,0,0,0,0,0h8.8c0.2,0,0.4-0.2,0.4-0.4l0,0v-1.8c0-0.2-0.2-0.4-0.4-0.4c0,0,0,0,0,0h-6.4v-10h6.4
	C239.3,2079.7,239.5,2079.5,239.5,2079.3z"/>
<path d="M38.1,2407.3h-9.5c-0.2,0-0.4,0.2-0.4,0.4v1.8c0,0.2,0.2,0.4,0.4,0.4h9.5c0.2,0,0.4-0.2,0.4-0.4v-1.8
	C38.5,2407.5,38.3,2407.3,38.1,2407.3z"/>
<path d="M162.4,3129.9v-2.7h-2.4c-0.2,0-0.4,0.2-0.4,0.4v14.3c0,0.2,0.2,0.4,0.4,0.4h2c0.2,0,0.4-0.2,0.4-0.4V3129.9L162.4,3129.9z"
	/>
<path d="M165,3217.3h-5.1c-0.2,0-0.4,0.2-0.4,0.4v14.3c0,0.2,0.2,0.4,0.4,0.4h2c0.2,0,0.4-0.2,0.4-0.4v-12.1h0.2l0,0h0.1h2.1
	c1.2,0,2.2,0.9,2.2,2.1c0,0,0,0,0,0c0,0.4-0.1,0.8-0.3,1.1c0.1,0,0.2,0,0.3,0c1.3-0.1,2.4-1,2.6-2.3
	C169.1,3218.7,167.2,3217.3,165,3217.3z"/>
<path d="M203.3,3397.3h-8.8c-0.2,0-0.4,0.2-0.4,0.4v2.2h9.2c0.2,0,0.4-0.2,0.4-0.4v-1.8C203.7,3397.5,203.5,3397.3,203.3,3397.3z"/>
<path d="M228.9,3757.3c-0.2,0-0.4,0.2-0.4,0.4v9.8c0.6,0.8,1.8,0.9,2.5,0.2c0.1-0.1,0.2-0.2,0.3-0.3v-10.1L228.9,3757.3z"/>
<path d="M231.3,3854.2v-4.3h2.7c0.6-0.2,1.1-0.8,1.2-1.5c0-0.4-0.2-0.9-0.6-1.1h-5.7c-0.2,0-0.4,0.2-0.4,0.4v14.3
	c0,0.2,0.2,0.4,0.4,0.4h2c0.2,0,0.4-0.2,0.4-0.4v-5.5l0,0L231.3,3854.2z"/>
<path d="M235.1,3937.3h-6.2c-0.2,0-0.4,0.2-0.4,0.4v14.3c0,0.2,0.2,0.4,0.4,0.4h2c0.2,0,0.4-0.2,0.4-0.4v-5.5l0,0v-6.6h2.7h0.1h0.1
	h0.6c1.2,0,2.2,0.9,2.2,2.1c0,0,0,0,0,0.1c0,0.8-0.4,1.5-1.1,1.9c0.4,0.3,0.9,0.5,1.5,0.5c1,0,2-0.7,2.4-1.6
	c0.1-0.3,0.1-0.6,0.1-0.8C239.8,3939.4,237.7,3937.3,235.1,3937.3C235.1,3937.3,235.1,3937.3,235.1,3937.3z"/>
</svg>
