<?xml version="1.0" encoding="UTF-8" standalone="no"?>
<svg xmlns="http://www.w3.org/2000/svg" height="27px" width="135px" version="1.1" xmlns:xlink="http://www.w3.org/1999/xlink" viewBox="0 0 135 27"><!-- Generator: Sketch 42 (36781) - http://www.bohemiancoding.com/sketch -->
 <title>Group 21</title>
 <desc>Created with Sketch.</desc>
 <g id="Page-1" fill-rule="evenodd" fill="none">
  <g id="who_we_are" fill="#303030" transform="translate(-1131 -2002)">
   <g id="Group-21" transform="translate(1131 2002)">
    <path id="Fill-1" d="m12.388 6.1703c0.244-0.7703 0.499-2.0209-0.209-2.747-0.357-0.3521-0.856-0.5539-1.544-0.5539-1.6998 0-2.8322 0.8441-3.1182 2.3317-0.3576 1.825 1.4272 2.7117 3.3552 3.7207 2.463 1.2952 5.204 2.9992 4.735 6.4532-0.626 4.414-3.724 5.981-9.3759 5.981-2.0125 0-4.5838-0.877-5.2289-2.04-0.60559-1.078-0.91789-2.583-0.31081-4.862l4.7604-0.009c-0.2685 0.694-0.5356 2.597 0.0817 3.281 0.3969 0.443 1.0668 0.664 2.0431 0.664 1.6607 0 2.7874-0.899 3.0894-2.479 0.34-1.731-1.5046-2.871-3.4207-3.943-2.44-1.382-5.1734-2.8194-4.5137-6.2013 0.7501-3.8458 3.6075-5.7636 8.7344-5.7636 2.524-0.0000136 4.172 0.56265 5.058 1.6202 0.833 0.9987 0.975 2.5247 0.429 4.5382l-4.565 0.0088"/>
    <path id="Fill-2" d="m37.492 20.931l1.757-9.817c0.136-0.735 0.216-1.55-0.181-2.039-0.245-0.2887-0.62-0.4316-1.144-0.4316-1.506 0-1.924 1.1651-2.153 2.4226l-1.792 9.865h-3.966l2.562-14.235 3.939 0.0002-0.356 1.5451 0.293-0.0088c0.936-1.1445 2.315-1.8015 3.981-1.8015 1.137 0 2.102 0.3815 2.646 1.0355 0.435 0.5141 0.581 1.199 0.444 1.9605l-2.073 11.504h-3.957"/>
    <polyline id="Fill-3" points="49.104 16.918 49.307 16.918 53.515 6.6962 57.307 6.6962 47.961 26.429 43.783 26.429 46.325 21.19 44.806 6.6962 48.767 6.6962 49.104 16.918"/>
    <polyline id="Fill-4" points="77.212 4.8299 76.901 4.8299 69.968 20.832 65.915 20.832 64.853 4.8299 64.549 4.8299 61.729 20.832 57.635 20.832 61.253 0.37427 68.207 0.37427 69.066 14.487 69.341 14.487 75.352 0.37427 82.091 0.37427 78.477 20.832 74.399 20.832 77.212 4.8299"/>
    <path id="Fill-5" d="m88.725 19.453l-0.229 0.021c-0.992 1.192-2.218 1.754-3.889 1.754-1.14 0-2.108-0.366-2.652-1.022-0.423-0.518-0.584-1.196-0.438-1.96l2.064-11.55 4.003 0.0002-1.808 9.9148c-0.124 0.713-0.206 1.512 0.184 1.985 0.236 0.284 0.617 0.426 1.152 0.426 1.509 0 1.924-1.137 2.149-2.36l1.771-9.9658h4.005l-2.094 11.495c-0.151 0.875-0.266 1.916-0.307 2.74h-4.123l0.212-1.478"/>
    <path id="Fill-6" d="m103.18 10.686c0.35-0.7714 0.2-1.6169-0.09-1.9159-0.27-0.3123-0.7-0.3535-1.12-0.3535-1 0-1.68 0.6068-1.87 1.6744-0.189 1.062 1.04 1.625 2.47 2.266 2 0.916 4.25 1.95 3.78 4.569-0.46 2.572-3.02 4.302-6.356 4.302-2.465 0-3.885-0.396-4.592-1.318-0.602-0.756-0.711-1.881-0.346-3.429h3.938c-0.172 0.546-0.331 1.268-0.138 1.741 0.225 0.549 0.67 0.8 1.554 0.8 0.84 0 1.78-0.495 1.98-1.613 0.27-1.491-1.21-2.152-2.777-2.846-1.91-0.857-3.882-1.728-3.448-4.167 0.673-3.6748 5.215-3.965 6.605-3.965 1.83 0 3.23 0.52 3.95 1.4568 0.55 0.7232 0.71 1.6468 0.42 2.7982h-3.96"/>
    <path id="Fill-7" d="m114.94 0.47885l-0.59 3.2346-3.97 0.0001 0.61-3.2346 3.95-0.00005zm-1.11 6.2174l-2.53 14.235h-3.96l2.52-14.235 3.97 0.0002z"/>
    <path id="Fill-8" d="m123.03 11.648c0.3-1.065 0.22-1.975-0.17-2.4375-0.27-0.3226-0.68-0.4743-1.31-0.4743-1.97 0-2.39 1.7678-2.91 4.6588-0.59 3.198-0.6 4.484-0.09 5.104 0.24 0.3 0.63 0.433 1.22 0.433 1.73 0 2.59-2.006 2.62-3.152h3.96c-0.42 3.386-2.94 5.448-7.05 5.448-2.07 0-3.44-0.447-4.22-1.389-1.07-1.293-0.96-3.393-0.46-6.164 0.69-3.8164 1.76-7.244 7.39-7.244 2.12 0 3.6 0.4964 4.41 1.4818 0.72 0.8573 0.96 2.0725 0.66 3.7352h-4.05"/>
    <path id="Fill-9" d="m17.35 13.675c0.681-3.8164 1.763-7.244 7.397-7.244 2.077 0 3.469 0.4655 4.26 1.4214 1.105 1.3404 0.884 3.5586 0.49 5.7726-0.881 4.933-2.34 7.603-7.463 7.603-2.073 0-3.445-0.447-4.224-1.389-1.076-1.293-0.959-3.393-0.46-6.164zm8.212-0.225c0.364-2.039 0.575-3.5222-0.006-4.2395-0.272-0.3226-0.691-0.4743-1.277-0.4743-1.975 0-2.389 1.7678-2.917 4.6588-0.578 3.198-0.593 4.484-0.087 5.104 0.246 0.3 0.627 0.433 1.222 0.433 1.691 0 2.268-1.022 3.065-5.482z"/>
    <polyline id="Fill-10" points="128.95 18.651 127.87 18.651 127.87 18.332 130.43 18.332 130.43 18.651 129.33 18.651 129.33 20.923 128.95 20.923 128.95 18.651"/>
    <polyline id="Fill-11" points="131.3 18.604 131.29 18.604 131.29 20.923 130.92 20.923 130.92 18.332 131.52 18.332 132.64 20.608 133.77 18.332 134.36 18.332 134.36 20.923 133.99 20.923 133.99 18.604 133.99 18.604 132.84 20.923 132.45 20.923 131.3 18.604"/>
   </g>
  </g>
 </g>
</svg>
