<?xml version="1.0" encoding="UTF-8" standalone="no"?>
<svg xmlns="http://www.w3.org/2000/svg" height="94px" width="310px" version="1.1" xmlns:xlink="http://www.w3.org/1999/xlink" viewBox="0 0 310 94"><!-- Generator: Sketch 43 (38999) - http://www.bohemiancoding.com/sketch -->
 <title>Group 2</title>
 <desc>Created with Sketch.</desc>
 <g id="Page-1" fill-rule="evenodd" fill="none">
  <g id="Group-2" fill="#303030">
   <path id="Fill-1" d="m74.055 41.304c-14.971-8.891-39.664-9.708-53.955-5.371-2.295 0.697-4.722-0.599-5.417-2.894-0.696-2.296 0.599-4.721 2.895-5.419 16.405-4.98 43.676-4.018 60.911 6.212 2.064 1.226 2.741 3.892 1.517 5.953-1.224 2.064-3.892 2.744-5.951 1.519zm-0.491 13.168c-1.049 1.704-3.278 2.238-4.98 1.192-12.481-7.672-31.512-9.894-46.278-5.412-1.915 0.578-3.938-0.501-4.519-2.413-0.577-1.915 0.503-3.933 2.414-4.516 16.868-5.118 37.837-2.639 52.172 6.171 1.702 1.048 2.238 3.277 1.191 4.978zm-5.682 12.646c-0.835 1.368-2.617 1.797-3.98 0.963-10.907-6.665-24.634-8.171-40.8-4.478-1.558 0.357-3.11-0.62-3.465-2.177-0.357-1.558 0.615-3.11 2.176-3.465 17.692-4.045 32.867-2.304 45.109 5.176 1.364 0.834 1.794 2.617 0.96 3.981zm-21.299-66.987c-25.65 0-46.443 20.793-46.443 46.442-0.00025 25.651 20.793 46.443 46.443 46.443s46.442-20.792 46.442-46.443c0-25.649-20.792-46.442-46.442-46.442v0.00044z"/>
   <path id="Fill-2" d="m126.49 43.006c-8.01-1.912-9.44-3.255-9.44-6.074 0-2.665 2.51-4.457 6.24-4.457 3.61 0 7.2 1.361 10.96 4.164 0.11 0.085 0.25 0.119 0.39 0.097 0.14-0.021 0.27-0.098 0.35-0.214l3.92-5.52c0.16-0.227 0.11-0.54-0.1-0.714-4.48-3.59-9.52-5.335-15.4-5.335-8.66 0-14.71 5.196-14.71 12.63 0 7.972 5.22 10.795 14.23 12.974 7.67 1.767 8.97 3.248 8.97 5.895 0 2.933-2.62 4.757-6.83 4.757-4.68 0-8.5-1.577-12.77-5.275-0.11-0.091-0.25-0.133-0.39-0.126-0.14 0.012-0.27 0.077-0.36 0.186l-4.39 5.224c-0.18 0.217-0.16 0.541 0.05 0.728 4.97 4.437 11.08 6.78 17.68 6.78 9.33 0 15.36-5.098 15.36-12.988 0-6.668-3.99-10.356-13.76-12.732"/>
   <path id="Fill-3" d="m168.13 51.943c0 5.631-3.47 9.56-8.44 9.56-4.91 0-8.61-4.108-8.61-9.56s3.7-9.56 8.61-9.56c4.89 0 8.44 4.02 8.44 9.56zm-6.77-16.846c-4.05 0-7.36 1.593-10.1 4.857v-3.674c0-0.29-0.24-0.526-0.53-0.526h-7.17c-0.3 0-0.53 0.236-0.53 0.526v40.819c0 0.29 0.23 0.526 0.53 0.526h7.17c0.29 0 0.53-0.236 0.53-0.526v-12.884c2.74 3.07 6.05 4.569 10.1 4.569 7.51 0 15.12-5.784 15.12-16.841 0-11.06-7.61-16.846-15.12-16.846z"/>
   <path id="Fill-4" d="m195.97 61.562c-5.14 0-9.02-4.136-9.02-9.619 0-5.506 3.74-9.502 8.91-9.502 5.18 0 9.08 4.135 9.08 9.622 0 5.506-3.77 9.499-8.97 9.499zm0-26.465c-9.67 0-17.25 7.452-17.25 16.966 0 9.411 7.53 16.784 17.14 16.784 9.71 0 17.31-7.426 17.31-16.904 0-9.446-7.55-16.846-17.2-16.846z"/>
   <path id="Fill-5" d="m233.84 35.754h-7.9v-8.078c0-0.29-0.24-0.526-0.53-0.526h-7.18c-0.29 0-0.52 0.236-0.52 0.526v8.078h-3.46c-0.29 0-0.52 0.236-0.52 0.526v6.171c0 0.29 0.23 0.526 0.52 0.526h3.46v15.967c0 6.453 3.21 9.725 9.54 9.725 2.58 0 4.71-0.532 6.73-1.674 0.16-0.092 0.26-0.268 0.26-0.456v-5.876c0-0.181-0.09-0.352-0.25-0.447-0.15-0.099-0.35-0.104-0.51-0.024-1.38 0.696-2.72 1.017-4.21 1.017-2.31 0-3.33-1.046-3.33-3.39v-14.842h7.9c0.29 0 0.52-0.236 0.52-0.526v-6.171c0-0.29-0.23-0.526-0.52-0.526"/>
   <path id="Fill-6" d="m261.36 35.786v-0.993c0-2.918 1.12-4.22 3.63-4.22 1.5 0 2.7 0.297 4.05 0.747 0.17 0.052 0.34 0.026 0.47-0.074 0.14-0.099 0.22-0.258 0.22-0.427v-6.05c0-0.231-0.15-0.436-0.37-0.504-1.42-0.423-3.24-0.858-5.97-0.858-6.63 0-10.14 3.735-10.14 10.796v1.52h-3.45c-0.29 0-0.52 0.236-0.52 0.526v6.202c0 0.29 0.23 0.526 0.52 0.526h3.45v24.629c0 0.29 0.24 0.526 0.53 0.526h7.18c0.29 0 0.52-0.236 0.52-0.526v-24.629h6.71l10.27 24.622c-1.17 2.587-2.32 3.102-3.88 3.102-1.27 0-2.6-0.378-3.96-1.123-0.13-0.07-0.28-0.082-0.42-0.039-0.14 0.048-0.25 0.15-0.31 0.284l-2.43 5.339c-0.12 0.252-0.02 0.548 0.22 0.679 2.54 1.376 4.84 1.963 7.67 1.963 5.3 0 8.23-2.47 10.82-9.114l12.45-32.188c0.07-0.162 0.05-0.344-0.05-0.488-0.1-0.142-0.26-0.228-0.43-0.228h-7.48c-0.22 0-0.42 0.142-0.5 0.352l-7.65 21.871-8.39-21.885c-0.08-0.204-0.27-0.338-0.49-0.338h-12.27"/>
   <path id="Fill-7" d="m245.41 35.754h-7.18c-0.29 0-0.53 0.236-0.53 0.526v31.326c0 0.29 0.24 0.526 0.53 0.526h7.18c0.29 0 0.52-0.236 0.52-0.526v-31.326c0-0.29-0.23-0.526-0.52-0.526"/>
   <path id="Fill-8" d="m241.85 21.491c-2.84 0-5.15 2.303-5.15 5.147 0 2.846 2.31 5.151 5.15 5.151 2.85 0 5.15-2.305 5.15-5.151 0-2.844-2.3-5.147-5.15-5.147"/>
   <path id="Fill-9" d="m305.05 38.87h-1.32v1.678h1.32c0.65 0 1.05-0.321 1.05-0.84 0-0.546-0.4-0.838-1.05-0.838zm0.85 2.393l1.43 2.001h-1.2l-1.29-1.835h-1.11v1.835h-1.01v-5.303h2.37c1.23 0 2.04 0.63 2.04 1.691 0 0.87-0.5 1.401-1.23 1.611zm-1.12-5.068c-2.59 0-4.55 2.058-4.55 4.577 0 2.518 1.95 4.549 4.52 4.549 2.59 0 4.55-2.057 4.55-4.577 0-2.519-1.94-4.549-4.52-4.549zm-0.03 9.631c-2.84 0-5.05-2.282-5.05-5.054 0-2.771 2.24-5.079 5.08-5.079s5.05 2.282 5.05 5.051c0 2.771-2.23 5.082-5.08 5.082z"/>
  </g>
 </g>
</svg>
