<?xml version="1.0" encoding="UTF-8" standalone="no"?>
<svg xmlns="http://www.w3.org/2000/svg" height="40px" width="149px" version="1.1" xmlns:xlink="http://www.w3.org/1999/xlink" viewBox="0 0 149 40"><!-- Generator: Sketch 43 (38999) - http://www.bohemiancoding.com/sketch -->
 <title>Group 3</title>
 <desc>Created with Sketch.</desc>
 <g id="Page-1" fill-rule="evenodd" fill="none">
  <g id="Group-3" fill="#303030">
   <path id="Fill-1" d="m5.867 30.231l-0.272-0.394c-0.169-0.242-0.331-0.311-0.777-0.119l-0.057-0.086c0.258-0.137 0.51-0.272 0.754-0.424l1.482 2.139c-0.228 0.177-0.443 0.365-0.658 0.56l-0.062-0.088c0.334-0.345 0.328-0.521 0.16-0.765l-0.276-0.395-2.213 1.535c-0.147 0.1-0.189 0.207-0.063 0.444l-0.061 0.043c-0.114-0.168-0.218-0.371-0.307-0.502-0.091-0.129-0.247-0.295-0.363-0.467l0.062-0.043c0.178 0.203 0.291 0.201 0.438 0.1l2.213-1.538"/>
   <path id="Fill-2" d="m6.882 35.526c0.418 0.366 1.098 0.418 1.649-0.215 0.607-0.693 0.54-1.576 0.036-2.019-0.289-0.252-1.019-0.486-1.658 0.242-0.489 0.561-0.639 1.457-0.027 1.992m2.039-2.402c0.878 0.77 0.606 1.785 0.099 2.365-0.594 0.682-1.684 0.912-2.471 0.223-0.797-0.697-0.721-1.68-0.092-2.395 0.68-0.777 1.848-0.728 2.464-0.193"/>
   <path id="Fill-3" d="m10.842 35.067c-0.008-0.173-0.029-0.279-0.184-0.392l0.032-0.065c0.167 0.084 0.32 0.196 0.484 0.28 0.16 0.08 0.334 0.133 0.499 0.216l-0.034 0.065c-0.154-0.072-0.238-0.076-0.277-0.002-0.022 0.047-0.034 0.104-0.037 0.211l0.009 1.572 1.232-0.957c0.071-0.058 0.094-0.105 0.114-0.143 0.039-0.081-0.007-0.146-0.163-0.234l0.034-0.066c0.122 0.064 0.295 0.187 0.443 0.262 0.113 0.056 0.24 0.087 0.393 0.16l-0.034 0.066c-0.184-0.082-0.284-0.031-0.512 0.137l-1.482 1.101-0.425 0.842c-0.078 0.16-0.065 0.272 0.158 0.42l-0.035 0.064c-0.181-0.089-0.367-0.22-0.509-0.292-0.144-0.071-0.359-0.145-0.541-0.237l0.033-0.066c0.256 0.092 0.355 0.037 0.434-0.123l0.425-0.838-0.057-1.981"/>
   <path id="Fill-5" d="m15.083 39.638c0.544 0.123 1.162-0.159 1.346-0.978 0.205-0.895-0.277-1.641-0.928-1.79-0.376-0.085-1.131 0.061-1.344 1.006-0.163 0.723 0.134 1.582 0.926 1.762m0.644-3.082c1.141 0.258 1.385 1.279 1.216 2.027-0.199 0.883-1.046 1.604-2.063 1.375-1.033-0.231-1.433-1.134-1.224-2.06 0.228-1.008 1.277-1.522 2.071-1.342"/>
   <path id="Fill-6" d="m21.19 36.917c0.161-0.039 0.326-0.043 0.465-0.074 0.261-0.065 0.418-0.133 0.576-0.17l0.015 0.072c-0.109 0.031-0.289 0.106-0.245 0.291l0.471 2.006c0.13 0.541 0.519 0.732 0.934 0.635 0.42-0.1 0.687-0.442 0.561-0.985l-0.475-2.005c-0.042-0.186-0.233-0.172-0.348-0.153l-0.016-0.07c0.157-0.037 0.332-0.047 0.592-0.108 0.138-0.031 0.289-0.101 0.449-0.138l0.016 0.072c-0.205 0.072-0.232 0.092-0.179 0.318l0.437 1.866c0.189 0.797-0.187 1.273-0.976 1.459-0.783 0.183-1.33-0.079-1.52-0.871l-0.436-1.868c-0.055-0.224-0.089-0.234-0.302-0.205l-0.019-0.072"/>
   <path id="Fill-8" d="m25.941 35.798c-0.077-0.129-0.151-0.133-0.344-0.055l-0.037-0.066c0.127-0.074 0.272-0.123 0.403-0.198 0.122-0.07 0.208-0.158 0.319-0.222l2.784 1.219 0.012-0.008-0.963-1.643c-0.178-0.305-0.292-0.332-0.559-0.226l-0.038-0.065c0.127-0.074 0.272-0.121 0.398-0.199 0.149-0.086 0.283-0.199 0.433-0.289l0.037 0.064c-0.16 0.131-0.196 0.201-0.121 0.327l1.57 2.681-0.269 0.158-3.19-1.404-0.013 0.006 1.148 1.959c0.176 0.305 0.289 0.33 0.559 0.227l0.037 0.064c-0.126 0.074-0.27 0.121-0.396 0.197-0.15 0.088-0.285 0.203-0.435 0.289l-0.039-0.064c0.163-0.131 0.194-0.199 0.121-0.328l-1.417-2.424"/>
   <path id="Fill-9" d="m31.801 35.427c0.127-0.164 0.143-0.238 0.043-0.342l-1.941-2.037c-0.102-0.108-0.175-0.094-0.347 0.025l-0.049-0.054c0.077-0.077 0.256-0.204 0.401-0.338 0.145-0.139 0.28-0.313 0.361-0.387l0.049 0.053c-0.126 0.164-0.143 0.24-0.043 0.345l1.942 2.034c0.102 0.109 0.177 0.093 0.345-0.024l0.051 0.053c-0.079 0.074-0.257 0.203-0.401 0.34-0.145 0.138-0.279 0.312-0.36 0.384l-0.051-0.052"/>
   <path id="Fill-10" d="m31.184 31.386c0.119-0.178 0.264-0.338 0.381-0.514 0.083-0.127 0.142-0.266 0.228-0.4l0.061 0.045c-0.105 0.168-0.105 0.254-0.021 0.308 0.047 0.031 0.16 0.061 0.216 0.076l2.415 0.6 0.007-0.006-1.463-1.889c-0.087-0.107-0.154-0.183-0.207-0.22-0.087-0.059-0.193 0.043-0.272 0.121l-0.056-0.043c0.087-0.135 0.204-0.248 0.292-0.381 0.071-0.109 0.12-0.234 0.191-0.346l0.063 0.041c-0.077 0.155-0.042 0.289 0.06 0.419l1.953 2.554-0.194 0.293-3.217-0.758c-0.119-0.027-0.226-0.047-0.375 0.141l-0.062-0.041"/>
   <path id="Fill-11" d="m33.893 27.388c-0.141-0.047-0.201 0-0.295 0.185l-0.071-0.023 0.796-2.41c0.243 0.082 0.499 0.152 0.749 0.213l-0.032 0.099c-0.42-0.07-0.536 0.08-0.605 0.301l-0.382 1.143 1.071 0.355 0.234-0.711c0.056-0.18 0.078-0.287-0.188-0.412l0.036-0.098c0.14 0.061 0.269 0.121 0.415 0.168 0.155 0.053 0.295 0.082 0.444 0.116l-0.033 0.097c-0.287-0.055-0.334 0.041-0.394 0.223l-0.235 0.709 1.262 0.416 0.351-1.061c0.136-0.418 0.109-0.627-0.313-0.867l0.03-0.096c0.266 0.117 0.53 0.225 0.802 0.321l-0.839 2.543-0.067-0.026c0.034-0.205 0.014-0.279-0.127-0.324l-2.609-0.861"/>
   <path id="Fill-12" d="m34.953 23.224c-0.145-0.01-0.19 0.052-0.234 0.255l-0.073-0.003 0.078-1.524c0.032-0.701 0.41-0.932 0.844-0.91 0.536 0.027 0.829 0.494 0.847 1.004l1.3-0.907c0.207-0.148 0.346-0.273 0.368-0.427l0.076 0.004c-0.006 0.097-0.042 0.184-0.046 0.275-0.007 0.135 0.017 0.273 0.011 0.405-0.018 0.056-0.105 0.105-0.72 0.503l-0.944 0.635c-0.087 0.059-0.137 0.098-0.159 0.094-0.03 0-0.049-0.059-0.049-0.1 0.029-0.549-0.178-0.943-0.642-0.964-0.499-0.028-0.593 0.415-0.617 0.857l-0.013 0.285 2.778 0.139c0.145 0.007 0.192-0.055 0.232-0.258l0.074 0.006c-0.004 0.107-0.046 0.322-0.058 0.523-0.008 0.199 0.013 0.416 0.006 0.528l-0.074-0.004c-0.022-0.205-0.058-0.272-0.208-0.28l-2.777-0.136"/>
   <path id="Fill-13" d="m36.915 18.642c0.469-0.231 0.644-0.668 0.534-1.172-0.078-0.375-0.373-0.76-0.832-0.66-0.411 0.087-0.44 0.353-0.436 0.723 0.016 0.923-0.041 1.437-0.669 1.573-0.51 0.108-1.069-0.332-1.246-1.161-0.049-0.214-0.087-0.68-0.014-0.889 0.236-0.045 0.476-0.109 0.71-0.176l0.022 0.104c-0.432 0.168-0.492 0.623-0.415 0.982 0.121 0.555 0.445 0.781 0.771 0.713 0.371-0.082 0.385-0.291 0.377-0.952-0.01-0.671 0.012-1.189 0.696-1.339 0.572-0.119 1.149 0.205 1.356 1.164 0.069 0.32 0.077 0.656-0.042 0.99-0.264 0.057-0.525 0.123-0.79 0.203l-0.022-0.103"/>
   <path id="Fill-14" d="m36.587 14.121c-0.11-0.175-0.177-0.216-0.312-0.156l-2.563 1.155c-0.134 0.06-0.147 0.133-0.091 0.336l-0.068 0.027c-0.045-0.098-0.107-0.308-0.188-0.491-0.083-0.182-0.198-0.366-0.243-0.467l0.067-0.031c0.114 0.177 0.176 0.216 0.311 0.154l2.563-1.153c0.134-0.062 0.148-0.135 0.09-0.334l0.071-0.032c0.043 0.099 0.104 0.311 0.186 0.494 0.081 0.183 0.2 0.367 0.244 0.467l-0.067 0.031"/>
   <path id="Fill-15" d="m32.154 12.253l0.292 0.386c0.176 0.235 0.342 0.297 0.775 0.088l0.062 0.082c-0.251 0.145-0.498 0.291-0.737 0.453l-1.567-2.077c0.222-0.187 0.431-0.382 0.639-0.587l0.062 0.084c-0.32 0.361-0.307 0.535-0.129 0.769l0.292 0.388 2.152-1.622c0.14-0.11 0.18-0.214 0.044-0.447l0.058-0.045c0.123 0.164 0.236 0.362 0.329 0.49 0.097 0.125 0.257 0.289 0.381 0.451l-0.059 0.045c-0.186-0.195-0.299-0.189-0.444-0.082l-2.15 1.624"/>
   <path id="Fill-16" d="m30.11 9.798c-0.033 0.171-0.033 0.281 0.095 0.423l-0.048 0.059c-0.143-0.121-0.266-0.26-0.41-0.379-0.138-0.113-0.298-0.204-0.438-0.318l0.046-0.057c0.132 0.102 0.213 0.128 0.27 0.061 0.031-0.039 0.057-0.095 0.078-0.199l0.336-1.536-1.41 0.667c-0.081 0.041-0.117 0.084-0.143 0.114-0.058 0.068-0.023 0.146 0.108 0.267l-0.046 0.057c-0.108-0.088-0.248-0.244-0.38-0.352-0.098-0.078-0.216-0.138-0.345-0.243l0.048-0.057c0.159 0.119 0.271 0.093 0.528-0.021l1.682-0.758 0.599-0.728c0.114-0.14 0.128-0.252-0.062-0.445l0.048-0.06c0.157 0.132 0.313 0.3 0.437 0.401 0.119 0.1 0.318 0.219 0.474 0.348l-0.047 0.06c-0.228-0.148-0.336-0.114-0.45 0.023l-0.599 0.732-0.371 1.941"/>
   <path id="Fill-20" d="m63.438 22.028h4.706v-1.408h-4.706v1.408zm0 3.534h4.706v-1.414h-4.706v1.414zm-8.458 0h4.701v-1.414h-4.701v1.414zm0-3.534h4.701v-1.408h-4.701v1.408zm18.8-4.696v-3.058h-10.341v-2.112h-3.757v2.112h-10.116v3.058h10.116v0.704h-8.231v10.11h5.603c-0.946 0.88-2.055 1.763-2.956 2.375-2.686 1.823-4.532 2.097-4.532 2.097v3.744s2.162-0.144 5.842-2.236c2.545-1.451 4.27-3.564 4.27-3.564l0.004-0.002v5.808h3.757v-6.072l0.232 0.266s1.724 2.113 4.27 3.564c3.678 2.092 5.839 2.236 5.839 2.236v-3.744s-1.842-0.274-4.527-2.097c-0.905-0.612-2.058-1.506-2.959-2.375h5.14v-10.11h-7.995v-0.704h10.341z"/>
   <polyline id="Fill-21" points="81.546 18.091 81.546 14.729 76.377 13.089 76.377 16.452 81.546 18.091"/>
   <polyline id="Fill-22" points="81.546 23.491 81.546 20.128 76.377 18.489 76.377 21.851 81.546 23.491"/>
   <path id="Fill-23" d="m81.039 32.899c0.318-0.765 0.507-2.351 0.507-3.88v-3.227l-3.63-1.086v4.846c0 1.908-0.774 2.658-1.11 2.939-0.353 0.295-0.892 0.787-0.892 0.787l1.896 3.266s2.525-1.939 3.229-3.645"/>
   <polyline id="Fill-24" points="98.825 19.679 98.825 16.392 95.548 16.392 95.552 16.392 96.939 12.162 93.393 12.162 92.007 16.392 92.011 16.392 89.184 16.392 87.796 12.162 84.251 12.162 85.637 16.392 82.365 16.392 82.365 19.679 88.71 19.679 88.71 21.798 82.839 21.798 82.839 25.087 88.71 25.087 88.71 27.204 82.365 27.204 82.365 30.491 88.71 30.491 88.71 36.368 92.471 36.368 92.471 30.491 98.825 30.491 98.825 27.204 92.471 27.204 92.471 25.087 98.348 25.087 98.348 21.798 92.471 21.798 92.471 19.679 98.825 19.679"/>
   <path id="Fill-25" d="m123.61 21.094v-3.53h-8.87v-5.402h-4.34v5.402h-8.88v3.53h8.52v0.018c-1.05 5.784-5.72 9.827-8.52 11.155v4.101c3.56-1.412 9.03-5.752 11.05-10.871 3.22 7.026 7.81 9.365 11.04 10.871v-4.101c-2.82-1.561-7.33-5.315-8.51-11.132v-0.041h8.51"/>
   <polyline id="Fill-26" points="145.55 16.388 145.02 16.388 147 12.162 143.24 12.162 141.26 16.388 139.37 16.388 137.72 12.162 133.96 12.162 135.61 16.388 133.73 16.388 132.08 12.162 128.32 12.162 129.97 16.388 126.21 16.388 126.21 23.667 129.42 23.667 129.42 19.679 145.55 19.679 145.55 23.667 148.78 23.667 148.78 16.388 145.55 16.388"/>
   <path id="Fill-27" d="m140.63 26.249c-0.12-0.248-0.2-0.387-0.2-0.387l4.35-2.195v-3.291h-14.58v3.291h7.33l-1.92 1.404s0.41 0.465 0.85 1.178h-10.25v3.285h11.31c-0.02 0.393-0.11 0.961-0.3 1.332-0.97 1.973-4.66 1.975-4.66 1.975v3.513s5.89 0.411 7.85-3.195c0.72-1.32 1-2.527 0.98-3.625h7.39v-3.285h-8.15"/>
   <path id="Path" d="m12.51 2.912c2.225-1.081 5.59-2.33 9.987-2.812-0.123 0.292-0.391 1.248-0.695 1.661-0.524 0.72-0.786 1.179-2.503 2.11-0.693 0.38-1.422 1.29-1.884 2.376-0.725 1.688-1.233 2.021-2.752 2.948-1.43 0.873-1.917 2.232-2.121 3.093-0.003 0.018-0.003 0.036-0.007 0.057-0.237 1.584 0.301 3.564 3.38 4.051 1.925 0.302 3.68 0.255 5.404 1.043l-0.015 0.021c2.767 1.188 4.049 4.23 3.517 7.004-0.653 3.402-4.467 5.367-8.213 4.829-1.377-0.196-2.594-0.687-3.548-1.45-1.828-1.379-3.843-4.012-5.178-6.32-0.958-1.809-2.318-2.356-3.537-1.797-1.022 0.507-1.608 1.474-2.05 2.448-0.233 0.515-0.393 0.897-0.724 1.274-0.268 0.297-0.688 0.567-0.809 0.639-0.103 0.074-0.705 0.307-0.71 0.262-0.045-0.646-0.06-1.295-0.048-1.953 0.178-8.56 4.99-15.691 12.506-19.484z"/>
   <path id="Path" d="m1.982 6.402c0.858-1.208 1.91-1.996 2.583-1.995 0.143 0 0.269 0.035 0.372 0.108 0.591 0.423 0.229 1.949-0.813 3.411-1.042 1.461-2.367 2.307-2.959 1.885-0.59-0.421-0.225-1.949 0.817-3.409z"/>
  </g>
 </g>
</svg>
