<?xml version="1.0" encoding="UTF-8" standalone="no"?>
<svg xmlns="http://www.w3.org/2000/svg" height="24px" width="160px" version="1.1" xmlns:xlink="http://www.w3.org/1999/xlink" viewBox="0 0 160 24"><!-- Generator: Sketch 42 (36781) - http://www.bohemiancoding.com/sketch -->
 <title>Group 25</title>
 <desc>Created with Sketch.</desc>
 <g id="Page-1" fill-rule="evenodd" fill="none">
  <g id="who_we_are" fill="#303030" transform="translate(-940 -2272)">
   <g id="Group-25" transform="translate(940 2272)">
    <path id="Shape" d="m138.58 15.678h1.87v-1.702h-1.87v1.702zm0 7.907h1.87v-7.066h-1.87v7.066z"/>
    <path id="Shape" d="m147.94 16.928c0.46 0.382 0.69 1.015 0.69 1.9v4.758h-1.89v-4.299c0-0.371-0.05-0.654-0.15-0.854-0.18-0.363-0.52-0.544-1.03-0.544-0.62 0-1.05 0.264-1.28 0.797-0.12 0.282-0.18 0.639-0.18 1.076v3.825l-1.85-0.002v-7.049h1.79v1.029c0.24-0.363 0.46-0.626 0.67-0.784 0.38-0.286 0.86-0.427 1.44-0.427 0.73 0 1.32 0.191 1.79 0.574zm6.63 2.126c-0.03-0.263-0.12-0.5-0.26-0.712-0.21-0.286-0.53-0.427-0.97-0.427-0.62 0-1.05 0.308-1.28 0.926-0.12 0.328-0.18 0.763-0.18 1.307 0 0.517 0.06 0.934 0.18 1.245 0.22 0.589 0.64 0.881 1.25 0.881 0.43 0 0.74-0.116 0.92-0.349s0.29-0.536 0.33-0.906h1.89c-0.04 0.562-0.25 1.091-0.61 1.592-0.58 0.809-1.44 1.214-2.58 1.214s-1.97-0.339-2.51-1.011c-0.54-0.674-0.8-1.548-0.8-2.621 0-1.213 0.29-2.157 0.89-2.831 0.59-0.672 1.4-1.01 2.45-1.01 0.88 0 1.61 0.198 2.17 0.595 0.57 0.398 0.9 1.099 1.01 2.105h-1.9v0.002z"/>
    <path id="Shape" d="m157.7 23.586h1.96v-1.939h-1.96v1.939zm-129.72-9.37v-2.138h1.613v-4.3124h2.997v4.3124h1.876v2.138h-1.876v6.151c0 0.476 0.061 0.774 0.182 0.893 0.118 0.115 0.484 0.174 1.101 0.174 0.092 0 0.188-0.004 0.291-0.01 0.101-0.004 0.203-0.014 0.302-0.028v2.27l-1.435 0.074c-1.429 0.051-2.405-0.199-2.929-0.748-0.343-0.349-0.51-0.885-0.51-1.611v-7.165h-1.612zm10.797 5.642c0.063 0.541 0.203 0.926 0.416 1.153 0.376 0.408 1.074 0.61 2.093 0.61 0.596 0 1.07-0.088 1.423-0.266 0.352-0.179 0.531-0.447 0.531-0.802 0-0.337-0.147-0.598-0.433-0.778-0.286-0.175-1.342-0.479-3.165-0.906-1.314-0.325-2.239-0.733-2.778-1.22-0.538-0.481-0.806-1.173-0.806-2.079 0-1.067 0.42-1.985 1.262-2.753 0.839-0.767 2.022-1.15 3.546-1.15 1.449 0 2.628 0.288 3.539 0.865 0.913 0.577 1.436 1.576 1.571 2.996h-3.036c-0.044-0.389-0.154-0.696-0.33-0.921-0.331-0.411-0.895-0.617-1.694-0.617-0.655 0-1.123 0.104-1.403 0.309-0.279 0.203-0.418 0.443-0.418 0.719 0 0.346 0.15 0.597 0.443 0.753 0.296 0.163 1.35 0.441 3.158 0.834 1.204 0.281 2.105 0.709 2.708 1.281 0.595 0.581 0.891 1.309 0.891 2.177 0 1.149-0.427 2.085-1.283 2.81-0.858 0.727-2.177 1.09-3.965 1.09-1.824 0-3.17-0.385-4.039-1.157-0.872-0.771-1.305-1.754-1.305-2.948h3.074zm12.792-7.893v7.001c0 0.658 0.076 1.156 0.229 1.489 0.277 0.591 0.815 0.884 1.618 0.884 1.028 0 1.733-0.417 2.112-1.257 0.197-0.453 0.298-1.054 0.298-1.799v-6.318h3.073v11.606h-2.945v-1.635c-0.027 0.035-0.099 0.143-0.212 0.318-0.114 0.179-0.248 0.336-0.403 0.47-0.473 0.425-0.932 0.718-1.373 0.877-0.442 0.152-0.96 0.233-1.553 0.233-1.712 0-2.865-0.617-3.458-1.858-0.333-0.679-0.499-1.685-0.499-3.013v-6.998h3.113zm10.248-4.0126h2.984v8.4416l3.801-4.373h3.76l-4.138 4.324 4.299 7.226h-3.674l-2.799-4.959-1.249 1.31v3.649h-2.984v-15.619zm15.173 4.0126v7.001c0 0.658 0.078 1.156 0.231 1.489 0.277 0.591 0.813 0.884 1.617 0.884 1.027 0 1.731-0.417 2.111-1.257 0.198-0.453 0.298-1.054 0.298-1.799v-6.318h3.073v11.606h-2.944v-1.635c-0.028 0.035-0.099 0.143-0.21 0.318-0.115 0.179-0.252 0.336-0.404 0.47-0.475 0.425-0.934 0.718-1.375 0.877-0.439 0.152-0.959 0.233-1.552 0.233-1.712 0-2.867-0.617-3.459-1.858-0.333-0.679-0.496-1.685-0.496-3.013v-6.998h3.111-0.001zm16.698-0.257c0.039 0.002 0.126 0.01 0.262 0.013v3.113c-0.192-0.022-0.362-0.038-0.509-0.046-0.151-0.007-0.268-0.011-0.363-0.011-1.215 0-2.035 0.396-2.453 1.192-0.234 0.445-0.349 1.133-0.349 2.06v5.542h-3.036v-11.606h2.868v2.03c0.468-0.772 0.876-1.297 1.225-1.58 0.565-0.475 1.305-0.712 2.212-0.712 0.06 0 0.106 0 0.143 0.003v0.002zm5.085 0.257v7.001c0 0.658 0.076 1.156 0.23 1.489 0.276 0.591 0.812 0.884 1.622 0.884 1.02 0 1.73-0.417 2.1-1.257 0.2-0.453 0.3-1.054 0.3-1.799v-6.318h3.08v11.606h-2.95v-1.635c-0.02 0.035-0.09 0.143-0.21 0.318-0.11 0.179-0.25 0.336-0.4 0.47-0.47 0.425-0.93 0.718-1.38 0.877-0.44 0.152-0.95 0.233-1.547 0.233-1.714 0-2.865-0.617-3.458-1.858-0.336-0.679-0.5-1.685-0.5-3.013v-6.998h3.113zm17.642 8.45c0.43-0.63 0.65-1.458 0.65-2.484 0-0.82-0.11-1.499-0.32-2.036-0.4-1.02-1.15-1.529-2.24-1.529-1.1 0-1.86 0.499-2.28 1.497-0.21 0.53-0.31 1.214-0.31 2.056 0 0.991 0.22 1.81 0.66 2.463 0.44 0.65 1.11 0.976 2.02 0.976 0.78 0 1.39-0.315 1.82-0.944v0.001zm2.54-7.045c0.86 1.096 1.3 2.513 1.3 4.251 0 1.799-0.43 3.291-1.28 4.475-0.85 1.181-2.05 1.774-3.58 1.774-0.96 0-1.73-0.192-2.31-0.575-0.35-0.227-0.73-0.627-1.13-1.196v1.472h-3.01v-15.656h3.04v5.569c0.39-0.538 0.81-0.948 1.27-1.231 0.55-0.354 1.25-0.531 2.1-0.531 1.53 0 2.73 0.55 3.6 1.648zm9.85 4.566c-0.19 0.122-0.39 0.219-0.59 0.292s-0.47 0.144-0.81 0.207l-0.69 0.13c-0.65 0.111-1.12 0.25-1.4 0.414-0.48 0.277-0.72 0.705-0.72 1.285 0 0.52 0.15 0.894 0.44 1.124 0.29 0.228 0.65 0.345 1.06 0.345 0.67 0 1.28-0.191 1.84-0.575 0.56-0.381 0.85-1.08 0.87-2.095v-1.129 0.002zm-1.86-1.415c0.57-0.072 0.97-0.158 1.22-0.268 0.43-0.183 0.65-0.471 0.65-0.859 0-0.471-0.16-0.8-0.5-0.983-0.34-0.182-0.83-0.271-1.48-0.271-0.73 0-1.24 0.178-1.54 0.532-0.22 0.259-0.36 0.614-0.43 1.061h-2.93c0.07-1.011 0.35-1.846 0.86-2.498 0.8-1.022 2.19-1.531 4.15-1.531 1.28 0 2.41 0.252 3.4 0.755 0.99 0.504 1.49 1.457 1.49 2.849v5.312c0 0.37 0.01 0.814 0.02 1.338 0.02 0.399 0.08 0.668 0.18 0.812 0.1 0.142 0.24 0.257 0.44 0.352v0.449h-3.29c-0.09-0.233-0.15-0.453-0.19-0.658-0.03-0.207-0.06-0.44-0.08-0.703-0.42 0.455-0.91 0.839-1.46 1.157-0.66 0.373-1.41 0.56-2.23 0.56-1.06 0-1.94-0.3-2.63-0.897-0.69-0.6-1.03-1.448-1.03-2.546 0-1.424 0.55-2.453 1.66-3.092 0.61-0.349 1.5-0.597 2.68-0.744l1.04-0.128v0.001zm-126.16-4.509h9.5542l-9.5542 9.605 0.00002-9.605zm9.5752-0.526h-9.5752l0.00002-9.3862 9.5752 9.3862zm-10.363-11.266v23.312l11.736-11.805-11.736-11.508v0.00059zm12.452 12.081l-4.3838 4.272h8.6468l-4.263-4.272zm4.772 4.798h-9.5513l-6.5032 6.445 22.62 0.016-6.566-6.461z"/>
   </g>
  </g>
 </g>
</svg>
